G04 EAGLE Gerber RS-274X export*
G75*
%MOMM*%
%FSLAX34Y34*%
%LPD*%
%INCopper Layer 2*%
%IPPOS*%
%AMOC8*
5,1,8,0,0,1.08239X$1,22.5*%
G01*
%ADD10C,0.750000*%
%ADD11C,0.457200*%
%ADD12C,0.352400*%
%ADD13C,0.127000*%

G36*
X41756Y-8011D02*
X41756Y-8011D01*
X41845Y-8008D01*
X41866Y-7999D01*
X41890Y-7997D01*
X41970Y-7957D01*
X42052Y-7924D01*
X42070Y-7908D01*
X42091Y-7897D01*
X42152Y-7833D01*
X42218Y-7772D01*
X42229Y-7751D01*
X42245Y-7734D01*
X42280Y-7652D01*
X42321Y-7573D01*
X42324Y-7547D01*
X42333Y-7527D01*
X42335Y-7480D01*
X42341Y-7460D01*
X42341Y-7438D01*
X42348Y-7387D01*
X42348Y4459D01*
X42341Y4501D01*
X42343Y4543D01*
X42321Y4611D01*
X42309Y4680D01*
X42287Y4717D01*
X42274Y4757D01*
X42220Y4830D01*
X42194Y4873D01*
X42178Y4887D01*
X42162Y4908D01*
X41221Y5849D01*
X41221Y8151D01*
X42849Y9779D01*
X45151Y9779D01*
X46779Y8151D01*
X46779Y5849D01*
X45838Y4908D01*
X45813Y4873D01*
X45782Y4844D01*
X45750Y4781D01*
X45709Y4724D01*
X45699Y4682D01*
X45679Y4645D01*
X45666Y4555D01*
X45653Y4506D01*
X45656Y4486D01*
X45652Y4459D01*
X45652Y-7387D01*
X45664Y-7456D01*
X45665Y-7497D01*
X45671Y-7512D01*
X45677Y-7564D01*
X45687Y-7585D01*
X45691Y-7608D01*
X45737Y-7685D01*
X45776Y-7765D01*
X45793Y-7781D01*
X45806Y-7801D01*
X45875Y-7857D01*
X45939Y-7919D01*
X45961Y-7928D01*
X45980Y-7943D01*
X46064Y-7971D01*
X46146Y-8006D01*
X46170Y-8007D01*
X46192Y-8015D01*
X46281Y-8012D01*
X46370Y-8016D01*
X46393Y-8009D01*
X46417Y-8008D01*
X46499Y-7975D01*
X46584Y-7947D01*
X46605Y-7932D01*
X46624Y-7924D01*
X46662Y-7890D01*
X46713Y-7852D01*
X46721Y-7847D01*
X46723Y-7844D01*
X46734Y-7836D01*
X46849Y-7721D01*
X49127Y-7721D01*
X49192Y-7710D01*
X49258Y-7708D01*
X49301Y-7690D01*
X49348Y-7682D01*
X49405Y-7648D01*
X49465Y-7623D01*
X49500Y-7592D01*
X49541Y-7567D01*
X49583Y-7516D01*
X49631Y-7472D01*
X49653Y-7430D01*
X49682Y-7393D01*
X49703Y-7331D01*
X49734Y-7272D01*
X49742Y-7218D01*
X49754Y-7181D01*
X49753Y-7141D01*
X49761Y-7087D01*
X49761Y5046D01*
X49754Y5088D01*
X49756Y5130D01*
X49734Y5198D01*
X49722Y5267D01*
X49700Y5304D01*
X49687Y5344D01*
X49633Y5417D01*
X49607Y5460D01*
X49591Y5474D01*
X49575Y5495D01*
X49221Y5849D01*
X49221Y8151D01*
X50849Y9779D01*
X53151Y9779D01*
X54551Y8378D01*
X54605Y8341D01*
X54653Y8295D01*
X54697Y8277D01*
X54736Y8250D01*
X54799Y8234D01*
X54860Y8208D01*
X54907Y8206D01*
X54953Y8194D01*
X55018Y8201D01*
X55084Y8198D01*
X55129Y8213D01*
X55176Y8217D01*
X55235Y8247D01*
X55298Y8267D01*
X55342Y8299D01*
X55377Y8317D01*
X55404Y8345D01*
X55448Y8378D01*
X56209Y9139D01*
X56260Y9212D01*
X56316Y9281D01*
X56323Y9303D01*
X56337Y9323D01*
X56359Y9409D01*
X56388Y9493D01*
X56387Y9517D01*
X56393Y9540D01*
X56384Y9629D01*
X56381Y9718D01*
X56372Y9740D01*
X56370Y9763D01*
X56330Y9843D01*
X56297Y9925D01*
X56281Y9943D01*
X56270Y9964D01*
X56205Y10025D01*
X56145Y10091D01*
X56124Y10102D01*
X56107Y10118D01*
X56025Y10153D01*
X55946Y10194D01*
X55920Y10197D01*
X55900Y10206D01*
X55850Y10208D01*
X55760Y10221D01*
X54849Y10221D01*
X53221Y11849D01*
X53221Y14151D01*
X54849Y15779D01*
X57151Y15779D01*
X58779Y14151D01*
X58779Y11849D01*
X57791Y10861D01*
X57740Y10788D01*
X57684Y10719D01*
X57677Y10697D01*
X57663Y10677D01*
X57641Y10591D01*
X57612Y10507D01*
X57613Y10483D01*
X57607Y10460D01*
X57616Y10371D01*
X57619Y10282D01*
X57628Y10260D01*
X57630Y10237D01*
X57670Y10157D01*
X57703Y10075D01*
X57719Y10057D01*
X57730Y10036D01*
X57795Y9975D01*
X57855Y9909D01*
X57876Y9898D01*
X57893Y9882D01*
X57975Y9847D01*
X58054Y9806D01*
X58080Y9803D01*
X58100Y9794D01*
X58150Y9792D01*
X58240Y9779D01*
X59151Y9779D01*
X60551Y8378D01*
X60606Y8341D01*
X60653Y8295D01*
X60697Y8277D01*
X60736Y8250D01*
X60799Y8234D01*
X60860Y8208D01*
X60907Y8206D01*
X60953Y8194D01*
X61018Y8201D01*
X61084Y8198D01*
X61129Y8213D01*
X61176Y8217D01*
X61235Y8247D01*
X61298Y8267D01*
X61342Y8299D01*
X61377Y8317D01*
X61404Y8346D01*
X61448Y8378D01*
X62849Y9779D01*
X65151Y9779D01*
X65266Y9664D01*
X65339Y9613D01*
X65408Y9557D01*
X65430Y9550D01*
X65450Y9536D01*
X65536Y9514D01*
X65620Y9485D01*
X65644Y9486D01*
X65667Y9480D01*
X65756Y9489D01*
X65845Y9492D01*
X65866Y9501D01*
X65890Y9503D01*
X65970Y9543D01*
X66052Y9576D01*
X66070Y9592D01*
X66091Y9603D01*
X66152Y9667D01*
X66218Y9728D01*
X66229Y9749D01*
X66245Y9766D01*
X66280Y9848D01*
X66321Y9927D01*
X66324Y9953D01*
X66333Y9973D01*
X66335Y10023D01*
X66348Y10113D01*
X66348Y11553D01*
X66341Y11595D01*
X66343Y11637D01*
X66321Y11704D01*
X66309Y11774D01*
X66287Y11810D01*
X66274Y11851D01*
X66220Y11924D01*
X66194Y11967D01*
X66178Y11980D01*
X66162Y12002D01*
X50629Y27535D01*
X50594Y27560D01*
X50565Y27591D01*
X50502Y27623D01*
X50444Y27664D01*
X50403Y27674D01*
X50365Y27694D01*
X50276Y27707D01*
X50227Y27720D01*
X50206Y27717D01*
X50180Y27721D01*
X48849Y27721D01*
X47449Y29122D01*
X47394Y29159D01*
X47347Y29205D01*
X47303Y29223D01*
X47264Y29250D01*
X47201Y29266D01*
X47140Y29292D01*
X47093Y29294D01*
X47047Y29306D01*
X46982Y29299D01*
X46916Y29302D01*
X46871Y29287D01*
X46824Y29283D01*
X46765Y29253D01*
X46702Y29233D01*
X46658Y29201D01*
X46623Y29183D01*
X46596Y29154D01*
X46552Y29122D01*
X45151Y27721D01*
X42849Y27721D01*
X41221Y29349D01*
X41221Y31651D01*
X42162Y32592D01*
X42187Y32627D01*
X42218Y32656D01*
X42250Y32719D01*
X42291Y32776D01*
X42301Y32818D01*
X42321Y32855D01*
X42334Y32945D01*
X42347Y32994D01*
X42344Y33014D01*
X42348Y33041D01*
X42348Y35933D01*
X43242Y36827D01*
X43266Y36862D01*
X43298Y36891D01*
X43330Y36954D01*
X43370Y37012D01*
X43381Y37053D01*
X43400Y37090D01*
X43414Y37180D01*
X43426Y37229D01*
X43424Y37250D01*
X43428Y37276D01*
X43428Y39348D01*
X45363Y41283D01*
X46060Y41283D01*
X46147Y41298D01*
X46236Y41308D01*
X46257Y41318D01*
X46280Y41322D01*
X46357Y41368D01*
X46437Y41407D01*
X46453Y41424D01*
X46474Y41436D01*
X46530Y41506D01*
X46591Y41570D01*
X46600Y41592D01*
X46615Y41611D01*
X46644Y41695D01*
X46678Y41777D01*
X46679Y41801D01*
X46687Y41823D01*
X46684Y41912D01*
X46688Y42001D01*
X46681Y42024D01*
X46680Y42047D01*
X46647Y42130D01*
X46620Y42215D01*
X46604Y42236D01*
X46596Y42255D01*
X46562Y42293D01*
X46508Y42365D01*
X45039Y43834D01*
X45039Y46570D01*
X46489Y48020D01*
X46540Y48093D01*
X46596Y48162D01*
X46603Y48185D01*
X46617Y48204D01*
X46639Y48290D01*
X46667Y48375D01*
X46667Y48398D01*
X46673Y48421D01*
X46663Y48510D01*
X46661Y48599D01*
X46652Y48621D01*
X46649Y48645D01*
X46610Y48725D01*
X46577Y48807D01*
X46561Y48824D01*
X46550Y48846D01*
X46485Y48907D01*
X46425Y48973D01*
X46404Y48983D01*
X46387Y49000D01*
X46305Y49034D01*
X46226Y49075D01*
X46199Y49079D01*
X46180Y49087D01*
X46130Y49089D01*
X46040Y49103D01*
X45836Y49103D01*
X45794Y49095D01*
X45752Y49097D01*
X45684Y49076D01*
X45615Y49063D01*
X45578Y49041D01*
X45538Y49028D01*
X45465Y48975D01*
X45422Y48949D01*
X45408Y48933D01*
X45407Y48932D01*
X45401Y48928D01*
X45398Y48925D01*
X45387Y48917D01*
X37838Y41367D01*
X37813Y41332D01*
X37782Y41304D01*
X37750Y41241D01*
X37709Y41183D01*
X37699Y41142D01*
X37679Y41104D01*
X37666Y41014D01*
X37653Y40966D01*
X37656Y40945D01*
X37652Y40919D01*
X37652Y33041D01*
X37659Y32999D01*
X37657Y32957D01*
X37679Y32889D01*
X37691Y32820D01*
X37713Y32783D01*
X37726Y32743D01*
X37780Y32670D01*
X37806Y32627D01*
X37822Y32613D01*
X37838Y32592D01*
X38779Y31651D01*
X38779Y29349D01*
X37151Y27721D01*
X34849Y27721D01*
X33221Y29349D01*
X33221Y31651D01*
X34162Y32592D01*
X34187Y32627D01*
X34218Y32656D01*
X34250Y32719D01*
X34291Y32776D01*
X34301Y32818D01*
X34321Y32855D01*
X34334Y32945D01*
X34347Y32994D01*
X34344Y33014D01*
X34348Y33041D01*
X34348Y38701D01*
X34333Y38789D01*
X34323Y38877D01*
X34313Y38899D01*
X34309Y38922D01*
X34263Y38999D01*
X34224Y39078D01*
X34207Y39095D01*
X34194Y39115D01*
X34125Y39171D01*
X34061Y39232D01*
X34039Y39242D01*
X34020Y39257D01*
X33936Y39285D01*
X33854Y39320D01*
X33830Y39321D01*
X33808Y39328D01*
X33719Y39326D01*
X33630Y39330D01*
X33607Y39323D01*
X33583Y39322D01*
X33501Y39288D01*
X33416Y39261D01*
X33395Y39245D01*
X33376Y39238D01*
X33338Y39204D01*
X33266Y39150D01*
X32378Y38262D01*
X29838Y35722D01*
X29813Y35687D01*
X29782Y35658D01*
X29750Y35595D01*
X29709Y35537D01*
X29699Y35496D01*
X29679Y35458D01*
X29666Y35369D01*
X29653Y35320D01*
X29656Y35299D01*
X29652Y35273D01*
X29652Y33041D01*
X29659Y32999D01*
X29657Y32957D01*
X29679Y32889D01*
X29691Y32820D01*
X29713Y32783D01*
X29726Y32743D01*
X29780Y32670D01*
X29806Y32627D01*
X29822Y32613D01*
X29838Y32592D01*
X30779Y31651D01*
X30779Y29349D01*
X29151Y27721D01*
X26849Y27721D01*
X25221Y29349D01*
X25221Y31651D01*
X26162Y32592D01*
X26187Y32627D01*
X26218Y32656D01*
X26250Y32719D01*
X26291Y32776D01*
X26301Y32818D01*
X26321Y32855D01*
X26334Y32945D01*
X26347Y32994D01*
X26344Y33014D01*
X26348Y33041D01*
X26348Y36904D01*
X30042Y40598D01*
X30067Y40633D01*
X30098Y40662D01*
X30130Y40725D01*
X30171Y40783D01*
X30181Y40824D01*
X30201Y40862D01*
X30214Y40951D01*
X30227Y41000D01*
X30224Y41021D01*
X30228Y41047D01*
X30228Y46036D01*
X31820Y47628D01*
X31844Y47663D01*
X31876Y47692D01*
X31908Y47754D01*
X31948Y47812D01*
X31959Y47853D01*
X31978Y47891D01*
X31991Y47981D01*
X32004Y48030D01*
X32002Y48050D01*
X32006Y48077D01*
X32006Y50149D01*
X33729Y51872D01*
X33767Y51926D01*
X33812Y51974D01*
X33830Y52018D01*
X33857Y52057D01*
X33874Y52120D01*
X33900Y52181D01*
X33902Y52228D01*
X33913Y52274D01*
X33907Y52339D01*
X33910Y52405D01*
X33895Y52450D01*
X33890Y52497D01*
X33861Y52556D01*
X33841Y52619D01*
X33808Y52663D01*
X33791Y52698D01*
X33762Y52725D01*
X33729Y52769D01*
X31693Y54806D01*
X31693Y57542D01*
X32430Y58280D01*
X32481Y58353D01*
X32537Y58422D01*
X32545Y58444D01*
X32558Y58464D01*
X32581Y58550D01*
X32609Y58634D01*
X32608Y58658D01*
X32614Y58681D01*
X32605Y58770D01*
X32603Y58859D01*
X32594Y58881D01*
X32591Y58904D01*
X32552Y58984D01*
X32518Y59067D01*
X32502Y59084D01*
X32492Y59105D01*
X32427Y59167D01*
X32367Y59232D01*
X32346Y59243D01*
X32328Y59259D01*
X32246Y59294D01*
X32167Y59335D01*
X32141Y59339D01*
X32122Y59347D01*
X32071Y59349D01*
X31982Y59362D01*
X30686Y59362D01*
X30645Y59355D01*
X30602Y59357D01*
X30535Y59335D01*
X30466Y59323D01*
X30429Y59301D01*
X30389Y59288D01*
X30316Y59234D01*
X30272Y59209D01*
X30259Y59192D01*
X30238Y59177D01*
X29838Y58776D01*
X29813Y58741D01*
X29782Y58713D01*
X29750Y58650D01*
X29709Y58592D01*
X29699Y58551D01*
X29679Y58513D01*
X29666Y58423D01*
X29653Y58375D01*
X29656Y58354D01*
X29652Y58328D01*
X29652Y50411D01*
X21838Y42597D01*
X21813Y42562D01*
X21782Y42533D01*
X21750Y42470D01*
X21709Y42412D01*
X21699Y42371D01*
X21679Y42333D01*
X21666Y42244D01*
X21653Y42195D01*
X21656Y42174D01*
X21652Y42148D01*
X21652Y33041D01*
X21659Y32999D01*
X21657Y32957D01*
X21679Y32889D01*
X21691Y32820D01*
X21713Y32783D01*
X21726Y32743D01*
X21780Y32670D01*
X21806Y32627D01*
X21822Y32613D01*
X21838Y32592D01*
X22779Y31651D01*
X22779Y29349D01*
X21151Y27721D01*
X18849Y27721D01*
X17221Y29349D01*
X17221Y31651D01*
X18162Y32592D01*
X18187Y32627D01*
X18218Y32656D01*
X18250Y32719D01*
X18291Y32776D01*
X18301Y32818D01*
X18321Y32855D01*
X18334Y32945D01*
X18347Y32994D01*
X18344Y33014D01*
X18348Y33041D01*
X18348Y41638D01*
X18332Y41726D01*
X18323Y41814D01*
X18313Y41836D01*
X18309Y41859D01*
X18263Y41936D01*
X18224Y42015D01*
X18207Y42032D01*
X18194Y42052D01*
X18125Y42108D01*
X18061Y42169D01*
X18039Y42179D01*
X18020Y42194D01*
X17936Y42222D01*
X17854Y42257D01*
X17830Y42258D01*
X17808Y42265D01*
X17719Y42263D01*
X17630Y42267D01*
X17607Y42260D01*
X17583Y42259D01*
X17501Y42225D01*
X17416Y42198D01*
X17395Y42182D01*
X17376Y42175D01*
X17338Y42141D01*
X17266Y42087D01*
X13837Y38659D01*
X13813Y38624D01*
X13782Y38595D01*
X13750Y38532D01*
X13709Y38474D01*
X13699Y38433D01*
X13679Y38395D01*
X13666Y38306D01*
X13653Y38257D01*
X13656Y38236D01*
X13652Y38210D01*
X13652Y33041D01*
X13659Y32999D01*
X13657Y32956D01*
X13679Y32889D01*
X13691Y32820D01*
X13713Y32783D01*
X13726Y32743D01*
X13780Y32670D01*
X13806Y32627D01*
X13822Y32613D01*
X13838Y32592D01*
X14779Y31651D01*
X14779Y29349D01*
X13151Y27721D01*
X10849Y27721D01*
X9221Y29349D01*
X9221Y31651D01*
X10162Y32592D01*
X10187Y32627D01*
X10218Y32656D01*
X10250Y32719D01*
X10291Y32776D01*
X10301Y32817D01*
X10321Y32855D01*
X10334Y32945D01*
X10347Y32994D01*
X10344Y33014D01*
X10348Y33041D01*
X10348Y39444D01*
X10332Y39531D01*
X10323Y39620D01*
X10313Y39641D01*
X10309Y39664D01*
X10263Y39741D01*
X10224Y39821D01*
X10207Y39837D01*
X10194Y39858D01*
X10125Y39914D01*
X10061Y39975D01*
X10039Y39984D01*
X10020Y39999D01*
X9936Y40027D01*
X9854Y40062D01*
X9830Y40063D01*
X9808Y40071D01*
X9719Y40068D01*
X9630Y40072D01*
X9607Y40065D01*
X9583Y40064D01*
X9501Y40031D01*
X9416Y40004D01*
X9395Y39988D01*
X9376Y39980D01*
X9338Y39946D01*
X9266Y39892D01*
X5837Y36464D01*
X5813Y36429D01*
X5782Y36400D01*
X5750Y36338D01*
X5709Y36280D01*
X5699Y36239D01*
X5679Y36201D01*
X5666Y36111D01*
X5653Y36063D01*
X5656Y36042D01*
X5652Y36016D01*
X5652Y33041D01*
X5659Y32999D01*
X5657Y32956D01*
X5679Y32889D01*
X5691Y32820D01*
X5713Y32783D01*
X5726Y32743D01*
X5780Y32670D01*
X5806Y32627D01*
X5822Y32613D01*
X5838Y32592D01*
X6779Y31651D01*
X6779Y29349D01*
X5151Y27721D01*
X2849Y27721D01*
X1221Y29349D01*
X1221Y31651D01*
X2162Y32592D01*
X2187Y32627D01*
X2218Y32656D01*
X2250Y32719D01*
X2291Y32776D01*
X2301Y32817D01*
X2321Y32855D01*
X2334Y32945D01*
X2347Y32994D01*
X2344Y33014D01*
X2348Y33041D01*
X2348Y37647D01*
X12264Y47563D01*
X12289Y47598D01*
X12320Y47626D01*
X12352Y47689D01*
X12393Y47747D01*
X12403Y47788D01*
X12423Y47826D01*
X12436Y47916D01*
X12448Y47964D01*
X12446Y47985D01*
X12450Y48011D01*
X12450Y65373D01*
X12443Y65414D01*
X12445Y65457D01*
X12423Y65524D01*
X12411Y65593D01*
X12389Y65630D01*
X12376Y65670D01*
X12322Y65743D01*
X12296Y65787D01*
X12280Y65800D01*
X12264Y65821D01*
X10799Y67286D01*
X10799Y68851D01*
X10783Y68939D01*
X10774Y69027D01*
X10764Y69049D01*
X10760Y69072D01*
X10714Y69149D01*
X10675Y69228D01*
X10658Y69245D01*
X10645Y69265D01*
X10576Y69321D01*
X10512Y69382D01*
X10490Y69392D01*
X10471Y69406D01*
X10387Y69435D01*
X10305Y69470D01*
X10281Y69471D01*
X10259Y69478D01*
X10170Y69476D01*
X10081Y69480D01*
X10058Y69472D01*
X10034Y69472D01*
X9952Y69438D01*
X9867Y69411D01*
X9846Y69395D01*
X9827Y69387D01*
X9789Y69353D01*
X9716Y69300D01*
X8746Y68329D01*
X6724Y68329D01*
X6708Y68326D01*
X6693Y68328D01*
X6598Y68306D01*
X6503Y68289D01*
X6490Y68281D01*
X6474Y68278D01*
X6393Y68224D01*
X6310Y68175D01*
X6300Y68163D01*
X6287Y68154D01*
X6229Y68076D01*
X6168Y68001D01*
X6163Y67986D01*
X6154Y67974D01*
X6127Y67880D01*
X6096Y67788D01*
X6097Y67773D01*
X6093Y67758D01*
X6102Y67571D01*
X6165Y67249D01*
X1249Y67249D01*
X1249Y72165D01*
X1835Y72049D01*
X2980Y71575D01*
X3088Y71502D01*
X3113Y71491D01*
X3134Y71474D01*
X3215Y71447D01*
X3294Y71413D01*
X3321Y71411D01*
X3347Y71402D01*
X3432Y71405D01*
X3518Y71400D01*
X3544Y71408D01*
X3571Y71409D01*
X3650Y71441D01*
X3732Y71466D01*
X3754Y71483D01*
X3779Y71493D01*
X3842Y71551D01*
X3910Y71603D01*
X3925Y71626D01*
X3945Y71645D01*
X3984Y71721D01*
X4029Y71793D01*
X4035Y71820D01*
X4047Y71844D01*
X4066Y71974D01*
X4075Y72013D01*
X4073Y72020D01*
X4075Y72030D01*
X4075Y72999D01*
X6010Y74934D01*
X8746Y74934D01*
X10680Y72999D01*
X10680Y71435D01*
X10696Y71347D01*
X10705Y71259D01*
X10716Y71237D01*
X10720Y71214D01*
X10765Y71137D01*
X10805Y71057D01*
X10822Y71041D01*
X10834Y71021D01*
X10903Y70965D01*
X10968Y70904D01*
X10990Y70894D01*
X11008Y70879D01*
X11093Y70851D01*
X11175Y70816D01*
X11198Y70815D01*
X11221Y70807D01*
X11310Y70810D01*
X11399Y70806D01*
X11421Y70813D01*
X11445Y70814D01*
X11528Y70847D01*
X11612Y70875D01*
X11634Y70890D01*
X11653Y70898D01*
X11690Y70932D01*
X11763Y70986D01*
X12734Y71957D01*
X15470Y71957D01*
X17405Y70022D01*
X17405Y67254D01*
X17416Y67190D01*
X17418Y67124D01*
X17436Y67080D01*
X17444Y67034D01*
X17478Y66977D01*
X17503Y66916D01*
X17534Y66881D01*
X17558Y66840D01*
X17610Y66799D01*
X17654Y66750D01*
X17696Y66729D01*
X17733Y66699D01*
X17795Y66678D01*
X17854Y66648D01*
X17908Y66640D01*
X17945Y66627D01*
X17985Y66628D01*
X18039Y66620D01*
X20632Y66620D01*
X21280Y65972D01*
X21353Y65921D01*
X21423Y65865D01*
X21445Y65857D01*
X21465Y65844D01*
X21551Y65822D01*
X21635Y65793D01*
X21659Y65794D01*
X21682Y65788D01*
X21770Y65797D01*
X21859Y65800D01*
X21881Y65809D01*
X21905Y65811D01*
X21985Y65851D01*
X22067Y65884D01*
X22085Y65900D01*
X22106Y65911D01*
X22167Y65975D01*
X22233Y66035D01*
X22244Y66056D01*
X22260Y66074D01*
X22295Y66156D01*
X22335Y66235D01*
X22339Y66261D01*
X22347Y66280D01*
X22350Y66331D01*
X22363Y66420D01*
X22363Y68649D01*
X24298Y70584D01*
X27034Y70584D01*
X28969Y68649D01*
X28969Y66445D01*
X28984Y66357D01*
X28993Y66269D01*
X29004Y66248D01*
X29008Y66224D01*
X29054Y66148D01*
X29093Y66068D01*
X29110Y66052D01*
X29122Y66031D01*
X29191Y65975D01*
X29256Y65914D01*
X29278Y65905D01*
X29297Y65890D01*
X29381Y65861D01*
X29463Y65826D01*
X29487Y65825D01*
X29509Y65818D01*
X29598Y65820D01*
X29687Y65816D01*
X29710Y65824D01*
X29733Y65824D01*
X29816Y65858D01*
X29901Y65885D01*
X29922Y65901D01*
X29941Y65909D01*
X29978Y65943D01*
X30012Y65968D01*
X32759Y65968D01*
X34693Y64033D01*
X34693Y61297D01*
X33956Y60559D01*
X33905Y60486D01*
X33849Y60417D01*
X33841Y60395D01*
X33828Y60375D01*
X33805Y60289D01*
X33777Y60205D01*
X33777Y60181D01*
X33772Y60158D01*
X33781Y60069D01*
X33783Y59980D01*
X33792Y59958D01*
X33795Y59935D01*
X33834Y59855D01*
X33868Y59773D01*
X33884Y59755D01*
X33894Y59734D01*
X33959Y59673D01*
X34019Y59607D01*
X34040Y59596D01*
X34057Y59580D01*
X34140Y59545D01*
X34219Y59504D01*
X34245Y59501D01*
X34264Y59492D01*
X34315Y59490D01*
X34404Y59477D01*
X36363Y59477D01*
X37819Y58021D01*
X37893Y57970D01*
X37962Y57914D01*
X37984Y57906D01*
X38004Y57893D01*
X38090Y57870D01*
X38174Y57842D01*
X38198Y57843D01*
X38221Y57837D01*
X38309Y57846D01*
X38398Y57849D01*
X38420Y57857D01*
X38444Y57860D01*
X38524Y57899D01*
X38606Y57933D01*
X38624Y57949D01*
X38645Y57959D01*
X38706Y58024D01*
X38772Y58084D01*
X38783Y58105D01*
X38799Y58123D01*
X38834Y58205D01*
X38874Y58284D01*
X38878Y58310D01*
X38887Y58329D01*
X38889Y58380D01*
X38902Y58469D01*
X38902Y59714D01*
X40837Y61649D01*
X43573Y61649D01*
X45508Y59714D01*
X45508Y56978D01*
X45321Y56791D01*
X45270Y56718D01*
X45214Y56649D01*
X45206Y56626D01*
X45193Y56607D01*
X45170Y56520D01*
X45142Y56436D01*
X45143Y56412D01*
X45137Y56389D01*
X45146Y56301D01*
X45149Y56212D01*
X45157Y56190D01*
X45160Y56166D01*
X45200Y56086D01*
X45233Y56004D01*
X45249Y55986D01*
X45259Y55965D01*
X45324Y55904D01*
X45384Y55838D01*
X45405Y55828D01*
X45423Y55811D01*
X45505Y55777D01*
X45584Y55736D01*
X45610Y55732D01*
X45629Y55724D01*
X45680Y55722D01*
X45769Y55708D01*
X47908Y55708D01*
X49843Y53774D01*
X49843Y51037D01*
X48393Y49588D01*
X48342Y49515D01*
X48286Y49446D01*
X48279Y49423D01*
X48265Y49404D01*
X48243Y49317D01*
X48214Y49233D01*
X48215Y49209D01*
X48209Y49186D01*
X48218Y49098D01*
X48221Y49009D01*
X48230Y48987D01*
X48232Y48963D01*
X48272Y48883D01*
X48305Y48801D01*
X48321Y48783D01*
X48332Y48762D01*
X48397Y48701D01*
X48457Y48635D01*
X48478Y48624D01*
X48495Y48608D01*
X48577Y48574D01*
X48656Y48533D01*
X48682Y48529D01*
X48702Y48521D01*
X48752Y48519D01*
X48842Y48505D01*
X49710Y48505D01*
X50113Y48102D01*
X50176Y48058D01*
X50234Y48007D01*
X50268Y47995D01*
X50297Y47974D01*
X50372Y47955D01*
X50444Y47928D01*
X50480Y47927D01*
X50514Y47918D01*
X50591Y47926D01*
X50669Y47926D01*
X50702Y47938D01*
X50737Y47942D01*
X50807Y47976D01*
X50879Y48002D01*
X50907Y48025D01*
X50938Y48041D01*
X50991Y48097D01*
X51051Y48148D01*
X51071Y48182D01*
X51092Y48204D01*
X51110Y48247D01*
X51147Y48308D01*
X51425Y48980D01*
X52114Y50010D01*
X52990Y50886D01*
X54020Y51575D01*
X55165Y52049D01*
X56047Y52224D01*
X56086Y52240D01*
X56127Y52246D01*
X56189Y52280D01*
X56255Y52306D01*
X56287Y52334D01*
X56324Y52355D01*
X56370Y52409D01*
X56423Y52456D01*
X56442Y52493D01*
X56470Y52525D01*
X56494Y52592D01*
X56527Y52654D01*
X56533Y52696D01*
X56547Y52735D01*
X56547Y52806D01*
X56556Y52877D01*
X56547Y52918D01*
X56547Y52960D01*
X56522Y53026D01*
X56506Y53096D01*
X56483Y53131D01*
X56468Y53170D01*
X56411Y53241D01*
X56383Y53283D01*
X56366Y53295D01*
X56350Y53315D01*
X46178Y62582D01*
X46136Y62608D01*
X46072Y62660D01*
X32260Y70769D01*
X32213Y70786D01*
X32140Y70823D01*
X16951Y75905D01*
X16911Y75911D01*
X16855Y75929D01*
X9751Y77125D01*
X9708Y77125D01*
X9646Y77134D01*
X-9646Y77134D01*
X-9688Y77127D01*
X-9751Y77125D01*
X-16855Y75929D01*
X-16894Y75915D01*
X-16951Y75905D01*
X-32140Y70823D01*
X-32183Y70799D01*
X-32260Y70769D01*
X-46072Y62660D01*
X-46109Y62628D01*
X-46178Y62582D01*
X-58017Y51796D01*
X-58048Y51757D01*
X-58105Y51698D01*
X-59492Y49772D01*
X-59508Y49737D01*
X-59533Y49707D01*
X-59557Y49637D01*
X-59589Y49569D01*
X-59592Y49531D01*
X-59605Y49495D01*
X-59602Y49420D01*
X-59609Y49346D01*
X-59599Y49309D01*
X-59598Y49270D01*
X-59570Y49201D01*
X-59550Y49129D01*
X-59528Y49098D01*
X-59514Y49063D01*
X-59463Y49007D01*
X-59420Y48947D01*
X-59388Y48925D01*
X-59362Y48897D01*
X-59296Y48863D01*
X-59234Y48821D01*
X-59197Y48812D01*
X-59163Y48794D01*
X-59065Y48780D01*
X-59016Y48768D01*
X-58999Y48770D01*
X-58977Y48767D01*
X-57526Y48767D01*
X-54733Y45974D01*
X-54733Y42401D01*
X-54722Y42336D01*
X-54720Y42270D01*
X-54702Y42227D01*
X-54694Y42180D01*
X-54660Y42123D01*
X-54635Y42063D01*
X-54604Y42028D01*
X-54579Y41987D01*
X-54528Y41945D01*
X-54484Y41897D01*
X-54442Y41875D01*
X-54405Y41846D01*
X-54343Y41825D01*
X-54284Y41794D01*
X-54230Y41786D01*
X-54193Y41774D01*
X-54153Y41775D01*
X-54099Y41767D01*
X-52226Y41767D01*
X-50369Y39910D01*
X-50315Y39872D01*
X-50267Y39827D01*
X-50223Y39809D01*
X-50184Y39782D01*
X-50121Y39765D01*
X-50060Y39740D01*
X-50013Y39738D01*
X-49967Y39726D01*
X-49902Y39733D01*
X-49836Y39730D01*
X-49791Y39744D01*
X-49744Y39749D01*
X-49685Y39778D01*
X-49622Y39798D01*
X-49578Y39831D01*
X-49543Y39848D01*
X-49516Y39877D01*
X-49472Y39910D01*
X-48564Y40817D01*
X-48514Y40890D01*
X-48458Y40959D01*
X-48450Y40982D01*
X-48436Y41001D01*
X-48414Y41087D01*
X-48386Y41172D01*
X-48386Y41195D01*
X-48380Y41218D01*
X-48390Y41307D01*
X-48392Y41396D01*
X-48401Y41418D01*
X-48404Y41442D01*
X-48443Y41522D01*
X-48477Y41604D01*
X-48493Y41621D01*
X-48503Y41643D01*
X-48568Y41704D01*
X-48628Y41770D01*
X-48649Y41780D01*
X-48666Y41797D01*
X-48748Y41831D01*
X-48828Y41872D01*
X-48854Y41876D01*
X-48873Y41884D01*
X-48923Y41886D01*
X-49013Y41900D01*
X-49710Y41900D01*
X-51645Y43834D01*
X-51645Y46571D01*
X-49710Y48505D01*
X-48842Y48505D01*
X-48754Y48521D01*
X-48665Y48530D01*
X-48644Y48541D01*
X-48621Y48545D01*
X-48544Y48590D01*
X-48464Y48630D01*
X-48448Y48647D01*
X-48428Y48659D01*
X-48371Y48728D01*
X-48310Y48793D01*
X-48301Y48815D01*
X-48286Y48833D01*
X-48258Y48917D01*
X-48223Y48999D01*
X-48222Y49023D01*
X-48214Y49046D01*
X-48217Y49135D01*
X-48213Y49224D01*
X-48220Y49246D01*
X-48221Y49270D01*
X-48254Y49352D01*
X-48282Y49437D01*
X-48297Y49458D01*
X-48305Y49478D01*
X-48339Y49515D01*
X-48393Y49588D01*
X-49843Y51037D01*
X-49843Y53774D01*
X-47908Y55708D01*
X-45769Y55708D01*
X-45682Y55724D01*
X-45593Y55733D01*
X-45572Y55744D01*
X-45548Y55748D01*
X-45472Y55793D01*
X-45392Y55833D01*
X-45376Y55850D01*
X-45355Y55862D01*
X-45299Y55931D01*
X-45238Y55996D01*
X-45229Y56018D01*
X-45214Y56036D01*
X-45185Y56120D01*
X-45151Y56203D01*
X-45150Y56226D01*
X-45142Y56249D01*
X-45145Y56338D01*
X-45141Y56427D01*
X-45148Y56449D01*
X-45149Y56473D01*
X-45182Y56555D01*
X-45209Y56640D01*
X-45225Y56662D01*
X-45233Y56681D01*
X-45267Y56718D01*
X-45321Y56791D01*
X-45508Y56978D01*
X-45508Y59714D01*
X-43573Y61649D01*
X-40837Y61649D01*
X-38902Y59714D01*
X-38902Y58469D01*
X-38886Y58381D01*
X-38877Y58293D01*
X-38867Y58272D01*
X-38862Y58248D01*
X-38817Y58172D01*
X-38778Y58092D01*
X-38760Y58076D01*
X-38748Y58055D01*
X-38679Y57999D01*
X-38614Y57938D01*
X-38593Y57929D01*
X-38574Y57914D01*
X-38490Y57885D01*
X-38408Y57851D01*
X-38384Y57850D01*
X-38362Y57842D01*
X-38273Y57845D01*
X-38184Y57841D01*
X-38161Y57848D01*
X-38137Y57849D01*
X-38055Y57882D01*
X-37970Y57909D01*
X-37949Y57925D01*
X-37929Y57933D01*
X-37892Y57967D01*
X-37819Y58021D01*
X-36363Y59477D01*
X-34404Y59477D01*
X-34316Y59492D01*
X-34228Y59502D01*
X-34207Y59512D01*
X-34183Y59516D01*
X-34106Y59562D01*
X-34027Y59601D01*
X-34011Y59618D01*
X-33990Y59631D01*
X-33934Y59700D01*
X-33873Y59764D01*
X-33864Y59786D01*
X-33849Y59805D01*
X-33820Y59889D01*
X-33785Y59971D01*
X-33784Y59995D01*
X-33777Y60017D01*
X-33779Y60106D01*
X-33775Y60195D01*
X-33783Y60218D01*
X-33783Y60242D01*
X-33817Y60324D01*
X-33844Y60409D01*
X-33860Y60430D01*
X-33868Y60449D01*
X-33902Y60487D01*
X-33956Y60559D01*
X-34693Y61297D01*
X-34693Y64033D01*
X-32759Y65968D01*
X-30010Y65968D01*
X-29978Y65946D01*
X-29909Y65890D01*
X-29887Y65882D01*
X-29867Y65869D01*
X-29781Y65846D01*
X-29696Y65818D01*
X-29673Y65819D01*
X-29650Y65813D01*
X-29561Y65822D01*
X-29472Y65824D01*
X-29450Y65833D01*
X-29427Y65836D01*
X-29347Y65875D01*
X-29264Y65909D01*
X-29247Y65925D01*
X-29226Y65935D01*
X-29164Y66000D01*
X-29099Y66060D01*
X-29088Y66081D01*
X-29072Y66098D01*
X-29037Y66180D01*
X-28996Y66260D01*
X-28992Y66286D01*
X-28984Y66305D01*
X-28982Y66355D01*
X-28969Y66445D01*
X-28969Y68649D01*
X-27034Y70584D01*
X-24298Y70584D01*
X-22363Y68649D01*
X-22363Y66420D01*
X-22347Y66333D01*
X-22338Y66244D01*
X-22328Y66223D01*
X-22323Y66200D01*
X-22278Y66123D01*
X-22239Y66043D01*
X-22221Y66027D01*
X-22209Y66006D01*
X-22140Y65950D01*
X-22075Y65889D01*
X-22053Y65880D01*
X-22035Y65865D01*
X-21951Y65836D01*
X-21869Y65802D01*
X-21845Y65801D01*
X-21823Y65793D01*
X-21734Y65796D01*
X-21645Y65792D01*
X-21622Y65799D01*
X-21598Y65800D01*
X-21516Y65833D01*
X-21431Y65860D01*
X-21410Y65876D01*
X-21390Y65884D01*
X-21353Y65918D01*
X-21280Y65972D01*
X-20632Y66620D01*
X-18039Y66620D01*
X-17974Y66632D01*
X-17908Y66634D01*
X-17865Y66651D01*
X-17818Y66660D01*
X-17761Y66693D01*
X-17700Y66718D01*
X-17666Y66750D01*
X-17625Y66774D01*
X-17583Y66825D01*
X-17535Y66869D01*
X-17513Y66911D01*
X-17484Y66948D01*
X-17462Y67010D01*
X-17432Y67069D01*
X-17424Y67123D01*
X-17412Y67161D01*
X-17413Y67200D01*
X-17405Y67254D01*
X-17405Y70022D01*
X-15470Y71957D01*
X-12734Y71957D01*
X-11763Y70986D01*
X-11690Y70935D01*
X-11621Y70879D01*
X-11598Y70872D01*
X-11579Y70858D01*
X-11493Y70836D01*
X-11408Y70807D01*
X-11385Y70808D01*
X-11362Y70802D01*
X-11273Y70811D01*
X-11184Y70814D01*
X-11162Y70823D01*
X-11138Y70825D01*
X-11059Y70865D01*
X-10976Y70898D01*
X-10959Y70914D01*
X-10937Y70925D01*
X-10876Y70990D01*
X-10811Y71050D01*
X-10800Y71071D01*
X-10783Y71088D01*
X-10749Y71170D01*
X-10708Y71249D01*
X-10704Y71275D01*
X-10696Y71295D01*
X-10694Y71345D01*
X-10680Y71435D01*
X-10680Y72999D01*
X-8746Y74934D01*
X-6010Y74934D01*
X-4075Y72999D01*
X-4075Y72030D01*
X-4070Y72003D01*
X-4073Y71976D01*
X-4050Y71893D01*
X-4035Y71809D01*
X-4021Y71785D01*
X-4014Y71759D01*
X-3965Y71689D01*
X-3921Y71616D01*
X-3900Y71598D01*
X-3884Y71576D01*
X-3813Y71528D01*
X-3747Y71474D01*
X-3721Y71465D01*
X-3698Y71450D01*
X-3615Y71430D01*
X-3534Y71402D01*
X-3507Y71403D01*
X-3481Y71397D01*
X-3395Y71406D01*
X-3310Y71409D01*
X-3285Y71419D01*
X-3258Y71422D01*
X-3139Y71478D01*
X-3102Y71493D01*
X-3097Y71498D01*
X-3088Y71502D01*
X-2980Y71575D01*
X-1835Y72049D01*
X-1249Y72165D01*
X-1249Y66615D01*
X-1238Y66550D01*
X-1236Y66485D01*
X-1218Y66441D01*
X-1210Y66394D01*
X-1176Y66338D01*
X-1151Y66277D01*
X-1120Y66242D01*
X-1095Y66201D01*
X-1044Y66160D01*
X-1000Y66111D01*
X-958Y66090D01*
X-921Y66060D01*
X-859Y66039D01*
X-800Y66009D01*
X-755Y66002D01*
X-789Y65988D01*
X-836Y65979D01*
X-893Y65946D01*
X-953Y65921D01*
X-988Y65889D01*
X-1029Y65865D01*
X-1071Y65814D01*
X-1119Y65770D01*
X-1141Y65728D01*
X-1170Y65691D01*
X-1191Y65629D01*
X-1222Y65570D01*
X-1230Y65516D01*
X-1242Y65479D01*
X-1241Y65439D01*
X-1249Y65385D01*
X-1249Y59835D01*
X-1835Y59951D01*
X-2980Y60425D01*
X-4010Y61114D01*
X-4886Y61990D01*
X-5575Y63020D01*
X-6057Y64184D01*
X-6059Y64204D01*
X-6097Y64281D01*
X-6128Y64360D01*
X-6146Y64380D01*
X-6158Y64405D01*
X-6221Y64464D01*
X-6278Y64527D01*
X-6302Y64540D01*
X-6322Y64559D01*
X-6400Y64592D01*
X-6476Y64632D01*
X-6503Y64636D01*
X-6528Y64646D01*
X-6614Y64650D01*
X-6698Y64661D01*
X-6725Y64655D01*
X-6753Y64656D01*
X-6834Y64630D01*
X-6917Y64611D01*
X-6940Y64596D01*
X-6966Y64588D01*
X-7070Y64511D01*
X-7105Y64488D01*
X-7109Y64482D01*
X-7117Y64476D01*
X-8080Y63513D01*
X-8104Y63478D01*
X-8136Y63449D01*
X-8168Y63387D01*
X-8208Y63329D01*
X-8219Y63288D01*
X-8238Y63250D01*
X-8252Y63160D01*
X-8264Y63112D01*
X-8262Y63091D01*
X-8266Y63065D01*
X-8266Y54203D01*
X-8248Y54104D01*
X-8234Y54004D01*
X-8228Y53993D01*
X-8226Y53982D01*
X-8175Y53895D01*
X-8127Y53807D01*
X-8118Y53799D01*
X-8112Y53789D01*
X-8034Y53725D01*
X-7958Y53659D01*
X-7947Y53655D01*
X-7938Y53647D01*
X-7843Y53615D01*
X-7748Y53579D01*
X-7737Y53579D01*
X-7725Y53575D01*
X-7625Y53578D01*
X-7524Y53578D01*
X-7513Y53582D01*
X-7501Y53582D01*
X-7408Y53619D01*
X-7313Y53654D01*
X-7304Y53662D01*
X-7293Y53666D01*
X-7219Y53734D01*
X-7142Y53799D01*
X-7135Y53810D01*
X-7128Y53818D01*
X-7107Y53859D01*
X-7046Y53960D01*
X-6803Y54546D01*
X-4546Y56803D01*
X-1596Y58025D01*
X1596Y58025D01*
X4546Y56803D01*
X6803Y54546D01*
X8025Y51596D01*
X8025Y48404D01*
X6803Y45454D01*
X4546Y43197D01*
X1596Y41975D01*
X-1596Y41975D01*
X-4546Y43197D01*
X-6803Y45454D01*
X-7046Y46040D01*
X-7100Y46125D01*
X-7151Y46211D01*
X-7160Y46219D01*
X-7167Y46229D01*
X-7247Y46290D01*
X-7325Y46353D01*
X-7337Y46357D01*
X-7346Y46364D01*
X-7443Y46392D01*
X-7538Y46425D01*
X-7550Y46424D01*
X-7561Y46428D01*
X-7662Y46421D01*
X-7762Y46418D01*
X-7773Y46414D01*
X-7785Y46413D01*
X-7877Y46372D01*
X-7970Y46334D01*
X-7979Y46326D01*
X-7990Y46321D01*
X-8061Y46250D01*
X-8136Y46182D01*
X-8141Y46172D01*
X-8150Y46163D01*
X-8192Y46072D01*
X-8238Y45983D01*
X-8240Y45970D01*
X-8245Y45960D01*
X-8248Y45915D01*
X-8266Y45797D01*
X-8266Y44544D01*
X-8258Y44503D01*
X-8260Y44460D01*
X-8239Y44393D01*
X-8226Y44324D01*
X-8205Y44287D01*
X-8192Y44247D01*
X-8138Y44174D01*
X-8112Y44130D01*
X-8096Y44117D01*
X-8080Y44096D01*
X-2348Y38364D01*
X-2348Y33041D01*
X-2341Y32999D01*
X-2343Y32957D01*
X-2321Y32889D01*
X-2309Y32820D01*
X-2287Y32783D01*
X-2274Y32743D01*
X-2220Y32670D01*
X-2194Y32627D01*
X-2178Y32613D01*
X-2162Y32592D01*
X-1221Y31651D01*
X-1221Y29349D01*
X-2849Y27721D01*
X-5151Y27721D01*
X-6779Y29349D01*
X-6779Y31651D01*
X-5838Y32592D01*
X-5813Y32627D01*
X-5782Y32656D01*
X-5750Y32719D01*
X-5709Y32776D01*
X-5699Y32818D01*
X-5679Y32855D01*
X-5666Y32945D01*
X-5653Y32994D01*
X-5656Y33014D01*
X-5652Y33041D01*
X-5652Y36733D01*
X-5659Y36775D01*
X-5657Y36817D01*
X-5679Y36884D01*
X-5691Y36954D01*
X-5713Y36990D01*
X-5726Y37031D01*
X-5780Y37104D01*
X-5806Y37147D01*
X-5822Y37160D01*
X-5838Y37182D01*
X-11569Y42913D01*
X-11569Y64696D01*
X-9215Y67050D01*
X-9191Y67085D01*
X-9160Y67113D01*
X-9127Y67176D01*
X-9087Y67234D01*
X-9076Y67275D01*
X-9057Y67313D01*
X-9044Y67403D01*
X-9031Y67451D01*
X-9033Y67472D01*
X-9029Y67498D01*
X-9029Y68350D01*
X-9037Y68391D01*
X-9035Y68434D01*
X-9057Y68501D01*
X-9069Y68570D01*
X-9091Y68607D01*
X-9104Y68647D01*
X-9157Y68720D01*
X-9183Y68764D01*
X-9199Y68777D01*
X-9215Y68798D01*
X-9716Y69300D01*
X-9790Y69350D01*
X-9859Y69406D01*
X-9881Y69414D01*
X-9901Y69428D01*
X-9987Y69450D01*
X-10071Y69478D01*
X-10095Y69478D01*
X-10118Y69484D01*
X-10207Y69474D01*
X-10296Y69472D01*
X-10317Y69463D01*
X-10341Y69460D01*
X-10421Y69421D01*
X-10503Y69387D01*
X-10521Y69371D01*
X-10542Y69361D01*
X-10603Y69296D01*
X-10669Y69236D01*
X-10680Y69215D01*
X-10696Y69198D01*
X-10731Y69116D01*
X-10772Y69036D01*
X-10775Y69010D01*
X-10784Y68991D01*
X-10786Y68941D01*
X-10799Y68851D01*
X-10799Y67286D01*
X-12734Y65352D01*
X-15327Y65352D01*
X-15392Y65340D01*
X-15458Y65338D01*
X-15501Y65320D01*
X-15548Y65312D01*
X-15605Y65278D01*
X-15666Y65254D01*
X-15700Y65222D01*
X-15741Y65198D01*
X-15783Y65147D01*
X-15831Y65102D01*
X-15853Y65060D01*
X-15882Y65024D01*
X-15904Y64961D01*
X-15934Y64903D01*
X-15942Y64848D01*
X-15954Y64811D01*
X-15953Y64772D01*
X-15961Y64717D01*
X-15961Y62613D01*
X-15954Y62571D01*
X-15956Y62529D01*
X-15934Y62462D01*
X-15922Y62392D01*
X-15900Y62356D01*
X-15887Y62315D01*
X-15833Y62243D01*
X-15808Y62199D01*
X-15791Y62186D01*
X-15776Y62165D01*
X-13523Y59913D01*
X-13523Y39702D01*
X-13516Y39660D01*
X-13518Y39618D01*
X-13496Y39551D01*
X-13484Y39481D01*
X-13462Y39445D01*
X-13449Y39404D01*
X-13395Y39331D01*
X-13369Y39288D01*
X-13353Y39275D01*
X-13337Y39253D01*
X-10348Y36264D01*
X-10348Y33041D01*
X-10341Y32999D01*
X-10343Y32957D01*
X-10321Y32889D01*
X-10309Y32820D01*
X-10287Y32783D01*
X-10274Y32743D01*
X-10220Y32670D01*
X-10194Y32627D01*
X-10178Y32613D01*
X-10162Y32592D01*
X-9221Y31651D01*
X-9221Y29349D01*
X-10849Y27721D01*
X-13151Y27721D01*
X-14779Y29349D01*
X-14779Y31651D01*
X-13838Y32592D01*
X-13813Y32627D01*
X-13782Y32656D01*
X-13750Y32719D01*
X-13709Y32776D01*
X-13699Y32818D01*
X-13679Y32855D01*
X-13666Y32945D01*
X-13653Y32994D01*
X-13656Y33014D01*
X-13652Y33041D01*
X-13652Y34633D01*
X-13659Y34675D01*
X-13657Y34717D01*
X-13679Y34784D01*
X-13691Y34854D01*
X-13713Y34890D01*
X-13726Y34931D01*
X-13780Y35004D01*
X-13806Y35047D01*
X-13822Y35060D01*
X-13838Y35082D01*
X-16827Y38071D01*
X-16827Y58281D01*
X-16834Y58323D01*
X-16832Y58366D01*
X-16854Y58433D01*
X-16866Y58502D01*
X-16888Y58539D01*
X-16901Y58579D01*
X-16955Y58652D01*
X-16981Y58696D01*
X-16997Y58709D01*
X-17013Y58730D01*
X-18111Y59829D01*
X-18146Y59853D01*
X-18175Y59884D01*
X-18238Y59917D01*
X-18296Y59957D01*
X-18337Y59968D01*
X-18375Y59987D01*
X-18464Y60000D01*
X-18513Y60013D01*
X-18534Y60011D01*
X-18560Y60015D01*
X-19036Y60015D01*
X-19123Y59999D01*
X-19212Y59990D01*
X-19233Y59979D01*
X-19257Y59975D01*
X-19333Y59930D01*
X-19413Y59890D01*
X-19429Y59873D01*
X-19450Y59861D01*
X-19506Y59792D01*
X-19567Y59727D01*
X-19576Y59705D01*
X-19591Y59687D01*
X-19620Y59602D01*
X-19654Y59520D01*
X-19655Y59497D01*
X-19663Y59474D01*
X-19660Y59385D01*
X-19664Y59296D01*
X-19657Y59274D01*
X-19656Y59250D01*
X-19623Y59167D01*
X-19596Y59083D01*
X-19580Y59061D01*
X-19572Y59042D01*
X-19538Y59005D01*
X-19484Y58932D01*
X-18177Y57625D01*
X-18177Y54889D01*
X-20112Y52954D01*
X-22848Y52954D01*
X-22931Y53038D01*
X-23005Y53088D01*
X-23074Y53144D01*
X-23096Y53152D01*
X-23115Y53166D01*
X-23202Y53188D01*
X-23286Y53216D01*
X-23310Y53216D01*
X-23333Y53222D01*
X-23421Y53212D01*
X-23510Y53210D01*
X-23532Y53201D01*
X-23556Y53198D01*
X-23636Y53159D01*
X-23718Y53125D01*
X-23736Y53109D01*
X-23757Y53099D01*
X-23818Y53034D01*
X-23884Y52974D01*
X-23895Y52953D01*
X-23911Y52936D01*
X-23946Y52854D01*
X-23986Y52774D01*
X-23990Y52748D01*
X-23998Y52729D01*
X-24001Y52679D01*
X-24014Y52589D01*
X-24014Y51613D01*
X-24007Y51571D01*
X-24008Y51528D01*
X-24001Y51505D01*
X-24000Y51488D01*
X-23985Y51449D01*
X-23974Y51392D01*
X-23953Y51355D01*
X-23940Y51315D01*
X-23919Y51286D01*
X-23916Y51280D01*
X-23905Y51268D01*
X-23886Y51242D01*
X-23860Y51199D01*
X-23844Y51185D01*
X-23828Y51164D01*
X-18348Y45684D01*
X-18348Y33041D01*
X-18341Y32999D01*
X-18343Y32957D01*
X-18321Y32889D01*
X-18309Y32820D01*
X-18287Y32783D01*
X-18274Y32743D01*
X-18220Y32670D01*
X-18194Y32627D01*
X-18178Y32613D01*
X-18162Y32592D01*
X-17221Y31651D01*
X-17221Y29349D01*
X-18849Y27721D01*
X-21151Y27721D01*
X-22779Y29349D01*
X-22779Y31651D01*
X-21838Y32592D01*
X-21813Y32627D01*
X-21782Y32656D01*
X-21750Y32719D01*
X-21709Y32776D01*
X-21699Y32818D01*
X-21679Y32855D01*
X-21666Y32945D01*
X-21653Y32994D01*
X-21656Y33014D01*
X-21652Y33041D01*
X-21652Y44053D01*
X-21659Y44095D01*
X-21657Y44137D01*
X-21679Y44204D01*
X-21691Y44274D01*
X-21713Y44310D01*
X-21726Y44351D01*
X-21780Y44424D01*
X-21806Y44467D01*
X-21822Y44480D01*
X-21837Y44502D01*
X-25266Y47930D01*
X-25339Y47981D01*
X-25408Y48037D01*
X-25430Y48044D01*
X-25450Y48058D01*
X-25536Y48080D01*
X-25620Y48108D01*
X-25644Y48108D01*
X-25667Y48114D01*
X-25756Y48104D01*
X-25845Y48102D01*
X-25867Y48093D01*
X-25890Y48090D01*
X-25970Y48051D01*
X-26052Y48018D01*
X-26070Y48002D01*
X-26091Y47991D01*
X-26152Y47926D01*
X-26218Y47866D01*
X-26229Y47845D01*
X-26245Y47828D01*
X-26280Y47746D01*
X-26321Y47667D01*
X-26324Y47640D01*
X-26333Y47621D01*
X-26335Y47571D01*
X-26348Y47481D01*
X-26348Y33041D01*
X-26341Y32999D01*
X-26343Y32957D01*
X-26321Y32889D01*
X-26309Y32820D01*
X-26287Y32783D01*
X-26274Y32743D01*
X-26220Y32670D01*
X-26194Y32627D01*
X-26178Y32613D01*
X-26162Y32592D01*
X-25221Y31651D01*
X-25221Y29349D01*
X-26849Y27721D01*
X-29151Y27721D01*
X-30779Y29349D01*
X-30779Y31651D01*
X-29838Y32592D01*
X-29813Y32627D01*
X-29782Y32656D01*
X-29750Y32719D01*
X-29709Y32776D01*
X-29699Y32818D01*
X-29679Y32855D01*
X-29666Y32945D01*
X-29653Y32994D01*
X-29656Y33014D01*
X-29652Y33041D01*
X-29652Y48232D01*
X-29659Y48274D01*
X-29657Y48316D01*
X-29679Y48383D01*
X-29691Y48453D01*
X-29713Y48489D01*
X-29726Y48530D01*
X-29780Y48602D01*
X-29806Y48646D01*
X-29822Y48659D01*
X-29837Y48680D01*
X-30923Y49766D01*
X-30996Y49817D01*
X-31065Y49873D01*
X-31088Y49880D01*
X-31107Y49894D01*
X-31193Y49916D01*
X-31278Y49944D01*
X-31301Y49944D01*
X-31324Y49950D01*
X-31413Y49940D01*
X-31502Y49938D01*
X-31524Y49929D01*
X-31548Y49926D01*
X-31628Y49887D01*
X-31710Y49854D01*
X-31727Y49838D01*
X-31749Y49827D01*
X-31810Y49762D01*
X-31876Y49702D01*
X-31886Y49681D01*
X-31903Y49664D01*
X-31937Y49582D01*
X-31978Y49503D01*
X-31982Y49476D01*
X-31990Y49457D01*
X-31992Y49407D01*
X-32006Y49317D01*
X-32006Y47413D01*
X-33940Y45478D01*
X-36611Y45478D01*
X-36699Y45462D01*
X-36787Y45453D01*
X-36808Y45442D01*
X-36832Y45438D01*
X-36908Y45393D01*
X-36988Y45353D01*
X-37004Y45336D01*
X-37025Y45324D01*
X-37081Y45255D01*
X-37142Y45190D01*
X-37151Y45168D01*
X-37166Y45150D01*
X-37195Y45066D01*
X-37229Y44984D01*
X-37230Y44960D01*
X-37238Y44937D01*
X-37235Y44848D01*
X-37239Y44759D01*
X-37232Y44737D01*
X-37231Y44713D01*
X-37198Y44631D01*
X-37171Y44546D01*
X-37155Y44524D01*
X-37147Y44505D01*
X-37113Y44468D01*
X-37059Y44395D01*
X-34348Y41684D01*
X-34348Y33041D01*
X-34341Y32999D01*
X-34343Y32957D01*
X-34321Y32889D01*
X-34309Y32820D01*
X-34287Y32783D01*
X-34274Y32743D01*
X-34220Y32670D01*
X-34194Y32627D01*
X-34178Y32613D01*
X-34162Y32592D01*
X-33221Y31651D01*
X-33221Y29349D01*
X-34849Y27721D01*
X-37151Y27721D01*
X-38779Y29349D01*
X-38779Y31854D01*
X-38794Y31942D01*
X-38804Y32030D01*
X-38814Y32052D01*
X-38818Y32075D01*
X-38864Y32152D01*
X-38903Y32231D01*
X-38920Y32248D01*
X-38933Y32268D01*
X-39002Y32324D01*
X-39066Y32385D01*
X-39088Y32395D01*
X-39107Y32410D01*
X-39191Y32438D01*
X-39273Y32473D01*
X-39297Y32474D01*
X-39319Y32481D01*
X-39408Y32479D01*
X-39497Y32483D01*
X-39520Y32476D01*
X-39544Y32475D01*
X-39626Y32441D01*
X-39711Y32414D01*
X-39732Y32398D01*
X-39751Y32391D01*
X-39789Y32357D01*
X-39861Y32303D01*
X-41010Y31154D01*
X-41035Y31129D01*
X-41060Y31094D01*
X-41091Y31065D01*
X-41115Y31018D01*
X-41134Y30995D01*
X-41139Y30979D01*
X-41164Y30944D01*
X-41174Y30903D01*
X-41194Y30865D01*
X-41206Y30782D01*
X-41207Y30776D01*
X-41220Y30727D01*
X-41217Y30706D01*
X-41221Y30680D01*
X-41221Y29349D01*
X-42849Y27721D01*
X-45151Y27721D01*
X-46779Y29349D01*
X-46779Y31651D01*
X-45151Y33279D01*
X-43820Y33279D01*
X-43778Y33286D01*
X-43736Y33284D01*
X-43669Y33306D01*
X-43599Y33318D01*
X-43563Y33340D01*
X-43522Y33353D01*
X-43449Y33407D01*
X-43406Y33433D01*
X-43393Y33449D01*
X-43371Y33465D01*
X-43346Y33490D01*
X-43321Y33525D01*
X-43290Y33554D01*
X-43258Y33617D01*
X-43217Y33675D01*
X-43207Y33716D01*
X-43187Y33754D01*
X-43174Y33843D01*
X-43161Y33892D01*
X-43164Y33913D01*
X-43160Y33939D01*
X-43160Y35349D01*
X-43175Y35437D01*
X-43185Y35525D01*
X-43195Y35546D01*
X-43199Y35570D01*
X-43245Y35647D01*
X-43284Y35726D01*
X-43301Y35743D01*
X-43314Y35763D01*
X-43383Y35819D01*
X-43447Y35880D01*
X-43469Y35889D01*
X-43488Y35904D01*
X-43572Y35933D01*
X-43654Y35968D01*
X-43678Y35969D01*
X-43700Y35976D01*
X-43789Y35974D01*
X-43878Y35978D01*
X-43901Y35970D01*
X-43925Y35970D01*
X-44007Y35936D01*
X-44092Y35909D01*
X-44113Y35893D01*
X-44132Y35885D01*
X-44170Y35851D01*
X-44242Y35797D01*
X-45363Y34677D01*
X-48099Y34677D01*
X-48492Y35070D01*
X-48546Y35108D01*
X-48594Y35153D01*
X-48637Y35171D01*
X-48676Y35198D01*
X-48740Y35215D01*
X-48800Y35240D01*
X-48847Y35242D01*
X-48893Y35254D01*
X-48959Y35247D01*
X-49024Y35250D01*
X-49069Y35236D01*
X-49116Y35231D01*
X-49175Y35202D01*
X-49238Y35182D01*
X-49282Y35149D01*
X-49317Y35132D01*
X-49345Y35103D01*
X-49389Y35070D01*
X-50097Y34361D01*
X-50148Y34288D01*
X-50204Y34219D01*
X-50212Y34197D01*
X-50225Y34177D01*
X-50248Y34091D01*
X-50276Y34007D01*
X-50275Y33983D01*
X-50281Y33960D01*
X-50272Y33871D01*
X-50270Y33782D01*
X-50261Y33760D01*
X-50258Y33737D01*
X-50219Y33657D01*
X-50185Y33575D01*
X-50169Y33557D01*
X-50159Y33536D01*
X-50094Y33475D01*
X-50034Y33409D01*
X-50013Y33398D01*
X-49995Y33382D01*
X-49920Y33350D01*
X-48221Y31651D01*
X-48221Y29349D01*
X-49849Y27721D01*
X-51180Y27721D01*
X-51222Y27714D01*
X-51264Y27716D01*
X-51331Y27694D01*
X-51401Y27682D01*
X-51437Y27660D01*
X-51478Y27647D01*
X-51551Y27593D01*
X-51594Y27567D01*
X-51607Y27551D01*
X-51629Y27535D01*
X-62669Y16495D01*
X-62706Y16441D01*
X-62751Y16393D01*
X-62770Y16350D01*
X-62797Y16311D01*
X-62813Y16247D01*
X-62839Y16187D01*
X-62841Y16140D01*
X-62853Y16094D01*
X-62846Y16028D01*
X-62849Y15963D01*
X-62834Y15918D01*
X-62830Y15871D01*
X-62800Y15812D01*
X-62780Y15749D01*
X-62748Y15705D01*
X-62730Y15670D01*
X-62701Y15643D01*
X-62669Y15598D01*
X-61221Y14151D01*
X-61221Y11849D01*
X-61622Y11449D01*
X-61659Y11394D01*
X-61705Y11347D01*
X-61723Y11303D01*
X-61750Y11264D01*
X-61766Y11201D01*
X-61792Y11140D01*
X-61794Y11093D01*
X-61806Y11047D01*
X-61799Y10982D01*
X-61802Y10916D01*
X-61787Y10871D01*
X-61783Y10824D01*
X-61753Y10765D01*
X-61733Y10702D01*
X-61701Y10658D01*
X-61683Y10623D01*
X-61655Y10596D01*
X-61622Y10552D01*
X-60449Y9378D01*
X-60394Y9341D01*
X-60347Y9295D01*
X-60303Y9277D01*
X-60264Y9250D01*
X-60201Y9234D01*
X-60140Y9208D01*
X-60093Y9206D01*
X-60047Y9194D01*
X-59982Y9201D01*
X-59916Y9198D01*
X-59871Y9213D01*
X-59824Y9217D01*
X-59765Y9247D01*
X-59702Y9267D01*
X-59658Y9299D01*
X-59623Y9317D01*
X-59596Y9346D01*
X-59552Y9378D01*
X-59151Y9779D01*
X-58240Y9779D01*
X-58152Y9794D01*
X-58063Y9804D01*
X-58042Y9814D01*
X-58019Y9818D01*
X-57942Y9864D01*
X-57862Y9903D01*
X-57846Y9920D01*
X-57826Y9933D01*
X-57769Y10002D01*
X-57708Y10066D01*
X-57699Y10088D01*
X-57684Y10107D01*
X-57656Y10191D01*
X-57621Y10273D01*
X-57620Y10297D01*
X-57612Y10319D01*
X-57615Y10408D01*
X-57611Y10497D01*
X-57618Y10520D01*
X-57619Y10544D01*
X-57652Y10626D01*
X-57680Y10711D01*
X-57695Y10732D01*
X-57703Y10751D01*
X-57737Y10789D01*
X-57791Y10861D01*
X-58779Y11849D01*
X-58779Y14151D01*
X-57151Y15779D01*
X-54849Y15779D01*
X-53221Y14151D01*
X-53221Y11849D01*
X-54849Y10221D01*
X-55760Y10221D01*
X-55848Y10205D01*
X-55937Y10196D01*
X-55958Y10186D01*
X-55981Y10182D01*
X-56058Y10136D01*
X-56138Y10097D01*
X-56154Y10080D01*
X-56174Y10067D01*
X-56230Y9998D01*
X-56292Y9934D01*
X-56301Y9912D01*
X-56316Y9893D01*
X-56344Y9809D01*
X-56379Y9727D01*
X-56380Y9703D01*
X-56388Y9681D01*
X-56385Y9592D01*
X-56389Y9503D01*
X-56382Y9480D01*
X-56381Y9456D01*
X-56348Y9374D01*
X-56320Y9289D01*
X-56305Y9268D01*
X-56297Y9249D01*
X-56263Y9211D01*
X-56209Y9139D01*
X-55448Y8378D01*
X-55395Y8341D01*
X-55347Y8295D01*
X-55303Y8277D01*
X-55264Y8250D01*
X-55201Y8234D01*
X-55140Y8208D01*
X-55093Y8206D01*
X-55047Y8194D01*
X-54982Y8201D01*
X-54916Y8198D01*
X-54871Y8213D01*
X-54824Y8217D01*
X-54765Y8247D01*
X-54702Y8267D01*
X-54658Y8299D01*
X-54623Y8317D01*
X-54596Y8346D01*
X-54552Y8378D01*
X-53151Y9779D01*
X-50849Y9779D01*
X-49221Y8151D01*
X-49221Y5849D01*
X-50162Y4908D01*
X-50187Y4873D01*
X-50218Y4844D01*
X-50250Y4781D01*
X-50291Y4724D01*
X-50301Y4683D01*
X-50321Y4645D01*
X-50334Y4555D01*
X-50346Y4506D01*
X-50344Y4486D01*
X-50348Y4459D01*
X-50348Y-7387D01*
X-50336Y-7456D01*
X-50335Y-7497D01*
X-50329Y-7512D01*
X-50323Y-7563D01*
X-50313Y-7585D01*
X-50309Y-7608D01*
X-50263Y-7685D01*
X-50224Y-7765D01*
X-50206Y-7781D01*
X-50194Y-7801D01*
X-50125Y-7857D01*
X-50060Y-7919D01*
X-50039Y-7928D01*
X-50020Y-7943D01*
X-49936Y-7971D01*
X-49854Y-8006D01*
X-49830Y-8007D01*
X-49808Y-8015D01*
X-49719Y-8012D01*
X-49630Y-8016D01*
X-49607Y-8009D01*
X-49583Y-8008D01*
X-49501Y-7975D01*
X-49416Y-7947D01*
X-49395Y-7932D01*
X-49375Y-7924D01*
X-49338Y-7890D01*
X-49287Y-7852D01*
X-49279Y-7847D01*
X-49277Y-7844D01*
X-49265Y-7836D01*
X-49151Y-7721D01*
X-46849Y-7721D01*
X-46734Y-7836D01*
X-46704Y-7857D01*
X-46692Y-7871D01*
X-46663Y-7885D01*
X-46661Y-7887D01*
X-46592Y-7943D01*
X-46570Y-7950D01*
X-46550Y-7964D01*
X-46464Y-7986D01*
X-46380Y-8015D01*
X-46356Y-8014D01*
X-46333Y-8020D01*
X-46244Y-8011D01*
X-46155Y-8008D01*
X-46134Y-7999D01*
X-46110Y-7997D01*
X-46030Y-7957D01*
X-45948Y-7924D01*
X-45930Y-7908D01*
X-45909Y-7897D01*
X-45848Y-7833D01*
X-45782Y-7772D01*
X-45771Y-7751D01*
X-45755Y-7734D01*
X-45720Y-7652D01*
X-45679Y-7573D01*
X-45676Y-7547D01*
X-45667Y-7527D01*
X-45665Y-7480D01*
X-45659Y-7460D01*
X-45659Y-7438D01*
X-45652Y-7387D01*
X-45652Y4459D01*
X-45659Y4501D01*
X-45657Y4543D01*
X-45679Y4611D01*
X-45691Y4680D01*
X-45713Y4717D01*
X-45726Y4757D01*
X-45780Y4830D01*
X-45806Y4873D01*
X-45822Y4887D01*
X-45838Y4908D01*
X-46779Y5849D01*
X-46779Y8151D01*
X-45151Y9779D01*
X-42849Y9779D01*
X-41221Y8151D01*
X-41221Y5849D01*
X-42162Y4908D01*
X-42187Y4873D01*
X-42218Y4844D01*
X-42250Y4781D01*
X-42291Y4724D01*
X-42301Y4682D01*
X-42321Y4645D01*
X-42334Y4555D01*
X-42347Y4506D01*
X-42344Y4486D01*
X-42348Y4459D01*
X-42348Y-7387D01*
X-42336Y-7456D01*
X-42335Y-7497D01*
X-42329Y-7512D01*
X-42323Y-7564D01*
X-42313Y-7585D01*
X-42309Y-7608D01*
X-42263Y-7685D01*
X-42224Y-7765D01*
X-42207Y-7781D01*
X-42194Y-7801D01*
X-42125Y-7857D01*
X-42061Y-7919D01*
X-42039Y-7928D01*
X-42020Y-7943D01*
X-41936Y-7971D01*
X-41854Y-8006D01*
X-41830Y-8007D01*
X-41808Y-8015D01*
X-41719Y-8012D01*
X-41630Y-8016D01*
X-41607Y-8009D01*
X-41583Y-8008D01*
X-41501Y-7975D01*
X-41416Y-7947D01*
X-41395Y-7932D01*
X-41376Y-7924D01*
X-41338Y-7890D01*
X-41287Y-7852D01*
X-41279Y-7847D01*
X-41277Y-7844D01*
X-41266Y-7836D01*
X-41151Y-7721D01*
X-38849Y-7721D01*
X-38734Y-7836D01*
X-38704Y-7857D01*
X-38692Y-7871D01*
X-38663Y-7885D01*
X-38661Y-7887D01*
X-38592Y-7943D01*
X-38570Y-7950D01*
X-38550Y-7964D01*
X-38464Y-7986D01*
X-38380Y-8015D01*
X-38356Y-8014D01*
X-38333Y-8020D01*
X-38244Y-8011D01*
X-38155Y-8008D01*
X-38134Y-7999D01*
X-38110Y-7997D01*
X-38030Y-7957D01*
X-37948Y-7924D01*
X-37930Y-7908D01*
X-37909Y-7897D01*
X-37848Y-7833D01*
X-37782Y-7772D01*
X-37771Y-7751D01*
X-37755Y-7734D01*
X-37720Y-7652D01*
X-37679Y-7573D01*
X-37676Y-7547D01*
X-37667Y-7527D01*
X-37665Y-7480D01*
X-37659Y-7460D01*
X-37659Y-7438D01*
X-37652Y-7387D01*
X-37652Y4459D01*
X-37659Y4501D01*
X-37657Y4543D01*
X-37679Y4611D01*
X-37691Y4680D01*
X-37713Y4717D01*
X-37726Y4757D01*
X-37780Y4830D01*
X-37806Y4873D01*
X-37822Y4887D01*
X-37838Y4908D01*
X-38779Y5849D01*
X-38779Y8151D01*
X-37151Y9779D01*
X-34849Y9779D01*
X-33221Y8151D01*
X-33221Y5849D01*
X-34162Y4908D01*
X-34187Y4873D01*
X-34218Y4844D01*
X-34250Y4781D01*
X-34291Y4724D01*
X-34301Y4682D01*
X-34321Y4645D01*
X-34334Y4555D01*
X-34347Y4506D01*
X-34344Y4486D01*
X-34348Y4459D01*
X-34348Y-7387D01*
X-34336Y-7456D01*
X-34335Y-7497D01*
X-34329Y-7512D01*
X-34323Y-7564D01*
X-34313Y-7585D01*
X-34309Y-7608D01*
X-34263Y-7685D01*
X-34224Y-7765D01*
X-34207Y-7781D01*
X-34194Y-7801D01*
X-34125Y-7857D01*
X-34061Y-7919D01*
X-34039Y-7928D01*
X-34020Y-7943D01*
X-33936Y-7971D01*
X-33854Y-8006D01*
X-33830Y-8007D01*
X-33808Y-8015D01*
X-33719Y-8012D01*
X-33630Y-8016D01*
X-33607Y-8009D01*
X-33583Y-8008D01*
X-33501Y-7975D01*
X-33416Y-7947D01*
X-33395Y-7932D01*
X-33376Y-7924D01*
X-33338Y-7890D01*
X-33287Y-7852D01*
X-33279Y-7847D01*
X-33277Y-7844D01*
X-33266Y-7836D01*
X-33151Y-7721D01*
X-30849Y-7721D01*
X-30734Y-7836D01*
X-30704Y-7857D01*
X-30692Y-7871D01*
X-30663Y-7885D01*
X-30661Y-7887D01*
X-30592Y-7943D01*
X-30570Y-7950D01*
X-30550Y-7964D01*
X-30464Y-7986D01*
X-30380Y-8015D01*
X-30356Y-8014D01*
X-30333Y-8020D01*
X-30244Y-8011D01*
X-30155Y-8008D01*
X-30134Y-7999D01*
X-30110Y-7997D01*
X-30030Y-7957D01*
X-29948Y-7924D01*
X-29930Y-7908D01*
X-29909Y-7897D01*
X-29848Y-7833D01*
X-29782Y-7772D01*
X-29771Y-7751D01*
X-29755Y-7734D01*
X-29720Y-7652D01*
X-29679Y-7573D01*
X-29676Y-7547D01*
X-29667Y-7527D01*
X-29665Y-7480D01*
X-29659Y-7460D01*
X-29659Y-7438D01*
X-29652Y-7387D01*
X-29652Y4459D01*
X-29659Y4501D01*
X-29657Y4543D01*
X-29679Y4611D01*
X-29691Y4680D01*
X-29713Y4717D01*
X-29726Y4757D01*
X-29780Y4830D01*
X-29806Y4873D01*
X-29822Y4887D01*
X-29838Y4908D01*
X-30779Y5849D01*
X-30779Y8151D01*
X-29151Y9779D01*
X-26849Y9779D01*
X-25221Y8151D01*
X-25221Y5849D01*
X-26162Y4908D01*
X-26187Y4873D01*
X-26218Y4844D01*
X-26250Y4781D01*
X-26291Y4724D01*
X-26301Y4682D01*
X-26321Y4645D01*
X-26334Y4555D01*
X-26347Y4506D01*
X-26344Y4486D01*
X-26348Y4459D01*
X-26348Y-7387D01*
X-26336Y-7456D01*
X-26335Y-7497D01*
X-26329Y-7512D01*
X-26323Y-7564D01*
X-26313Y-7585D01*
X-26309Y-7608D01*
X-26263Y-7685D01*
X-26224Y-7765D01*
X-26207Y-7781D01*
X-26194Y-7801D01*
X-26125Y-7857D01*
X-26061Y-7919D01*
X-26039Y-7928D01*
X-26020Y-7943D01*
X-25936Y-7971D01*
X-25854Y-8006D01*
X-25830Y-8007D01*
X-25808Y-8015D01*
X-25719Y-8012D01*
X-25630Y-8016D01*
X-25607Y-8009D01*
X-25583Y-8008D01*
X-25501Y-7975D01*
X-25416Y-7947D01*
X-25395Y-7932D01*
X-25376Y-7924D01*
X-25338Y-7890D01*
X-25287Y-7852D01*
X-25279Y-7847D01*
X-25277Y-7844D01*
X-25266Y-7836D01*
X-25151Y-7721D01*
X-22849Y-7721D01*
X-22734Y-7836D01*
X-22704Y-7857D01*
X-22692Y-7871D01*
X-22663Y-7885D01*
X-22661Y-7887D01*
X-22592Y-7943D01*
X-22570Y-7950D01*
X-22550Y-7964D01*
X-22464Y-7986D01*
X-22380Y-8015D01*
X-22356Y-8014D01*
X-22333Y-8020D01*
X-22244Y-8011D01*
X-22155Y-8008D01*
X-22134Y-7999D01*
X-22110Y-7997D01*
X-22030Y-7957D01*
X-21948Y-7924D01*
X-21930Y-7908D01*
X-21909Y-7897D01*
X-21848Y-7833D01*
X-21782Y-7772D01*
X-21771Y-7751D01*
X-21755Y-7734D01*
X-21720Y-7652D01*
X-21679Y-7573D01*
X-21676Y-7547D01*
X-21667Y-7527D01*
X-21665Y-7480D01*
X-21659Y-7460D01*
X-21659Y-7438D01*
X-21652Y-7387D01*
X-21652Y4459D01*
X-21659Y4501D01*
X-21657Y4543D01*
X-21679Y4611D01*
X-21691Y4680D01*
X-21713Y4717D01*
X-21726Y4757D01*
X-21780Y4830D01*
X-21806Y4873D01*
X-21822Y4887D01*
X-21838Y4908D01*
X-22779Y5849D01*
X-22779Y8151D01*
X-21151Y9779D01*
X-18849Y9779D01*
X-17221Y8151D01*
X-17221Y5849D01*
X-18162Y4908D01*
X-18187Y4873D01*
X-18218Y4844D01*
X-18250Y4781D01*
X-18291Y4724D01*
X-18301Y4682D01*
X-18321Y4645D01*
X-18334Y4555D01*
X-18347Y4506D01*
X-18344Y4486D01*
X-18348Y4459D01*
X-18348Y-7387D01*
X-18336Y-7456D01*
X-18335Y-7497D01*
X-18329Y-7512D01*
X-18323Y-7564D01*
X-18313Y-7585D01*
X-18309Y-7608D01*
X-18263Y-7685D01*
X-18224Y-7765D01*
X-18207Y-7781D01*
X-18194Y-7801D01*
X-18125Y-7857D01*
X-18061Y-7919D01*
X-18039Y-7928D01*
X-18020Y-7943D01*
X-17936Y-7971D01*
X-17854Y-8006D01*
X-17830Y-8007D01*
X-17808Y-8015D01*
X-17719Y-8012D01*
X-17630Y-8016D01*
X-17607Y-8009D01*
X-17583Y-8008D01*
X-17501Y-7975D01*
X-17416Y-7947D01*
X-17395Y-7932D01*
X-17376Y-7924D01*
X-17338Y-7890D01*
X-17287Y-7852D01*
X-17279Y-7847D01*
X-17277Y-7844D01*
X-17266Y-7836D01*
X-17151Y-7721D01*
X-14849Y-7721D01*
X-14734Y-7836D01*
X-14704Y-7857D01*
X-14692Y-7871D01*
X-14663Y-7885D01*
X-14661Y-7887D01*
X-14592Y-7943D01*
X-14570Y-7950D01*
X-14550Y-7964D01*
X-14464Y-7986D01*
X-14380Y-8015D01*
X-14356Y-8014D01*
X-14333Y-8020D01*
X-14244Y-8011D01*
X-14155Y-8008D01*
X-14134Y-7999D01*
X-14110Y-7997D01*
X-14030Y-7957D01*
X-13948Y-7924D01*
X-13930Y-7908D01*
X-13909Y-7897D01*
X-13848Y-7833D01*
X-13782Y-7772D01*
X-13771Y-7751D01*
X-13755Y-7734D01*
X-13720Y-7652D01*
X-13679Y-7573D01*
X-13676Y-7547D01*
X-13667Y-7527D01*
X-13665Y-7480D01*
X-13659Y-7460D01*
X-13659Y-7438D01*
X-13652Y-7387D01*
X-13652Y4459D01*
X-13659Y4501D01*
X-13657Y4543D01*
X-13679Y4611D01*
X-13691Y4680D01*
X-13713Y4717D01*
X-13726Y4757D01*
X-13780Y4830D01*
X-13806Y4873D01*
X-13822Y4887D01*
X-13838Y4908D01*
X-14779Y5849D01*
X-14779Y8151D01*
X-13151Y9779D01*
X-10849Y9779D01*
X-9221Y8151D01*
X-9221Y5849D01*
X-10162Y4908D01*
X-10187Y4873D01*
X-10218Y4844D01*
X-10250Y4781D01*
X-10291Y4724D01*
X-10301Y4682D01*
X-10321Y4645D01*
X-10334Y4555D01*
X-10347Y4506D01*
X-10344Y4486D01*
X-10348Y4459D01*
X-10348Y-7387D01*
X-10336Y-7456D01*
X-10335Y-7497D01*
X-10329Y-7512D01*
X-10323Y-7564D01*
X-10313Y-7585D01*
X-10309Y-7608D01*
X-10263Y-7685D01*
X-10224Y-7765D01*
X-10207Y-7781D01*
X-10194Y-7801D01*
X-10125Y-7857D01*
X-10061Y-7919D01*
X-10039Y-7928D01*
X-10020Y-7943D01*
X-9936Y-7971D01*
X-9854Y-8006D01*
X-9830Y-8007D01*
X-9808Y-8015D01*
X-9719Y-8012D01*
X-9630Y-8016D01*
X-9607Y-8009D01*
X-9583Y-8008D01*
X-9501Y-7975D01*
X-9416Y-7947D01*
X-9395Y-7932D01*
X-9376Y-7924D01*
X-9338Y-7890D01*
X-9287Y-7852D01*
X-9279Y-7847D01*
X-9277Y-7844D01*
X-9266Y-7836D01*
X-9151Y-7721D01*
X-6849Y-7721D01*
X-6734Y-7836D01*
X-6704Y-7857D01*
X-6692Y-7871D01*
X-6663Y-7885D01*
X-6661Y-7887D01*
X-6592Y-7943D01*
X-6570Y-7950D01*
X-6550Y-7964D01*
X-6464Y-7986D01*
X-6380Y-8015D01*
X-6356Y-8014D01*
X-6333Y-8020D01*
X-6244Y-8011D01*
X-6155Y-8008D01*
X-6134Y-7999D01*
X-6110Y-7997D01*
X-6030Y-7957D01*
X-5948Y-7924D01*
X-5930Y-7908D01*
X-5909Y-7897D01*
X-5848Y-7833D01*
X-5782Y-7772D01*
X-5771Y-7751D01*
X-5755Y-7734D01*
X-5720Y-7652D01*
X-5679Y-7573D01*
X-5676Y-7547D01*
X-5667Y-7527D01*
X-5665Y-7480D01*
X-5659Y-7460D01*
X-5659Y-7438D01*
X-5652Y-7387D01*
X-5652Y4459D01*
X-5659Y4501D01*
X-5657Y4543D01*
X-5679Y4611D01*
X-5691Y4680D01*
X-5713Y4717D01*
X-5726Y4757D01*
X-5780Y4830D01*
X-5806Y4873D01*
X-5822Y4887D01*
X-5838Y4908D01*
X-6779Y5849D01*
X-6779Y8151D01*
X-5151Y9779D01*
X-2849Y9779D01*
X-1221Y8151D01*
X-1221Y5849D01*
X-2162Y4908D01*
X-2187Y4873D01*
X-2218Y4844D01*
X-2250Y4781D01*
X-2291Y4724D01*
X-2301Y4682D01*
X-2321Y4645D01*
X-2334Y4555D01*
X-2347Y4506D01*
X-2344Y4486D01*
X-2348Y4459D01*
X-2348Y-7387D01*
X-2336Y-7456D01*
X-2335Y-7497D01*
X-2329Y-7512D01*
X-2323Y-7564D01*
X-2313Y-7585D01*
X-2309Y-7608D01*
X-2263Y-7685D01*
X-2224Y-7765D01*
X-2207Y-7781D01*
X-2194Y-7801D01*
X-2125Y-7857D01*
X-2061Y-7919D01*
X-2039Y-7928D01*
X-2020Y-7943D01*
X-1936Y-7971D01*
X-1854Y-8006D01*
X-1830Y-8007D01*
X-1808Y-8015D01*
X-1719Y-8012D01*
X-1630Y-8016D01*
X-1607Y-8009D01*
X-1583Y-8008D01*
X-1501Y-7975D01*
X-1416Y-7947D01*
X-1395Y-7932D01*
X-1376Y-7924D01*
X-1338Y-7890D01*
X-1287Y-7852D01*
X-1279Y-7847D01*
X-1277Y-7844D01*
X-1266Y-7836D01*
X-1151Y-7721D01*
X1151Y-7721D01*
X1266Y-7836D01*
X1296Y-7857D01*
X1308Y-7871D01*
X1337Y-7885D01*
X1339Y-7887D01*
X1408Y-7943D01*
X1430Y-7950D01*
X1450Y-7964D01*
X1536Y-7986D01*
X1620Y-8015D01*
X1644Y-8014D01*
X1667Y-8020D01*
X1756Y-8011D01*
X1845Y-8008D01*
X1866Y-7999D01*
X1890Y-7997D01*
X1970Y-7957D01*
X2052Y-7924D01*
X2070Y-7908D01*
X2091Y-7897D01*
X2152Y-7833D01*
X2218Y-7772D01*
X2229Y-7751D01*
X2245Y-7734D01*
X2280Y-7652D01*
X2321Y-7573D01*
X2324Y-7547D01*
X2333Y-7527D01*
X2335Y-7480D01*
X2341Y-7460D01*
X2341Y-7438D01*
X2348Y-7387D01*
X2348Y4459D01*
X2341Y4501D01*
X2343Y4543D01*
X2321Y4611D01*
X2309Y4680D01*
X2287Y4717D01*
X2274Y4757D01*
X2220Y4830D01*
X2194Y4873D01*
X2178Y4887D01*
X2162Y4908D01*
X1221Y5849D01*
X1221Y8151D01*
X2849Y9779D01*
X5151Y9779D01*
X6779Y8151D01*
X6779Y5849D01*
X5838Y4908D01*
X5813Y4873D01*
X5782Y4844D01*
X5750Y4781D01*
X5709Y4724D01*
X5699Y4682D01*
X5679Y4645D01*
X5666Y4555D01*
X5653Y4506D01*
X5656Y4486D01*
X5652Y4459D01*
X5652Y-7387D01*
X5664Y-7456D01*
X5665Y-7497D01*
X5671Y-7512D01*
X5677Y-7564D01*
X5687Y-7585D01*
X5691Y-7608D01*
X5737Y-7685D01*
X5776Y-7765D01*
X5793Y-7781D01*
X5806Y-7801D01*
X5875Y-7857D01*
X5939Y-7919D01*
X5961Y-7928D01*
X5980Y-7943D01*
X6064Y-7971D01*
X6146Y-8006D01*
X6170Y-8007D01*
X6192Y-8015D01*
X6281Y-8012D01*
X6370Y-8016D01*
X6393Y-8009D01*
X6417Y-8008D01*
X6499Y-7975D01*
X6584Y-7947D01*
X6605Y-7932D01*
X6624Y-7924D01*
X6662Y-7890D01*
X6713Y-7852D01*
X6721Y-7847D01*
X6723Y-7844D01*
X6734Y-7836D01*
X6849Y-7721D01*
X9151Y-7721D01*
X9266Y-7836D01*
X9296Y-7857D01*
X9308Y-7871D01*
X9337Y-7885D01*
X9339Y-7887D01*
X9408Y-7943D01*
X9430Y-7950D01*
X9450Y-7964D01*
X9536Y-7986D01*
X9620Y-8015D01*
X9644Y-8014D01*
X9667Y-8020D01*
X9756Y-8011D01*
X9845Y-8008D01*
X9866Y-7999D01*
X9890Y-7997D01*
X9970Y-7957D01*
X10052Y-7924D01*
X10070Y-7908D01*
X10091Y-7897D01*
X10152Y-7833D01*
X10218Y-7772D01*
X10229Y-7751D01*
X10245Y-7734D01*
X10280Y-7652D01*
X10321Y-7573D01*
X10324Y-7547D01*
X10333Y-7527D01*
X10335Y-7480D01*
X10341Y-7460D01*
X10341Y-7438D01*
X10348Y-7387D01*
X10348Y4459D01*
X10341Y4501D01*
X10343Y4543D01*
X10321Y4611D01*
X10309Y4680D01*
X10287Y4717D01*
X10274Y4757D01*
X10220Y4830D01*
X10194Y4873D01*
X10178Y4887D01*
X10162Y4908D01*
X9221Y5849D01*
X9221Y8151D01*
X10849Y9779D01*
X13151Y9779D01*
X14779Y8151D01*
X14779Y5849D01*
X13838Y4908D01*
X13813Y4873D01*
X13782Y4844D01*
X13750Y4781D01*
X13709Y4724D01*
X13699Y4682D01*
X13679Y4645D01*
X13666Y4555D01*
X13653Y4506D01*
X13656Y4486D01*
X13652Y4459D01*
X13652Y-7387D01*
X13664Y-7456D01*
X13665Y-7497D01*
X13671Y-7512D01*
X13677Y-7564D01*
X13687Y-7585D01*
X13691Y-7608D01*
X13737Y-7685D01*
X13776Y-7765D01*
X13793Y-7781D01*
X13806Y-7801D01*
X13875Y-7857D01*
X13939Y-7919D01*
X13961Y-7928D01*
X13980Y-7943D01*
X14064Y-7971D01*
X14146Y-8006D01*
X14170Y-8007D01*
X14192Y-8015D01*
X14281Y-8012D01*
X14370Y-8016D01*
X14393Y-8009D01*
X14417Y-8008D01*
X14499Y-7975D01*
X14584Y-7947D01*
X14605Y-7932D01*
X14624Y-7924D01*
X14662Y-7890D01*
X14713Y-7852D01*
X14721Y-7847D01*
X14723Y-7844D01*
X14734Y-7836D01*
X14849Y-7721D01*
X17151Y-7721D01*
X17266Y-7836D01*
X17296Y-7857D01*
X17308Y-7871D01*
X17337Y-7885D01*
X17339Y-7887D01*
X17408Y-7943D01*
X17430Y-7950D01*
X17450Y-7964D01*
X17536Y-7986D01*
X17620Y-8015D01*
X17644Y-8014D01*
X17667Y-8020D01*
X17756Y-8011D01*
X17845Y-8008D01*
X17866Y-7999D01*
X17890Y-7997D01*
X17970Y-7957D01*
X18052Y-7924D01*
X18070Y-7908D01*
X18091Y-7897D01*
X18152Y-7833D01*
X18218Y-7772D01*
X18229Y-7751D01*
X18245Y-7734D01*
X18280Y-7652D01*
X18321Y-7573D01*
X18324Y-7547D01*
X18333Y-7527D01*
X18335Y-7480D01*
X18341Y-7460D01*
X18341Y-7438D01*
X18348Y-7387D01*
X18348Y4459D01*
X18341Y4501D01*
X18343Y4544D01*
X18321Y4611D01*
X18309Y4680D01*
X18287Y4717D01*
X18274Y4757D01*
X18220Y4830D01*
X18194Y4873D01*
X18178Y4887D01*
X18162Y4908D01*
X17221Y5849D01*
X17221Y8151D01*
X18849Y9779D01*
X21151Y9779D01*
X22779Y8151D01*
X22779Y5849D01*
X21838Y4908D01*
X21813Y4873D01*
X21782Y4844D01*
X21750Y4781D01*
X21709Y4724D01*
X21699Y4683D01*
X21679Y4645D01*
X21666Y4555D01*
X21653Y4506D01*
X21656Y4486D01*
X21652Y4459D01*
X21652Y-7387D01*
X21664Y-7456D01*
X21665Y-7497D01*
X21671Y-7512D01*
X21677Y-7564D01*
X21687Y-7585D01*
X21691Y-7608D01*
X21737Y-7685D01*
X21776Y-7765D01*
X21793Y-7781D01*
X21806Y-7801D01*
X21875Y-7857D01*
X21939Y-7919D01*
X21961Y-7928D01*
X21980Y-7943D01*
X22064Y-7971D01*
X22146Y-8006D01*
X22170Y-8007D01*
X22192Y-8015D01*
X22281Y-8012D01*
X22370Y-8016D01*
X22393Y-8009D01*
X22417Y-8008D01*
X22499Y-7975D01*
X22584Y-7947D01*
X22605Y-7932D01*
X22624Y-7924D01*
X22662Y-7890D01*
X22713Y-7852D01*
X22721Y-7847D01*
X22723Y-7844D01*
X22734Y-7836D01*
X22849Y-7721D01*
X25151Y-7721D01*
X25266Y-7836D01*
X25296Y-7857D01*
X25308Y-7871D01*
X25337Y-7885D01*
X25339Y-7887D01*
X25408Y-7943D01*
X25430Y-7950D01*
X25450Y-7964D01*
X25536Y-7986D01*
X25620Y-8015D01*
X25644Y-8014D01*
X25667Y-8020D01*
X25756Y-8011D01*
X25845Y-8008D01*
X25866Y-7999D01*
X25890Y-7997D01*
X25970Y-7957D01*
X26052Y-7924D01*
X26070Y-7908D01*
X26091Y-7897D01*
X26152Y-7833D01*
X26218Y-7772D01*
X26229Y-7751D01*
X26245Y-7734D01*
X26280Y-7652D01*
X26321Y-7573D01*
X26324Y-7547D01*
X26333Y-7527D01*
X26335Y-7480D01*
X26341Y-7460D01*
X26341Y-7438D01*
X26348Y-7387D01*
X26348Y4459D01*
X26341Y4501D01*
X26343Y4543D01*
X26321Y4611D01*
X26309Y4680D01*
X26287Y4717D01*
X26274Y4757D01*
X26220Y4830D01*
X26194Y4873D01*
X26178Y4887D01*
X26162Y4908D01*
X25221Y5849D01*
X25221Y8151D01*
X26849Y9779D01*
X29151Y9779D01*
X30779Y8151D01*
X30779Y5849D01*
X29838Y4908D01*
X29813Y4873D01*
X29782Y4844D01*
X29750Y4781D01*
X29709Y4724D01*
X29699Y4682D01*
X29679Y4645D01*
X29666Y4555D01*
X29653Y4506D01*
X29656Y4486D01*
X29652Y4459D01*
X29652Y-7387D01*
X29664Y-7456D01*
X29665Y-7497D01*
X29671Y-7512D01*
X29677Y-7564D01*
X29687Y-7585D01*
X29691Y-7608D01*
X29737Y-7685D01*
X29776Y-7765D01*
X29793Y-7781D01*
X29806Y-7801D01*
X29875Y-7857D01*
X29939Y-7919D01*
X29961Y-7928D01*
X29980Y-7943D01*
X30064Y-7971D01*
X30146Y-8006D01*
X30170Y-8007D01*
X30192Y-8015D01*
X30281Y-8012D01*
X30370Y-8016D01*
X30393Y-8009D01*
X30417Y-8008D01*
X30499Y-7975D01*
X30584Y-7947D01*
X30605Y-7932D01*
X30624Y-7924D01*
X30662Y-7890D01*
X30713Y-7852D01*
X30721Y-7847D01*
X30723Y-7844D01*
X30734Y-7836D01*
X30849Y-7721D01*
X33151Y-7721D01*
X33266Y-7836D01*
X33296Y-7857D01*
X33308Y-7871D01*
X33337Y-7885D01*
X33339Y-7887D01*
X33408Y-7943D01*
X33430Y-7950D01*
X33450Y-7964D01*
X33536Y-7986D01*
X33620Y-8015D01*
X33644Y-8014D01*
X33667Y-8020D01*
X33756Y-8011D01*
X33845Y-8008D01*
X33866Y-7999D01*
X33890Y-7997D01*
X33970Y-7957D01*
X34052Y-7924D01*
X34070Y-7908D01*
X34091Y-7897D01*
X34152Y-7833D01*
X34218Y-7772D01*
X34229Y-7751D01*
X34245Y-7734D01*
X34280Y-7652D01*
X34321Y-7573D01*
X34324Y-7547D01*
X34333Y-7527D01*
X34335Y-7480D01*
X34341Y-7460D01*
X34341Y-7438D01*
X34348Y-7387D01*
X34348Y4459D01*
X34341Y4501D01*
X34343Y4543D01*
X34321Y4611D01*
X34309Y4680D01*
X34287Y4717D01*
X34274Y4757D01*
X34220Y4830D01*
X34194Y4873D01*
X34178Y4887D01*
X34162Y4908D01*
X33221Y5849D01*
X33221Y8151D01*
X34849Y9779D01*
X37151Y9779D01*
X38779Y8151D01*
X38779Y5849D01*
X37838Y4908D01*
X37813Y4873D01*
X37782Y4844D01*
X37750Y4781D01*
X37709Y4724D01*
X37699Y4682D01*
X37679Y4645D01*
X37666Y4555D01*
X37653Y4506D01*
X37656Y4486D01*
X37652Y4459D01*
X37652Y-7387D01*
X37664Y-7456D01*
X37665Y-7497D01*
X37671Y-7512D01*
X37677Y-7564D01*
X37687Y-7585D01*
X37691Y-7608D01*
X37737Y-7685D01*
X37776Y-7765D01*
X37793Y-7781D01*
X37806Y-7801D01*
X37875Y-7857D01*
X37939Y-7919D01*
X37961Y-7928D01*
X37980Y-7943D01*
X38064Y-7971D01*
X38146Y-8006D01*
X38170Y-8007D01*
X38192Y-8015D01*
X38281Y-8012D01*
X38370Y-8016D01*
X38393Y-8009D01*
X38417Y-8008D01*
X38499Y-7975D01*
X38584Y-7947D01*
X38605Y-7932D01*
X38624Y-7924D01*
X38662Y-7890D01*
X38713Y-7852D01*
X38721Y-7847D01*
X38723Y-7844D01*
X38734Y-7836D01*
X38849Y-7721D01*
X41151Y-7721D01*
X41266Y-7836D01*
X41296Y-7857D01*
X41308Y-7871D01*
X41337Y-7885D01*
X41339Y-7887D01*
X41408Y-7943D01*
X41430Y-7950D01*
X41450Y-7964D01*
X41536Y-7986D01*
X41620Y-8015D01*
X41644Y-8014D01*
X41667Y-8020D01*
X41756Y-8011D01*
G37*
G36*
X9688Y-77127D02*
X9688Y-77127D01*
X9751Y-77125D01*
X16855Y-75929D01*
X16894Y-75915D01*
X16951Y-75905D01*
X32140Y-70823D01*
X32183Y-70799D01*
X32260Y-70769D01*
X46072Y-62660D01*
X46109Y-62628D01*
X46178Y-62582D01*
X58017Y-51796D01*
X58048Y-51757D01*
X58105Y-51698D01*
X67463Y-38700D01*
X67484Y-38655D01*
X67528Y-38586D01*
X69937Y-33132D01*
X69963Y-33027D01*
X69989Y-32923D01*
X69989Y-32918D01*
X69990Y-32914D01*
X69977Y-32806D01*
X69966Y-32700D01*
X69964Y-32696D01*
X69964Y-32691D01*
X69914Y-32595D01*
X69867Y-32499D01*
X69864Y-32496D01*
X69862Y-32492D01*
X69782Y-32419D01*
X69704Y-32345D01*
X69699Y-32343D01*
X69696Y-32340D01*
X69596Y-32299D01*
X69497Y-32257D01*
X69492Y-32257D01*
X69488Y-32255D01*
X69380Y-32252D01*
X69273Y-32247D01*
X69269Y-32249D01*
X69264Y-32248D01*
X69162Y-32283D01*
X69059Y-32316D01*
X69055Y-32319D01*
X69051Y-32320D01*
X69029Y-32338D01*
X68908Y-32427D01*
X68012Y-33324D01*
X67582Y-33754D01*
X67558Y-33789D01*
X67526Y-33818D01*
X67494Y-33880D01*
X67454Y-33938D01*
X67443Y-33979D01*
X67424Y-34017D01*
X67410Y-34107D01*
X67398Y-34156D01*
X67400Y-34176D01*
X67398Y-34192D01*
X65461Y-36129D01*
X62725Y-36129D01*
X61069Y-34472D01*
X60996Y-34422D01*
X60927Y-34365D01*
X60904Y-34358D01*
X60885Y-34344D01*
X60799Y-34322D01*
X60714Y-34294D01*
X60691Y-34294D01*
X60668Y-34288D01*
X60579Y-34298D01*
X60490Y-34300D01*
X60468Y-34309D01*
X60444Y-34312D01*
X60365Y-34351D01*
X60282Y-34385D01*
X60265Y-34401D01*
X60243Y-34411D01*
X60182Y-34476D01*
X60117Y-34536D01*
X60106Y-34557D01*
X60089Y-34574D01*
X60055Y-34656D01*
X60014Y-34736D01*
X60010Y-34762D01*
X60002Y-34781D01*
X60000Y-34831D01*
X59986Y-34921D01*
X59986Y-35532D01*
X57960Y-37558D01*
X57923Y-37612D01*
X57878Y-37660D01*
X57859Y-37703D01*
X57832Y-37742D01*
X57816Y-37806D01*
X57790Y-37867D01*
X57788Y-37914D01*
X57776Y-37959D01*
X57783Y-38025D01*
X57780Y-38091D01*
X57795Y-38136D01*
X57799Y-38183D01*
X57829Y-38242D01*
X57849Y-38304D01*
X57881Y-38348D01*
X57899Y-38384D01*
X57928Y-38411D01*
X57960Y-38455D01*
X59721Y-40216D01*
X59721Y-42952D01*
X57787Y-44887D01*
X56206Y-44887D01*
X56119Y-44903D01*
X56030Y-44912D01*
X56009Y-44922D01*
X55985Y-44926D01*
X55909Y-44972D01*
X55829Y-45011D01*
X55813Y-45028D01*
X55792Y-45041D01*
X55736Y-45110D01*
X55675Y-45174D01*
X55666Y-45196D01*
X55651Y-45215D01*
X55622Y-45299D01*
X55588Y-45381D01*
X55587Y-45405D01*
X55579Y-45427D01*
X55582Y-45516D01*
X55578Y-45605D01*
X55585Y-45628D01*
X55586Y-45652D01*
X55619Y-45734D01*
X55646Y-45819D01*
X55662Y-45840D01*
X55670Y-45860D01*
X55704Y-45897D01*
X55758Y-45970D01*
X56716Y-46928D01*
X56716Y-49664D01*
X54781Y-51599D01*
X52045Y-51599D01*
X50109Y-49662D01*
X50095Y-49584D01*
X50086Y-49496D01*
X50075Y-49474D01*
X50071Y-49451D01*
X50026Y-49374D01*
X49986Y-49294D01*
X49969Y-49278D01*
X49957Y-49258D01*
X49888Y-49202D01*
X49823Y-49141D01*
X49801Y-49131D01*
X49783Y-49116D01*
X49698Y-49088D01*
X49616Y-49053D01*
X49593Y-49052D01*
X49570Y-49044D01*
X49481Y-49047D01*
X49392Y-49043D01*
X49370Y-49050D01*
X49346Y-49051D01*
X49263Y-49085D01*
X49179Y-49112D01*
X49157Y-49127D01*
X49138Y-49135D01*
X49101Y-49169D01*
X49028Y-49223D01*
X47278Y-50973D01*
X46139Y-50973D01*
X46052Y-50989D01*
X45963Y-50998D01*
X45942Y-51009D01*
X45918Y-51013D01*
X45842Y-51058D01*
X45762Y-51098D01*
X45746Y-51115D01*
X45725Y-51127D01*
X45669Y-51196D01*
X45608Y-51261D01*
X45599Y-51283D01*
X45584Y-51301D01*
X45555Y-51386D01*
X45521Y-51468D01*
X45520Y-51491D01*
X45512Y-51514D01*
X45515Y-51603D01*
X45511Y-51692D01*
X45518Y-51714D01*
X45519Y-51738D01*
X45552Y-51821D01*
X45579Y-51905D01*
X45595Y-51927D01*
X45603Y-51946D01*
X45637Y-51983D01*
X45691Y-52056D01*
X47036Y-53401D01*
X47036Y-56137D01*
X45101Y-58072D01*
X42893Y-58072D01*
X42805Y-58088D01*
X42717Y-58097D01*
X42695Y-58108D01*
X42672Y-58112D01*
X42595Y-58157D01*
X42515Y-58197D01*
X42499Y-58214D01*
X42479Y-58226D01*
X42423Y-58295D01*
X42362Y-58360D01*
X42352Y-58382D01*
X42337Y-58400D01*
X42309Y-58484D01*
X42274Y-58566D01*
X42273Y-58590D01*
X42266Y-58613D01*
X42268Y-58702D01*
X42264Y-58791D01*
X42271Y-58813D01*
X42272Y-58837D01*
X42306Y-58919D01*
X42333Y-59004D01*
X42349Y-59025D01*
X42356Y-59045D01*
X42390Y-59082D01*
X42396Y-59090D01*
X42396Y-61843D01*
X40462Y-63777D01*
X37725Y-63777D01*
X35791Y-61843D01*
X35791Y-60347D01*
X35775Y-60260D01*
X35766Y-60171D01*
X35755Y-60150D01*
X35751Y-60126D01*
X35706Y-60050D01*
X35666Y-59970D01*
X35649Y-59954D01*
X35637Y-59933D01*
X35568Y-59877D01*
X35503Y-59816D01*
X35481Y-59807D01*
X35463Y-59792D01*
X35378Y-59763D01*
X35296Y-59729D01*
X35273Y-59728D01*
X35250Y-59720D01*
X35161Y-59723D01*
X35072Y-59719D01*
X35050Y-59726D01*
X35026Y-59727D01*
X34943Y-59760D01*
X34859Y-59787D01*
X34837Y-59803D01*
X34818Y-59811D01*
X34781Y-59845D01*
X34708Y-59899D01*
X33376Y-61231D01*
X31279Y-61231D01*
X31191Y-61247D01*
X31103Y-61256D01*
X31082Y-61267D01*
X31058Y-61271D01*
X30981Y-61316D01*
X30902Y-61356D01*
X30885Y-61373D01*
X30865Y-61385D01*
X30809Y-61454D01*
X30748Y-61519D01*
X30739Y-61541D01*
X30724Y-61559D01*
X30695Y-61644D01*
X30660Y-61726D01*
X30659Y-61749D01*
X30652Y-61772D01*
X30654Y-61861D01*
X30650Y-61950D01*
X30658Y-61972D01*
X30658Y-61996D01*
X30692Y-62079D01*
X30719Y-62163D01*
X30735Y-62185D01*
X30743Y-62204D01*
X30777Y-62241D01*
X30831Y-62314D01*
X31371Y-62854D01*
X31371Y-65590D01*
X29436Y-67525D01*
X26700Y-67525D01*
X26495Y-67320D01*
X26422Y-67269D01*
X26353Y-67213D01*
X26330Y-67205D01*
X26311Y-67192D01*
X26224Y-67170D01*
X26140Y-67141D01*
X26116Y-67142D01*
X26093Y-67136D01*
X26005Y-67145D01*
X25916Y-67148D01*
X25894Y-67157D01*
X25870Y-67159D01*
X25790Y-67199D01*
X25708Y-67232D01*
X25690Y-67248D01*
X25669Y-67259D01*
X25608Y-67323D01*
X25542Y-67383D01*
X25531Y-67404D01*
X25515Y-67422D01*
X25480Y-67504D01*
X25440Y-67583D01*
X25436Y-67609D01*
X25428Y-67628D01*
X25426Y-67679D01*
X25412Y-67768D01*
X25412Y-69900D01*
X23477Y-71835D01*
X20741Y-71835D01*
X18807Y-69900D01*
X18807Y-67558D01*
X18791Y-67470D01*
X18782Y-67382D01*
X18771Y-67361D01*
X18767Y-67337D01*
X18722Y-67260D01*
X18682Y-67181D01*
X18665Y-67164D01*
X18653Y-67144D01*
X18584Y-67088D01*
X18519Y-67027D01*
X18497Y-67018D01*
X18479Y-67003D01*
X18394Y-66974D01*
X18312Y-66939D01*
X18289Y-66938D01*
X18266Y-66931D01*
X18177Y-66933D01*
X18088Y-66929D01*
X18066Y-66937D01*
X18042Y-66937D01*
X17959Y-66971D01*
X17875Y-66998D01*
X17853Y-67014D01*
X17834Y-67022D01*
X17797Y-67056D01*
X17724Y-67110D01*
X17292Y-67542D01*
X14427Y-67542D01*
X14362Y-67553D01*
X14296Y-67555D01*
X14252Y-67573D01*
X14206Y-67581D01*
X14149Y-67615D01*
X14088Y-67639D01*
X14053Y-67671D01*
X14013Y-67695D01*
X13971Y-67746D01*
X13922Y-67791D01*
X13901Y-67833D01*
X13871Y-67870D01*
X13850Y-67932D01*
X13820Y-67990D01*
X13812Y-68045D01*
X13799Y-68082D01*
X13800Y-68121D01*
X13792Y-68176D01*
X13792Y-70666D01*
X11858Y-72601D01*
X9122Y-72601D01*
X8004Y-71484D01*
X7931Y-71433D01*
X7862Y-71377D01*
X7839Y-71369D01*
X7820Y-71355D01*
X7734Y-71333D01*
X7649Y-71305D01*
X7626Y-71305D01*
X7603Y-71300D01*
X7514Y-71309D01*
X7425Y-71311D01*
X7403Y-71320D01*
X7379Y-71323D01*
X7300Y-71362D01*
X7217Y-71396D01*
X7200Y-71412D01*
X7178Y-71422D01*
X7117Y-71487D01*
X7052Y-71547D01*
X7041Y-71568D01*
X7024Y-71585D01*
X6990Y-71667D01*
X6949Y-71747D01*
X6945Y-71773D01*
X6937Y-71792D01*
X6935Y-71842D01*
X6921Y-71932D01*
X6921Y-73287D01*
X4987Y-75222D01*
X2251Y-75222D01*
X449Y-73420D01*
X394Y-73382D01*
X347Y-73337D01*
X303Y-73319D01*
X264Y-73292D01*
X201Y-73276D01*
X140Y-73250D01*
X93Y-73248D01*
X47Y-73236D01*
X-18Y-73243D01*
X-84Y-73240D01*
X-129Y-73254D01*
X-176Y-73259D01*
X-235Y-73288D01*
X-298Y-73309D01*
X-342Y-73341D01*
X-377Y-73359D01*
X-404Y-73387D01*
X-449Y-73420D01*
X-2251Y-75222D01*
X-4987Y-75222D01*
X-6921Y-73287D01*
X-6921Y-71932D01*
X-6937Y-71844D01*
X-6946Y-71756D01*
X-6957Y-71735D01*
X-6961Y-71711D01*
X-7006Y-71634D01*
X-7046Y-71555D01*
X-7063Y-71539D01*
X-7075Y-71518D01*
X-7144Y-71462D01*
X-7209Y-71401D01*
X-7231Y-71392D01*
X-7249Y-71377D01*
X-7334Y-71348D01*
X-7416Y-71313D01*
X-7439Y-71312D01*
X-7462Y-71305D01*
X-7551Y-71307D01*
X-7640Y-71303D01*
X-7662Y-71311D01*
X-7686Y-71311D01*
X-7769Y-71345D01*
X-7853Y-71372D01*
X-7875Y-71388D01*
X-7894Y-71396D01*
X-7931Y-71430D01*
X-8004Y-71484D01*
X-9122Y-72601D01*
X-11858Y-72601D01*
X-13792Y-70666D01*
X-13792Y-68176D01*
X-13804Y-68111D01*
X-13806Y-68045D01*
X-13824Y-68002D01*
X-13832Y-67955D01*
X-13865Y-67898D01*
X-13890Y-67837D01*
X-13922Y-67803D01*
X-13946Y-67762D01*
X-13997Y-67720D01*
X-14042Y-67672D01*
X-14084Y-67650D01*
X-14120Y-67620D01*
X-14183Y-67599D01*
X-14241Y-67569D01*
X-14296Y-67561D01*
X-14333Y-67549D01*
X-14372Y-67550D01*
X-14427Y-67542D01*
X-17292Y-67542D01*
X-17724Y-67110D01*
X-17797Y-67059D01*
X-17866Y-67003D01*
X-17889Y-66995D01*
X-17908Y-66981D01*
X-17994Y-66959D01*
X-18079Y-66931D01*
X-18102Y-66931D01*
X-18125Y-66926D01*
X-18214Y-66935D01*
X-18303Y-66937D01*
X-18325Y-66946D01*
X-18349Y-66949D01*
X-18429Y-66988D01*
X-18511Y-67022D01*
X-18528Y-67038D01*
X-18550Y-67048D01*
X-18611Y-67113D01*
X-18676Y-67173D01*
X-18687Y-67194D01*
X-18704Y-67211D01*
X-18738Y-67294D01*
X-18779Y-67373D01*
X-18783Y-67399D01*
X-18791Y-67418D01*
X-18793Y-67468D01*
X-18807Y-67558D01*
X-18807Y-69900D01*
X-20741Y-71835D01*
X-23477Y-71835D01*
X-25412Y-69900D01*
X-25412Y-67768D01*
X-25428Y-67681D01*
X-25437Y-67592D01*
X-25448Y-67571D01*
X-25452Y-67548D01*
X-25497Y-67471D01*
X-25537Y-67391D01*
X-25554Y-67375D01*
X-25566Y-67354D01*
X-25635Y-67298D01*
X-25700Y-67237D01*
X-25722Y-67228D01*
X-25740Y-67213D01*
X-25824Y-67184D01*
X-25906Y-67150D01*
X-25930Y-67149D01*
X-25953Y-67141D01*
X-26042Y-67144D01*
X-26131Y-67140D01*
X-26153Y-67147D01*
X-26177Y-67148D01*
X-26259Y-67181D01*
X-26344Y-67208D01*
X-26366Y-67224D01*
X-26385Y-67232D01*
X-26422Y-67266D01*
X-26495Y-67320D01*
X-26700Y-67525D01*
X-29436Y-67525D01*
X-31371Y-65590D01*
X-31371Y-62854D01*
X-30831Y-62314D01*
X-30780Y-62241D01*
X-30724Y-62172D01*
X-30716Y-62149D01*
X-30702Y-62130D01*
X-30680Y-62044D01*
X-30652Y-61959D01*
X-30652Y-61936D01*
X-30647Y-61913D01*
X-30656Y-61824D01*
X-30658Y-61735D01*
X-30667Y-61713D01*
X-30670Y-61689D01*
X-30709Y-61609D01*
X-30743Y-61527D01*
X-30759Y-61510D01*
X-30769Y-61488D01*
X-30834Y-61427D01*
X-30894Y-61361D01*
X-30915Y-61351D01*
X-30932Y-61334D01*
X-31015Y-61300D01*
X-31094Y-61259D01*
X-31120Y-61255D01*
X-31139Y-61247D01*
X-31189Y-61245D01*
X-31279Y-61231D01*
X-33376Y-61231D01*
X-34708Y-59899D01*
X-34781Y-59848D01*
X-34850Y-59792D01*
X-34873Y-59784D01*
X-34892Y-59771D01*
X-34978Y-59749D01*
X-35063Y-59720D01*
X-35086Y-59721D01*
X-35109Y-59715D01*
X-35198Y-59724D01*
X-35287Y-59727D01*
X-35309Y-59736D01*
X-35333Y-59738D01*
X-35413Y-59778D01*
X-35495Y-59811D01*
X-35512Y-59827D01*
X-35534Y-59837D01*
X-35595Y-59902D01*
X-35661Y-59962D01*
X-35671Y-59983D01*
X-35688Y-60001D01*
X-35722Y-60083D01*
X-35763Y-60162D01*
X-35767Y-60188D01*
X-35775Y-60207D01*
X-35777Y-60258D01*
X-35791Y-60347D01*
X-35791Y-61843D01*
X-37725Y-63777D01*
X-40462Y-63777D01*
X-42396Y-61843D01*
X-42396Y-59086D01*
X-42393Y-59082D01*
X-42337Y-59013D01*
X-42330Y-58990D01*
X-42316Y-58971D01*
X-42294Y-58884D01*
X-42266Y-58800D01*
X-42266Y-58776D01*
X-42260Y-58753D01*
X-42270Y-58665D01*
X-42272Y-58576D01*
X-42281Y-58554D01*
X-42283Y-58530D01*
X-42323Y-58450D01*
X-42356Y-58368D01*
X-42372Y-58350D01*
X-42383Y-58329D01*
X-42448Y-58268D01*
X-42508Y-58202D01*
X-42529Y-58191D01*
X-42546Y-58175D01*
X-42628Y-58140D01*
X-42707Y-58100D01*
X-42734Y-58096D01*
X-42753Y-58088D01*
X-42803Y-58085D01*
X-42893Y-58072D01*
X-45101Y-58072D01*
X-47036Y-56137D01*
X-47036Y-53401D01*
X-45691Y-52056D01*
X-45640Y-51983D01*
X-45584Y-51914D01*
X-45576Y-51891D01*
X-45563Y-51872D01*
X-45541Y-51786D01*
X-45512Y-51701D01*
X-45513Y-51678D01*
X-45507Y-51655D01*
X-45516Y-51566D01*
X-45519Y-51477D01*
X-45528Y-51455D01*
X-45530Y-51431D01*
X-45570Y-51351D01*
X-45603Y-51269D01*
X-45619Y-51252D01*
X-45629Y-51230D01*
X-45694Y-51169D01*
X-45754Y-51103D01*
X-45775Y-51093D01*
X-45793Y-51076D01*
X-45875Y-51042D01*
X-45954Y-51001D01*
X-45980Y-50997D01*
X-45999Y-50989D01*
X-46050Y-50987D01*
X-46139Y-50973D01*
X-47278Y-50973D01*
X-49028Y-49223D01*
X-49101Y-49172D01*
X-49170Y-49116D01*
X-49193Y-49109D01*
X-49212Y-49095D01*
X-49298Y-49073D01*
X-49383Y-49044D01*
X-49406Y-49045D01*
X-49429Y-49039D01*
X-49518Y-49048D01*
X-49607Y-49051D01*
X-49629Y-49060D01*
X-49653Y-49062D01*
X-49732Y-49102D01*
X-49815Y-49135D01*
X-49832Y-49151D01*
X-49854Y-49162D01*
X-49915Y-49227D01*
X-49980Y-49287D01*
X-49991Y-49308D01*
X-50008Y-49325D01*
X-50042Y-49407D01*
X-50083Y-49486D01*
X-50087Y-49513D01*
X-50095Y-49532D01*
X-50097Y-49582D01*
X-50109Y-49663D01*
X-52045Y-51599D01*
X-54781Y-51599D01*
X-56716Y-49664D01*
X-56716Y-46928D01*
X-55758Y-45970D01*
X-55707Y-45896D01*
X-55651Y-45827D01*
X-55643Y-45805D01*
X-55630Y-45785D01*
X-55608Y-45699D01*
X-55579Y-45615D01*
X-55580Y-45591D01*
X-55574Y-45568D01*
X-55583Y-45479D01*
X-55586Y-45391D01*
X-55595Y-45369D01*
X-55597Y-45345D01*
X-55636Y-45265D01*
X-55670Y-45183D01*
X-55686Y-45165D01*
X-55696Y-45144D01*
X-55761Y-45083D01*
X-55821Y-45017D01*
X-55842Y-45006D01*
X-55860Y-44990D01*
X-55942Y-44955D01*
X-56021Y-44914D01*
X-56047Y-44911D01*
X-56066Y-44902D01*
X-56117Y-44900D01*
X-56206Y-44887D01*
X-57787Y-44887D01*
X-59721Y-42952D01*
X-59721Y-40216D01*
X-57960Y-38455D01*
X-57923Y-38401D01*
X-57878Y-38353D01*
X-57859Y-38310D01*
X-57832Y-38271D01*
X-57816Y-38207D01*
X-57790Y-38146D01*
X-57788Y-38099D01*
X-57776Y-38053D01*
X-57783Y-37988D01*
X-57780Y-37922D01*
X-57795Y-37877D01*
X-57799Y-37830D01*
X-57829Y-37771D01*
X-57849Y-37709D01*
X-57881Y-37665D01*
X-57899Y-37629D01*
X-57928Y-37602D01*
X-57960Y-37558D01*
X-59986Y-35532D01*
X-59986Y-34921D01*
X-60002Y-34833D01*
X-60011Y-34745D01*
X-60022Y-34723D01*
X-60026Y-34700D01*
X-60071Y-34623D01*
X-60111Y-34544D01*
X-60128Y-34527D01*
X-60140Y-34507D01*
X-60209Y-34451D01*
X-60274Y-34390D01*
X-60296Y-34380D01*
X-60314Y-34365D01*
X-60399Y-34337D01*
X-60481Y-34302D01*
X-60504Y-34301D01*
X-60527Y-34294D01*
X-60616Y-34296D01*
X-60705Y-34292D01*
X-60727Y-34300D01*
X-60751Y-34300D01*
X-60834Y-34334D01*
X-60918Y-34361D01*
X-60940Y-34377D01*
X-60959Y-34385D01*
X-60996Y-34419D01*
X-61069Y-34472D01*
X-62725Y-36129D01*
X-65461Y-36129D01*
X-67396Y-34194D01*
X-67396Y-31458D01*
X-65889Y-29950D01*
X-65838Y-29877D01*
X-65782Y-29808D01*
X-65774Y-29786D01*
X-65760Y-29766D01*
X-65738Y-29680D01*
X-65710Y-29596D01*
X-65710Y-29572D01*
X-65705Y-29549D01*
X-65714Y-29460D01*
X-65716Y-29371D01*
X-65725Y-29349D01*
X-65728Y-29326D01*
X-65767Y-29246D01*
X-65801Y-29163D01*
X-65817Y-29146D01*
X-65827Y-29125D01*
X-65892Y-29064D01*
X-65952Y-28998D01*
X-65973Y-28987D01*
X-65990Y-28971D01*
X-66072Y-28936D01*
X-66152Y-28895D01*
X-66178Y-28891D01*
X-66197Y-28883D01*
X-66247Y-28881D01*
X-66337Y-28868D01*
X-66627Y-28868D01*
X-68562Y-26933D01*
X-68562Y-24861D01*
X-68569Y-24819D01*
X-68567Y-24777D01*
X-68589Y-24709D01*
X-68601Y-24640D01*
X-68623Y-24603D01*
X-68636Y-24563D01*
X-68690Y-24490D01*
X-68715Y-24447D01*
X-68732Y-24434D01*
X-68747Y-24412D01*
X-71498Y-21661D01*
X-71499Y-21661D01*
X-72652Y-20508D01*
X-72652Y-4913D01*
X-72663Y-4848D01*
X-72665Y-4782D01*
X-72683Y-4739D01*
X-72691Y-4692D01*
X-72725Y-4635D01*
X-72750Y-4575D01*
X-72781Y-4540D01*
X-72806Y-4499D01*
X-72857Y-4457D01*
X-72901Y-4409D01*
X-72943Y-4387D01*
X-72980Y-4358D01*
X-73042Y-4337D01*
X-73101Y-4306D01*
X-73155Y-4298D01*
X-73192Y-4286D01*
X-73232Y-4287D01*
X-73286Y-4279D01*
X-75564Y-4279D01*
X-76278Y-3564D01*
X-76352Y-3513D01*
X-76421Y-3457D01*
X-76443Y-3450D01*
X-76463Y-3436D01*
X-76549Y-3414D01*
X-76633Y-3385D01*
X-76657Y-3386D01*
X-76680Y-3380D01*
X-76768Y-3389D01*
X-76857Y-3392D01*
X-76879Y-3401D01*
X-76903Y-3403D01*
X-76983Y-3443D01*
X-77065Y-3476D01*
X-77083Y-3492D01*
X-77104Y-3503D01*
X-77165Y-3568D01*
X-77231Y-3628D01*
X-77242Y-3649D01*
X-77258Y-3666D01*
X-77293Y-3748D01*
X-77333Y-3827D01*
X-77337Y-3854D01*
X-77346Y-3873D01*
X-77348Y-3923D01*
X-77361Y-4013D01*
X-77361Y-8008D01*
X-77352Y-8057D01*
X-77348Y-8139D01*
X-74040Y-23810D01*
X-74022Y-23856D01*
X-74000Y-23935D01*
X-67528Y-38586D01*
X-67500Y-38626D01*
X-67463Y-38700D01*
X-58105Y-51698D01*
X-58070Y-51732D01*
X-58017Y-51796D01*
X-46178Y-62582D01*
X-46136Y-62608D01*
X-46072Y-62660D01*
X-32260Y-70769D01*
X-32213Y-70786D01*
X-32140Y-70823D01*
X-16951Y-75905D01*
X-16911Y-75911D01*
X-16855Y-75929D01*
X-9751Y-77125D01*
X-9708Y-77125D01*
X-9646Y-77134D01*
X9646Y-77134D01*
X9688Y-77127D01*
G37*
G36*
X14735Y-56235D02*
X14735Y-56235D01*
X14759Y-56235D01*
X14841Y-56201D01*
X14926Y-56174D01*
X14948Y-56158D01*
X14967Y-56151D01*
X15004Y-56116D01*
X15077Y-56063D01*
X17138Y-54001D01*
X19874Y-54001D01*
X20266Y-54393D01*
X20339Y-54443D01*
X20408Y-54499D01*
X20430Y-54507D01*
X20450Y-54521D01*
X20536Y-54543D01*
X20620Y-54571D01*
X20644Y-54571D01*
X20667Y-54577D01*
X20756Y-54567D01*
X20845Y-54565D01*
X20866Y-54556D01*
X20890Y-54553D01*
X20970Y-54514D01*
X21052Y-54480D01*
X21070Y-54464D01*
X21091Y-54454D01*
X21152Y-54389D01*
X21218Y-54329D01*
X21229Y-54308D01*
X21245Y-54291D01*
X21280Y-54209D01*
X21321Y-54129D01*
X21324Y-54103D01*
X21333Y-54084D01*
X21335Y-54034D01*
X21348Y-53944D01*
X21348Y-43816D01*
X24162Y-41002D01*
X24187Y-40967D01*
X24218Y-40938D01*
X24250Y-40875D01*
X24291Y-40817D01*
X24301Y-40776D01*
X24321Y-40738D01*
X24334Y-40649D01*
X24347Y-40600D01*
X24344Y-40579D01*
X24348Y-40553D01*
X24348Y-18947D01*
X24341Y-18905D01*
X24343Y-18863D01*
X24321Y-18796D01*
X24309Y-18726D01*
X24287Y-18690D01*
X24274Y-18649D01*
X24220Y-18576D01*
X24194Y-18533D01*
X24178Y-18520D01*
X24162Y-18498D01*
X18495Y-12831D01*
X18441Y-12794D01*
X18393Y-12749D01*
X18350Y-12730D01*
X18311Y-12703D01*
X18247Y-12687D01*
X18187Y-12661D01*
X18140Y-12659D01*
X18094Y-12647D01*
X18028Y-12654D01*
X17963Y-12651D01*
X17918Y-12666D01*
X17871Y-12670D01*
X17812Y-12700D01*
X17749Y-12720D01*
X17705Y-12752D01*
X17670Y-12770D01*
X17643Y-12799D01*
X17598Y-12831D01*
X17151Y-13279D01*
X14849Y-13279D01*
X14152Y-12581D01*
X14098Y-12544D01*
X14050Y-12499D01*
X14006Y-12480D01*
X13967Y-12453D01*
X13904Y-12437D01*
X13843Y-12411D01*
X13796Y-12409D01*
X13750Y-12397D01*
X13685Y-12404D01*
X13619Y-12401D01*
X13574Y-12416D01*
X13527Y-12420D01*
X13468Y-12450D01*
X13405Y-12470D01*
X13361Y-12502D01*
X13326Y-12520D01*
X13299Y-12549D01*
X13255Y-12581D01*
X8338Y-17498D01*
X8313Y-17533D01*
X8282Y-17562D01*
X8250Y-17625D01*
X8209Y-17683D01*
X8199Y-17724D01*
X8179Y-17762D01*
X8166Y-17851D01*
X8153Y-17900D01*
X8156Y-17921D01*
X8152Y-17947D01*
X8152Y-20949D01*
X8123Y-20975D01*
X8091Y-21038D01*
X8050Y-21096D01*
X8040Y-21137D01*
X8020Y-21175D01*
X8007Y-21264D01*
X7994Y-21313D01*
X7997Y-21334D01*
X7993Y-21360D01*
X7993Y-21627D01*
X8008Y-21715D01*
X8018Y-21804D01*
X8028Y-21825D01*
X8032Y-21848D01*
X8078Y-21925D01*
X8117Y-22005D01*
X8134Y-22021D01*
X8147Y-22041D01*
X8216Y-22098D01*
X8280Y-22159D01*
X8302Y-22168D01*
X8321Y-22183D01*
X8405Y-22211D01*
X8487Y-22246D01*
X8511Y-22247D01*
X8533Y-22255D01*
X8622Y-22252D01*
X8711Y-22256D01*
X8734Y-22249D01*
X8758Y-22248D01*
X8840Y-22215D01*
X8925Y-22187D01*
X8946Y-22172D01*
X8965Y-22164D01*
X9003Y-22130D01*
X9075Y-22076D01*
X10454Y-20697D01*
X13404Y-19475D01*
X16596Y-19475D01*
X19546Y-20697D01*
X21803Y-22954D01*
X23025Y-25904D01*
X23025Y-29096D01*
X21803Y-32046D01*
X19546Y-34303D01*
X16596Y-35525D01*
X13404Y-35525D01*
X10454Y-34303D01*
X9075Y-32924D01*
X9002Y-32873D01*
X8933Y-32817D01*
X8911Y-32810D01*
X8891Y-32796D01*
X8805Y-32774D01*
X8721Y-32745D01*
X8697Y-32746D01*
X8674Y-32740D01*
X8585Y-32749D01*
X8496Y-32752D01*
X8474Y-32761D01*
X8451Y-32763D01*
X8371Y-32803D01*
X8289Y-32836D01*
X8271Y-32852D01*
X8250Y-32863D01*
X8189Y-32928D01*
X8123Y-32988D01*
X8112Y-33009D01*
X8096Y-33026D01*
X8061Y-33108D01*
X8020Y-33187D01*
X8017Y-33213D01*
X8008Y-33233D01*
X8006Y-33283D01*
X7993Y-33373D01*
X7993Y-35553D01*
X8000Y-35595D01*
X7998Y-35637D01*
X8020Y-35704D01*
X8032Y-35774D01*
X8054Y-35810D01*
X8067Y-35851D01*
X8121Y-35924D01*
X8147Y-35967D01*
X8163Y-35980D01*
X8179Y-36002D01*
X13994Y-41817D01*
X13994Y-55614D01*
X14007Y-55688D01*
X14008Y-55700D01*
X14011Y-55707D01*
X14019Y-55790D01*
X14030Y-55812D01*
X14034Y-55835D01*
X14079Y-55912D01*
X14119Y-55991D01*
X14136Y-56008D01*
X14148Y-56028D01*
X14217Y-56084D01*
X14282Y-56145D01*
X14304Y-56155D01*
X14322Y-56170D01*
X14406Y-56198D01*
X14489Y-56233D01*
X14512Y-56234D01*
X14535Y-56241D01*
X14624Y-56239D01*
X14713Y-56243D01*
X14735Y-56235D01*
G37*
G36*
X73397Y-24603D02*
X73397Y-24603D01*
X73417Y-24602D01*
X73503Y-24567D01*
X73592Y-24538D01*
X73607Y-24525D01*
X73624Y-24518D01*
X73693Y-24455D01*
X73766Y-24396D01*
X73777Y-24378D01*
X73790Y-24367D01*
X73813Y-24322D01*
X73866Y-24238D01*
X74000Y-23935D01*
X74012Y-23887D01*
X74040Y-23810D01*
X77348Y-8139D01*
X77348Y-8112D01*
X77354Y-8095D01*
X77353Y-8061D01*
X77361Y-8008D01*
X77361Y8008D01*
X77352Y8057D01*
X77348Y8139D01*
X74040Y23810D01*
X74022Y23856D01*
X74000Y23935D01*
X69372Y34410D01*
X69333Y34468D01*
X69302Y34531D01*
X69271Y34561D01*
X69247Y34596D01*
X69190Y34637D01*
X69139Y34685D01*
X69099Y34702D01*
X69064Y34727D01*
X68997Y34745D01*
X68932Y34773D01*
X68889Y34775D01*
X68848Y34786D01*
X68778Y34780D01*
X68708Y34783D01*
X68667Y34770D01*
X68625Y34766D01*
X68561Y34736D01*
X68494Y34714D01*
X68455Y34685D01*
X68422Y34669D01*
X68393Y34639D01*
X68344Y34603D01*
X65974Y32233D01*
X62026Y32233D01*
X59948Y34310D01*
X59914Y34334D01*
X59887Y34364D01*
X59866Y34374D01*
X59847Y34393D01*
X59803Y34411D01*
X59764Y34438D01*
X59719Y34450D01*
X59688Y34466D01*
X59666Y34469D01*
X59640Y34480D01*
X59593Y34483D01*
X59547Y34494D01*
X59518Y34491D01*
X59502Y34494D01*
X59498Y34494D01*
X59467Y34488D01*
X59416Y34490D01*
X59371Y34476D01*
X59324Y34471D01*
X59297Y34458D01*
X59277Y34454D01*
X59246Y34436D01*
X59202Y34422D01*
X59158Y34389D01*
X59123Y34372D01*
X59104Y34352D01*
X59084Y34340D01*
X59072Y34325D01*
X59052Y34310D01*
X58534Y33793D01*
X58496Y33739D01*
X58451Y33691D01*
X58433Y33647D01*
X58406Y33609D01*
X58389Y33545D01*
X58364Y33484D01*
X58362Y33437D01*
X58350Y33391D01*
X58357Y33326D01*
X58354Y33260D01*
X58368Y33215D01*
X58373Y33168D01*
X58402Y33109D01*
X58422Y33046D01*
X58455Y33002D01*
X58473Y32967D01*
X58501Y32940D01*
X58534Y32896D01*
X59779Y31651D01*
X59779Y30320D01*
X59786Y30278D01*
X59784Y30236D01*
X59806Y30169D01*
X59818Y30099D01*
X59840Y30063D01*
X59853Y30022D01*
X59907Y29949D01*
X59933Y29906D01*
X59949Y29893D01*
X59965Y29871D01*
X72652Y17184D01*
X72652Y-23982D01*
X72668Y-24074D01*
X72679Y-24166D01*
X72688Y-24184D01*
X72691Y-24203D01*
X72739Y-24283D01*
X72781Y-24366D01*
X72796Y-24379D01*
X72806Y-24396D01*
X72878Y-24455D01*
X72947Y-24518D01*
X72965Y-24525D01*
X72980Y-24537D01*
X73068Y-24567D01*
X73155Y-24602D01*
X73174Y-24603D01*
X73192Y-24609D01*
X73285Y-24606D01*
X73379Y-24609D01*
X73397Y-24603D01*
G37*
G36*
X18Y-70596D02*
X18Y-70596D01*
X84Y-70599D01*
X129Y-70584D01*
X176Y-70579D01*
X235Y-70550D01*
X298Y-70530D01*
X342Y-70497D01*
X377Y-70480D01*
X404Y-70451D01*
X448Y-70419D01*
X1781Y-69086D01*
X1805Y-69051D01*
X1837Y-69023D01*
X1869Y-68960D01*
X1909Y-68902D01*
X1920Y-68861D01*
X1939Y-68823D01*
X1953Y-68733D01*
X1965Y-68685D01*
X1963Y-68664D01*
X1967Y-68638D01*
X1967Y-67796D01*
X1964Y-67780D01*
X1966Y-67765D01*
X1944Y-67670D01*
X1927Y-67575D01*
X1919Y-67561D01*
X1916Y-67546D01*
X1863Y-67465D01*
X1813Y-67382D01*
X1801Y-67372D01*
X1793Y-67359D01*
X1714Y-67301D01*
X1639Y-67240D01*
X1624Y-67235D01*
X1612Y-67226D01*
X1518Y-67199D01*
X1426Y-67168D01*
X1411Y-67169D01*
X1396Y-67165D01*
X1249Y-67172D01*
X1249Y-61615D01*
X1238Y-61550D01*
X1236Y-61485D01*
X1218Y-61441D01*
X1210Y-61394D01*
X1176Y-61338D01*
X1151Y-61277D01*
X1120Y-61242D01*
X1095Y-61201D01*
X1044Y-61160D01*
X1000Y-61111D01*
X958Y-61090D01*
X921Y-61060D01*
X859Y-61039D01*
X800Y-61009D01*
X755Y-61002D01*
X789Y-60988D01*
X836Y-60979D01*
X893Y-60946D01*
X953Y-60921D01*
X988Y-60889D01*
X1029Y-60865D01*
X1071Y-60814D01*
X1119Y-60770D01*
X1141Y-60728D01*
X1170Y-60691D01*
X1191Y-60629D01*
X1222Y-60570D01*
X1230Y-60516D01*
X1242Y-60479D01*
X1241Y-60439D01*
X1249Y-60385D01*
X1249Y-54835D01*
X1835Y-54951D01*
X2971Y-55422D01*
X3047Y-55438D01*
X3120Y-55463D01*
X3156Y-55462D01*
X3190Y-55470D01*
X3267Y-55459D01*
X3345Y-55456D01*
X3377Y-55443D01*
X3413Y-55438D01*
X3481Y-55401D01*
X3552Y-55372D01*
X3579Y-55348D01*
X3610Y-55331D01*
X3661Y-55273D01*
X3718Y-55221D01*
X3734Y-55189D01*
X3758Y-55162D01*
X3785Y-55090D01*
X3821Y-55021D01*
X3827Y-54981D01*
X3837Y-54953D01*
X3838Y-54906D01*
X3848Y-54836D01*
X3848Y-45947D01*
X3841Y-45905D01*
X3843Y-45863D01*
X3821Y-45796D01*
X3809Y-45726D01*
X3787Y-45690D01*
X3774Y-45649D01*
X3720Y-45576D01*
X3694Y-45533D01*
X3678Y-45520D01*
X3662Y-45498D01*
X1502Y-43338D01*
X348Y-42184D01*
X348Y-42011D01*
X333Y-41923D01*
X323Y-41835D01*
X313Y-41813D01*
X309Y-41790D01*
X263Y-41713D01*
X224Y-41634D01*
X207Y-41617D01*
X195Y-41597D01*
X125Y-41541D01*
X61Y-41480D01*
X39Y-41470D01*
X20Y-41455D01*
X-64Y-41427D01*
X-146Y-41392D01*
X-170Y-41391D01*
X-192Y-41384D01*
X-281Y-41386D01*
X-370Y-41382D01*
X-393Y-41389D01*
X-417Y-41390D01*
X-499Y-41424D01*
X-584Y-41451D01*
X-605Y-41467D01*
X-624Y-41474D01*
X-662Y-41508D01*
X-734Y-41562D01*
X-8652Y-49480D01*
X-8676Y-49515D01*
X-8708Y-49543D01*
X-8740Y-49606D01*
X-8780Y-49664D01*
X-8791Y-49705D01*
X-8810Y-49743D01*
X-8824Y-49833D01*
X-8836Y-49881D01*
X-8834Y-49902D01*
X-8838Y-49928D01*
X-8838Y-66017D01*
X-8830Y-66058D01*
X-8832Y-66101D01*
X-8811Y-66168D01*
X-8798Y-66237D01*
X-8777Y-66274D01*
X-8764Y-66314D01*
X-8710Y-66387D01*
X-8684Y-66431D01*
X-8668Y-66444D01*
X-8652Y-66465D01*
X-7187Y-67930D01*
X-7187Y-69286D01*
X-7171Y-69373D01*
X-7162Y-69462D01*
X-7151Y-69483D01*
X-7147Y-69506D01*
X-7102Y-69583D01*
X-7062Y-69663D01*
X-7045Y-69679D01*
X-7033Y-69700D01*
X-6964Y-69756D01*
X-6899Y-69817D01*
X-6877Y-69826D01*
X-6859Y-69841D01*
X-6775Y-69870D01*
X-6693Y-69904D01*
X-6669Y-69905D01*
X-6646Y-69913D01*
X-6557Y-69910D01*
X-6468Y-69914D01*
X-6446Y-69907D01*
X-6422Y-69906D01*
X-6340Y-69873D01*
X-6255Y-69846D01*
X-6234Y-69830D01*
X-6214Y-69822D01*
X-6177Y-69788D01*
X-6104Y-69734D01*
X-4987Y-68617D01*
X-2251Y-68617D01*
X-449Y-70419D01*
X-394Y-70456D01*
X-347Y-70501D01*
X-303Y-70520D01*
X-264Y-70547D01*
X-201Y-70563D01*
X-140Y-70589D01*
X-93Y-70591D01*
X-47Y-70603D01*
X18Y-70596D01*
G37*
%LPC*%
G36*
X-33151Y10221D02*
X-33151Y10221D01*
X-34779Y11849D01*
X-34779Y14151D01*
X-33151Y15779D01*
X-30849Y15779D01*
X-29221Y14151D01*
X-29221Y11849D01*
X-30849Y10221D01*
X-33151Y10221D01*
G37*
%LPD*%
%LPC*%
G36*
X6849Y10221D02*
X6849Y10221D01*
X5221Y11849D01*
X5221Y14151D01*
X6849Y15779D01*
X9151Y15779D01*
X10779Y14151D01*
X10779Y11849D01*
X9151Y10221D01*
X6849Y10221D01*
G37*
%LPD*%
%LPC*%
G36*
X-9151Y10221D02*
X-9151Y10221D01*
X-10779Y11849D01*
X-10779Y14151D01*
X-9151Y15779D01*
X-6849Y15779D01*
X-5221Y14151D01*
X-5221Y11849D01*
X-6849Y10221D01*
X-9151Y10221D01*
G37*
%LPD*%
%LPC*%
G36*
X-25151Y10221D02*
X-25151Y10221D01*
X-26779Y11849D01*
X-26779Y14151D01*
X-25151Y15779D01*
X-22849Y15779D01*
X-21221Y14151D01*
X-21221Y11849D01*
X-22849Y10221D01*
X-25151Y10221D01*
G37*
%LPD*%
%LPC*%
G36*
X-49151Y10221D02*
X-49151Y10221D01*
X-50779Y11849D01*
X-50779Y14151D01*
X-49151Y15779D01*
X-46849Y15779D01*
X-45221Y14151D01*
X-45221Y11849D01*
X-46849Y10221D01*
X-49151Y10221D01*
G37*
%LPD*%
%LPC*%
G36*
X-41151Y10221D02*
X-41151Y10221D01*
X-42779Y11849D01*
X-42779Y14151D01*
X-41151Y15779D01*
X-38849Y15779D01*
X-37221Y14151D01*
X-37221Y11849D01*
X-38849Y10221D01*
X-41151Y10221D01*
G37*
%LPD*%
%LPC*%
G36*
X22849Y10221D02*
X22849Y10221D01*
X21221Y11849D01*
X21221Y14151D01*
X22849Y15779D01*
X25151Y15779D01*
X26779Y14151D01*
X26779Y11849D01*
X25151Y10221D01*
X22849Y10221D01*
G37*
%LPD*%
%LPC*%
G36*
X30849Y10221D02*
X30849Y10221D01*
X29221Y11849D01*
X29221Y14151D01*
X30849Y15779D01*
X33151Y15779D01*
X34779Y14151D01*
X34779Y11849D01*
X33151Y10221D01*
X30849Y10221D01*
G37*
%LPD*%
%LPC*%
G36*
X38849Y10221D02*
X38849Y10221D01*
X37221Y11849D01*
X37221Y14151D01*
X38849Y15779D01*
X41151Y15779D01*
X42779Y14151D01*
X42779Y11849D01*
X41151Y10221D01*
X38849Y10221D01*
G37*
%LPD*%
%LPC*%
G36*
X46849Y10221D02*
X46849Y10221D01*
X45221Y11849D01*
X45221Y14151D01*
X46849Y15779D01*
X49151Y15779D01*
X50779Y14151D01*
X50779Y11849D01*
X49151Y10221D01*
X46849Y10221D01*
G37*
%LPD*%
%LPC*%
G36*
X-17151Y10221D02*
X-17151Y10221D01*
X-18779Y11849D01*
X-18779Y14151D01*
X-17151Y15779D01*
X-14849Y15779D01*
X-13221Y14151D01*
X-13221Y11849D01*
X-14849Y10221D01*
X-17151Y10221D01*
G37*
%LPD*%
%LPC*%
G36*
X14849Y10221D02*
X14849Y10221D01*
X13221Y11849D01*
X13221Y14151D01*
X14849Y15779D01*
X17151Y15779D01*
X18779Y14151D01*
X18779Y11849D01*
X17151Y10221D01*
X14849Y10221D01*
G37*
%LPD*%
%LPC*%
G36*
X-1151Y10221D02*
X-1151Y10221D01*
X-2779Y11849D01*
X-2779Y14151D01*
X-1151Y15779D01*
X1151Y15779D01*
X2779Y14151D01*
X2779Y11849D01*
X1151Y10221D01*
X-1151Y10221D01*
G37*
%LPD*%
%LPC*%
G36*
X-1835Y-67049D02*
X-1835Y-67049D01*
X-2980Y-66575D01*
X-4010Y-65886D01*
X-4886Y-65010D01*
X-5575Y-63980D01*
X-6049Y-62835D01*
X-6165Y-62249D01*
X-1249Y-62249D01*
X-1249Y-67165D01*
X-1835Y-67049D01*
G37*
%LPD*%
%LPC*%
G36*
X1249Y64751D02*
X1249Y64751D01*
X6165Y64751D01*
X6049Y64165D01*
X5575Y63020D01*
X4886Y61990D01*
X4010Y61114D01*
X2980Y60425D01*
X1835Y59951D01*
X1249Y59835D01*
X1249Y64751D01*
G37*
%LPD*%
%LPC*%
G36*
X-6165Y-59751D02*
X-6165Y-59751D01*
X-6049Y-59165D01*
X-5575Y-58020D01*
X-4886Y-56990D01*
X-4010Y-56114D01*
X-2980Y-55425D01*
X-1835Y-54951D01*
X-1249Y-54835D01*
X-1249Y-59751D01*
X-6165Y-59751D01*
G37*
%LPD*%
D10*
X-59500Y44000D03*
X-65100Y34900D03*
X-54200Y37000D03*
X55000Y37000D03*
X0Y66000D03*
X0Y-61000D03*
X64000Y37000D03*
X57000Y46000D03*
D11*
X-19264Y63317D03*
X-14102Y68654D03*
X-21480Y56257D03*
X-7378Y71631D03*
X-34995Y56174D03*
X-31391Y62665D03*
X-35308Y48781D03*
X-25666Y67281D03*
X-48342Y45202D03*
X-46540Y52405D03*
X-46731Y37980D03*
X-42205Y58346D03*
X-63594Y-18329D03*
X-65259Y-25565D03*
X-58880Y-12625D03*
X-64093Y-32826D03*
X-56684Y-34164D03*
X-56419Y-41584D03*
X-53606Y-27434D03*
X-53413Y-48296D03*
X-45910Y-47671D03*
X-43733Y-54769D03*
X-44679Y-40374D03*
X-39093Y-60475D03*
X-32008Y-57929D03*
X-28068Y-64222D03*
X-32707Y-50562D03*
X-22109Y-68532D03*
X-15924Y-64239D03*
X-10490Y-69298D03*
X-18506Y-57304D03*
X-3619Y-71919D03*
X19264Y63317D03*
X14102Y68654D03*
X21480Y56257D03*
X7378Y71631D03*
X34995Y56174D03*
X31391Y62665D03*
X35308Y48781D03*
X25666Y67281D03*
X48342Y45202D03*
X46540Y52405D03*
X46731Y37980D03*
X42205Y58346D03*
X63594Y-18329D03*
X65259Y-25565D03*
X58880Y-12625D03*
X64093Y-32826D03*
X56684Y-34164D03*
X56419Y-41584D03*
X53606Y-27434D03*
X53413Y-48296D03*
X45910Y-47671D03*
X43733Y-54769D03*
X44679Y-40374D03*
X39093Y-60475D03*
X32008Y-57929D03*
X28068Y-64222D03*
X32707Y-50562D03*
X22109Y-68532D03*
X15924Y-64239D03*
X10490Y-69298D03*
X18506Y-57304D03*
X3619Y-71919D03*
D12*
X-63000Y8000D03*
D13*
X-53606Y-22354D02*
X-53606Y-27434D01*
X-53606Y-22354D02*
X-54286Y-21674D01*
X-54286Y-9714D01*
X-63000Y-1000D02*
X-63000Y8000D01*
X-63000Y-1000D02*
X-54286Y-9714D01*
D12*
X-58000Y7000D03*
X-52000Y7000D03*
D13*
X-48000Y-33166D02*
X-56419Y-41584D01*
X-48000Y-17000D02*
X-52000Y-13000D01*
X-52000Y7000D01*
X-52000Y7000D01*
X-48000Y-17000D02*
X-48000Y-33166D01*
D12*
X-48000Y-10500D03*
X-44000Y7000D03*
D13*
X-44000Y-39695D01*
X-44679Y-40374D01*
D12*
X-40000Y-10500D03*
X-36000Y7000D03*
D13*
X-36000Y-44000D02*
X-41000Y-49000D01*
X-41000Y-52036D01*
X-43733Y-54769D01*
X-36000Y-44000D02*
X-36000Y7000D01*
D12*
X-32000Y-10500D03*
X-28000Y7000D03*
D13*
X-28000Y-15000D01*
X-29823Y-47677D02*
X-32707Y-50562D01*
X-29823Y-47677D02*
X-29823Y-16823D01*
X-28000Y-15000D01*
D12*
X-24000Y-10500D03*
X-20000Y7000D03*
D13*
X-26000Y-62154D02*
X-28068Y-64222D01*
X-20000Y-13500D02*
X-20000Y7000D01*
X-26000Y-19500D02*
X-26000Y-62154D01*
X-26000Y-19500D02*
X-20000Y-13500D01*
D12*
X-16000Y-10500D03*
X-12000Y7000D03*
D13*
X-12000Y-11500D01*
X-6341Y-17159D02*
X-6341Y-34240D01*
X-6341Y-17159D02*
X-12000Y-11500D01*
X-6341Y-34240D02*
X-18506Y-46405D01*
X-18506Y-57304D01*
D12*
X-8000Y-10500D03*
X-4000Y7000D03*
D13*
X-4000Y-12500D01*
X-2000Y-14500D01*
X-2000Y-40492D01*
X-10490Y-48982D02*
X-10490Y-69298D01*
X-10490Y-48982D02*
X-2000Y-40492D01*
D12*
X0Y-10500D03*
X4000Y7000D03*
D13*
X4000Y-12500D01*
X2000Y-14500D01*
X5500Y-65974D02*
X3619Y-67855D01*
X5500Y-65974D02*
X5500Y-45000D01*
X2000Y-41500D01*
X2000Y-14500D01*
X3619Y-67855D02*
X3619Y-67855D01*
X3619Y-71919D01*
D12*
X8000Y-10500D03*
X12000Y7000D03*
D13*
X12000Y-11500D01*
X6500Y-17000D01*
X6500Y-20254D01*
X6341Y-20413D01*
X6341Y-36500D01*
X12343Y-42502D01*
X12343Y-60657D02*
X15924Y-64239D01*
X12343Y-60657D02*
X12343Y-42502D01*
D12*
X16000Y-10500D03*
X20000Y7000D03*
D13*
X23000Y-61292D02*
X22109Y-62182D01*
X26000Y-41500D02*
X26000Y-18000D01*
X26000Y-41500D02*
X23000Y-44500D01*
X23000Y-61292D01*
X26000Y-18000D02*
X20000Y-12000D01*
X20000Y7000D01*
X22109Y-62182D02*
X22109Y-62182D01*
X22109Y-68532D01*
D12*
X24000Y-10500D03*
X28000Y7000D03*
D13*
X28000Y-12500D01*
X28242Y-47758D02*
X28242Y-54163D01*
X32008Y-57929D01*
X30500Y-15000D02*
X28000Y-12500D01*
X30500Y-15000D02*
X30500Y-45500D01*
X28242Y-47758D01*
D12*
X32000Y-10500D03*
X36000Y7000D03*
D13*
X36000Y-46000D01*
X39093Y-49093D02*
X39093Y-60475D01*
X39093Y-49093D02*
X36000Y-46000D01*
D12*
X40000Y-10500D03*
X44000Y7000D03*
D13*
X44000Y-34000D01*
X40000Y-38000D01*
X40000Y-44000D01*
X43671Y-47671D01*
X45910Y-47671D01*
D12*
X48000Y-10500D03*
X-63000Y-40500D03*
X-51000Y-55500D03*
X-35000Y-66500D03*
X-16200Y-72600D03*
X16400Y-72700D03*
X35000Y-66500D03*
X50200Y-54400D03*
X62300Y-39400D03*
X-53500Y52300D03*
X-38000Y64300D03*
X-100Y74900D03*
X20000Y72500D03*
X38000Y64500D03*
X61100Y11200D03*
X-19800Y72300D03*
X-75000Y-9000D03*
X75000Y-8000D03*
X75000Y8000D03*
X53000Y53500D03*
X12000Y-16500D03*
X-74413Y-1500D03*
X57000Y30500D03*
D13*
X71000Y-28000D02*
X66174Y-32826D01*
X64093Y-32826D01*
X71000Y16500D02*
X57000Y30500D01*
X71000Y16500D02*
X71000Y-28000D01*
D12*
X50000Y30500D03*
D13*
X68000Y-13923D02*
X63594Y-18329D01*
X68000Y12500D02*
X50000Y30500D01*
X68000Y12500D02*
X68000Y-13923D01*
D12*
X44000Y30500D03*
D13*
X44000Y35249D01*
X46731Y37980D01*
D12*
X40000Y13000D03*
X36000Y30500D03*
D13*
X36000Y41866D01*
X46540Y52405D01*
D12*
X32000Y13000D03*
X28000Y30500D03*
D13*
X28000Y36220D02*
X31880Y40100D01*
X31880Y45352D01*
X35308Y48781D01*
X28000Y36220D02*
X28000Y30500D01*
D12*
X24000Y13000D03*
X20000Y30500D03*
D13*
X20000Y43095D01*
X28000Y51095D01*
X28000Y59275D01*
X31391Y62665D01*
D12*
X16000Y13000D03*
X12000Y30500D03*
D13*
X12000Y39157D01*
X21480Y48637D01*
X21480Y56257D01*
D12*
X8000Y13000D03*
X4000Y30500D03*
D13*
X4000Y36962D02*
X14102Y47064D01*
X14102Y68654D01*
X4000Y36962D02*
X4000Y30500D01*
D12*
X0Y13000D03*
X-4000Y30500D03*
D13*
X-4000Y37680D01*
X-9918Y43598D01*
X-9918Y64011D01*
X-7378Y66551D01*
X-7378Y71631D01*
D12*
X-8000Y13000D03*
X-12000Y30500D03*
D13*
X-12000Y35580D02*
X-15175Y38755D01*
X-12000Y35580D02*
X-12000Y30500D01*
X-15175Y38755D02*
X-15175Y59228D01*
X-19264Y63317D01*
D12*
X-16000Y13000D03*
X-20000Y30500D03*
D13*
X-20000Y45000D01*
X-25666Y50666D02*
X-25666Y67281D01*
X-25666Y50666D02*
X-20000Y45000D01*
D12*
X-24000Y13000D03*
X-28000Y30500D03*
D13*
X-28000Y49179D01*
X-34995Y56174D01*
D12*
X-32000Y13000D03*
X-36000Y30500D03*
D13*
X-36000Y41000D01*
X-42205Y47205D02*
X-42205Y58346D01*
X-42205Y47205D02*
X-36000Y41000D01*
D12*
X-40000Y13000D03*
X-44000Y30500D03*
D13*
X-41508Y32992D01*
X-41508Y42032D01*
X-44678Y45202D01*
X-48342Y45202D01*
D12*
X-48000Y13000D03*
X-51000Y30500D03*
D13*
X-68000Y-3505D02*
X-58880Y-12625D01*
X-68000Y15000D02*
X-65000Y18000D01*
X-63500Y18000D02*
X-51000Y30500D01*
X-68000Y15000D02*
X-68000Y-3505D01*
X-65000Y18000D02*
X-63500Y18000D01*
D12*
X-56000Y30500D03*
D13*
X-71000Y-19824D02*
X-65259Y-25565D01*
X-71000Y16500D02*
X-56000Y30500D01*
X-71000Y16500D02*
X-71000Y-19824D01*
D12*
X52000Y7000D03*
D13*
X49000Y-30000D02*
X51000Y-32000D01*
X51000Y-45883D02*
X53413Y-48296D01*
X49000Y-30000D02*
X49000Y-22000D01*
X51000Y-32000D02*
X51000Y-45883D01*
X49000Y-22000D02*
X51413Y-19587D01*
X51413Y6413D02*
X52000Y7000D01*
X51413Y6413D02*
X51413Y-19587D01*
D12*
X58000Y7000D03*
X64000Y7000D03*
D13*
X54286Y-7714D02*
X54286Y-19286D01*
X58000Y-23000D01*
X58000Y-32847D01*
X56684Y-34164D01*
X64000Y2000D02*
X64000Y7000D01*
X64000Y2000D02*
X54286Y-7714D01*
D12*
X64000Y-10500D03*
X48000Y13000D03*
X56000Y13000D03*
X-56000Y13000D03*
X-64000Y13000D03*
M02*
