G04 EAGLE Gerber RS-274X export*
G75*
%MOMM*%
%FSLAX34Y34*%
%LPD*%
%INCopper Layer 15*%
%IPPOS*%
%AMOC8*
5,1,8,0,0,1.08239X$1,22.5*%
G01*
%ADD10C,0.750000*%
%ADD11C,0.457200*%
%ADD12C,0.352400*%
%ADD13C,0.127000*%
%ADD14C,0.150000*%

G36*
X9688Y-77127D02*
X9688Y-77127D01*
X9751Y-77125D01*
X16855Y-75929D01*
X16894Y-75915D01*
X16951Y-75905D01*
X32140Y-70823D01*
X32183Y-70799D01*
X32260Y-70769D01*
X46072Y-62660D01*
X46109Y-62628D01*
X46178Y-62582D01*
X58017Y-51796D01*
X58048Y-51757D01*
X58105Y-51698D01*
X67463Y-38700D01*
X67484Y-38655D01*
X67528Y-38586D01*
X74000Y-23935D01*
X74012Y-23887D01*
X74040Y-23810D01*
X77348Y-8139D01*
X77348Y-8112D01*
X77354Y-8095D01*
X77353Y-8061D01*
X77361Y-8008D01*
X77361Y8008D01*
X77352Y8057D01*
X77348Y8139D01*
X74040Y23810D01*
X74022Y23856D01*
X74000Y23935D01*
X69372Y34410D01*
X69333Y34468D01*
X69302Y34531D01*
X69271Y34561D01*
X69247Y34596D01*
X69190Y34637D01*
X69139Y34685D01*
X69099Y34702D01*
X69064Y34727D01*
X68997Y34745D01*
X68932Y34773D01*
X68889Y34775D01*
X68848Y34786D01*
X68778Y34780D01*
X68708Y34783D01*
X68667Y34770D01*
X68625Y34766D01*
X68561Y34736D01*
X68494Y34714D01*
X68455Y34685D01*
X68422Y34669D01*
X68393Y34639D01*
X68344Y34603D01*
X65974Y32233D01*
X62026Y32233D01*
X59948Y34310D01*
X59914Y34334D01*
X59887Y34364D01*
X59866Y34374D01*
X59847Y34393D01*
X59803Y34411D01*
X59764Y34438D01*
X59719Y34450D01*
X59688Y34466D01*
X59666Y34469D01*
X59640Y34480D01*
X59593Y34483D01*
X59547Y34494D01*
X59518Y34491D01*
X59502Y34494D01*
X59498Y34494D01*
X59467Y34488D01*
X59416Y34490D01*
X59371Y34476D01*
X59324Y34471D01*
X59297Y34458D01*
X59277Y34454D01*
X59246Y34436D01*
X59202Y34422D01*
X59158Y34389D01*
X59123Y34372D01*
X59104Y34352D01*
X59084Y34340D01*
X59072Y34325D01*
X59052Y34310D01*
X58534Y33793D01*
X58496Y33739D01*
X58451Y33691D01*
X58433Y33647D01*
X58406Y33609D01*
X58389Y33545D01*
X58364Y33484D01*
X58362Y33437D01*
X58350Y33391D01*
X58357Y33326D01*
X58354Y33260D01*
X58368Y33215D01*
X58373Y33168D01*
X58402Y33109D01*
X58422Y33046D01*
X58455Y33002D01*
X58473Y32967D01*
X58501Y32940D01*
X58534Y32896D01*
X59779Y31651D01*
X59779Y29349D01*
X58151Y27721D01*
X55849Y27721D01*
X54221Y29349D01*
X54221Y31599D01*
X54210Y31664D01*
X54208Y31730D01*
X54190Y31773D01*
X54182Y31820D01*
X54148Y31877D01*
X54123Y31937D01*
X54092Y31972D01*
X54067Y32013D01*
X54016Y32055D01*
X53972Y32103D01*
X53930Y32125D01*
X53893Y32154D01*
X53831Y32175D01*
X53772Y32206D01*
X53718Y32214D01*
X53681Y32226D01*
X53641Y32225D01*
X53587Y32233D01*
X53413Y32233D01*
X53348Y32222D01*
X53282Y32220D01*
X53239Y32202D01*
X53192Y32194D01*
X53135Y32160D01*
X53075Y32135D01*
X53040Y32104D01*
X52999Y32079D01*
X52957Y32028D01*
X52909Y31984D01*
X52887Y31942D01*
X52858Y31905D01*
X52837Y31843D01*
X52806Y31784D01*
X52798Y31730D01*
X52786Y31693D01*
X52787Y31653D01*
X52779Y31599D01*
X52779Y29349D01*
X51151Y27721D01*
X48849Y27721D01*
X47449Y29122D01*
X47394Y29159D01*
X47347Y29205D01*
X47303Y29223D01*
X47264Y29250D01*
X47201Y29266D01*
X47140Y29292D01*
X47093Y29294D01*
X47047Y29306D01*
X46982Y29299D01*
X46916Y29302D01*
X46871Y29287D01*
X46824Y29283D01*
X46765Y29253D01*
X46702Y29233D01*
X46658Y29201D01*
X46623Y29183D01*
X46596Y29154D01*
X46552Y29122D01*
X45151Y27721D01*
X42849Y27721D01*
X42734Y27836D01*
X42661Y27887D01*
X42592Y27943D01*
X42570Y27950D01*
X42550Y27964D01*
X42464Y27986D01*
X42380Y28015D01*
X42356Y28014D01*
X42333Y28020D01*
X42244Y28011D01*
X42155Y28008D01*
X42134Y27999D01*
X42110Y27997D01*
X42030Y27957D01*
X41948Y27924D01*
X41930Y27908D01*
X41909Y27897D01*
X41848Y27833D01*
X41782Y27772D01*
X41771Y27751D01*
X41755Y27734D01*
X41720Y27652D01*
X41679Y27573D01*
X41676Y27547D01*
X41667Y27527D01*
X41665Y27477D01*
X41652Y27387D01*
X41652Y15541D01*
X41659Y15499D01*
X41657Y15457D01*
X41679Y15389D01*
X41691Y15320D01*
X41713Y15283D01*
X41726Y15243D01*
X41780Y15170D01*
X41806Y15127D01*
X41822Y15113D01*
X41838Y15092D01*
X42779Y14151D01*
X42779Y11849D01*
X41151Y10221D01*
X38849Y10221D01*
X37221Y11849D01*
X37221Y14151D01*
X38162Y15092D01*
X38187Y15127D01*
X38218Y15156D01*
X38250Y15219D01*
X38291Y15276D01*
X38301Y15318D01*
X38321Y15355D01*
X38334Y15445D01*
X38347Y15494D01*
X38344Y15514D01*
X38348Y15541D01*
X38348Y27387D01*
X38333Y27475D01*
X38323Y27564D01*
X38313Y27585D01*
X38309Y27608D01*
X38263Y27685D01*
X38224Y27765D01*
X38207Y27781D01*
X38194Y27801D01*
X38125Y27857D01*
X38061Y27919D01*
X38039Y27928D01*
X38020Y27943D01*
X37936Y27971D01*
X37854Y28006D01*
X37830Y28007D01*
X37808Y28015D01*
X37719Y28012D01*
X37630Y28016D01*
X37607Y28009D01*
X37583Y28008D01*
X37501Y27975D01*
X37416Y27947D01*
X37395Y27932D01*
X37376Y27924D01*
X37338Y27890D01*
X37266Y27836D01*
X37151Y27721D01*
X34849Y27721D01*
X34734Y27836D01*
X34661Y27887D01*
X34592Y27943D01*
X34570Y27950D01*
X34550Y27964D01*
X34464Y27986D01*
X34380Y28015D01*
X34356Y28014D01*
X34333Y28020D01*
X34244Y28011D01*
X34155Y28008D01*
X34134Y27999D01*
X34110Y27997D01*
X34030Y27957D01*
X33948Y27924D01*
X33930Y27908D01*
X33909Y27897D01*
X33848Y27833D01*
X33782Y27772D01*
X33771Y27751D01*
X33755Y27734D01*
X33720Y27652D01*
X33679Y27573D01*
X33676Y27547D01*
X33667Y27527D01*
X33665Y27477D01*
X33652Y27387D01*
X33652Y15541D01*
X33659Y15499D01*
X33657Y15457D01*
X33679Y15389D01*
X33691Y15320D01*
X33713Y15283D01*
X33726Y15243D01*
X33780Y15170D01*
X33806Y15127D01*
X33822Y15113D01*
X33838Y15092D01*
X34779Y14151D01*
X34779Y11849D01*
X33151Y10221D01*
X30849Y10221D01*
X29221Y11849D01*
X29221Y14151D01*
X30162Y15092D01*
X30187Y15127D01*
X30218Y15156D01*
X30250Y15219D01*
X30291Y15276D01*
X30301Y15318D01*
X30321Y15355D01*
X30334Y15445D01*
X30347Y15494D01*
X30344Y15514D01*
X30348Y15541D01*
X30348Y27387D01*
X30333Y27475D01*
X30323Y27564D01*
X30313Y27585D01*
X30309Y27608D01*
X30263Y27685D01*
X30224Y27765D01*
X30207Y27781D01*
X30194Y27801D01*
X30125Y27857D01*
X30061Y27919D01*
X30039Y27928D01*
X30020Y27943D01*
X29936Y27971D01*
X29854Y28006D01*
X29830Y28007D01*
X29808Y28015D01*
X29719Y28012D01*
X29630Y28016D01*
X29607Y28009D01*
X29583Y28008D01*
X29501Y27975D01*
X29416Y27947D01*
X29395Y27932D01*
X29376Y27924D01*
X29338Y27890D01*
X29266Y27836D01*
X29151Y27721D01*
X26849Y27721D01*
X26734Y27836D01*
X26661Y27887D01*
X26592Y27943D01*
X26570Y27950D01*
X26550Y27964D01*
X26464Y27986D01*
X26380Y28015D01*
X26356Y28014D01*
X26333Y28020D01*
X26244Y28011D01*
X26155Y28008D01*
X26134Y27999D01*
X26110Y27997D01*
X26030Y27957D01*
X25948Y27924D01*
X25930Y27908D01*
X25909Y27897D01*
X25848Y27833D01*
X25782Y27772D01*
X25771Y27751D01*
X25755Y27734D01*
X25720Y27652D01*
X25679Y27573D01*
X25676Y27547D01*
X25667Y27527D01*
X25665Y27477D01*
X25652Y27387D01*
X25652Y15541D01*
X25659Y15499D01*
X25657Y15457D01*
X25679Y15389D01*
X25691Y15320D01*
X25713Y15283D01*
X25726Y15243D01*
X25780Y15170D01*
X25806Y15127D01*
X25822Y15113D01*
X25838Y15092D01*
X26779Y14151D01*
X26779Y11849D01*
X25151Y10221D01*
X22849Y10221D01*
X21221Y11849D01*
X21221Y14151D01*
X22162Y15092D01*
X22187Y15127D01*
X22218Y15156D01*
X22250Y15219D01*
X22291Y15276D01*
X22301Y15318D01*
X22321Y15355D01*
X22334Y15445D01*
X22347Y15494D01*
X22344Y15514D01*
X22348Y15541D01*
X22348Y27387D01*
X22333Y27475D01*
X22323Y27564D01*
X22313Y27585D01*
X22309Y27608D01*
X22263Y27685D01*
X22224Y27765D01*
X22207Y27781D01*
X22194Y27801D01*
X22125Y27857D01*
X22061Y27919D01*
X22039Y27928D01*
X22020Y27943D01*
X21936Y27971D01*
X21854Y28006D01*
X21830Y28007D01*
X21808Y28015D01*
X21719Y28012D01*
X21630Y28016D01*
X21607Y28009D01*
X21583Y28008D01*
X21501Y27975D01*
X21416Y27947D01*
X21395Y27932D01*
X21376Y27924D01*
X21338Y27890D01*
X21266Y27836D01*
X21151Y27721D01*
X18849Y27721D01*
X18734Y27836D01*
X18661Y27887D01*
X18592Y27943D01*
X18570Y27950D01*
X18550Y27964D01*
X18464Y27986D01*
X18380Y28015D01*
X18356Y28014D01*
X18333Y28020D01*
X18244Y28011D01*
X18155Y28008D01*
X18134Y27999D01*
X18110Y27997D01*
X18030Y27957D01*
X17948Y27924D01*
X17930Y27908D01*
X17909Y27897D01*
X17848Y27833D01*
X17782Y27772D01*
X17771Y27751D01*
X17755Y27734D01*
X17720Y27652D01*
X17679Y27573D01*
X17676Y27547D01*
X17667Y27527D01*
X17665Y27477D01*
X17652Y27387D01*
X17652Y15541D01*
X17659Y15499D01*
X17657Y15457D01*
X17679Y15389D01*
X17691Y15320D01*
X17713Y15283D01*
X17726Y15243D01*
X17780Y15170D01*
X17806Y15127D01*
X17822Y15113D01*
X17838Y15092D01*
X18779Y14151D01*
X18779Y11849D01*
X17151Y10221D01*
X14849Y10221D01*
X13221Y11849D01*
X13221Y14151D01*
X14162Y15092D01*
X14187Y15127D01*
X14218Y15156D01*
X14250Y15219D01*
X14291Y15276D01*
X14301Y15318D01*
X14321Y15355D01*
X14334Y15445D01*
X14347Y15494D01*
X14344Y15514D01*
X14348Y15541D01*
X14348Y27387D01*
X14333Y27475D01*
X14323Y27564D01*
X14313Y27585D01*
X14309Y27608D01*
X14263Y27685D01*
X14224Y27765D01*
X14207Y27781D01*
X14194Y27801D01*
X14125Y27857D01*
X14061Y27919D01*
X14039Y27928D01*
X14020Y27943D01*
X13936Y27971D01*
X13854Y28006D01*
X13830Y28007D01*
X13808Y28015D01*
X13719Y28012D01*
X13630Y28016D01*
X13607Y28009D01*
X13583Y28008D01*
X13501Y27975D01*
X13416Y27947D01*
X13395Y27932D01*
X13376Y27924D01*
X13338Y27890D01*
X13266Y27836D01*
X13151Y27721D01*
X10849Y27721D01*
X10734Y27836D01*
X10661Y27887D01*
X10592Y27943D01*
X10570Y27950D01*
X10550Y27964D01*
X10464Y27986D01*
X10380Y28015D01*
X10356Y28014D01*
X10333Y28020D01*
X10244Y28011D01*
X10155Y28008D01*
X10134Y27999D01*
X10110Y27997D01*
X10030Y27957D01*
X9948Y27924D01*
X9930Y27908D01*
X9909Y27897D01*
X9848Y27833D01*
X9782Y27772D01*
X9771Y27751D01*
X9755Y27734D01*
X9720Y27652D01*
X9679Y27573D01*
X9676Y27547D01*
X9667Y27527D01*
X9665Y27477D01*
X9652Y27387D01*
X9652Y15541D01*
X9659Y15499D01*
X9657Y15457D01*
X9679Y15389D01*
X9691Y15320D01*
X9713Y15283D01*
X9726Y15243D01*
X9780Y15170D01*
X9806Y15127D01*
X9822Y15113D01*
X9838Y15092D01*
X10779Y14151D01*
X10779Y11849D01*
X9151Y10221D01*
X6849Y10221D01*
X5221Y11849D01*
X5221Y14151D01*
X6162Y15092D01*
X6187Y15127D01*
X6218Y15156D01*
X6250Y15219D01*
X6291Y15276D01*
X6301Y15318D01*
X6321Y15355D01*
X6334Y15445D01*
X6347Y15494D01*
X6344Y15514D01*
X6348Y15541D01*
X6348Y27387D01*
X6333Y27475D01*
X6323Y27564D01*
X6313Y27585D01*
X6309Y27608D01*
X6263Y27685D01*
X6224Y27765D01*
X6207Y27781D01*
X6194Y27801D01*
X6125Y27857D01*
X6061Y27919D01*
X6039Y27928D01*
X6020Y27943D01*
X5936Y27971D01*
X5854Y28006D01*
X5830Y28007D01*
X5808Y28015D01*
X5719Y28012D01*
X5630Y28016D01*
X5607Y28009D01*
X5583Y28008D01*
X5501Y27975D01*
X5416Y27947D01*
X5395Y27932D01*
X5376Y27924D01*
X5338Y27890D01*
X5266Y27836D01*
X5151Y27721D01*
X2849Y27721D01*
X2734Y27836D01*
X2661Y27887D01*
X2592Y27943D01*
X2570Y27950D01*
X2550Y27964D01*
X2464Y27986D01*
X2380Y28015D01*
X2356Y28014D01*
X2333Y28020D01*
X2244Y28011D01*
X2155Y28008D01*
X2134Y27999D01*
X2110Y27997D01*
X2030Y27957D01*
X1948Y27924D01*
X1930Y27908D01*
X1909Y27897D01*
X1848Y27833D01*
X1782Y27772D01*
X1771Y27751D01*
X1755Y27734D01*
X1720Y27652D01*
X1679Y27573D01*
X1676Y27547D01*
X1667Y27527D01*
X1665Y27477D01*
X1652Y27387D01*
X1652Y15541D01*
X1659Y15499D01*
X1657Y15457D01*
X1679Y15389D01*
X1691Y15320D01*
X1713Y15283D01*
X1726Y15243D01*
X1780Y15170D01*
X1806Y15127D01*
X1822Y15113D01*
X1838Y15092D01*
X2779Y14151D01*
X2779Y11849D01*
X1151Y10221D01*
X-1151Y10221D01*
X-2779Y11849D01*
X-2779Y14151D01*
X-1838Y15092D01*
X-1813Y15127D01*
X-1782Y15156D01*
X-1750Y15219D01*
X-1709Y15276D01*
X-1699Y15318D01*
X-1679Y15355D01*
X-1666Y15445D01*
X-1653Y15494D01*
X-1656Y15514D01*
X-1652Y15541D01*
X-1652Y27387D01*
X-1667Y27475D01*
X-1677Y27564D01*
X-1687Y27585D01*
X-1691Y27608D01*
X-1737Y27685D01*
X-1776Y27765D01*
X-1793Y27781D01*
X-1806Y27801D01*
X-1875Y27857D01*
X-1939Y27919D01*
X-1961Y27928D01*
X-1980Y27943D01*
X-2064Y27971D01*
X-2146Y28006D01*
X-2170Y28007D01*
X-2192Y28015D01*
X-2281Y28012D01*
X-2370Y28016D01*
X-2393Y28009D01*
X-2417Y28008D01*
X-2499Y27975D01*
X-2584Y27947D01*
X-2605Y27932D01*
X-2624Y27924D01*
X-2662Y27890D01*
X-2734Y27836D01*
X-2849Y27721D01*
X-5151Y27721D01*
X-5266Y27836D01*
X-5339Y27887D01*
X-5408Y27943D01*
X-5430Y27950D01*
X-5450Y27964D01*
X-5536Y27986D01*
X-5620Y28015D01*
X-5644Y28014D01*
X-5667Y28020D01*
X-5756Y28011D01*
X-5845Y28008D01*
X-5866Y27999D01*
X-5890Y27997D01*
X-5970Y27957D01*
X-6052Y27924D01*
X-6070Y27908D01*
X-6091Y27897D01*
X-6152Y27833D01*
X-6218Y27772D01*
X-6229Y27751D01*
X-6245Y27734D01*
X-6280Y27652D01*
X-6321Y27573D01*
X-6324Y27547D01*
X-6333Y27527D01*
X-6335Y27477D01*
X-6348Y27387D01*
X-6348Y15541D01*
X-6341Y15499D01*
X-6343Y15457D01*
X-6321Y15389D01*
X-6309Y15320D01*
X-6287Y15283D01*
X-6274Y15243D01*
X-6220Y15170D01*
X-6194Y15127D01*
X-6178Y15113D01*
X-6162Y15092D01*
X-5221Y14151D01*
X-5221Y11849D01*
X-6849Y10221D01*
X-9151Y10221D01*
X-10779Y11849D01*
X-10779Y14151D01*
X-9838Y15092D01*
X-9813Y15127D01*
X-9782Y15156D01*
X-9750Y15219D01*
X-9709Y15276D01*
X-9699Y15318D01*
X-9679Y15355D01*
X-9666Y15445D01*
X-9653Y15494D01*
X-9656Y15514D01*
X-9652Y15541D01*
X-9652Y27387D01*
X-9667Y27475D01*
X-9677Y27564D01*
X-9687Y27585D01*
X-9691Y27608D01*
X-9737Y27685D01*
X-9776Y27765D01*
X-9793Y27781D01*
X-9806Y27801D01*
X-9875Y27857D01*
X-9939Y27919D01*
X-9961Y27928D01*
X-9980Y27943D01*
X-10064Y27971D01*
X-10146Y28006D01*
X-10170Y28007D01*
X-10192Y28015D01*
X-10281Y28012D01*
X-10370Y28016D01*
X-10393Y28009D01*
X-10417Y28008D01*
X-10499Y27975D01*
X-10584Y27947D01*
X-10605Y27932D01*
X-10624Y27924D01*
X-10662Y27890D01*
X-10734Y27836D01*
X-10849Y27721D01*
X-13151Y27721D01*
X-13266Y27836D01*
X-13339Y27887D01*
X-13408Y27943D01*
X-13430Y27950D01*
X-13450Y27964D01*
X-13536Y27986D01*
X-13620Y28015D01*
X-13644Y28014D01*
X-13667Y28020D01*
X-13756Y28011D01*
X-13845Y28008D01*
X-13866Y27999D01*
X-13890Y27997D01*
X-13970Y27957D01*
X-14052Y27924D01*
X-14070Y27908D01*
X-14091Y27897D01*
X-14152Y27833D01*
X-14218Y27772D01*
X-14229Y27751D01*
X-14245Y27734D01*
X-14280Y27652D01*
X-14321Y27573D01*
X-14324Y27547D01*
X-14333Y27527D01*
X-14335Y27477D01*
X-14348Y27387D01*
X-14348Y15541D01*
X-14341Y15499D01*
X-14343Y15457D01*
X-14321Y15389D01*
X-14309Y15320D01*
X-14287Y15283D01*
X-14274Y15243D01*
X-14220Y15170D01*
X-14194Y15127D01*
X-14178Y15113D01*
X-14162Y15092D01*
X-13221Y14151D01*
X-13221Y11849D01*
X-14849Y10221D01*
X-17151Y10221D01*
X-18779Y11849D01*
X-18779Y14151D01*
X-17838Y15092D01*
X-17813Y15127D01*
X-17782Y15156D01*
X-17750Y15219D01*
X-17709Y15276D01*
X-17699Y15318D01*
X-17679Y15355D01*
X-17666Y15445D01*
X-17653Y15494D01*
X-17656Y15514D01*
X-17652Y15541D01*
X-17652Y27387D01*
X-17667Y27475D01*
X-17677Y27564D01*
X-17687Y27585D01*
X-17691Y27608D01*
X-17737Y27685D01*
X-17776Y27765D01*
X-17793Y27781D01*
X-17806Y27801D01*
X-17875Y27857D01*
X-17939Y27919D01*
X-17961Y27928D01*
X-17980Y27943D01*
X-18064Y27971D01*
X-18146Y28006D01*
X-18170Y28007D01*
X-18192Y28015D01*
X-18281Y28012D01*
X-18370Y28016D01*
X-18393Y28009D01*
X-18417Y28008D01*
X-18499Y27975D01*
X-18584Y27947D01*
X-18605Y27932D01*
X-18624Y27924D01*
X-18662Y27890D01*
X-18734Y27836D01*
X-18849Y27721D01*
X-21151Y27721D01*
X-21266Y27836D01*
X-21339Y27887D01*
X-21408Y27943D01*
X-21430Y27950D01*
X-21450Y27964D01*
X-21536Y27986D01*
X-21620Y28015D01*
X-21644Y28014D01*
X-21667Y28020D01*
X-21756Y28011D01*
X-21845Y28008D01*
X-21866Y27999D01*
X-21890Y27997D01*
X-21970Y27957D01*
X-22052Y27924D01*
X-22070Y27908D01*
X-22091Y27897D01*
X-22152Y27833D01*
X-22218Y27772D01*
X-22229Y27751D01*
X-22245Y27734D01*
X-22280Y27652D01*
X-22321Y27573D01*
X-22324Y27547D01*
X-22333Y27527D01*
X-22335Y27477D01*
X-22348Y27387D01*
X-22348Y15541D01*
X-22341Y15499D01*
X-22343Y15457D01*
X-22321Y15389D01*
X-22309Y15320D01*
X-22287Y15283D01*
X-22274Y15243D01*
X-22220Y15170D01*
X-22194Y15127D01*
X-22178Y15113D01*
X-22162Y15092D01*
X-21221Y14151D01*
X-21221Y11849D01*
X-22849Y10221D01*
X-25151Y10221D01*
X-26779Y11849D01*
X-26779Y14151D01*
X-25838Y15092D01*
X-25813Y15127D01*
X-25782Y15156D01*
X-25750Y15219D01*
X-25709Y15276D01*
X-25699Y15318D01*
X-25679Y15355D01*
X-25666Y15445D01*
X-25653Y15494D01*
X-25656Y15514D01*
X-25652Y15541D01*
X-25652Y27387D01*
X-25667Y27475D01*
X-25677Y27564D01*
X-25687Y27585D01*
X-25691Y27608D01*
X-25737Y27685D01*
X-25776Y27765D01*
X-25793Y27781D01*
X-25806Y27801D01*
X-25875Y27857D01*
X-25939Y27919D01*
X-25961Y27928D01*
X-25980Y27943D01*
X-26064Y27971D01*
X-26146Y28006D01*
X-26170Y28007D01*
X-26192Y28015D01*
X-26281Y28012D01*
X-26370Y28016D01*
X-26393Y28009D01*
X-26417Y28008D01*
X-26499Y27975D01*
X-26584Y27947D01*
X-26605Y27932D01*
X-26624Y27924D01*
X-26662Y27890D01*
X-26734Y27836D01*
X-26849Y27721D01*
X-29151Y27721D01*
X-29266Y27836D01*
X-29339Y27887D01*
X-29408Y27943D01*
X-29430Y27950D01*
X-29450Y27964D01*
X-29536Y27986D01*
X-29620Y28015D01*
X-29644Y28014D01*
X-29667Y28020D01*
X-29756Y28011D01*
X-29845Y28008D01*
X-29866Y27999D01*
X-29890Y27997D01*
X-29970Y27957D01*
X-30052Y27924D01*
X-30070Y27908D01*
X-30091Y27897D01*
X-30152Y27833D01*
X-30218Y27772D01*
X-30229Y27751D01*
X-30245Y27734D01*
X-30280Y27652D01*
X-30321Y27573D01*
X-30324Y27547D01*
X-30333Y27527D01*
X-30335Y27477D01*
X-30348Y27387D01*
X-30348Y15541D01*
X-30341Y15499D01*
X-30343Y15457D01*
X-30321Y15389D01*
X-30309Y15320D01*
X-30287Y15283D01*
X-30274Y15243D01*
X-30220Y15170D01*
X-30194Y15127D01*
X-30178Y15113D01*
X-30162Y15092D01*
X-29221Y14151D01*
X-29221Y11849D01*
X-30849Y10221D01*
X-33151Y10221D01*
X-34779Y11849D01*
X-34779Y14151D01*
X-33838Y15092D01*
X-33813Y15127D01*
X-33782Y15156D01*
X-33750Y15219D01*
X-33709Y15276D01*
X-33699Y15318D01*
X-33679Y15355D01*
X-33666Y15445D01*
X-33653Y15494D01*
X-33656Y15514D01*
X-33652Y15541D01*
X-33652Y27387D01*
X-33667Y27475D01*
X-33677Y27564D01*
X-33687Y27585D01*
X-33691Y27608D01*
X-33737Y27685D01*
X-33776Y27765D01*
X-33793Y27781D01*
X-33806Y27801D01*
X-33875Y27857D01*
X-33939Y27919D01*
X-33961Y27928D01*
X-33980Y27943D01*
X-34064Y27971D01*
X-34146Y28006D01*
X-34170Y28007D01*
X-34192Y28015D01*
X-34281Y28012D01*
X-34370Y28016D01*
X-34393Y28009D01*
X-34417Y28008D01*
X-34499Y27975D01*
X-34584Y27947D01*
X-34605Y27932D01*
X-34624Y27924D01*
X-34662Y27890D01*
X-34734Y27836D01*
X-34849Y27721D01*
X-37151Y27721D01*
X-37266Y27836D01*
X-37339Y27887D01*
X-37408Y27943D01*
X-37430Y27950D01*
X-37450Y27964D01*
X-37536Y27986D01*
X-37620Y28015D01*
X-37644Y28014D01*
X-37667Y28020D01*
X-37756Y28011D01*
X-37845Y28008D01*
X-37866Y27999D01*
X-37890Y27997D01*
X-37970Y27957D01*
X-38052Y27924D01*
X-38070Y27908D01*
X-38091Y27897D01*
X-38152Y27833D01*
X-38218Y27772D01*
X-38229Y27751D01*
X-38245Y27734D01*
X-38280Y27652D01*
X-38321Y27573D01*
X-38324Y27547D01*
X-38333Y27527D01*
X-38335Y27477D01*
X-38348Y27387D01*
X-38348Y15541D01*
X-38341Y15499D01*
X-38343Y15457D01*
X-38321Y15389D01*
X-38309Y15320D01*
X-38287Y15283D01*
X-38274Y15243D01*
X-38220Y15170D01*
X-38194Y15127D01*
X-38178Y15113D01*
X-38162Y15092D01*
X-37221Y14151D01*
X-37221Y11849D01*
X-38849Y10221D01*
X-41151Y10221D01*
X-42779Y11849D01*
X-42779Y14151D01*
X-41838Y15092D01*
X-41813Y15127D01*
X-41782Y15156D01*
X-41750Y15219D01*
X-41709Y15276D01*
X-41699Y15318D01*
X-41679Y15355D01*
X-41666Y15445D01*
X-41653Y15494D01*
X-41656Y15514D01*
X-41652Y15541D01*
X-41652Y27387D01*
X-41667Y27475D01*
X-41677Y27564D01*
X-41687Y27585D01*
X-41691Y27608D01*
X-41737Y27685D01*
X-41776Y27765D01*
X-41793Y27781D01*
X-41806Y27801D01*
X-41875Y27857D01*
X-41939Y27919D01*
X-41961Y27928D01*
X-41980Y27943D01*
X-42064Y27971D01*
X-42146Y28006D01*
X-42170Y28007D01*
X-42192Y28015D01*
X-42281Y28012D01*
X-42370Y28016D01*
X-42393Y28009D01*
X-42417Y28008D01*
X-42499Y27975D01*
X-42584Y27947D01*
X-42605Y27932D01*
X-42624Y27924D01*
X-42662Y27890D01*
X-42734Y27836D01*
X-42849Y27721D01*
X-45269Y27721D01*
X-45334Y27710D01*
X-45400Y27708D01*
X-45444Y27690D01*
X-45490Y27682D01*
X-45547Y27648D01*
X-45608Y27623D01*
X-45643Y27592D01*
X-45683Y27567D01*
X-45725Y27516D01*
X-45773Y27472D01*
X-45795Y27430D01*
X-45825Y27393D01*
X-45846Y27331D01*
X-45876Y27272D01*
X-45884Y27218D01*
X-45897Y27181D01*
X-45895Y27141D01*
X-45904Y27087D01*
X-45904Y15096D01*
X-45896Y15054D01*
X-45898Y15012D01*
X-45876Y14945D01*
X-45864Y14875D01*
X-45842Y14839D01*
X-45829Y14798D01*
X-45775Y14725D01*
X-45750Y14682D01*
X-45734Y14669D01*
X-45718Y14648D01*
X-45221Y14151D01*
X-45221Y11849D01*
X-46849Y10221D01*
X-49151Y10221D01*
X-50779Y11849D01*
X-50779Y14151D01*
X-49393Y15537D01*
X-49369Y15572D01*
X-49337Y15600D01*
X-49305Y15663D01*
X-49265Y15721D01*
X-49254Y15762D01*
X-49235Y15800D01*
X-49221Y15890D01*
X-49209Y15938D01*
X-49211Y15959D01*
X-49207Y15985D01*
X-49207Y27087D01*
X-49219Y27152D01*
X-49221Y27218D01*
X-49238Y27261D01*
X-49247Y27308D01*
X-49280Y27365D01*
X-49305Y27425D01*
X-49337Y27460D01*
X-49361Y27501D01*
X-49412Y27543D01*
X-49456Y27591D01*
X-49498Y27613D01*
X-49535Y27642D01*
X-49597Y27663D01*
X-49656Y27694D01*
X-49710Y27702D01*
X-49748Y27714D01*
X-49787Y27713D01*
X-49841Y27721D01*
X-52151Y27721D01*
X-53051Y28622D01*
X-53081Y28642D01*
X-53093Y28655D01*
X-53111Y28665D01*
X-53153Y28705D01*
X-53197Y28723D01*
X-53236Y28750D01*
X-53299Y28766D01*
X-53360Y28792D01*
X-53407Y28794D01*
X-53453Y28806D01*
X-53518Y28799D01*
X-53584Y28802D01*
X-53629Y28787D01*
X-53676Y28783D01*
X-53735Y28753D01*
X-53798Y28733D01*
X-53842Y28701D01*
X-53877Y28683D01*
X-53904Y28654D01*
X-53931Y28635D01*
X-53936Y28632D01*
X-53938Y28630D01*
X-53948Y28622D01*
X-54849Y27721D01*
X-57151Y27721D01*
X-58151Y28721D01*
X-58224Y28772D01*
X-58293Y28828D01*
X-58315Y28835D01*
X-58335Y28849D01*
X-58421Y28871D01*
X-58505Y28900D01*
X-58529Y28899D01*
X-58552Y28905D01*
X-58641Y28896D01*
X-58730Y28893D01*
X-58752Y28884D01*
X-58775Y28882D01*
X-58855Y28842D01*
X-58937Y28809D01*
X-58955Y28793D01*
X-58976Y28782D01*
X-59037Y28717D01*
X-59103Y28657D01*
X-59114Y28636D01*
X-59130Y28619D01*
X-59165Y28537D01*
X-59206Y28458D01*
X-59209Y28432D01*
X-59218Y28412D01*
X-59220Y28362D01*
X-59233Y28272D01*
X-59233Y27268D01*
X-60454Y26048D01*
X-60454Y26047D01*
X-65767Y20734D01*
X-65818Y20661D01*
X-65874Y20592D01*
X-65882Y20570D01*
X-65895Y20550D01*
X-65917Y20464D01*
X-65946Y20380D01*
X-65945Y20356D01*
X-65951Y20333D01*
X-65942Y20244D01*
X-65939Y20155D01*
X-65930Y20133D01*
X-65928Y20110D01*
X-65888Y20030D01*
X-65855Y19948D01*
X-65839Y19930D01*
X-65828Y19909D01*
X-65764Y19848D01*
X-65704Y19782D01*
X-65682Y19771D01*
X-65665Y19755D01*
X-65583Y19720D01*
X-65504Y19679D01*
X-65478Y19676D01*
X-65458Y19667D01*
X-65408Y19665D01*
X-65319Y19652D01*
X-59316Y19652D01*
X-55629Y15965D01*
X-55594Y15940D01*
X-55565Y15909D01*
X-55502Y15877D01*
X-55444Y15836D01*
X-55403Y15826D01*
X-55365Y15806D01*
X-55276Y15793D01*
X-55227Y15780D01*
X-55206Y15783D01*
X-55180Y15779D01*
X-54849Y15779D01*
X-53221Y14151D01*
X-53221Y11849D01*
X-54849Y10221D01*
X-55760Y10221D01*
X-55848Y10205D01*
X-55937Y10196D01*
X-55958Y10186D01*
X-55981Y10182D01*
X-56058Y10136D01*
X-56138Y10097D01*
X-56154Y10080D01*
X-56174Y10067D01*
X-56230Y9998D01*
X-56292Y9934D01*
X-56301Y9912D01*
X-56316Y9893D01*
X-56344Y9809D01*
X-56379Y9727D01*
X-56380Y9703D01*
X-56388Y9681D01*
X-56385Y9592D01*
X-56389Y9503D01*
X-56382Y9480D01*
X-56381Y9456D01*
X-56348Y9374D01*
X-56320Y9289D01*
X-56305Y9268D01*
X-56297Y9249D01*
X-56263Y9211D01*
X-56209Y9139D01*
X-55448Y8378D01*
X-55395Y8341D01*
X-55347Y8295D01*
X-55303Y8277D01*
X-55264Y8250D01*
X-55201Y8234D01*
X-55140Y8208D01*
X-55093Y8206D01*
X-55047Y8194D01*
X-54982Y8201D01*
X-54916Y8198D01*
X-54871Y8213D01*
X-54824Y8217D01*
X-54765Y8247D01*
X-54702Y8267D01*
X-54658Y8299D01*
X-54623Y8317D01*
X-54596Y8346D01*
X-54552Y8378D01*
X-53151Y9779D01*
X-50849Y9779D01*
X-49221Y8151D01*
X-49221Y5849D01*
X-50849Y4221D01*
X-51714Y4221D01*
X-51779Y4210D01*
X-51845Y4208D01*
X-51888Y4190D01*
X-51935Y4182D01*
X-51992Y4148D01*
X-52052Y4123D01*
X-52087Y4092D01*
X-52128Y4067D01*
X-52170Y4016D01*
X-52218Y3972D01*
X-52240Y3930D01*
X-52269Y3893D01*
X-52290Y3831D01*
X-52321Y3772D01*
X-52329Y3718D01*
X-52341Y3681D01*
X-52340Y3641D01*
X-52348Y3587D01*
X-52348Y-17684D01*
X-57162Y-22498D01*
X-57187Y-22533D01*
X-57218Y-22562D01*
X-57250Y-22625D01*
X-57291Y-22683D01*
X-57301Y-22724D01*
X-57321Y-22762D01*
X-57334Y-22851D01*
X-57347Y-22900D01*
X-57344Y-22921D01*
X-57348Y-22947D01*
X-57348Y-24974D01*
X-57333Y-25062D01*
X-57323Y-25151D01*
X-57313Y-25172D01*
X-57309Y-25195D01*
X-57263Y-25272D01*
X-57224Y-25352D01*
X-57207Y-25368D01*
X-57194Y-25388D01*
X-57125Y-25445D01*
X-57061Y-25506D01*
X-57039Y-25515D01*
X-57020Y-25530D01*
X-56936Y-25558D01*
X-56854Y-25593D01*
X-56830Y-25594D01*
X-56808Y-25602D01*
X-56719Y-25599D01*
X-56630Y-25603D01*
X-56607Y-25596D01*
X-56583Y-25595D01*
X-56501Y-25562D01*
X-56416Y-25534D01*
X-56395Y-25519D01*
X-56376Y-25511D01*
X-56338Y-25477D01*
X-56266Y-25423D01*
X-54974Y-24131D01*
X-52238Y-24131D01*
X-50734Y-25635D01*
X-50661Y-25686D01*
X-50592Y-25742D01*
X-50570Y-25749D01*
X-50550Y-25763D01*
X-50464Y-25785D01*
X-50380Y-25814D01*
X-50356Y-25813D01*
X-50333Y-25819D01*
X-50244Y-25810D01*
X-50155Y-25807D01*
X-50133Y-25798D01*
X-50110Y-25796D01*
X-50030Y-25756D01*
X-49948Y-25723D01*
X-49930Y-25707D01*
X-49909Y-25696D01*
X-49848Y-25631D01*
X-49782Y-25571D01*
X-49771Y-25550D01*
X-49755Y-25533D01*
X-49720Y-25451D01*
X-49679Y-25372D01*
X-49676Y-25346D01*
X-49667Y-25326D01*
X-49665Y-25276D01*
X-49652Y-25186D01*
X-49652Y-13041D01*
X-49659Y-12999D01*
X-49657Y-12957D01*
X-49679Y-12889D01*
X-49691Y-12820D01*
X-49713Y-12783D01*
X-49726Y-12743D01*
X-49780Y-12670D01*
X-49806Y-12627D01*
X-49822Y-12613D01*
X-49838Y-12592D01*
X-50779Y-11651D01*
X-50779Y-9349D01*
X-49151Y-7721D01*
X-46849Y-7721D01*
X-45221Y-9349D01*
X-45221Y-11651D01*
X-46162Y-12592D01*
X-46187Y-12627D01*
X-46218Y-12656D01*
X-46250Y-12719D01*
X-46291Y-12776D01*
X-46301Y-12818D01*
X-46321Y-12855D01*
X-46334Y-12945D01*
X-46347Y-12994D01*
X-46344Y-13014D01*
X-46348Y-13041D01*
X-46348Y-35684D01*
X-46652Y-35988D01*
X-46703Y-36061D01*
X-46759Y-36130D01*
X-46767Y-36153D01*
X-46780Y-36172D01*
X-46803Y-36259D01*
X-46831Y-36343D01*
X-46830Y-36367D01*
X-46836Y-36390D01*
X-46827Y-36478D01*
X-46824Y-36567D01*
X-46816Y-36589D01*
X-46813Y-36613D01*
X-46773Y-36693D01*
X-46740Y-36775D01*
X-46724Y-36793D01*
X-46714Y-36814D01*
X-46649Y-36875D01*
X-46589Y-36941D01*
X-46568Y-36952D01*
X-46550Y-36968D01*
X-46468Y-37003D01*
X-46389Y-37043D01*
X-46363Y-37047D01*
X-46344Y-37055D01*
X-46293Y-37058D01*
X-46204Y-37071D01*
X-43311Y-37071D01*
X-42734Y-37647D01*
X-42705Y-37668D01*
X-42693Y-37681D01*
X-42668Y-37693D01*
X-42661Y-37698D01*
X-42592Y-37754D01*
X-42570Y-37762D01*
X-42550Y-37775D01*
X-42464Y-37798D01*
X-42380Y-37826D01*
X-42356Y-37825D01*
X-42333Y-37831D01*
X-42244Y-37822D01*
X-42155Y-37820D01*
X-42133Y-37811D01*
X-42110Y-37808D01*
X-42030Y-37769D01*
X-41948Y-37735D01*
X-41930Y-37719D01*
X-41909Y-37709D01*
X-41848Y-37644D01*
X-41782Y-37584D01*
X-41771Y-37563D01*
X-41755Y-37545D01*
X-41720Y-37463D01*
X-41679Y-37384D01*
X-41676Y-37358D01*
X-41667Y-37339D01*
X-41665Y-37289D01*
X-41659Y-37270D01*
X-41659Y-37250D01*
X-41652Y-37199D01*
X-41652Y-13041D01*
X-41659Y-12999D01*
X-41657Y-12957D01*
X-41679Y-12889D01*
X-41691Y-12820D01*
X-41713Y-12783D01*
X-41726Y-12743D01*
X-41780Y-12670D01*
X-41806Y-12627D01*
X-41822Y-12613D01*
X-41838Y-12592D01*
X-42779Y-11651D01*
X-42779Y-9349D01*
X-41151Y-7721D01*
X-38849Y-7721D01*
X-37221Y-9349D01*
X-37221Y-11651D01*
X-38162Y-12592D01*
X-38187Y-12627D01*
X-38218Y-12656D01*
X-38250Y-12719D01*
X-38291Y-12776D01*
X-38301Y-12818D01*
X-38321Y-12855D01*
X-38334Y-12945D01*
X-38347Y-12994D01*
X-38344Y-13014D01*
X-38348Y-13041D01*
X-38348Y-43684D01*
X-42421Y-47757D01*
X-42446Y-47792D01*
X-42477Y-47821D01*
X-42509Y-47884D01*
X-42549Y-47942D01*
X-42560Y-47983D01*
X-42579Y-48020D01*
X-42593Y-48110D01*
X-42605Y-48159D01*
X-42603Y-48180D01*
X-42607Y-48206D01*
X-42607Y-49039D01*
X-43952Y-50384D01*
X-44003Y-50457D01*
X-44059Y-50526D01*
X-44067Y-50549D01*
X-44081Y-50568D01*
X-44103Y-50654D01*
X-44131Y-50739D01*
X-44131Y-50762D01*
X-44136Y-50785D01*
X-44127Y-50874D01*
X-44125Y-50963D01*
X-44116Y-50985D01*
X-44113Y-51008D01*
X-44074Y-51088D01*
X-44040Y-51171D01*
X-44024Y-51188D01*
X-44014Y-51210D01*
X-43949Y-51271D01*
X-43889Y-51336D01*
X-43868Y-51347D01*
X-43851Y-51364D01*
X-43769Y-51398D01*
X-43689Y-51439D01*
X-43663Y-51443D01*
X-43644Y-51451D01*
X-43594Y-51453D01*
X-43504Y-51467D01*
X-42365Y-51467D01*
X-41734Y-52097D01*
X-41661Y-52148D01*
X-41592Y-52204D01*
X-41570Y-52212D01*
X-41550Y-52226D01*
X-41464Y-52248D01*
X-41380Y-52276D01*
X-41356Y-52276D01*
X-41333Y-52281D01*
X-41244Y-52272D01*
X-41155Y-52270D01*
X-41133Y-52261D01*
X-41110Y-52258D01*
X-41030Y-52219D01*
X-40948Y-52185D01*
X-40930Y-52169D01*
X-40909Y-52159D01*
X-40848Y-52094D01*
X-40782Y-52034D01*
X-40771Y-52013D01*
X-40755Y-51996D01*
X-40720Y-51914D01*
X-40679Y-51834D01*
X-40676Y-51808D01*
X-40667Y-51789D01*
X-40665Y-51739D01*
X-40652Y-51649D01*
X-40652Y-49316D01*
X-33838Y-42502D01*
X-33813Y-42467D01*
X-33782Y-42438D01*
X-33750Y-42375D01*
X-33709Y-42317D01*
X-33699Y-42276D01*
X-33679Y-42238D01*
X-33666Y-42149D01*
X-33653Y-42100D01*
X-33656Y-42079D01*
X-33652Y-42053D01*
X-33652Y-13041D01*
X-33659Y-12999D01*
X-33657Y-12957D01*
X-33679Y-12889D01*
X-33691Y-12820D01*
X-33713Y-12783D01*
X-33726Y-12743D01*
X-33780Y-12670D01*
X-33806Y-12627D01*
X-33822Y-12613D01*
X-33838Y-12592D01*
X-34779Y-11651D01*
X-34779Y-9349D01*
X-33151Y-7721D01*
X-30849Y-7721D01*
X-29221Y-9349D01*
X-29221Y-11651D01*
X-30162Y-12592D01*
X-30187Y-12627D01*
X-30218Y-12656D01*
X-30250Y-12719D01*
X-30291Y-12776D01*
X-30301Y-12818D01*
X-30321Y-12855D01*
X-30334Y-12945D01*
X-30347Y-12994D01*
X-30344Y-13014D01*
X-30348Y-13041D01*
X-30348Y-16981D01*
X-30332Y-17069D01*
X-30323Y-17157D01*
X-30313Y-17179D01*
X-30309Y-17202D01*
X-30263Y-17279D01*
X-30224Y-17358D01*
X-30207Y-17375D01*
X-30194Y-17395D01*
X-30125Y-17451D01*
X-30061Y-17512D01*
X-30039Y-17522D01*
X-30020Y-17537D01*
X-29936Y-17565D01*
X-29854Y-17600D01*
X-29830Y-17601D01*
X-29808Y-17608D01*
X-29719Y-17606D01*
X-29630Y-17610D01*
X-29607Y-17603D01*
X-29583Y-17602D01*
X-29501Y-17568D01*
X-29416Y-17541D01*
X-29395Y-17525D01*
X-29376Y-17518D01*
X-29338Y-17484D01*
X-29266Y-17430D01*
X-25837Y-14002D01*
X-25813Y-13967D01*
X-25782Y-13938D01*
X-25750Y-13875D01*
X-25709Y-13817D01*
X-25699Y-13776D01*
X-25679Y-13738D01*
X-25666Y-13649D01*
X-25653Y-13600D01*
X-25656Y-13579D01*
X-25652Y-13553D01*
X-25652Y-13041D01*
X-25659Y-12999D01*
X-25657Y-12957D01*
X-25679Y-12889D01*
X-25691Y-12820D01*
X-25713Y-12783D01*
X-25726Y-12743D01*
X-25780Y-12670D01*
X-25806Y-12627D01*
X-25822Y-12613D01*
X-25838Y-12592D01*
X-26779Y-11651D01*
X-26779Y-9349D01*
X-25151Y-7721D01*
X-22849Y-7721D01*
X-21221Y-9349D01*
X-21221Y-11651D01*
X-22162Y-12592D01*
X-22187Y-12627D01*
X-22218Y-12656D01*
X-22250Y-12719D01*
X-22291Y-12776D01*
X-22301Y-12818D01*
X-22321Y-12855D01*
X-22334Y-12945D01*
X-22347Y-12994D01*
X-22344Y-13014D01*
X-22348Y-13041D01*
X-22348Y-15235D01*
X-22332Y-15323D01*
X-22323Y-15412D01*
X-22313Y-15433D01*
X-22309Y-15456D01*
X-22263Y-15533D01*
X-22224Y-15613D01*
X-22207Y-15629D01*
X-22194Y-15650D01*
X-22125Y-15706D01*
X-22061Y-15767D01*
X-22039Y-15776D01*
X-22020Y-15791D01*
X-21936Y-15819D01*
X-21854Y-15854D01*
X-21830Y-15855D01*
X-21808Y-15863D01*
X-21719Y-15860D01*
X-21630Y-15864D01*
X-21607Y-15857D01*
X-21583Y-15856D01*
X-21501Y-15823D01*
X-21416Y-15795D01*
X-21395Y-15780D01*
X-21376Y-15772D01*
X-21338Y-15738D01*
X-21266Y-15684D01*
X-18454Y-12873D01*
X-18417Y-12818D01*
X-18371Y-12771D01*
X-18353Y-12727D01*
X-18326Y-12688D01*
X-18310Y-12625D01*
X-18284Y-12564D01*
X-18282Y-12517D01*
X-18270Y-12471D01*
X-18277Y-12406D01*
X-18274Y-12340D01*
X-18288Y-12295D01*
X-18293Y-12248D01*
X-18323Y-12189D01*
X-18343Y-12126D01*
X-18375Y-12082D01*
X-18393Y-12047D01*
X-18421Y-12020D01*
X-18454Y-11976D01*
X-18779Y-11651D01*
X-18779Y-9349D01*
X-17151Y-7721D01*
X-14849Y-7721D01*
X-13221Y-9349D01*
X-13221Y-11651D01*
X-14162Y-12592D01*
X-14187Y-12627D01*
X-14218Y-12656D01*
X-14250Y-12719D01*
X-14291Y-12776D01*
X-14301Y-12818D01*
X-14321Y-12855D01*
X-14334Y-12945D01*
X-14347Y-12994D01*
X-14344Y-13014D01*
X-14348Y-13041D01*
X-14348Y-13439D01*
X-21821Y-20912D01*
X-21846Y-20947D01*
X-21877Y-20975D01*
X-21909Y-21038D01*
X-21950Y-21096D01*
X-21960Y-21137D01*
X-21980Y-21175D01*
X-21993Y-21264D01*
X-22006Y-21313D01*
X-22003Y-21334D01*
X-22007Y-21360D01*
X-22007Y-21627D01*
X-21992Y-21715D01*
X-21982Y-21804D01*
X-21972Y-21825D01*
X-21968Y-21848D01*
X-21922Y-21925D01*
X-21883Y-22005D01*
X-21866Y-22021D01*
X-21853Y-22041D01*
X-21784Y-22098D01*
X-21720Y-22159D01*
X-21698Y-22168D01*
X-21679Y-22183D01*
X-21595Y-22211D01*
X-21513Y-22246D01*
X-21489Y-22247D01*
X-21467Y-22255D01*
X-21378Y-22252D01*
X-21289Y-22256D01*
X-21266Y-22249D01*
X-21242Y-22248D01*
X-21160Y-22215D01*
X-21075Y-22187D01*
X-21054Y-22172D01*
X-21035Y-22164D01*
X-20997Y-22130D01*
X-20925Y-22076D01*
X-19546Y-20697D01*
X-16596Y-19475D01*
X-13404Y-19475D01*
X-10454Y-20697D01*
X-8197Y-22954D01*
X-6975Y-25904D01*
X-6975Y-29096D01*
X-8197Y-32046D01*
X-10454Y-34303D01*
X-13404Y-35525D01*
X-16596Y-35525D01*
X-19546Y-34303D01*
X-20925Y-32924D01*
X-20998Y-32873D01*
X-21067Y-32817D01*
X-21089Y-32810D01*
X-21109Y-32796D01*
X-21195Y-32774D01*
X-21279Y-32745D01*
X-21303Y-32746D01*
X-21326Y-32740D01*
X-21415Y-32749D01*
X-21504Y-32752D01*
X-21526Y-32761D01*
X-21549Y-32763D01*
X-21629Y-32803D01*
X-21711Y-32836D01*
X-21729Y-32852D01*
X-21750Y-32863D01*
X-21811Y-32928D01*
X-21877Y-32988D01*
X-21888Y-33009D01*
X-21904Y-33026D01*
X-21939Y-33108D01*
X-21980Y-33187D01*
X-21983Y-33213D01*
X-21992Y-33233D01*
X-21994Y-33283D01*
X-22007Y-33373D01*
X-22007Y-54603D01*
X-21992Y-54691D01*
X-21982Y-54779D01*
X-21972Y-54801D01*
X-21968Y-54824D01*
X-21922Y-54901D01*
X-21883Y-54980D01*
X-21866Y-54997D01*
X-21853Y-55017D01*
X-21784Y-55073D01*
X-21720Y-55134D01*
X-21698Y-55144D01*
X-21679Y-55158D01*
X-21595Y-55187D01*
X-21513Y-55222D01*
X-21489Y-55223D01*
X-21467Y-55230D01*
X-21378Y-55228D01*
X-21289Y-55232D01*
X-21266Y-55224D01*
X-21242Y-55224D01*
X-21160Y-55190D01*
X-21075Y-55163D01*
X-21054Y-55147D01*
X-21035Y-55139D01*
X-20997Y-55105D01*
X-20925Y-55052D01*
X-19874Y-54001D01*
X-17138Y-54001D01*
X-16069Y-55071D01*
X-15996Y-55121D01*
X-15927Y-55178D01*
X-15904Y-55185D01*
X-15885Y-55199D01*
X-15799Y-55221D01*
X-15714Y-55249D01*
X-15690Y-55249D01*
X-15667Y-55255D01*
X-15579Y-55245D01*
X-15490Y-55243D01*
X-15468Y-55234D01*
X-15444Y-55231D01*
X-15364Y-55192D01*
X-15282Y-55159D01*
X-15265Y-55143D01*
X-15243Y-55132D01*
X-15182Y-55067D01*
X-15116Y-55007D01*
X-15106Y-54986D01*
X-15089Y-54969D01*
X-15055Y-54887D01*
X-15014Y-54808D01*
X-15010Y-54781D01*
X-15002Y-54762D01*
X-15000Y-54712D01*
X-14986Y-54622D01*
X-14986Y-46650D01*
X-5838Y-37502D01*
X-5813Y-37467D01*
X-5782Y-37438D01*
X-5750Y-37375D01*
X-5709Y-37317D01*
X-5699Y-37276D01*
X-5679Y-37238D01*
X-5666Y-37149D01*
X-5653Y-37100D01*
X-5656Y-37079D01*
X-5652Y-37053D01*
X-5652Y-16947D01*
X-5659Y-16905D01*
X-5657Y-16863D01*
X-5679Y-16796D01*
X-5691Y-16726D01*
X-5713Y-16690D01*
X-5726Y-16649D01*
X-5780Y-16576D01*
X-5806Y-16533D01*
X-5822Y-16520D01*
X-5838Y-16498D01*
X-8871Y-13465D01*
X-8906Y-13440D01*
X-8935Y-13409D01*
X-8998Y-13377D01*
X-9056Y-13336D01*
X-9097Y-13326D01*
X-9112Y-13318D01*
X-10779Y-11651D01*
X-10779Y-9349D01*
X-9151Y-7721D01*
X-6849Y-7721D01*
X-5221Y-9349D01*
X-5221Y-11668D01*
X-5251Y-11700D01*
X-5270Y-11744D01*
X-5297Y-11783D01*
X-5313Y-11846D01*
X-5339Y-11907D01*
X-5341Y-11954D01*
X-5353Y-12000D01*
X-5346Y-12065D01*
X-5349Y-12131D01*
X-5334Y-12176D01*
X-5330Y-12223D01*
X-5300Y-12282D01*
X-5280Y-12345D01*
X-5248Y-12389D01*
X-5230Y-12424D01*
X-5201Y-12451D01*
X-5169Y-12495D01*
X-3502Y-14162D01*
X-2734Y-14930D01*
X-2661Y-14981D01*
X-2592Y-15037D01*
X-2570Y-15044D01*
X-2550Y-15058D01*
X-2464Y-15080D01*
X-2380Y-15108D01*
X-2356Y-15108D01*
X-2333Y-15114D01*
X-2244Y-15104D01*
X-2155Y-15102D01*
X-2133Y-15093D01*
X-2110Y-15090D01*
X-2030Y-15051D01*
X-1948Y-15018D01*
X-1930Y-15002D01*
X-1909Y-14991D01*
X-1848Y-14926D01*
X-1782Y-14866D01*
X-1771Y-14845D01*
X-1755Y-14828D01*
X-1720Y-14746D01*
X-1679Y-14667D01*
X-1676Y-14640D01*
X-1667Y-14621D01*
X-1665Y-14571D01*
X-1652Y-14481D01*
X-1652Y-13041D01*
X-1659Y-12999D01*
X-1657Y-12957D01*
X-1679Y-12889D01*
X-1691Y-12820D01*
X-1713Y-12783D01*
X-1726Y-12743D01*
X-1780Y-12670D01*
X-1806Y-12627D01*
X-1822Y-12613D01*
X-1838Y-12592D01*
X-2779Y-11651D01*
X-2779Y-9349D01*
X-1151Y-7721D01*
X1151Y-7721D01*
X2779Y-9349D01*
X2779Y-11651D01*
X1838Y-12592D01*
X1813Y-12627D01*
X1782Y-12656D01*
X1750Y-12719D01*
X1709Y-12776D01*
X1699Y-12818D01*
X1679Y-12855D01*
X1666Y-12945D01*
X1653Y-12994D01*
X1656Y-13014D01*
X1652Y-13041D01*
X1652Y-14481D01*
X1668Y-14569D01*
X1677Y-14657D01*
X1687Y-14679D01*
X1691Y-14702D01*
X1737Y-14779D01*
X1776Y-14858D01*
X1793Y-14875D01*
X1806Y-14895D01*
X1875Y-14951D01*
X1939Y-15012D01*
X1961Y-15022D01*
X1980Y-15037D01*
X2064Y-15065D01*
X2146Y-15100D01*
X2170Y-15101D01*
X2192Y-15108D01*
X2281Y-15106D01*
X2370Y-15110D01*
X2393Y-15103D01*
X2417Y-15102D01*
X2499Y-15068D01*
X2584Y-15041D01*
X2605Y-15025D01*
X2624Y-15018D01*
X2662Y-14984D01*
X2734Y-14930D01*
X5169Y-12495D01*
X5206Y-12441D01*
X5251Y-12393D01*
X5270Y-12350D01*
X5297Y-12311D01*
X5313Y-12247D01*
X5339Y-12187D01*
X5341Y-12140D01*
X5353Y-12094D01*
X5346Y-12028D01*
X5349Y-11963D01*
X5334Y-11918D01*
X5330Y-11871D01*
X5300Y-11812D01*
X5280Y-11749D01*
X5248Y-11705D01*
X5230Y-11670D01*
X5221Y-11661D01*
X5221Y-9349D01*
X6849Y-7721D01*
X9151Y-7721D01*
X10779Y-9349D01*
X10779Y-11651D01*
X9114Y-13316D01*
X9099Y-13318D01*
X9063Y-13340D01*
X9022Y-13353D01*
X8949Y-13407D01*
X8906Y-13433D01*
X8893Y-13449D01*
X8871Y-13465D01*
X5838Y-16498D01*
X5813Y-16533D01*
X5782Y-16562D01*
X5750Y-16625D01*
X5709Y-16683D01*
X5699Y-16724D01*
X5679Y-16762D01*
X5666Y-16851D01*
X5653Y-16900D01*
X5656Y-16921D01*
X5652Y-16947D01*
X5652Y-38457D01*
X5659Y-38499D01*
X5657Y-38542D01*
X5665Y-38566D01*
X5665Y-38576D01*
X5679Y-38609D01*
X5691Y-38678D01*
X5713Y-38715D01*
X5726Y-38755D01*
X5780Y-38828D01*
X5806Y-38872D01*
X5822Y-38885D01*
X5838Y-38906D01*
X10747Y-43816D01*
X10747Y-62893D01*
X10755Y-62935D01*
X10753Y-62978D01*
X10775Y-63045D01*
X10787Y-63114D01*
X10809Y-63151D01*
X10822Y-63191D01*
X10875Y-63264D01*
X10901Y-63308D01*
X10917Y-63321D01*
X10933Y-63342D01*
X10988Y-63397D01*
X11469Y-63878D01*
X11538Y-63947D01*
X11611Y-63998D01*
X11681Y-64054D01*
X11703Y-64062D01*
X11723Y-64075D01*
X11809Y-64098D01*
X11893Y-64126D01*
X11917Y-64125D01*
X11940Y-64131D01*
X12028Y-64122D01*
X12117Y-64119D01*
X12139Y-64111D01*
X12163Y-64108D01*
X12243Y-64069D01*
X12325Y-64035D01*
X12343Y-64019D01*
X12364Y-64009D01*
X12425Y-63944D01*
X12491Y-63884D01*
X12502Y-63863D01*
X12518Y-63845D01*
X12553Y-63763D01*
X12593Y-63684D01*
X12597Y-63658D01*
X12606Y-63639D01*
X12608Y-63588D01*
X12621Y-63499D01*
X12621Y-62871D01*
X14556Y-60936D01*
X15936Y-60936D01*
X16024Y-60920D01*
X16113Y-60911D01*
X16134Y-60901D01*
X16157Y-60896D01*
X16234Y-60851D01*
X16314Y-60812D01*
X16330Y-60794D01*
X16350Y-60782D01*
X16407Y-60713D01*
X16468Y-60648D01*
X16477Y-60627D01*
X16492Y-60608D01*
X16520Y-60524D01*
X16555Y-60442D01*
X16556Y-60418D01*
X16564Y-60396D01*
X16561Y-60307D01*
X16565Y-60218D01*
X16558Y-60195D01*
X16557Y-60171D01*
X16524Y-60089D01*
X16496Y-60004D01*
X16481Y-59983D01*
X16473Y-59963D01*
X16439Y-59926D01*
X16385Y-59853D01*
X15204Y-58672D01*
X15204Y-55936D01*
X16669Y-54471D01*
X16693Y-54436D01*
X16724Y-54407D01*
X16757Y-54344D01*
X16797Y-54287D01*
X16807Y-54245D01*
X16827Y-54208D01*
X16840Y-54118D01*
X16853Y-54069D01*
X16851Y-54049D01*
X16855Y-54022D01*
X16855Y-43760D01*
X20977Y-39638D01*
X21822Y-38793D01*
X21846Y-38758D01*
X21877Y-38730D01*
X21909Y-38667D01*
X21950Y-38609D01*
X21960Y-38568D01*
X21980Y-38530D01*
X21993Y-38440D01*
X22006Y-38392D01*
X22003Y-38371D01*
X22007Y-38345D01*
X22007Y-33373D01*
X21992Y-33285D01*
X21982Y-33196D01*
X21972Y-33175D01*
X21968Y-33152D01*
X21922Y-33075D01*
X21883Y-32995D01*
X21866Y-32979D01*
X21853Y-32959D01*
X21784Y-32902D01*
X21720Y-32841D01*
X21698Y-32832D01*
X21679Y-32817D01*
X21595Y-32789D01*
X21513Y-32754D01*
X21489Y-32753D01*
X21467Y-32745D01*
X21378Y-32748D01*
X21289Y-32744D01*
X21266Y-32751D01*
X21242Y-32752D01*
X21160Y-32785D01*
X21075Y-32813D01*
X21054Y-32828D01*
X21035Y-32836D01*
X20997Y-32870D01*
X20925Y-32924D01*
X19546Y-34303D01*
X16596Y-35525D01*
X13404Y-35525D01*
X10454Y-34303D01*
X8197Y-32046D01*
X6975Y-29096D01*
X6975Y-25904D01*
X8197Y-22954D01*
X10454Y-20697D01*
X13404Y-19475D01*
X16596Y-19475D01*
X19546Y-20697D01*
X20925Y-22076D01*
X20998Y-22127D01*
X21067Y-22183D01*
X21089Y-22190D01*
X21109Y-22204D01*
X21195Y-22226D01*
X21279Y-22255D01*
X21303Y-22254D01*
X21326Y-22260D01*
X21415Y-22251D01*
X21504Y-22248D01*
X21526Y-22239D01*
X21549Y-22237D01*
X21629Y-22197D01*
X21711Y-22164D01*
X21729Y-22148D01*
X21750Y-22137D01*
X21811Y-22072D01*
X21877Y-22012D01*
X21888Y-21991D01*
X21904Y-21974D01*
X21939Y-21892D01*
X21980Y-21813D01*
X21983Y-21787D01*
X21992Y-21767D01*
X21994Y-21717D01*
X22007Y-21627D01*
X22007Y-19947D01*
X22000Y-19905D01*
X22002Y-19863D01*
X21980Y-19796D01*
X21968Y-19726D01*
X21946Y-19690D01*
X21933Y-19649D01*
X21879Y-19576D01*
X21853Y-19533D01*
X21837Y-19520D01*
X21821Y-19498D01*
X15788Y-13465D01*
X15753Y-13440D01*
X15724Y-13409D01*
X15661Y-13377D01*
X15603Y-13336D01*
X15562Y-13326D01*
X15524Y-13306D01*
X15435Y-13293D01*
X15386Y-13280D01*
X15365Y-13283D01*
X15339Y-13279D01*
X14849Y-13279D01*
X13221Y-11651D01*
X13221Y-9349D01*
X14849Y-7721D01*
X17151Y-7721D01*
X18779Y-9349D01*
X18779Y-11521D01*
X18786Y-11563D01*
X18784Y-11605D01*
X18806Y-11672D01*
X18818Y-11742D01*
X18840Y-11778D01*
X18853Y-11819D01*
X18907Y-11892D01*
X18933Y-11935D01*
X18949Y-11948D01*
X18965Y-11970D01*
X25311Y-18316D01*
X25311Y-39976D01*
X24158Y-41129D01*
X24157Y-41129D01*
X23313Y-41974D01*
X20344Y-44943D01*
X20320Y-44978D01*
X20288Y-45006D01*
X20256Y-45069D01*
X20216Y-45127D01*
X20205Y-45168D01*
X20186Y-45206D01*
X20172Y-45295D01*
X20160Y-45344D01*
X20162Y-45365D01*
X20158Y-45391D01*
X20158Y-54022D01*
X20166Y-54064D01*
X20164Y-54106D01*
X20185Y-54174D01*
X20198Y-54243D01*
X20219Y-54280D01*
X20232Y-54320D01*
X20286Y-54393D01*
X20312Y-54436D01*
X20328Y-54450D01*
X20344Y-54471D01*
X21809Y-55936D01*
X21809Y-58672D01*
X19874Y-60607D01*
X18494Y-60607D01*
X18406Y-60623D01*
X18318Y-60632D01*
X18296Y-60642D01*
X18273Y-60646D01*
X18196Y-60692D01*
X18117Y-60731D01*
X18100Y-60748D01*
X18080Y-60761D01*
X18024Y-60830D01*
X17963Y-60894D01*
X17953Y-60916D01*
X17938Y-60935D01*
X17910Y-61019D01*
X17875Y-61101D01*
X17874Y-61125D01*
X17867Y-61147D01*
X17869Y-61236D01*
X17865Y-61325D01*
X17872Y-61348D01*
X17873Y-61372D01*
X17907Y-61454D01*
X17934Y-61539D01*
X17950Y-61560D01*
X17957Y-61580D01*
X17991Y-61617D01*
X18045Y-61690D01*
X19227Y-62871D01*
X19227Y-65213D01*
X19242Y-65301D01*
X19252Y-65389D01*
X19262Y-65410D01*
X19266Y-65434D01*
X19312Y-65511D01*
X19351Y-65590D01*
X19368Y-65607D01*
X19380Y-65627D01*
X19450Y-65683D01*
X19514Y-65744D01*
X19536Y-65753D01*
X19555Y-65768D01*
X19639Y-65797D01*
X19721Y-65832D01*
X19745Y-65833D01*
X19767Y-65840D01*
X19856Y-65838D01*
X19945Y-65842D01*
X19968Y-65834D01*
X19991Y-65834D01*
X20074Y-65800D01*
X20159Y-65773D01*
X20180Y-65757D01*
X20199Y-65749D01*
X20237Y-65715D01*
X20309Y-65661D01*
X20741Y-65229D01*
X23477Y-65229D01*
X23682Y-65434D01*
X23756Y-65485D01*
X23825Y-65541D01*
X23847Y-65549D01*
X23867Y-65563D01*
X23953Y-65585D01*
X24037Y-65613D01*
X24061Y-65613D01*
X24084Y-65618D01*
X24173Y-65609D01*
X24261Y-65607D01*
X24283Y-65598D01*
X24307Y-65595D01*
X24387Y-65556D01*
X24469Y-65522D01*
X24487Y-65506D01*
X24508Y-65496D01*
X24569Y-65431D01*
X24635Y-65371D01*
X24646Y-65350D01*
X24662Y-65333D01*
X24697Y-65250D01*
X24737Y-65171D01*
X24741Y-65145D01*
X24750Y-65126D01*
X24752Y-65076D01*
X24765Y-64986D01*
X24765Y-63518D01*
X24758Y-63476D01*
X24760Y-63434D01*
X24738Y-63367D01*
X24725Y-63297D01*
X24704Y-63261D01*
X24691Y-63220D01*
X24637Y-63147D01*
X24611Y-63104D01*
X24595Y-63091D01*
X24579Y-63070D01*
X24271Y-62761D01*
X24271Y-45393D01*
X26662Y-43002D01*
X26687Y-42967D01*
X26718Y-42938D01*
X26750Y-42875D01*
X26791Y-42817D01*
X26801Y-42776D01*
X26821Y-42738D01*
X26834Y-42649D01*
X26847Y-42600D01*
X26844Y-42579D01*
X26848Y-42553D01*
X26848Y-16947D01*
X26841Y-16905D01*
X26843Y-16863D01*
X26821Y-16796D01*
X26809Y-16726D01*
X26787Y-16690D01*
X26774Y-16649D01*
X26720Y-16576D01*
X26694Y-16533D01*
X26678Y-16520D01*
X26662Y-16498D01*
X23629Y-13465D01*
X23594Y-13440D01*
X23565Y-13409D01*
X23502Y-13377D01*
X23444Y-13336D01*
X23403Y-13326D01*
X23365Y-13306D01*
X23276Y-13293D01*
X23227Y-13280D01*
X23206Y-13283D01*
X23180Y-13279D01*
X22849Y-13279D01*
X21221Y-11651D01*
X21221Y-9349D01*
X22849Y-7721D01*
X25151Y-7721D01*
X26779Y-9349D01*
X26779Y-11680D01*
X26786Y-11722D01*
X26784Y-11764D01*
X26806Y-11831D01*
X26818Y-11901D01*
X26840Y-11937D01*
X26853Y-11978D01*
X26907Y-12051D01*
X26933Y-12094D01*
X26949Y-12107D01*
X26964Y-12129D01*
X29973Y-15137D01*
X30046Y-15188D01*
X30115Y-15244D01*
X30137Y-15251D01*
X30157Y-15265D01*
X30243Y-15287D01*
X30327Y-15316D01*
X30351Y-15315D01*
X30374Y-15321D01*
X30463Y-15312D01*
X30552Y-15309D01*
X30574Y-15300D01*
X30597Y-15298D01*
X30677Y-15258D01*
X30760Y-15225D01*
X30777Y-15209D01*
X30798Y-15198D01*
X30859Y-15133D01*
X30925Y-15073D01*
X30936Y-15052D01*
X30952Y-15035D01*
X30987Y-14953D01*
X31028Y-14874D01*
X31032Y-14847D01*
X31040Y-14828D01*
X31042Y-14778D01*
X31055Y-14688D01*
X31055Y-13748D01*
X31048Y-13706D01*
X31050Y-13664D01*
X31028Y-13596D01*
X31016Y-13527D01*
X30994Y-13490D01*
X30981Y-13450D01*
X30927Y-13377D01*
X30902Y-13334D01*
X30885Y-13321D01*
X30870Y-13299D01*
X29221Y-11651D01*
X29221Y-9349D01*
X30849Y-7721D01*
X33151Y-7721D01*
X34779Y-9349D01*
X34779Y-11651D01*
X34545Y-11885D01*
X34520Y-11920D01*
X34489Y-11949D01*
X34457Y-12011D01*
X34417Y-12069D01*
X34406Y-12110D01*
X34387Y-12148D01*
X34373Y-12238D01*
X34361Y-12287D01*
X34363Y-12307D01*
X34359Y-12334D01*
X34359Y-47280D01*
X34366Y-47322D01*
X34364Y-47364D01*
X34386Y-47431D01*
X34399Y-47501D01*
X34420Y-47537D01*
X34433Y-47578D01*
X34487Y-47650D01*
X34513Y-47694D01*
X34529Y-47707D01*
X34545Y-47728D01*
X36010Y-49194D01*
X36010Y-51930D01*
X34060Y-53880D01*
X34058Y-53880D01*
X33969Y-53889D01*
X33948Y-53900D01*
X33924Y-53904D01*
X33848Y-53949D01*
X33768Y-53989D01*
X33752Y-54006D01*
X33731Y-54018D01*
X33675Y-54087D01*
X33614Y-54152D01*
X33605Y-54174D01*
X33590Y-54192D01*
X33561Y-54277D01*
X33527Y-54359D01*
X33526Y-54382D01*
X33518Y-54405D01*
X33521Y-54494D01*
X33517Y-54583D01*
X33524Y-54606D01*
X33525Y-54629D01*
X33558Y-54712D01*
X33585Y-54796D01*
X33601Y-54818D01*
X33609Y-54837D01*
X33643Y-54874D01*
X33697Y-54947D01*
X35310Y-56561D01*
X35310Y-58056D01*
X35326Y-58144D01*
X35335Y-58232D01*
X35346Y-58253D01*
X35350Y-58277D01*
X35395Y-58354D01*
X35435Y-58433D01*
X35452Y-58449D01*
X35464Y-58470D01*
X35533Y-58526D01*
X35598Y-58587D01*
X35620Y-58596D01*
X35638Y-58611D01*
X35722Y-58640D01*
X35805Y-58675D01*
X35828Y-58676D01*
X35851Y-58683D01*
X35940Y-58681D01*
X36029Y-58685D01*
X36051Y-58677D01*
X36075Y-58677D01*
X36157Y-58643D01*
X36242Y-58616D01*
X36264Y-58600D01*
X36283Y-58592D01*
X36320Y-58558D01*
X36393Y-58504D01*
X37725Y-57172D01*
X39934Y-57172D01*
X40022Y-57156D01*
X40110Y-57147D01*
X40132Y-57136D01*
X40155Y-57132D01*
X40232Y-57087D01*
X40311Y-57047D01*
X40328Y-57030D01*
X40348Y-57018D01*
X40404Y-56949D01*
X40465Y-56884D01*
X40474Y-56862D01*
X40489Y-56844D01*
X40518Y-56760D01*
X40553Y-56678D01*
X40554Y-56654D01*
X40561Y-56631D01*
X40559Y-56542D01*
X40563Y-56453D01*
X40555Y-56431D01*
X40555Y-56407D01*
X40521Y-56325D01*
X40494Y-56240D01*
X40478Y-56219D01*
X40470Y-56199D01*
X40436Y-56162D01*
X40431Y-56154D01*
X40431Y-54065D01*
X40423Y-54023D01*
X40425Y-53981D01*
X40403Y-53914D01*
X40391Y-53844D01*
X40369Y-53808D01*
X40356Y-53767D01*
X40303Y-53695D01*
X40277Y-53651D01*
X40261Y-53638D01*
X40245Y-53617D01*
X38348Y-51720D01*
X38348Y-13041D01*
X38341Y-12999D01*
X38343Y-12957D01*
X38321Y-12889D01*
X38309Y-12820D01*
X38287Y-12783D01*
X38274Y-12743D01*
X38220Y-12670D01*
X38194Y-12627D01*
X38178Y-12613D01*
X38162Y-12592D01*
X37221Y-11651D01*
X37221Y-9349D01*
X38849Y-7721D01*
X41151Y-7721D01*
X42779Y-9349D01*
X42779Y-11354D01*
X42794Y-11442D01*
X42804Y-11530D01*
X42814Y-11552D01*
X42818Y-11575D01*
X42864Y-11652D01*
X42903Y-11731D01*
X42920Y-11748D01*
X42933Y-11768D01*
X43002Y-11824D01*
X43066Y-11885D01*
X43088Y-11895D01*
X43107Y-11910D01*
X43191Y-11938D01*
X43273Y-11973D01*
X43297Y-11974D01*
X43319Y-11981D01*
X43408Y-11979D01*
X43497Y-11983D01*
X43520Y-11976D01*
X43544Y-11975D01*
X43626Y-11941D01*
X43711Y-11914D01*
X43732Y-11898D01*
X43751Y-11891D01*
X43789Y-11857D01*
X43861Y-11803D01*
X44029Y-11635D01*
X44060Y-11630D01*
X44074Y-11621D01*
X44091Y-11617D01*
X44250Y-11518D01*
X44998Y-10883D01*
X45041Y-10831D01*
X45091Y-10785D01*
X45112Y-10745D01*
X45140Y-10710D01*
X45162Y-10646D01*
X45194Y-10585D01*
X45201Y-10534D01*
X45214Y-10498D01*
X45213Y-10457D01*
X45221Y-10400D01*
X45221Y-9349D01*
X46849Y-7721D01*
X49214Y-7721D01*
X49279Y-7710D01*
X49345Y-7708D01*
X49388Y-7690D01*
X49435Y-7682D01*
X49492Y-7648D01*
X49552Y-7623D01*
X49587Y-7592D01*
X49628Y-7567D01*
X49670Y-7516D01*
X49718Y-7472D01*
X49740Y-7430D01*
X49769Y-7393D01*
X49790Y-7331D01*
X49821Y-7272D01*
X49829Y-7218D01*
X49841Y-7181D01*
X49840Y-7141D01*
X49848Y-7087D01*
X49848Y-42D01*
X49846Y-31D01*
X49848Y-19D01*
X49823Y659D01*
X50302Y1138D01*
X50308Y1147D01*
X50319Y1155D01*
X52176Y3155D01*
X52218Y3221D01*
X52267Y3281D01*
X52278Y3314D01*
X52297Y3344D01*
X52314Y3420D01*
X52339Y3493D01*
X52338Y3529D01*
X52345Y3563D01*
X52334Y3640D01*
X52332Y3718D01*
X52319Y3750D01*
X52314Y3786D01*
X52277Y3854D01*
X52248Y3925D01*
X52224Y3952D01*
X52207Y3983D01*
X52148Y4034D01*
X52096Y4091D01*
X52065Y4107D01*
X52038Y4131D01*
X51966Y4158D01*
X51897Y4194D01*
X51857Y4200D01*
X51828Y4210D01*
X51782Y4211D01*
X51711Y4221D01*
X50849Y4221D01*
X49221Y5849D01*
X49221Y8151D01*
X50849Y9779D01*
X53151Y9779D01*
X54551Y8378D01*
X54605Y8341D01*
X54653Y8295D01*
X54697Y8277D01*
X54736Y8250D01*
X54799Y8234D01*
X54860Y8208D01*
X54907Y8206D01*
X54953Y8194D01*
X55018Y8201D01*
X55084Y8198D01*
X55129Y8213D01*
X55176Y8217D01*
X55235Y8247D01*
X55298Y8267D01*
X55342Y8299D01*
X55377Y8317D01*
X55404Y8345D01*
X55448Y8378D01*
X56209Y9139D01*
X56260Y9212D01*
X56316Y9281D01*
X56323Y9303D01*
X56337Y9323D01*
X56359Y9409D01*
X56388Y9493D01*
X56387Y9517D01*
X56393Y9540D01*
X56384Y9629D01*
X56381Y9718D01*
X56372Y9740D01*
X56370Y9763D01*
X56330Y9843D01*
X56297Y9925D01*
X56281Y9943D01*
X56270Y9964D01*
X56205Y10025D01*
X56145Y10091D01*
X56124Y10102D01*
X56107Y10118D01*
X56025Y10153D01*
X55946Y10194D01*
X55920Y10197D01*
X55900Y10206D01*
X55850Y10208D01*
X55760Y10221D01*
X54849Y10221D01*
X53221Y11849D01*
X53221Y14354D01*
X53206Y14442D01*
X53196Y14530D01*
X53186Y14552D01*
X53182Y14575D01*
X53136Y14652D01*
X53097Y14731D01*
X53080Y14748D01*
X53067Y14768D01*
X52998Y14824D01*
X52934Y14885D01*
X52912Y14895D01*
X52893Y14910D01*
X52809Y14938D01*
X52727Y14973D01*
X52703Y14974D01*
X52681Y14981D01*
X52592Y14979D01*
X52503Y14983D01*
X52480Y14976D01*
X52456Y14975D01*
X52374Y14941D01*
X52289Y14914D01*
X52268Y14898D01*
X52249Y14891D01*
X52211Y14857D01*
X52139Y14803D01*
X50964Y13629D01*
X50940Y13594D01*
X50909Y13565D01*
X50877Y13502D01*
X50836Y13444D01*
X50826Y13403D01*
X50806Y13365D01*
X50793Y13276D01*
X50780Y13227D01*
X50783Y13206D01*
X50779Y13180D01*
X50779Y11849D01*
X49151Y10221D01*
X46849Y10221D01*
X45221Y11849D01*
X45221Y14151D01*
X46849Y15779D01*
X48180Y15779D01*
X48222Y15786D01*
X48264Y15784D01*
X48331Y15806D01*
X48401Y15818D01*
X48437Y15840D01*
X48478Y15853D01*
X48551Y15907D01*
X48594Y15933D01*
X48607Y15949D01*
X48629Y15965D01*
X52316Y19652D01*
X64684Y19652D01*
X72652Y11684D01*
X72652Y-20508D01*
X68747Y-24412D01*
X68723Y-24447D01*
X68692Y-24476D01*
X68660Y-24539D01*
X68619Y-24597D01*
X68609Y-24638D01*
X68589Y-24675D01*
X68576Y-24765D01*
X68563Y-24814D01*
X68566Y-24835D01*
X68562Y-24861D01*
X68562Y-26933D01*
X66627Y-28868D01*
X66337Y-28868D01*
X66249Y-28883D01*
X66161Y-28893D01*
X66140Y-28903D01*
X66116Y-28907D01*
X66039Y-28953D01*
X65960Y-28992D01*
X65943Y-29009D01*
X65923Y-29021D01*
X65867Y-29091D01*
X65806Y-29155D01*
X65797Y-29177D01*
X65782Y-29196D01*
X65753Y-29280D01*
X65718Y-29362D01*
X65717Y-29386D01*
X65710Y-29408D01*
X65712Y-29497D01*
X65708Y-29586D01*
X65716Y-29609D01*
X65716Y-29632D01*
X65750Y-29715D01*
X65777Y-29800D01*
X65793Y-29821D01*
X65801Y-29840D01*
X65835Y-29878D01*
X65889Y-29950D01*
X67396Y-31458D01*
X67396Y-34194D01*
X65461Y-36129D01*
X62725Y-36129D01*
X61069Y-34472D01*
X60996Y-34422D01*
X60927Y-34365D01*
X60904Y-34358D01*
X60885Y-34344D01*
X60799Y-34322D01*
X60714Y-34294D01*
X60691Y-34294D01*
X60668Y-34288D01*
X60579Y-34298D01*
X60490Y-34300D01*
X60468Y-34309D01*
X60444Y-34312D01*
X60365Y-34351D01*
X60282Y-34385D01*
X60265Y-34401D01*
X60243Y-34411D01*
X60182Y-34476D01*
X60117Y-34536D01*
X60106Y-34557D01*
X60089Y-34574D01*
X60055Y-34656D01*
X60014Y-34736D01*
X60010Y-34762D01*
X60002Y-34781D01*
X60000Y-34831D01*
X59986Y-34921D01*
X59986Y-35532D01*
X57960Y-37558D01*
X57923Y-37612D01*
X57878Y-37660D01*
X57859Y-37703D01*
X57832Y-37742D01*
X57816Y-37806D01*
X57790Y-37867D01*
X57788Y-37914D01*
X57776Y-37959D01*
X57783Y-38025D01*
X57780Y-38091D01*
X57795Y-38136D01*
X57799Y-38183D01*
X57829Y-38242D01*
X57849Y-38304D01*
X57881Y-38348D01*
X57899Y-38384D01*
X57928Y-38411D01*
X57960Y-38455D01*
X59721Y-40216D01*
X59721Y-42952D01*
X57787Y-44887D01*
X56206Y-44887D01*
X56119Y-44903D01*
X56030Y-44912D01*
X56009Y-44922D01*
X55985Y-44926D01*
X55909Y-44972D01*
X55829Y-45011D01*
X55813Y-45028D01*
X55792Y-45041D01*
X55736Y-45110D01*
X55675Y-45174D01*
X55666Y-45196D01*
X55651Y-45215D01*
X55622Y-45299D01*
X55588Y-45381D01*
X55587Y-45405D01*
X55579Y-45427D01*
X55582Y-45516D01*
X55578Y-45605D01*
X55585Y-45628D01*
X55586Y-45652D01*
X55619Y-45734D01*
X55646Y-45819D01*
X55662Y-45840D01*
X55670Y-45860D01*
X55704Y-45897D01*
X55758Y-45970D01*
X56716Y-46928D01*
X56716Y-49664D01*
X54781Y-51599D01*
X52045Y-51599D01*
X50109Y-49662D01*
X50095Y-49584D01*
X50086Y-49496D01*
X50075Y-49474D01*
X50071Y-49451D01*
X50026Y-49374D01*
X49986Y-49294D01*
X49969Y-49278D01*
X49957Y-49258D01*
X49888Y-49202D01*
X49823Y-49141D01*
X49801Y-49131D01*
X49783Y-49116D01*
X49698Y-49088D01*
X49616Y-49053D01*
X49593Y-49052D01*
X49570Y-49044D01*
X49481Y-49047D01*
X49392Y-49043D01*
X49370Y-49050D01*
X49346Y-49051D01*
X49263Y-49085D01*
X49179Y-49112D01*
X49157Y-49127D01*
X49138Y-49135D01*
X49101Y-49169D01*
X49028Y-49223D01*
X47278Y-50973D01*
X46139Y-50973D01*
X46052Y-50989D01*
X45963Y-50998D01*
X45942Y-51009D01*
X45918Y-51013D01*
X45842Y-51058D01*
X45762Y-51098D01*
X45746Y-51115D01*
X45725Y-51127D01*
X45669Y-51196D01*
X45608Y-51261D01*
X45599Y-51283D01*
X45584Y-51301D01*
X45555Y-51386D01*
X45521Y-51468D01*
X45520Y-51491D01*
X45512Y-51514D01*
X45515Y-51603D01*
X45511Y-51692D01*
X45518Y-51714D01*
X45519Y-51738D01*
X45552Y-51821D01*
X45579Y-51905D01*
X45595Y-51927D01*
X45603Y-51946D01*
X45637Y-51983D01*
X45691Y-52056D01*
X47036Y-53401D01*
X47036Y-56137D01*
X45101Y-58072D01*
X42893Y-58072D01*
X42805Y-58088D01*
X42717Y-58097D01*
X42695Y-58108D01*
X42672Y-58112D01*
X42595Y-58157D01*
X42515Y-58197D01*
X42499Y-58214D01*
X42479Y-58226D01*
X42423Y-58295D01*
X42362Y-58360D01*
X42352Y-58382D01*
X42337Y-58400D01*
X42309Y-58484D01*
X42274Y-58566D01*
X42273Y-58590D01*
X42266Y-58613D01*
X42268Y-58702D01*
X42264Y-58791D01*
X42271Y-58813D01*
X42272Y-58837D01*
X42306Y-58919D01*
X42333Y-59004D01*
X42349Y-59025D01*
X42356Y-59045D01*
X42390Y-59082D01*
X42396Y-59090D01*
X42396Y-61843D01*
X40462Y-63777D01*
X37725Y-63777D01*
X35791Y-61843D01*
X35791Y-60347D01*
X35775Y-60260D01*
X35766Y-60171D01*
X35755Y-60150D01*
X35751Y-60126D01*
X35706Y-60050D01*
X35666Y-59970D01*
X35649Y-59954D01*
X35637Y-59933D01*
X35568Y-59877D01*
X35503Y-59816D01*
X35481Y-59807D01*
X35463Y-59792D01*
X35378Y-59763D01*
X35296Y-59729D01*
X35273Y-59728D01*
X35250Y-59720D01*
X35161Y-59723D01*
X35072Y-59719D01*
X35050Y-59726D01*
X35026Y-59727D01*
X34943Y-59760D01*
X34859Y-59787D01*
X34837Y-59803D01*
X34818Y-59811D01*
X34781Y-59845D01*
X34708Y-59899D01*
X33376Y-61231D01*
X31279Y-61231D01*
X31191Y-61247D01*
X31103Y-61256D01*
X31082Y-61267D01*
X31058Y-61271D01*
X30981Y-61316D01*
X30902Y-61356D01*
X30885Y-61373D01*
X30865Y-61385D01*
X30809Y-61454D01*
X30748Y-61519D01*
X30739Y-61541D01*
X30724Y-61559D01*
X30695Y-61644D01*
X30660Y-61726D01*
X30659Y-61749D01*
X30652Y-61772D01*
X30654Y-61861D01*
X30650Y-61950D01*
X30658Y-61972D01*
X30658Y-61996D01*
X30692Y-62079D01*
X30719Y-62163D01*
X30735Y-62185D01*
X30743Y-62204D01*
X30777Y-62241D01*
X30831Y-62314D01*
X31371Y-62854D01*
X31371Y-65590D01*
X29436Y-67525D01*
X26700Y-67525D01*
X26495Y-67320D01*
X26422Y-67269D01*
X26353Y-67213D01*
X26330Y-67205D01*
X26311Y-67192D01*
X26224Y-67170D01*
X26140Y-67141D01*
X26116Y-67142D01*
X26093Y-67136D01*
X26005Y-67145D01*
X25916Y-67148D01*
X25894Y-67157D01*
X25870Y-67159D01*
X25790Y-67199D01*
X25708Y-67232D01*
X25690Y-67248D01*
X25669Y-67259D01*
X25608Y-67323D01*
X25542Y-67383D01*
X25531Y-67404D01*
X25515Y-67422D01*
X25480Y-67504D01*
X25440Y-67583D01*
X25436Y-67609D01*
X25428Y-67628D01*
X25426Y-67679D01*
X25412Y-67768D01*
X25412Y-69900D01*
X23477Y-71835D01*
X20741Y-71835D01*
X18807Y-69900D01*
X18807Y-67558D01*
X18791Y-67470D01*
X18782Y-67382D01*
X18771Y-67361D01*
X18767Y-67337D01*
X18722Y-67260D01*
X18682Y-67181D01*
X18665Y-67164D01*
X18653Y-67144D01*
X18584Y-67088D01*
X18519Y-67027D01*
X18497Y-67018D01*
X18479Y-67003D01*
X18394Y-66974D01*
X18312Y-66939D01*
X18289Y-66938D01*
X18266Y-66931D01*
X18177Y-66933D01*
X18088Y-66929D01*
X18066Y-66937D01*
X18042Y-66937D01*
X17959Y-66971D01*
X17875Y-66998D01*
X17853Y-67014D01*
X17834Y-67022D01*
X17797Y-67056D01*
X17724Y-67110D01*
X17292Y-67542D01*
X14427Y-67542D01*
X14362Y-67553D01*
X14296Y-67555D01*
X14252Y-67573D01*
X14206Y-67581D01*
X14149Y-67615D01*
X14088Y-67639D01*
X14053Y-67671D01*
X14013Y-67695D01*
X13971Y-67746D01*
X13922Y-67791D01*
X13901Y-67833D01*
X13871Y-67870D01*
X13850Y-67932D01*
X13820Y-67990D01*
X13812Y-68045D01*
X13799Y-68082D01*
X13800Y-68121D01*
X13792Y-68176D01*
X13792Y-70666D01*
X11858Y-72601D01*
X9122Y-72601D01*
X8004Y-71484D01*
X7931Y-71433D01*
X7862Y-71377D01*
X7839Y-71369D01*
X7820Y-71355D01*
X7734Y-71333D01*
X7649Y-71305D01*
X7626Y-71305D01*
X7603Y-71300D01*
X7514Y-71309D01*
X7425Y-71311D01*
X7403Y-71320D01*
X7379Y-71323D01*
X7300Y-71362D01*
X7217Y-71396D01*
X7200Y-71412D01*
X7178Y-71422D01*
X7117Y-71487D01*
X7052Y-71547D01*
X7041Y-71568D01*
X7024Y-71585D01*
X6990Y-71667D01*
X6949Y-71747D01*
X6945Y-71773D01*
X6937Y-71792D01*
X6935Y-71842D01*
X6921Y-71932D01*
X6921Y-73287D01*
X4987Y-75222D01*
X2251Y-75222D01*
X449Y-73420D01*
X394Y-73382D01*
X347Y-73337D01*
X303Y-73319D01*
X264Y-73292D01*
X201Y-73276D01*
X140Y-73250D01*
X93Y-73248D01*
X47Y-73236D01*
X-18Y-73243D01*
X-84Y-73240D01*
X-129Y-73254D01*
X-176Y-73259D01*
X-235Y-73288D01*
X-298Y-73309D01*
X-342Y-73341D01*
X-377Y-73359D01*
X-404Y-73387D01*
X-449Y-73420D01*
X-2251Y-75222D01*
X-4987Y-75222D01*
X-6921Y-73287D01*
X-6921Y-71932D01*
X-6937Y-71844D01*
X-6946Y-71756D01*
X-6957Y-71735D01*
X-6961Y-71711D01*
X-7006Y-71634D01*
X-7046Y-71555D01*
X-7063Y-71539D01*
X-7075Y-71518D01*
X-7144Y-71462D01*
X-7209Y-71401D01*
X-7231Y-71392D01*
X-7249Y-71377D01*
X-7334Y-71348D01*
X-7416Y-71313D01*
X-7439Y-71312D01*
X-7462Y-71305D01*
X-7551Y-71307D01*
X-7640Y-71303D01*
X-7662Y-71311D01*
X-7686Y-71311D01*
X-7769Y-71345D01*
X-7853Y-71372D01*
X-7875Y-71388D01*
X-7894Y-71396D01*
X-7931Y-71430D01*
X-8004Y-71484D01*
X-9122Y-72601D01*
X-11858Y-72601D01*
X-13792Y-70666D01*
X-13792Y-68176D01*
X-13804Y-68111D01*
X-13806Y-68045D01*
X-13824Y-68002D01*
X-13832Y-67955D01*
X-13865Y-67898D01*
X-13890Y-67837D01*
X-13922Y-67803D01*
X-13946Y-67762D01*
X-13997Y-67720D01*
X-14042Y-67672D01*
X-14084Y-67650D01*
X-14120Y-67620D01*
X-14183Y-67599D01*
X-14241Y-67569D01*
X-14296Y-67561D01*
X-14333Y-67549D01*
X-14372Y-67550D01*
X-14427Y-67542D01*
X-17292Y-67542D01*
X-17724Y-67110D01*
X-17797Y-67059D01*
X-17866Y-67003D01*
X-17889Y-66995D01*
X-17908Y-66981D01*
X-17994Y-66959D01*
X-18079Y-66931D01*
X-18102Y-66931D01*
X-18125Y-66926D01*
X-18214Y-66935D01*
X-18303Y-66937D01*
X-18325Y-66946D01*
X-18349Y-66949D01*
X-18428Y-66988D01*
X-18511Y-67022D01*
X-18528Y-67038D01*
X-18550Y-67048D01*
X-18611Y-67113D01*
X-18676Y-67173D01*
X-18687Y-67194D01*
X-18704Y-67211D01*
X-18738Y-67294D01*
X-18779Y-67373D01*
X-18783Y-67399D01*
X-18791Y-67418D01*
X-18793Y-67468D01*
X-18807Y-67558D01*
X-18807Y-69900D01*
X-20741Y-71835D01*
X-23477Y-71835D01*
X-25412Y-69900D01*
X-25412Y-67768D01*
X-25428Y-67681D01*
X-25437Y-67592D01*
X-25448Y-67571D01*
X-25452Y-67548D01*
X-25497Y-67471D01*
X-25537Y-67391D01*
X-25554Y-67375D01*
X-25566Y-67354D01*
X-25635Y-67298D01*
X-25700Y-67237D01*
X-25722Y-67228D01*
X-25740Y-67213D01*
X-25824Y-67184D01*
X-25906Y-67150D01*
X-25930Y-67149D01*
X-25953Y-67141D01*
X-26042Y-67144D01*
X-26131Y-67140D01*
X-26153Y-67147D01*
X-26177Y-67148D01*
X-26259Y-67181D01*
X-26344Y-67208D01*
X-26366Y-67224D01*
X-26385Y-67232D01*
X-26422Y-67266D01*
X-26495Y-67320D01*
X-26700Y-67525D01*
X-29436Y-67525D01*
X-31371Y-65590D01*
X-31371Y-62854D01*
X-30831Y-62314D01*
X-30780Y-62241D01*
X-30724Y-62172D01*
X-30716Y-62149D01*
X-30702Y-62130D01*
X-30680Y-62044D01*
X-30652Y-61959D01*
X-30652Y-61936D01*
X-30647Y-61913D01*
X-30656Y-61824D01*
X-30658Y-61735D01*
X-30667Y-61713D01*
X-30670Y-61689D01*
X-30709Y-61609D01*
X-30743Y-61527D01*
X-30759Y-61510D01*
X-30769Y-61488D01*
X-30834Y-61427D01*
X-30894Y-61361D01*
X-30915Y-61351D01*
X-30932Y-61334D01*
X-31015Y-61300D01*
X-31094Y-61259D01*
X-31120Y-61255D01*
X-31139Y-61247D01*
X-31189Y-61245D01*
X-31279Y-61231D01*
X-33376Y-61231D01*
X-34708Y-59899D01*
X-34781Y-59848D01*
X-34850Y-59792D01*
X-34873Y-59784D01*
X-34892Y-59771D01*
X-34978Y-59749D01*
X-35063Y-59720D01*
X-35086Y-59721D01*
X-35109Y-59715D01*
X-35198Y-59724D01*
X-35287Y-59727D01*
X-35309Y-59736D01*
X-35333Y-59738D01*
X-35413Y-59778D01*
X-35495Y-59811D01*
X-35512Y-59827D01*
X-35534Y-59837D01*
X-35595Y-59902D01*
X-35661Y-59962D01*
X-35671Y-59983D01*
X-35688Y-60001D01*
X-35722Y-60083D01*
X-35763Y-60162D01*
X-35767Y-60188D01*
X-35775Y-60207D01*
X-35777Y-60258D01*
X-35791Y-60347D01*
X-35791Y-61843D01*
X-37725Y-63777D01*
X-40462Y-63777D01*
X-42396Y-61843D01*
X-42396Y-59086D01*
X-42393Y-59082D01*
X-42337Y-59013D01*
X-42330Y-58990D01*
X-42316Y-58971D01*
X-42294Y-58884D01*
X-42266Y-58800D01*
X-42266Y-58776D01*
X-42260Y-58753D01*
X-42270Y-58665D01*
X-42272Y-58576D01*
X-42281Y-58554D01*
X-42283Y-58530D01*
X-42323Y-58450D01*
X-42356Y-58368D01*
X-42372Y-58350D01*
X-42383Y-58329D01*
X-42448Y-58268D01*
X-42508Y-58202D01*
X-42529Y-58191D01*
X-42546Y-58175D01*
X-42628Y-58140D01*
X-42707Y-58100D01*
X-42734Y-58096D01*
X-42753Y-58088D01*
X-42803Y-58085D01*
X-42893Y-58072D01*
X-45101Y-58072D01*
X-47036Y-56137D01*
X-47036Y-53401D01*
X-45691Y-52056D01*
X-45640Y-51983D01*
X-45584Y-51914D01*
X-45576Y-51891D01*
X-45563Y-51872D01*
X-45541Y-51786D01*
X-45512Y-51701D01*
X-45513Y-51678D01*
X-45507Y-51655D01*
X-45516Y-51566D01*
X-45519Y-51477D01*
X-45528Y-51455D01*
X-45530Y-51431D01*
X-45570Y-51351D01*
X-45603Y-51269D01*
X-45619Y-51252D01*
X-45629Y-51230D01*
X-45694Y-51169D01*
X-45754Y-51103D01*
X-45775Y-51093D01*
X-45793Y-51076D01*
X-45875Y-51042D01*
X-45954Y-51001D01*
X-45980Y-50997D01*
X-45999Y-50989D01*
X-46050Y-50987D01*
X-46139Y-50973D01*
X-47278Y-50973D01*
X-49028Y-49223D01*
X-49101Y-49172D01*
X-49170Y-49116D01*
X-49193Y-49109D01*
X-49212Y-49095D01*
X-49298Y-49073D01*
X-49383Y-49044D01*
X-49406Y-49045D01*
X-49429Y-49039D01*
X-49518Y-49048D01*
X-49607Y-49051D01*
X-49629Y-49060D01*
X-49653Y-49062D01*
X-49732Y-49102D01*
X-49815Y-49135D01*
X-49832Y-49151D01*
X-49854Y-49162D01*
X-49915Y-49227D01*
X-49980Y-49287D01*
X-49991Y-49308D01*
X-50008Y-49325D01*
X-50042Y-49407D01*
X-50083Y-49486D01*
X-50087Y-49513D01*
X-50095Y-49532D01*
X-50097Y-49582D01*
X-50109Y-49663D01*
X-52045Y-51599D01*
X-54781Y-51599D01*
X-56716Y-49664D01*
X-56716Y-46928D01*
X-55758Y-45970D01*
X-55707Y-45896D01*
X-55651Y-45827D01*
X-55643Y-45805D01*
X-55630Y-45785D01*
X-55608Y-45699D01*
X-55579Y-45615D01*
X-55580Y-45591D01*
X-55574Y-45568D01*
X-55583Y-45479D01*
X-55586Y-45391D01*
X-55595Y-45369D01*
X-55597Y-45345D01*
X-55636Y-45265D01*
X-55670Y-45183D01*
X-55686Y-45165D01*
X-55696Y-45144D01*
X-55761Y-45083D01*
X-55821Y-45017D01*
X-55842Y-45006D01*
X-55860Y-44990D01*
X-55942Y-44955D01*
X-56021Y-44914D01*
X-56047Y-44911D01*
X-56066Y-44902D01*
X-56117Y-44900D01*
X-56206Y-44887D01*
X-57787Y-44887D01*
X-59721Y-42952D01*
X-59721Y-40216D01*
X-57960Y-38455D01*
X-57923Y-38401D01*
X-57878Y-38353D01*
X-57859Y-38310D01*
X-57832Y-38271D01*
X-57816Y-38207D01*
X-57790Y-38146D01*
X-57788Y-38099D01*
X-57776Y-38053D01*
X-57783Y-37988D01*
X-57780Y-37922D01*
X-57795Y-37877D01*
X-57799Y-37830D01*
X-57829Y-37771D01*
X-57849Y-37709D01*
X-57881Y-37665D01*
X-57899Y-37629D01*
X-57928Y-37602D01*
X-57960Y-37558D01*
X-59986Y-35532D01*
X-59986Y-34921D01*
X-60002Y-34833D01*
X-60011Y-34745D01*
X-60022Y-34723D01*
X-60026Y-34700D01*
X-60071Y-34623D01*
X-60111Y-34544D01*
X-60128Y-34527D01*
X-60140Y-34507D01*
X-60209Y-34451D01*
X-60274Y-34390D01*
X-60296Y-34380D01*
X-60314Y-34365D01*
X-60399Y-34337D01*
X-60481Y-34302D01*
X-60504Y-34301D01*
X-60527Y-34294D01*
X-60616Y-34296D01*
X-60705Y-34292D01*
X-60727Y-34300D01*
X-60751Y-34300D01*
X-60834Y-34334D01*
X-60918Y-34361D01*
X-60940Y-34377D01*
X-60959Y-34385D01*
X-60996Y-34419D01*
X-61069Y-34472D01*
X-62725Y-36129D01*
X-65461Y-36129D01*
X-67396Y-34194D01*
X-67396Y-32122D01*
X-67404Y-32080D01*
X-67402Y-32038D01*
X-67423Y-31970D01*
X-67436Y-31901D01*
X-67457Y-31864D01*
X-67470Y-31824D01*
X-67511Y-31768D01*
X-67513Y-31764D01*
X-67521Y-31756D01*
X-67524Y-31751D01*
X-67550Y-31708D01*
X-67566Y-31695D01*
X-67582Y-31673D01*
X-70555Y-28700D01*
X-70643Y-28639D01*
X-70731Y-28576D01*
X-70736Y-28574D01*
X-70739Y-28572D01*
X-70843Y-28545D01*
X-70948Y-28517D01*
X-70952Y-28517D01*
X-70957Y-28516D01*
X-71063Y-28527D01*
X-71171Y-28537D01*
X-71175Y-28539D01*
X-71180Y-28539D01*
X-71276Y-28587D01*
X-71374Y-28633D01*
X-71377Y-28637D01*
X-71381Y-28639D01*
X-71455Y-28717D01*
X-71530Y-28795D01*
X-71532Y-28799D01*
X-71535Y-28802D01*
X-71577Y-28902D01*
X-71620Y-29000D01*
X-71620Y-29004D01*
X-71622Y-29008D01*
X-71627Y-29116D01*
X-71633Y-29224D01*
X-71632Y-29229D01*
X-71632Y-29233D01*
X-71624Y-29259D01*
X-71584Y-29405D01*
X-67528Y-38586D01*
X-67500Y-38626D01*
X-67463Y-38700D01*
X-58105Y-51698D01*
X-58070Y-51732D01*
X-58017Y-51796D01*
X-46178Y-62582D01*
X-46136Y-62608D01*
X-46072Y-62660D01*
X-32260Y-70769D01*
X-32213Y-70786D01*
X-32140Y-70823D01*
X-16951Y-75905D01*
X-16911Y-75911D01*
X-16855Y-75929D01*
X-9751Y-77125D01*
X-9708Y-77125D01*
X-9646Y-77134D01*
X9646Y-77134D01*
X9688Y-77127D01*
G37*
G36*
X-2244Y32989D02*
X-2244Y32989D01*
X-2155Y32992D01*
X-2134Y33001D01*
X-2110Y33003D01*
X-2030Y33043D01*
X-1948Y33076D01*
X-1930Y33092D01*
X-1909Y33103D01*
X-1848Y33167D01*
X-1782Y33228D01*
X-1771Y33249D01*
X-1755Y33266D01*
X-1720Y33348D01*
X-1679Y33427D01*
X-1676Y33453D01*
X-1667Y33473D01*
X-1665Y33523D01*
X-1652Y33613D01*
X-1652Y36634D01*
X-499Y37787D01*
X-498Y37788D01*
X2915Y41201D01*
X2972Y41284D01*
X3033Y41364D01*
X3036Y41375D01*
X3043Y41385D01*
X3068Y41482D01*
X3097Y41579D01*
X3096Y41591D01*
X3099Y41602D01*
X3088Y41702D01*
X3082Y41803D01*
X3077Y41814D01*
X3076Y41825D01*
X3031Y41915D01*
X2990Y42007D01*
X2981Y42016D01*
X2976Y42026D01*
X2903Y42095D01*
X2832Y42167D01*
X2822Y42172D01*
X2813Y42180D01*
X2720Y42220D01*
X2629Y42262D01*
X2617Y42263D01*
X2606Y42268D01*
X2506Y42272D01*
X2406Y42281D01*
X2393Y42277D01*
X2382Y42278D01*
X2339Y42264D01*
X2224Y42235D01*
X1596Y41975D01*
X-1596Y41975D01*
X-4546Y43197D01*
X-6803Y45454D01*
X-8025Y48404D01*
X-8025Y51596D01*
X-6803Y54546D01*
X-4546Y56803D01*
X-1596Y58025D01*
X1596Y58025D01*
X4546Y56803D01*
X6803Y54546D01*
X8025Y51596D01*
X8025Y48404D01*
X7765Y47776D01*
X7743Y47678D01*
X7718Y47581D01*
X7720Y47569D01*
X7717Y47557D01*
X7731Y47457D01*
X7742Y47357D01*
X7747Y47347D01*
X7748Y47335D01*
X7796Y47247D01*
X7841Y47156D01*
X7850Y47148D01*
X7855Y47138D01*
X7931Y47072D01*
X8004Y47002D01*
X8015Y46998D01*
X8024Y46990D01*
X8118Y46954D01*
X8211Y46915D01*
X8223Y46914D01*
X8234Y46910D01*
X8335Y46909D01*
X8435Y46905D01*
X8446Y46909D01*
X8458Y46909D01*
X8553Y46943D01*
X8649Y46974D01*
X8659Y46981D01*
X8669Y46985D01*
X8704Y47015D01*
X8799Y47085D01*
X9350Y47636D01*
X9374Y47671D01*
X9406Y47700D01*
X9438Y47762D01*
X9478Y47820D01*
X9489Y47861D01*
X9508Y47899D01*
X9522Y47989D01*
X9534Y48038D01*
X9532Y48058D01*
X9536Y48084D01*
X9536Y59255D01*
X9528Y59296D01*
X9530Y59339D01*
X9509Y59406D01*
X9496Y59475D01*
X9475Y59512D01*
X9462Y59552D01*
X9408Y59625D01*
X9382Y59669D01*
X9366Y59682D01*
X9350Y59703D01*
X6305Y62748D01*
X6292Y62757D01*
X6283Y62769D01*
X6200Y62821D01*
X6121Y62876D01*
X6106Y62880D01*
X6092Y62888D01*
X5997Y62908D01*
X5903Y62932D01*
X5888Y62931D01*
X5873Y62934D01*
X5776Y62919D01*
X5680Y62909D01*
X5666Y62902D01*
X5651Y62900D01*
X5566Y62853D01*
X5479Y62810D01*
X5468Y62799D01*
X5455Y62791D01*
X5329Y62652D01*
X4886Y61990D01*
X4010Y61114D01*
X2980Y60425D01*
X1835Y59951D01*
X1249Y59835D01*
X1249Y65385D01*
X1238Y65450D01*
X1236Y65515D01*
X1218Y65559D01*
X1210Y65606D01*
X1176Y65662D01*
X1151Y65723D01*
X1120Y65758D01*
X1095Y65799D01*
X1044Y65840D01*
X1000Y65889D01*
X958Y65910D01*
X921Y65940D01*
X859Y65961D01*
X800Y65991D01*
X755Y65998D01*
X789Y66012D01*
X836Y66021D01*
X893Y66054D01*
X953Y66079D01*
X988Y66111D01*
X1029Y66135D01*
X1071Y66186D01*
X1119Y66230D01*
X1141Y66272D01*
X1170Y66309D01*
X1191Y66371D01*
X1222Y66430D01*
X1230Y66484D01*
X1242Y66521D01*
X1241Y66561D01*
X1249Y66615D01*
X1249Y72165D01*
X1835Y72049D01*
X2980Y71575D01*
X3088Y71502D01*
X3113Y71491D01*
X3134Y71474D01*
X3215Y71447D01*
X3294Y71413D01*
X3321Y71411D01*
X3347Y71402D01*
X3432Y71405D01*
X3518Y71400D01*
X3544Y71408D01*
X3571Y71409D01*
X3650Y71441D01*
X3732Y71466D01*
X3754Y71483D01*
X3779Y71493D01*
X3842Y71551D01*
X3910Y71603D01*
X3925Y71626D01*
X3945Y71645D01*
X3984Y71721D01*
X4029Y71793D01*
X4035Y71820D01*
X4047Y71844D01*
X4066Y71974D01*
X4075Y72013D01*
X4073Y72020D01*
X4075Y72030D01*
X4075Y72999D01*
X6010Y74934D01*
X8746Y74934D01*
X10680Y72999D01*
X10680Y71435D01*
X10696Y71347D01*
X10705Y71259D01*
X10716Y71237D01*
X10720Y71214D01*
X10765Y71137D01*
X10805Y71057D01*
X10822Y71041D01*
X10834Y71021D01*
X10903Y70965D01*
X10968Y70904D01*
X10990Y70894D01*
X11008Y70879D01*
X11093Y70851D01*
X11175Y70816D01*
X11198Y70815D01*
X11221Y70807D01*
X11310Y70810D01*
X11399Y70806D01*
X11421Y70813D01*
X11445Y70814D01*
X11528Y70847D01*
X11612Y70875D01*
X11634Y70890D01*
X11653Y70898D01*
X11690Y70932D01*
X11763Y70986D01*
X12734Y71957D01*
X15470Y71957D01*
X17405Y70022D01*
X17405Y67254D01*
X17416Y67190D01*
X17418Y67124D01*
X17436Y67080D01*
X17444Y67034D01*
X17478Y66977D01*
X17503Y66916D01*
X17534Y66881D01*
X17558Y66840D01*
X17610Y66799D01*
X17654Y66750D01*
X17696Y66729D01*
X17733Y66699D01*
X17795Y66678D01*
X17854Y66648D01*
X17908Y66640D01*
X17945Y66627D01*
X17985Y66628D01*
X18039Y66620D01*
X20632Y66620D01*
X21280Y65972D01*
X21353Y65921D01*
X21423Y65865D01*
X21445Y65857D01*
X21465Y65844D01*
X21551Y65822D01*
X21635Y65793D01*
X21659Y65794D01*
X21682Y65788D01*
X21770Y65797D01*
X21859Y65800D01*
X21881Y65809D01*
X21905Y65811D01*
X21985Y65851D01*
X22067Y65884D01*
X22085Y65900D01*
X22106Y65911D01*
X22167Y65975D01*
X22233Y66035D01*
X22244Y66056D01*
X22260Y66074D01*
X22295Y66156D01*
X22335Y66235D01*
X22339Y66261D01*
X22347Y66280D01*
X22350Y66331D01*
X22363Y66420D01*
X22363Y68649D01*
X24298Y70584D01*
X27034Y70584D01*
X28969Y68649D01*
X28969Y66445D01*
X28984Y66357D01*
X28993Y66269D01*
X29004Y66248D01*
X29008Y66224D01*
X29054Y66148D01*
X29093Y66068D01*
X29110Y66052D01*
X29122Y66031D01*
X29191Y65975D01*
X29256Y65914D01*
X29278Y65905D01*
X29297Y65890D01*
X29381Y65861D01*
X29463Y65826D01*
X29487Y65825D01*
X29509Y65818D01*
X29598Y65820D01*
X29687Y65816D01*
X29710Y65824D01*
X29733Y65824D01*
X29816Y65858D01*
X29901Y65885D01*
X29922Y65901D01*
X29941Y65909D01*
X29978Y65943D01*
X30012Y65968D01*
X32759Y65968D01*
X34693Y64033D01*
X34693Y61297D01*
X33956Y60559D01*
X33905Y60486D01*
X33849Y60417D01*
X33841Y60395D01*
X33828Y60375D01*
X33805Y60289D01*
X33777Y60205D01*
X33777Y60181D01*
X33772Y60158D01*
X33781Y60069D01*
X33783Y59980D01*
X33792Y59958D01*
X33795Y59935D01*
X33834Y59855D01*
X33868Y59773D01*
X33884Y59755D01*
X33894Y59734D01*
X33959Y59673D01*
X34019Y59607D01*
X34040Y59596D01*
X34057Y59580D01*
X34140Y59545D01*
X34219Y59504D01*
X34245Y59501D01*
X34264Y59492D01*
X34315Y59490D01*
X34404Y59477D01*
X36363Y59477D01*
X37819Y58021D01*
X37893Y57970D01*
X37962Y57914D01*
X37984Y57906D01*
X38004Y57893D01*
X38090Y57870D01*
X38174Y57842D01*
X38198Y57843D01*
X38221Y57837D01*
X38309Y57846D01*
X38398Y57849D01*
X38420Y57857D01*
X38444Y57860D01*
X38524Y57899D01*
X38606Y57933D01*
X38624Y57949D01*
X38645Y57959D01*
X38706Y58024D01*
X38772Y58084D01*
X38783Y58105D01*
X38799Y58123D01*
X38834Y58205D01*
X38874Y58284D01*
X38878Y58310D01*
X38887Y58329D01*
X38889Y58380D01*
X38902Y58469D01*
X38902Y59714D01*
X40837Y61649D01*
X43573Y61649D01*
X45508Y59714D01*
X45508Y56978D01*
X45321Y56791D01*
X45270Y56718D01*
X45214Y56649D01*
X45206Y56626D01*
X45193Y56607D01*
X45170Y56520D01*
X45142Y56436D01*
X45143Y56412D01*
X45137Y56389D01*
X45146Y56301D01*
X45149Y56212D01*
X45157Y56190D01*
X45160Y56166D01*
X45200Y56086D01*
X45233Y56004D01*
X45249Y55986D01*
X45259Y55965D01*
X45324Y55904D01*
X45384Y55838D01*
X45405Y55828D01*
X45423Y55811D01*
X45505Y55777D01*
X45584Y55736D01*
X45610Y55732D01*
X45629Y55724D01*
X45680Y55722D01*
X45769Y55708D01*
X47908Y55708D01*
X49843Y53774D01*
X49843Y51037D01*
X48393Y49588D01*
X48342Y49515D01*
X48286Y49446D01*
X48279Y49423D01*
X48265Y49404D01*
X48243Y49317D01*
X48214Y49233D01*
X48215Y49209D01*
X48209Y49186D01*
X48218Y49098D01*
X48221Y49009D01*
X48230Y48987D01*
X48232Y48963D01*
X48272Y48883D01*
X48305Y48801D01*
X48321Y48783D01*
X48332Y48762D01*
X48397Y48701D01*
X48457Y48635D01*
X48478Y48624D01*
X48495Y48608D01*
X48577Y48574D01*
X48656Y48533D01*
X48682Y48529D01*
X48702Y48521D01*
X48752Y48519D01*
X48842Y48505D01*
X49710Y48505D01*
X50113Y48102D01*
X50176Y48058D01*
X50234Y48007D01*
X50268Y47995D01*
X50297Y47974D01*
X50372Y47955D01*
X50444Y47928D01*
X50480Y47927D01*
X50514Y47918D01*
X50591Y47926D01*
X50669Y47926D01*
X50702Y47938D01*
X50737Y47942D01*
X50807Y47976D01*
X50879Y48002D01*
X50907Y48025D01*
X50938Y48041D01*
X50991Y48097D01*
X51051Y48148D01*
X51071Y48182D01*
X51092Y48204D01*
X51110Y48247D01*
X51147Y48308D01*
X51425Y48980D01*
X52114Y50010D01*
X52990Y50886D01*
X54020Y51575D01*
X55165Y52049D01*
X56047Y52224D01*
X56086Y52240D01*
X56127Y52246D01*
X56189Y52280D01*
X56255Y52306D01*
X56287Y52334D01*
X56324Y52355D01*
X56370Y52409D01*
X56423Y52456D01*
X56442Y52493D01*
X56470Y52525D01*
X56494Y52592D01*
X56527Y52654D01*
X56533Y52696D01*
X56547Y52735D01*
X56547Y52806D01*
X56556Y52877D01*
X56547Y52918D01*
X56547Y52960D01*
X56522Y53026D01*
X56506Y53096D01*
X56483Y53131D01*
X56468Y53170D01*
X56411Y53241D01*
X56383Y53283D01*
X56366Y53295D01*
X56350Y53315D01*
X46178Y62582D01*
X46136Y62608D01*
X46072Y62660D01*
X32260Y70769D01*
X32213Y70786D01*
X32140Y70823D01*
X16951Y75905D01*
X16911Y75911D01*
X16855Y75929D01*
X9751Y77125D01*
X9708Y77125D01*
X9646Y77134D01*
X-9646Y77134D01*
X-9688Y77127D01*
X-9751Y77125D01*
X-16855Y75929D01*
X-16894Y75915D01*
X-16951Y75905D01*
X-32140Y70823D01*
X-32183Y70799D01*
X-32260Y70769D01*
X-46072Y62660D01*
X-46109Y62628D01*
X-46178Y62582D01*
X-58017Y51796D01*
X-58048Y51757D01*
X-58105Y51698D01*
X-59492Y49772D01*
X-59508Y49737D01*
X-59533Y49707D01*
X-59557Y49637D01*
X-59589Y49569D01*
X-59592Y49531D01*
X-59605Y49495D01*
X-59602Y49420D01*
X-59609Y49346D01*
X-59599Y49309D01*
X-59598Y49270D01*
X-59570Y49201D01*
X-59550Y49129D01*
X-59528Y49098D01*
X-59514Y49063D01*
X-59463Y49007D01*
X-59420Y48947D01*
X-59388Y48925D01*
X-59362Y48897D01*
X-59296Y48863D01*
X-59234Y48821D01*
X-59197Y48812D01*
X-59163Y48794D01*
X-59065Y48780D01*
X-59016Y48768D01*
X-58999Y48770D01*
X-58977Y48767D01*
X-57526Y48767D01*
X-54733Y45974D01*
X-54733Y42401D01*
X-54722Y42336D01*
X-54720Y42270D01*
X-54702Y42227D01*
X-54694Y42180D01*
X-54660Y42123D01*
X-54635Y42063D01*
X-54604Y42028D01*
X-54579Y41987D01*
X-54528Y41945D01*
X-54484Y41897D01*
X-54442Y41875D01*
X-54405Y41846D01*
X-54343Y41825D01*
X-54284Y41794D01*
X-54230Y41786D01*
X-54193Y41774D01*
X-54153Y41775D01*
X-54099Y41767D01*
X-52226Y41767D01*
X-50369Y39910D01*
X-50315Y39872D01*
X-50267Y39827D01*
X-50223Y39809D01*
X-50184Y39782D01*
X-50121Y39765D01*
X-50060Y39740D01*
X-50013Y39738D01*
X-49967Y39726D01*
X-49902Y39733D01*
X-49836Y39730D01*
X-49791Y39744D01*
X-49744Y39749D01*
X-49685Y39778D01*
X-49622Y39798D01*
X-49578Y39831D01*
X-49543Y39848D01*
X-49516Y39877D01*
X-49472Y39910D01*
X-48564Y40817D01*
X-48514Y40890D01*
X-48458Y40959D01*
X-48450Y40982D01*
X-48436Y41001D01*
X-48414Y41087D01*
X-48386Y41172D01*
X-48386Y41195D01*
X-48380Y41218D01*
X-48390Y41307D01*
X-48392Y41396D01*
X-48401Y41418D01*
X-48404Y41442D01*
X-48443Y41522D01*
X-48477Y41604D01*
X-48493Y41621D01*
X-48503Y41643D01*
X-48568Y41704D01*
X-48628Y41770D01*
X-48649Y41780D01*
X-48666Y41797D01*
X-48748Y41831D01*
X-48828Y41872D01*
X-48854Y41876D01*
X-48873Y41884D01*
X-48923Y41886D01*
X-49013Y41900D01*
X-49710Y41900D01*
X-51645Y43834D01*
X-51645Y46571D01*
X-49710Y48505D01*
X-48842Y48505D01*
X-48754Y48521D01*
X-48665Y48530D01*
X-48644Y48541D01*
X-48621Y48545D01*
X-48544Y48590D01*
X-48464Y48630D01*
X-48448Y48647D01*
X-48428Y48659D01*
X-48371Y48728D01*
X-48310Y48793D01*
X-48301Y48815D01*
X-48286Y48833D01*
X-48258Y48917D01*
X-48223Y48999D01*
X-48222Y49023D01*
X-48214Y49046D01*
X-48217Y49135D01*
X-48213Y49224D01*
X-48220Y49246D01*
X-48221Y49270D01*
X-48254Y49352D01*
X-48282Y49437D01*
X-48297Y49458D01*
X-48305Y49478D01*
X-48339Y49515D01*
X-48393Y49588D01*
X-49843Y51037D01*
X-49843Y53774D01*
X-47908Y55708D01*
X-45769Y55708D01*
X-45682Y55724D01*
X-45593Y55733D01*
X-45572Y55744D01*
X-45548Y55748D01*
X-45472Y55793D01*
X-45392Y55833D01*
X-45376Y55850D01*
X-45355Y55862D01*
X-45299Y55931D01*
X-45238Y55996D01*
X-45229Y56018D01*
X-45214Y56036D01*
X-45185Y56120D01*
X-45151Y56203D01*
X-45150Y56226D01*
X-45142Y56249D01*
X-45145Y56338D01*
X-45141Y56427D01*
X-45148Y56449D01*
X-45149Y56473D01*
X-45182Y56555D01*
X-45209Y56640D01*
X-45225Y56662D01*
X-45233Y56681D01*
X-45267Y56718D01*
X-45321Y56791D01*
X-45508Y56978D01*
X-45508Y59714D01*
X-43573Y61649D01*
X-40837Y61649D01*
X-38902Y59714D01*
X-38902Y58469D01*
X-38886Y58381D01*
X-38877Y58293D01*
X-38867Y58272D01*
X-38862Y58248D01*
X-38817Y58172D01*
X-38778Y58092D01*
X-38760Y58076D01*
X-38748Y58055D01*
X-38679Y57999D01*
X-38614Y57938D01*
X-38593Y57929D01*
X-38574Y57914D01*
X-38490Y57885D01*
X-38408Y57851D01*
X-38384Y57850D01*
X-38362Y57842D01*
X-38273Y57845D01*
X-38184Y57841D01*
X-38161Y57848D01*
X-38137Y57849D01*
X-38055Y57882D01*
X-37970Y57909D01*
X-37949Y57925D01*
X-37929Y57933D01*
X-37892Y57967D01*
X-37819Y58021D01*
X-36363Y59477D01*
X-34404Y59477D01*
X-34316Y59492D01*
X-34228Y59502D01*
X-34207Y59512D01*
X-34183Y59516D01*
X-34106Y59562D01*
X-34027Y59601D01*
X-34011Y59618D01*
X-33990Y59631D01*
X-33934Y59700D01*
X-33873Y59764D01*
X-33864Y59786D01*
X-33849Y59805D01*
X-33820Y59889D01*
X-33785Y59971D01*
X-33784Y59995D01*
X-33777Y60017D01*
X-33779Y60106D01*
X-33775Y60195D01*
X-33783Y60218D01*
X-33783Y60242D01*
X-33817Y60324D01*
X-33844Y60409D01*
X-33860Y60430D01*
X-33868Y60449D01*
X-33902Y60487D01*
X-33956Y60559D01*
X-34693Y61297D01*
X-34693Y64033D01*
X-32759Y65968D01*
X-30010Y65968D01*
X-29978Y65946D01*
X-29909Y65890D01*
X-29887Y65882D01*
X-29867Y65869D01*
X-29781Y65846D01*
X-29696Y65818D01*
X-29673Y65819D01*
X-29650Y65813D01*
X-29561Y65822D01*
X-29472Y65824D01*
X-29450Y65833D01*
X-29427Y65836D01*
X-29347Y65875D01*
X-29264Y65909D01*
X-29247Y65925D01*
X-29226Y65935D01*
X-29164Y66000D01*
X-29099Y66060D01*
X-29088Y66081D01*
X-29072Y66098D01*
X-29037Y66180D01*
X-28996Y66260D01*
X-28992Y66286D01*
X-28984Y66305D01*
X-28982Y66355D01*
X-28969Y66445D01*
X-28969Y68649D01*
X-27034Y70584D01*
X-24298Y70584D01*
X-22363Y68649D01*
X-22363Y66420D01*
X-22347Y66333D01*
X-22338Y66244D01*
X-22328Y66223D01*
X-22323Y66200D01*
X-22278Y66123D01*
X-22239Y66043D01*
X-22221Y66027D01*
X-22209Y66006D01*
X-22140Y65950D01*
X-22075Y65889D01*
X-22053Y65880D01*
X-22035Y65865D01*
X-21951Y65836D01*
X-21869Y65802D01*
X-21845Y65801D01*
X-21823Y65793D01*
X-21734Y65796D01*
X-21645Y65792D01*
X-21622Y65799D01*
X-21598Y65800D01*
X-21516Y65833D01*
X-21431Y65860D01*
X-21410Y65876D01*
X-21390Y65884D01*
X-21353Y65918D01*
X-21280Y65972D01*
X-20632Y66620D01*
X-18039Y66620D01*
X-17974Y66632D01*
X-17908Y66634D01*
X-17865Y66651D01*
X-17818Y66660D01*
X-17761Y66693D01*
X-17700Y66718D01*
X-17666Y66750D01*
X-17625Y66774D01*
X-17583Y66825D01*
X-17535Y66869D01*
X-17513Y66911D01*
X-17484Y66948D01*
X-17462Y67010D01*
X-17432Y67069D01*
X-17424Y67123D01*
X-17412Y67161D01*
X-17413Y67200D01*
X-17405Y67254D01*
X-17405Y70022D01*
X-15470Y71957D01*
X-12734Y71957D01*
X-11763Y70986D01*
X-11690Y70935D01*
X-11621Y70879D01*
X-11598Y70872D01*
X-11579Y70858D01*
X-11493Y70836D01*
X-11408Y70807D01*
X-11385Y70808D01*
X-11362Y70802D01*
X-11273Y70811D01*
X-11184Y70814D01*
X-11162Y70823D01*
X-11138Y70825D01*
X-11059Y70865D01*
X-10976Y70898D01*
X-10959Y70914D01*
X-10937Y70925D01*
X-10876Y70990D01*
X-10811Y71050D01*
X-10800Y71071D01*
X-10783Y71088D01*
X-10749Y71170D01*
X-10708Y71249D01*
X-10704Y71275D01*
X-10696Y71295D01*
X-10694Y71345D01*
X-10680Y71435D01*
X-10680Y72999D01*
X-8746Y74934D01*
X-6010Y74934D01*
X-4075Y72999D01*
X-4075Y72030D01*
X-4070Y72003D01*
X-4073Y71976D01*
X-4050Y71893D01*
X-4035Y71809D01*
X-4021Y71785D01*
X-4014Y71759D01*
X-3965Y71689D01*
X-3921Y71616D01*
X-3900Y71598D01*
X-3884Y71576D01*
X-3813Y71528D01*
X-3747Y71474D01*
X-3721Y71465D01*
X-3698Y71450D01*
X-3615Y71430D01*
X-3534Y71402D01*
X-3507Y71403D01*
X-3481Y71397D01*
X-3395Y71406D01*
X-3310Y71409D01*
X-3285Y71419D01*
X-3258Y71422D01*
X-3139Y71478D01*
X-3102Y71493D01*
X-3097Y71498D01*
X-3088Y71502D01*
X-2980Y71575D01*
X-1835Y72049D01*
X-1249Y72165D01*
X-1249Y67249D01*
X-6165Y67249D01*
X-6102Y67571D01*
X-6101Y67586D01*
X-6096Y67601D01*
X-6099Y67698D01*
X-6097Y67795D01*
X-6102Y67810D01*
X-6103Y67825D01*
X-6139Y67915D01*
X-6172Y68007D01*
X-6181Y68019D01*
X-6187Y68033D01*
X-6253Y68105D01*
X-6315Y68179D01*
X-6328Y68187D01*
X-6339Y68198D01*
X-6425Y68243D01*
X-6509Y68291D01*
X-6524Y68294D01*
X-6538Y68301D01*
X-6724Y68329D01*
X-8746Y68329D01*
X-9716Y69300D01*
X-9790Y69350D01*
X-9859Y69406D01*
X-9881Y69414D01*
X-9901Y69428D01*
X-9987Y69450D01*
X-10071Y69478D01*
X-10095Y69478D01*
X-10118Y69484D01*
X-10207Y69474D01*
X-10296Y69472D01*
X-10318Y69463D01*
X-10341Y69460D01*
X-10421Y69421D01*
X-10503Y69387D01*
X-10521Y69371D01*
X-10542Y69361D01*
X-10603Y69296D01*
X-10669Y69236D01*
X-10680Y69215D01*
X-10696Y69198D01*
X-10731Y69116D01*
X-10772Y69036D01*
X-10775Y69010D01*
X-10784Y68991D01*
X-10786Y68941D01*
X-10799Y68851D01*
X-10799Y67286D01*
X-12264Y65821D01*
X-12289Y65786D01*
X-12320Y65758D01*
X-12352Y65695D01*
X-12393Y65637D01*
X-12403Y65596D01*
X-12423Y65558D01*
X-12436Y65468D01*
X-12448Y65420D01*
X-12446Y65399D01*
X-12450Y65373D01*
X-12450Y64521D01*
X-12443Y64479D01*
X-12445Y64437D01*
X-12423Y64370D01*
X-12411Y64300D01*
X-12389Y64264D01*
X-12376Y64223D01*
X-12322Y64151D01*
X-12296Y64107D01*
X-12280Y64094D01*
X-12264Y64073D01*
X-11180Y62989D01*
X-11180Y41729D01*
X-11173Y41687D01*
X-11175Y41645D01*
X-11153Y41578D01*
X-11141Y41508D01*
X-11119Y41471D01*
X-11106Y41431D01*
X-11052Y41358D01*
X-11026Y41315D01*
X-11010Y41302D01*
X-10994Y41280D01*
X-6348Y36634D01*
X-6348Y33613D01*
X-6333Y33525D01*
X-6323Y33436D01*
X-6313Y33415D01*
X-6309Y33392D01*
X-6263Y33315D01*
X-6224Y33235D01*
X-6207Y33219D01*
X-6194Y33199D01*
X-6125Y33143D01*
X-6061Y33081D01*
X-6039Y33072D01*
X-6020Y33057D01*
X-5936Y33029D01*
X-5854Y32994D01*
X-5830Y32993D01*
X-5808Y32985D01*
X-5719Y32988D01*
X-5630Y32984D01*
X-5607Y32991D01*
X-5583Y32992D01*
X-5501Y33025D01*
X-5416Y33053D01*
X-5395Y33068D01*
X-5376Y33076D01*
X-5338Y33110D01*
X-5266Y33164D01*
X-5151Y33279D01*
X-2849Y33279D01*
X-2734Y33164D01*
X-2661Y33113D01*
X-2592Y33057D01*
X-2570Y33050D01*
X-2550Y33036D01*
X-2464Y33014D01*
X-2380Y32985D01*
X-2356Y32986D01*
X-2333Y32980D01*
X-2244Y32989D01*
G37*
G36*
X18Y-70596D02*
X18Y-70596D01*
X84Y-70599D01*
X129Y-70584D01*
X176Y-70579D01*
X235Y-70550D01*
X298Y-70530D01*
X342Y-70498D01*
X377Y-70480D01*
X404Y-70451D01*
X449Y-70419D01*
X2251Y-68617D01*
X4987Y-68617D01*
X6104Y-69734D01*
X6177Y-69785D01*
X6246Y-69841D01*
X6269Y-69849D01*
X6288Y-69862D01*
X6375Y-69884D01*
X6459Y-69913D01*
X6483Y-69912D01*
X6506Y-69918D01*
X6594Y-69909D01*
X6683Y-69906D01*
X6705Y-69897D01*
X6729Y-69895D01*
X6809Y-69855D01*
X6891Y-69822D01*
X6909Y-69806D01*
X6930Y-69795D01*
X6991Y-69731D01*
X7057Y-69671D01*
X7068Y-69649D01*
X7084Y-69632D01*
X7118Y-69550D01*
X7159Y-69471D01*
X7163Y-69445D01*
X7171Y-69426D01*
X7173Y-69375D01*
X7187Y-69286D01*
X7187Y-67930D01*
X8570Y-66547D01*
X8607Y-66493D01*
X8652Y-66445D01*
X8671Y-66402D01*
X8698Y-66363D01*
X8714Y-66299D01*
X8740Y-66239D01*
X8742Y-66192D01*
X8754Y-66146D01*
X8747Y-66080D01*
X8750Y-66015D01*
X8735Y-65970D01*
X8731Y-65923D01*
X8701Y-65864D01*
X8681Y-65801D01*
X8649Y-65757D01*
X8631Y-65722D01*
X8602Y-65695D01*
X8570Y-65650D01*
X8156Y-65237D01*
X7444Y-64525D01*
X7444Y-62262D01*
X7435Y-62212D01*
X7436Y-62161D01*
X7415Y-62102D01*
X7404Y-62041D01*
X7378Y-61997D01*
X7362Y-61949D01*
X7322Y-61901D01*
X7290Y-61848D01*
X7251Y-61816D01*
X7218Y-61777D01*
X7164Y-61746D01*
X7116Y-61706D01*
X7068Y-61690D01*
X7024Y-61665D01*
X6962Y-61654D01*
X6903Y-61635D01*
X6853Y-61636D01*
X6803Y-61628D01*
X6741Y-61639D01*
X6679Y-61641D01*
X6632Y-61660D01*
X6582Y-61670D01*
X6529Y-61702D01*
X6471Y-61725D01*
X6434Y-61760D01*
X6390Y-61786D01*
X6352Y-61835D01*
X6306Y-61877D01*
X6282Y-61922D01*
X6251Y-61962D01*
X6225Y-62034D01*
X6203Y-62076D01*
X6198Y-62108D01*
X6188Y-62138D01*
X6049Y-62835D01*
X5575Y-63980D01*
X4886Y-65010D01*
X4010Y-65886D01*
X2980Y-66575D01*
X1835Y-67049D01*
X1249Y-67165D01*
X1249Y-61615D01*
X1238Y-61550D01*
X1236Y-61485D01*
X1218Y-61441D01*
X1210Y-61394D01*
X1176Y-61338D01*
X1151Y-61277D01*
X1120Y-61242D01*
X1095Y-61201D01*
X1044Y-61160D01*
X1000Y-61111D01*
X958Y-61090D01*
X921Y-61060D01*
X859Y-61039D01*
X800Y-61009D01*
X755Y-61002D01*
X789Y-60988D01*
X836Y-60979D01*
X893Y-60946D01*
X953Y-60921D01*
X988Y-60889D01*
X1029Y-60865D01*
X1071Y-60814D01*
X1119Y-60770D01*
X1141Y-60728D01*
X1170Y-60691D01*
X1191Y-60629D01*
X1222Y-60570D01*
X1230Y-60516D01*
X1242Y-60479D01*
X1241Y-60439D01*
X1249Y-60385D01*
X1249Y-54835D01*
X1835Y-54951D01*
X2980Y-55425D01*
X4010Y-56114D01*
X4886Y-56990D01*
X5575Y-58020D01*
X6049Y-59165D01*
X6188Y-59862D01*
X6206Y-59909D01*
X6215Y-59959D01*
X6247Y-60013D01*
X6270Y-60071D01*
X6303Y-60109D01*
X6329Y-60152D01*
X6378Y-60192D01*
X6419Y-60238D01*
X6464Y-60262D01*
X6503Y-60294D01*
X6562Y-60314D01*
X6618Y-60343D01*
X6668Y-60349D01*
X6716Y-60365D01*
X6778Y-60364D01*
X6840Y-60372D01*
X6890Y-60360D01*
X6940Y-60359D01*
X6998Y-60335D01*
X7059Y-60321D01*
X7101Y-60294D01*
X7148Y-60275D01*
X7194Y-60233D01*
X7246Y-60198D01*
X7276Y-60157D01*
X7314Y-60123D01*
X7342Y-60068D01*
X7379Y-60017D01*
X7393Y-59969D01*
X7416Y-59924D01*
X7427Y-59848D01*
X7441Y-59802D01*
X7439Y-59770D01*
X7444Y-59738D01*
X7444Y-45447D01*
X7436Y-45405D01*
X7438Y-45363D01*
X7417Y-45296D01*
X7404Y-45226D01*
X7383Y-45190D01*
X7370Y-45149D01*
X7316Y-45076D01*
X7290Y-45033D01*
X7274Y-45020D01*
X7258Y-44998D01*
X3502Y-41242D01*
X2734Y-40475D01*
X2661Y-40424D01*
X2592Y-40368D01*
X2570Y-40360D01*
X2550Y-40347D01*
X2464Y-40324D01*
X2380Y-40296D01*
X2356Y-40297D01*
X2333Y-40291D01*
X2244Y-40300D01*
X2155Y-40303D01*
X2133Y-40311D01*
X2110Y-40314D01*
X2030Y-40353D01*
X1948Y-40387D01*
X1930Y-40403D01*
X1909Y-40413D01*
X1848Y-40478D01*
X1782Y-40538D01*
X1771Y-40559D01*
X1755Y-40577D01*
X1720Y-40659D01*
X1679Y-40738D01*
X1676Y-40764D01*
X1667Y-40783D01*
X1665Y-40834D01*
X1652Y-40923D01*
X1652Y-44184D01*
X-5162Y-50998D01*
X-5187Y-51033D01*
X-5218Y-51062D01*
X-5250Y-51125D01*
X-5291Y-51183D01*
X-5301Y-51224D01*
X-5321Y-51262D01*
X-5334Y-51351D01*
X-5347Y-51400D01*
X-5344Y-51421D01*
X-5348Y-51447D01*
X-5348Y-55921D01*
X-5333Y-56008D01*
X-5323Y-56097D01*
X-5313Y-56118D01*
X-5309Y-56141D01*
X-5263Y-56218D01*
X-5224Y-56298D01*
X-5207Y-56314D01*
X-5194Y-56335D01*
X-5125Y-56391D01*
X-5061Y-56452D01*
X-5039Y-56461D01*
X-5020Y-56476D01*
X-4936Y-56505D01*
X-4854Y-56539D01*
X-4830Y-56540D01*
X-4808Y-56548D01*
X-4719Y-56545D01*
X-4630Y-56549D01*
X-4607Y-56542D01*
X-4583Y-56541D01*
X-4501Y-56508D01*
X-4416Y-56481D01*
X-4395Y-56465D01*
X-4376Y-56457D01*
X-4338Y-56423D01*
X-4266Y-56369D01*
X-4010Y-56114D01*
X-2980Y-55425D01*
X-1835Y-54951D01*
X-1249Y-54835D01*
X-1249Y-60385D01*
X-1238Y-60450D01*
X-1236Y-60515D01*
X-1218Y-60559D01*
X-1210Y-60606D01*
X-1176Y-60662D01*
X-1151Y-60723D01*
X-1120Y-60758D01*
X-1095Y-60799D01*
X-1044Y-60840D01*
X-1000Y-60889D01*
X-958Y-60910D01*
X-921Y-60940D01*
X-859Y-60961D01*
X-800Y-60991D01*
X-755Y-60998D01*
X-789Y-61012D01*
X-836Y-61021D01*
X-893Y-61054D01*
X-953Y-61079D01*
X-988Y-61111D01*
X-1029Y-61135D01*
X-1071Y-61186D01*
X-1119Y-61230D01*
X-1141Y-61272D01*
X-1170Y-61309D01*
X-1191Y-61371D01*
X-1222Y-61430D01*
X-1230Y-61484D01*
X-1242Y-61521D01*
X-1241Y-61561D01*
X-1249Y-61615D01*
X-1249Y-67169D01*
X-1336Y-67171D01*
X-1433Y-67169D01*
X-1448Y-67174D01*
X-1463Y-67175D01*
X-1553Y-67211D01*
X-1645Y-67244D01*
X-1657Y-67253D01*
X-1671Y-67259D01*
X-1743Y-67325D01*
X-1818Y-67387D01*
X-1825Y-67400D01*
X-1837Y-67411D01*
X-1881Y-67497D01*
X-1930Y-67581D01*
X-1932Y-67596D01*
X-1939Y-67610D01*
X-1967Y-67796D01*
X-1967Y-68638D01*
X-1959Y-68679D01*
X-1961Y-68722D01*
X-1940Y-68789D01*
X-1927Y-68858D01*
X-1906Y-68895D01*
X-1893Y-68935D01*
X-1839Y-69008D01*
X-1813Y-69052D01*
X-1797Y-69065D01*
X-1781Y-69086D01*
X-448Y-70419D01*
X-395Y-70456D01*
X-347Y-70501D01*
X-303Y-70520D01*
X-264Y-70547D01*
X-201Y-70563D01*
X-140Y-70589D01*
X-93Y-70591D01*
X-47Y-70603D01*
X18Y-70596D01*
G37*
G36*
X-73249Y-24605D02*
X-73249Y-24605D01*
X-73155Y-24602D01*
X-73138Y-24595D01*
X-73118Y-24593D01*
X-73034Y-24553D01*
X-72948Y-24518D01*
X-72933Y-24505D01*
X-72916Y-24497D01*
X-72851Y-24430D01*
X-72782Y-24367D01*
X-72773Y-24350D01*
X-72760Y-24336D01*
X-72722Y-24250D01*
X-72679Y-24167D01*
X-72676Y-24146D01*
X-72669Y-24130D01*
X-72666Y-24080D01*
X-72652Y-23982D01*
X-72652Y-4913D01*
X-72663Y-4848D01*
X-72665Y-4782D01*
X-72683Y-4739D01*
X-72691Y-4692D01*
X-72725Y-4635D01*
X-72750Y-4575D01*
X-72781Y-4540D01*
X-72806Y-4499D01*
X-72857Y-4457D01*
X-72901Y-4409D01*
X-72943Y-4387D01*
X-72980Y-4358D01*
X-73042Y-4337D01*
X-73101Y-4306D01*
X-73155Y-4298D01*
X-73192Y-4286D01*
X-73232Y-4287D01*
X-73286Y-4279D01*
X-75564Y-4279D01*
X-76278Y-3564D01*
X-76352Y-3513D01*
X-76421Y-3457D01*
X-76443Y-3450D01*
X-76463Y-3436D01*
X-76549Y-3414D01*
X-76633Y-3385D01*
X-76657Y-3386D01*
X-76680Y-3380D01*
X-76768Y-3389D01*
X-76857Y-3392D01*
X-76879Y-3401D01*
X-76903Y-3403D01*
X-76983Y-3443D01*
X-77065Y-3476D01*
X-77083Y-3492D01*
X-77104Y-3503D01*
X-77165Y-3568D01*
X-77231Y-3628D01*
X-77242Y-3649D01*
X-77258Y-3666D01*
X-77293Y-3748D01*
X-77333Y-3827D01*
X-77337Y-3854D01*
X-77346Y-3873D01*
X-77348Y-3923D01*
X-77361Y-4013D01*
X-77361Y-8008D01*
X-77352Y-8057D01*
X-77348Y-8139D01*
X-74040Y-23810D01*
X-74022Y-23856D01*
X-74000Y-23935D01*
X-73866Y-24238D01*
X-73814Y-24315D01*
X-73766Y-24396D01*
X-73751Y-24408D01*
X-73741Y-24424D01*
X-73665Y-24478D01*
X-73592Y-24537D01*
X-73574Y-24543D01*
X-73558Y-24555D01*
X-73468Y-24579D01*
X-73380Y-24609D01*
X-73360Y-24609D01*
X-73342Y-24614D01*
X-73249Y-24605D01*
G37*
%LPC*%
G36*
X2849Y4221D02*
X2849Y4221D01*
X1221Y5849D01*
X1221Y8151D01*
X2849Y9779D01*
X5151Y9779D01*
X6779Y8151D01*
X6779Y5849D01*
X5151Y4221D01*
X2849Y4221D01*
G37*
%LPD*%
%LPC*%
G36*
X18849Y4221D02*
X18849Y4221D01*
X17221Y5849D01*
X17221Y8151D01*
X18849Y9779D01*
X21151Y9779D01*
X22779Y8151D01*
X22779Y5849D01*
X21151Y4221D01*
X18849Y4221D01*
G37*
%LPD*%
%LPC*%
G36*
X-5151Y4221D02*
X-5151Y4221D01*
X-6779Y5849D01*
X-6779Y8151D01*
X-5151Y9779D01*
X-2849Y9779D01*
X-1221Y8151D01*
X-1221Y5849D01*
X-2849Y4221D01*
X-5151Y4221D01*
G37*
%LPD*%
%LPC*%
G36*
X-13151Y4221D02*
X-13151Y4221D01*
X-14779Y5849D01*
X-14779Y8151D01*
X-13151Y9779D01*
X-10849Y9779D01*
X-9221Y8151D01*
X-9221Y5849D01*
X-10849Y4221D01*
X-13151Y4221D01*
G37*
%LPD*%
%LPC*%
G36*
X-21151Y4221D02*
X-21151Y4221D01*
X-22779Y5849D01*
X-22779Y8151D01*
X-21151Y9779D01*
X-18849Y9779D01*
X-17221Y8151D01*
X-17221Y5849D01*
X-18849Y4221D01*
X-21151Y4221D01*
G37*
%LPD*%
%LPC*%
G36*
X-29151Y4221D02*
X-29151Y4221D01*
X-30779Y5849D01*
X-30779Y8151D01*
X-29151Y9779D01*
X-26849Y9779D01*
X-25221Y8151D01*
X-25221Y5849D01*
X-26849Y4221D01*
X-29151Y4221D01*
G37*
%LPD*%
%LPC*%
G36*
X-37151Y4221D02*
X-37151Y4221D01*
X-38779Y5849D01*
X-38779Y8151D01*
X-37151Y9779D01*
X-34849Y9779D01*
X-33221Y8151D01*
X-33221Y5849D01*
X-34849Y4221D01*
X-37151Y4221D01*
G37*
%LPD*%
%LPC*%
G36*
X-45151Y4221D02*
X-45151Y4221D01*
X-46779Y5849D01*
X-46779Y8151D01*
X-45151Y9779D01*
X-42849Y9779D01*
X-41221Y8151D01*
X-41221Y5849D01*
X-42849Y4221D01*
X-45151Y4221D01*
G37*
%LPD*%
%LPC*%
G36*
X34849Y4221D02*
X34849Y4221D01*
X33221Y5849D01*
X33221Y8151D01*
X34849Y9779D01*
X37151Y9779D01*
X38779Y8151D01*
X38779Y5849D01*
X37151Y4221D01*
X34849Y4221D01*
G37*
%LPD*%
%LPC*%
G36*
X10849Y4221D02*
X10849Y4221D01*
X9221Y5849D01*
X9221Y8151D01*
X10849Y9779D01*
X13151Y9779D01*
X14779Y8151D01*
X14779Y5849D01*
X13151Y4221D01*
X10849Y4221D01*
G37*
%LPD*%
%LPC*%
G36*
X42849Y4221D02*
X42849Y4221D01*
X41221Y5849D01*
X41221Y8151D01*
X42849Y9779D01*
X45151Y9779D01*
X46779Y8151D01*
X46779Y5849D01*
X45151Y4221D01*
X42849Y4221D01*
G37*
%LPD*%
%LPC*%
G36*
X26849Y4221D02*
X26849Y4221D01*
X25221Y5849D01*
X25221Y8151D01*
X26849Y9779D01*
X29151Y9779D01*
X30779Y8151D01*
X30779Y5849D01*
X29151Y4221D01*
X26849Y4221D01*
G37*
%LPD*%
G36*
X61018Y8201D02*
X61018Y8201D01*
X61084Y8198D01*
X61129Y8213D01*
X61176Y8217D01*
X61235Y8247D01*
X61298Y8267D01*
X61342Y8299D01*
X61377Y8317D01*
X61404Y8346D01*
X61448Y8378D01*
X62849Y9779D01*
X64054Y9779D01*
X64142Y9795D01*
X64230Y9804D01*
X64252Y9814D01*
X64275Y9818D01*
X64352Y9864D01*
X64431Y9903D01*
X64448Y9920D01*
X64468Y9933D01*
X64524Y10002D01*
X64585Y10066D01*
X64595Y10088D01*
X64610Y10107D01*
X64638Y10191D01*
X64673Y10273D01*
X64674Y10297D01*
X64681Y10319D01*
X64679Y10408D01*
X64683Y10497D01*
X64676Y10520D01*
X64675Y10544D01*
X64641Y10626D01*
X64614Y10711D01*
X64598Y10732D01*
X64591Y10751D01*
X64557Y10789D01*
X64503Y10861D01*
X62502Y12863D01*
X62467Y12887D01*
X62438Y12918D01*
X62375Y12950D01*
X62317Y12991D01*
X62276Y13001D01*
X62238Y13021D01*
X62149Y13034D01*
X62100Y13047D01*
X62079Y13044D01*
X62053Y13048D01*
X59413Y13048D01*
X59348Y13037D01*
X59282Y13035D01*
X59239Y13017D01*
X59192Y13009D01*
X59135Y12975D01*
X59075Y12950D01*
X59040Y12919D01*
X58999Y12894D01*
X58957Y12843D01*
X58909Y12799D01*
X58887Y12757D01*
X58858Y12720D01*
X58837Y12658D01*
X58806Y12599D01*
X58798Y12545D01*
X58786Y12508D01*
X58787Y12468D01*
X58779Y12414D01*
X58779Y11849D01*
X57791Y10861D01*
X57740Y10788D01*
X57684Y10719D01*
X57677Y10697D01*
X57663Y10677D01*
X57641Y10591D01*
X57612Y10507D01*
X57613Y10483D01*
X57607Y10460D01*
X57616Y10371D01*
X57619Y10282D01*
X57628Y10260D01*
X57630Y10237D01*
X57670Y10157D01*
X57703Y10075D01*
X57719Y10057D01*
X57730Y10036D01*
X57795Y9975D01*
X57855Y9909D01*
X57876Y9898D01*
X57893Y9882D01*
X57975Y9847D01*
X58054Y9806D01*
X58080Y9803D01*
X58100Y9794D01*
X58150Y9792D01*
X58240Y9779D01*
X59151Y9779D01*
X60551Y8378D01*
X60606Y8341D01*
X60653Y8295D01*
X60697Y8277D01*
X60736Y8250D01*
X60799Y8234D01*
X60860Y8208D01*
X60907Y8206D01*
X60953Y8194D01*
X61018Y8201D01*
G37*
%LPC*%
G36*
X-1835Y59951D02*
X-1835Y59951D01*
X-2980Y60425D01*
X-4010Y61114D01*
X-4886Y61990D01*
X-5575Y63020D01*
X-6049Y64165D01*
X-6165Y64751D01*
X-1249Y64751D01*
X-1249Y59835D01*
X-1835Y59951D01*
G37*
%LPD*%
D10*
X-59500Y44000D03*
X-65100Y34900D03*
X-54200Y37000D03*
X55000Y37000D03*
X0Y66000D03*
X0Y-61000D03*
X64000Y37000D03*
X57000Y46000D03*
D11*
X-19264Y63317D03*
X-14102Y68654D03*
X-21480Y56257D03*
X-7378Y71631D03*
X-34995Y56174D03*
X-31391Y62665D03*
X-35308Y48781D03*
X-25666Y67281D03*
X-48342Y45202D03*
X-46540Y52405D03*
X-46731Y37980D03*
X-42205Y58346D03*
X-63594Y-18329D03*
X-65259Y-25565D03*
X-58880Y-12625D03*
X-64093Y-32826D03*
X-56684Y-34164D03*
X-56419Y-41584D03*
X-53606Y-27434D03*
X-53413Y-48296D03*
X-45910Y-47671D03*
X-43733Y-54769D03*
X-44679Y-40374D03*
X-39093Y-60475D03*
X-32008Y-57929D03*
X-28068Y-64222D03*
X-32707Y-50562D03*
X-22109Y-68532D03*
X-15924Y-64239D03*
X-10490Y-69298D03*
X-18506Y-57304D03*
X-3619Y-71919D03*
X19264Y63317D03*
X14102Y68654D03*
X21480Y56257D03*
X7378Y71631D03*
X34995Y56174D03*
X31391Y62665D03*
X35308Y48781D03*
X25666Y67281D03*
X48342Y45202D03*
X46540Y52405D03*
X46731Y37980D03*
X42205Y58346D03*
X63594Y-18329D03*
X65259Y-25565D03*
X58880Y-12625D03*
X64093Y-32826D03*
X56684Y-34164D03*
X56419Y-41584D03*
X53606Y-27434D03*
X53413Y-48296D03*
X45910Y-47671D03*
X43733Y-54769D03*
X44679Y-40374D03*
X39093Y-60475D03*
X32008Y-57929D03*
X28068Y-64222D03*
X32707Y-50562D03*
X22109Y-68532D03*
X15924Y-64239D03*
X10490Y-69298D03*
X18506Y-57304D03*
X3619Y-71919D03*
D12*
X-63000Y8000D03*
X-58000Y7000D03*
D13*
X-54000Y3000D01*
X-54000Y-17000D01*
X-59000Y-22000D01*
X-59000Y-31847D02*
X-56684Y-34164D01*
X-59000Y-31847D02*
X-59000Y-22000D01*
D12*
X-52000Y7000D03*
X-48000Y-10500D03*
D13*
X-48000Y-35000D01*
X-51000Y-38000D01*
X-51000Y-45883D01*
X-53413Y-48296D01*
D12*
X-44000Y7000D03*
X-40000Y-10500D03*
D13*
X-40000Y-43000D01*
X-44671Y-47671D01*
X-45910Y-47671D01*
D12*
X-36000Y7000D03*
X-32000Y-10500D03*
D13*
X-32000Y-43000D01*
X-39000Y-50000D01*
X-39000Y-60475D01*
X-39093Y-60475D01*
D12*
X-28000Y7000D03*
X-24000Y-10500D03*
D13*
X-24000Y-14500D01*
X-28039Y-53961D02*
X-32008Y-57929D01*
X-28039Y-53961D02*
X-28039Y-18539D01*
X-24000Y-14500D01*
D12*
X-20000Y7000D03*
X-16000Y-10500D03*
D13*
X-23659Y-60633D02*
X-22109Y-62182D01*
X-23659Y-60633D02*
X-23659Y-20413D01*
X-16000Y-12754D02*
X-16000Y-10500D01*
X-16000Y-12754D02*
X-23659Y-20413D01*
X-22109Y-62182D02*
X-22109Y-62182D01*
X-22109Y-68532D01*
D12*
X-12000Y7000D03*
X-8000Y-10500D03*
D13*
X-8000Y-12000D01*
X-4000Y-16000D01*
X-4000Y-38000D01*
X-13335Y-47335D02*
X-13335Y-61649D01*
X-13335Y-47335D02*
X-4000Y-38000D01*
X-13335Y-61649D02*
X-15924Y-64239D01*
D12*
X-4000Y7000D03*
X0Y-10500D03*
D13*
X0Y-43500D01*
X-7000Y-50500D01*
X-7000Y-64087D02*
X-3619Y-67468D01*
X-7000Y-64087D02*
X-7000Y-50500D01*
X-3619Y-67468D02*
X-3619Y-71919D01*
X-3619Y-71919D01*
D12*
X4000Y7000D03*
X8000Y-10500D03*
D13*
X8000Y-12000D01*
X4000Y-16000D01*
X9096Y-63840D02*
X10490Y-65234D01*
X9096Y-63840D02*
X9096Y-44500D01*
X4000Y-39404D01*
X4000Y-16000D01*
X10490Y-65234D02*
X10490Y-69298D01*
X10490Y-69298D01*
D12*
X12000Y7000D03*
X16000Y-10500D03*
D13*
X23659Y-39292D02*
X21475Y-41475D01*
X23659Y-39292D02*
X23659Y-19000D01*
X16000Y-11341D01*
X16000Y-10500D01*
X21475Y-41475D02*
X18506Y-44444D01*
X18506Y-57304D01*
D12*
X20000Y7000D03*
X24000Y-10500D03*
D13*
X24000Y-11500D01*
X25923Y-62077D02*
X28068Y-64222D01*
X28500Y-43500D02*
X28500Y-16000D01*
X24000Y-11500D01*
X28500Y-43500D02*
X25923Y-46077D01*
X25923Y-62077D01*
D12*
X28000Y7000D03*
X32000Y-10500D03*
D13*
X32707Y-11207D02*
X32707Y-50562D01*
X32707Y-11207D02*
X32000Y-10500D01*
D12*
X36000Y7000D03*
X40000Y-10500D03*
D13*
X40000Y-51036D01*
X43733Y-54769D01*
D12*
X44000Y7000D03*
X48000Y-10500D03*
D13*
X44679Y-13321D01*
X44679Y-40374D01*
D12*
X-63000Y-40500D03*
X-51000Y-55500D03*
X-35000Y-66500D03*
X-16200Y-72600D03*
X16400Y-72700D03*
X35000Y-66500D03*
X50200Y-54400D03*
X62300Y-39400D03*
X-53500Y52300D03*
X-38000Y64300D03*
X-100Y74900D03*
X20000Y72500D03*
X38000Y64500D03*
X61100Y11200D03*
X-19800Y72300D03*
X-75000Y-9000D03*
X75000Y-8000D03*
X75000Y8000D03*
X53000Y53500D03*
X12000Y-16500D03*
X-74413Y-1500D03*
D14*
X-74413Y14587D01*
X-61000Y28000D01*
X-54489Y37000D02*
X-54200Y37000D01*
X-61000Y30489D02*
X-61000Y28000D01*
X-61000Y30489D02*
X-54489Y37000D01*
D12*
X57000Y30500D03*
X50000Y30500D03*
X44000Y30500D03*
X40000Y13000D03*
D13*
X40000Y42767D01*
X42435Y45202D01*
X48342Y45202D01*
D12*
X36000Y30500D03*
X32000Y13000D03*
D13*
X32000Y38000D01*
X42205Y48205D02*
X42205Y58346D01*
X42205Y48205D02*
X32000Y38000D01*
D12*
X28000Y30500D03*
X24000Y13000D03*
D13*
X24000Y34760D02*
X29340Y40100D01*
X29340Y50519D02*
X34995Y56174D01*
X24000Y34760D02*
X24000Y13000D01*
X29340Y40100D02*
X29340Y50519D01*
D12*
X20000Y30500D03*
X16000Y13000D03*
D13*
X16000Y32840D01*
X25666Y42506D02*
X25666Y67281D01*
X25666Y42506D02*
X16000Y32840D01*
D12*
X12000Y30500D03*
X8000Y13000D03*
D13*
X16640Y60693D02*
X19264Y63317D01*
X16640Y60693D02*
X16640Y46774D01*
X8000Y38134D01*
X8000Y13000D01*
D12*
X4000Y30500D03*
X0Y13000D03*
D13*
X0Y35950D01*
X11188Y47138D02*
X11188Y60201D01*
X7378Y64011D02*
X7378Y71631D01*
X7378Y64011D02*
X11188Y60201D01*
X11188Y47138D02*
X0Y35950D01*
D12*
X-4000Y30500D03*
X-8000Y13000D03*
D13*
X-8000Y35950D01*
X-12832Y40782D01*
X-12832Y62304D01*
X-14102Y63574D01*
X-14102Y68654D01*
D12*
X-12000Y30500D03*
X-16000Y13000D03*
D13*
X-17670Y34667D02*
X-17670Y52447D01*
X-21480Y56257D01*
X-17670Y34667D02*
X-16000Y32997D01*
X-16000Y13000D01*
D12*
X-20000Y30500D03*
X-24000Y13000D03*
D13*
X-24000Y51000D01*
X-28492Y55492D01*
X-28492Y59259D01*
X-31391Y62157D01*
X-31391Y62665D01*
D12*
X-28000Y30500D03*
X-32000Y13000D03*
D13*
X-32000Y45472D01*
X-35308Y48781D01*
D12*
X-36000Y30500D03*
X-40000Y13000D03*
D13*
X-40000Y45866D01*
X-46540Y52405D01*
D12*
X-44000Y30500D03*
X-48000Y13000D03*
D13*
X-47555Y37055D02*
X-46731Y37980D01*
X-47555Y13345D02*
X-48000Y13000D01*
X-47555Y13345D02*
X-47555Y37055D01*
D12*
X-51000Y30500D03*
X-56000Y30500D03*
X52000Y7000D03*
X58000Y7000D03*
D13*
X51500Y0D01*
X51500Y-22500D01*
X49000Y-25000D01*
X49000Y-34166D01*
X56419Y-41584D01*
D12*
X64000Y7000D03*
X64000Y-10500D03*
D13*
X59500Y-6000D01*
X57500Y-6000D01*
X54500Y-9000D01*
X54500Y-26540D01*
X53606Y-27434D01*
D12*
X48000Y13000D03*
D13*
X53000Y18000D01*
X64000Y18000D01*
X71000Y11000D01*
X71000Y-19824D01*
X65259Y-25565D01*
D12*
X56000Y13000D03*
D13*
X68000Y-13000D02*
X67000Y-14000D01*
X60255Y-14000D01*
X58880Y-12625D01*
X57700Y14700D02*
X63000Y14700D01*
X68000Y9700D01*
X68000Y-13000D01*
X56000Y13000D02*
X57700Y14700D01*
D12*
X-56000Y13000D03*
D13*
X-71000Y-25919D02*
X-64093Y-32826D01*
X-65000Y18000D02*
X-60000Y18000D01*
X-56000Y14000D01*
X-56000Y13000D01*
X-71000Y12000D02*
X-71000Y-25919D01*
X-71000Y12000D02*
X-65000Y18000D01*
D12*
X-64000Y13000D03*
D13*
X-64000Y-18329D02*
X-63594Y-18329D01*
X-68000Y9000D02*
X-64000Y13000D01*
X-68000Y9000D02*
X-68000Y0D01*
X-64000Y-4000D01*
X-64000Y-18329D01*
M02*
