M48
;GenerationSoftware,Autodesk,EAGLE,9.5.1*%
;CreationDate,2022-12-29T14:58:07Z*%
FMAT,2
ICI,OFF
METRIC,TZ,000.000
T4C0.200
T3C0.305
T2C0.500
T1C1.300
%
G90
M71
T1
X-1500Y-2750
X1500Y-2750
X0Y5000
T2
X0Y6600
X6400Y3700
X-5950Y4400
X-6510Y3490
X-5420Y3700
X5500Y3700
X5700Y4600
X0Y-6100
T3
X-3500Y5617
X4220Y5835
X-1926Y6332
X-1410Y6865
X-2148Y5626
X-738Y7163
X-3139Y6267
X-3531Y4878
X-2567Y6728
X-4834Y4520
X-4654Y5241
X-4673Y3798
X-4220Y5835
X-6359Y-1833
X-6526Y-2556
X-5888Y-1263
X-6409Y-3283
X-5668Y-3416
X-5642Y-4158
X-5361Y-2743
X-5341Y-4830
X-4591Y-4767
X-4373Y-5477
X-4468Y-4037
X-3909Y-6047
X-3201Y-5793
X-2807Y-6422
X-3271Y-5056
X-2211Y-6853
X-1592Y-6424
X-1049Y-6930
X-1851Y-5730
X-362Y-7192
X1926Y6332
X1410Y6865
X2148Y5626
X738Y7163
X3500Y5617
X3139Y6267
X3531Y4878
X2567Y6728
X4834Y4520
X4654Y5241
X4673Y3798
X6359Y-1833
X6526Y-2556
X5888Y-1263
X6409Y-3283
X5668Y-3416
X5642Y-4158
X5361Y-2743
X5341Y-4830
X4591Y-4767
X4373Y-5477
X4468Y-4037
X3909Y-6047
X3201Y-5793
X2807Y-6422
X3271Y-5056
X2211Y-6853
X1592Y-6424
X1049Y-6930
X1851Y-5730
X362Y-7192
T4
X-5100Y3050
X-5600Y3050
X5200Y700
X5800Y700
X6400Y700
X2000Y700
X4800Y1300
X5600Y1300
X-5600Y1300
X-6400Y1300
X-6300Y800
X-5800Y700
X-5200Y700
X-4800Y-1050
X-4400Y700
X-4000Y-1050
X-3600Y700
X-3200Y-1050
X-2800Y700
X-2400Y-1050
X-2000Y700
X-1600Y-1050
X-1200Y700
X-800Y-1050
X-400Y700
X6400Y-1050
X0Y-1050
X400Y700
X800Y-1050
X1200Y700
X1600Y-1050
X2400Y-1050
X2800Y700
X3200Y-1050
X3600Y700
X4000Y-1050
X4400Y700
X4800Y-1050
X-6300Y-4050
X-5100Y-5550
X-3500Y-6650
X-1620Y-7260
X1640Y-7270
X3500Y-6650
X5020Y-5440
X6230Y-3940
X-5350Y5230
X-3800Y6430
X-10Y7490
X2000Y7250
X3800Y6450
X6110Y1120
X-1980Y7230
X-7500Y-900
X7500Y-800
X7500Y800
X5300Y5350
X1200Y-1650
X-7441Y-150
X5700Y3050
X5000Y3050
X4400Y3050
X4000Y1300
X3600Y3050
X800Y1300
X3200Y1300
X2800Y3050
X2400Y1300
X2000Y3050
X1600Y1300
X1200Y3050
X400Y3050
X0Y1300
X-400Y3050
X-800Y1300
X-1200Y3050
X-1600Y1300
X-2000Y3050
X-2400Y1300
X-2800Y3050
X-3200Y1300
X-3600Y3050
X-4000Y1300
X-4400Y3050
X-4800Y1300
M30