G04 EAGLE Gerber RS-274X export*
G75*
%MOMM*%
%FSLAX34Y34*%
%LPD*%
%IN*%
%IPPOS*%
%AMOC8*
5,1,8,0,0,1.08239X$1,22.5*%
G01*
%ADD10C,0.254000*%


D10*
X-9090Y-78780D02*
X9090Y-78780D01*
X15922Y-77688D01*
X22632Y-76005D01*
X29170Y-73743D01*
X35486Y-70920D01*
X41532Y-67557D01*
X47262Y-63680D01*
X52632Y-59319D01*
X57602Y-54506D01*
X62133Y-49278D01*
X66192Y-43675D01*
X69747Y-37740D01*
X72770Y-31518D01*
X75241Y-25056D01*
X77138Y-18403D01*
X78448Y-11610D01*
X79162Y-4728D01*
X79272Y2189D01*
X78780Y9090D01*
X77688Y15922D01*
X76005Y22632D01*
X73743Y29170D01*
X70920Y35486D01*
X67557Y41532D01*
X63680Y47262D01*
X59319Y52632D01*
X54506Y57602D01*
X49278Y62133D01*
X43675Y66192D01*
X37740Y69747D01*
X31518Y72770D01*
X25056Y75241D01*
X18403Y77138D01*
X11610Y78448D01*
X9090Y78780D01*
X-9090Y78780D01*
X-15922Y77688D01*
X-22632Y76005D01*
X-29170Y73743D01*
X-35486Y70920D01*
X-41532Y67557D01*
X-47262Y63680D01*
X-52632Y59319D01*
X-57602Y54506D01*
X-62133Y49278D01*
X-66192Y43675D01*
X-69747Y37740D01*
X-72770Y31518D01*
X-75241Y25056D01*
X-77138Y18403D01*
X-78448Y11610D01*
X-79162Y4728D01*
X-79272Y-2189D01*
X-78780Y-9090D01*
X-77688Y-15922D01*
X-76005Y-22632D01*
X-73743Y-29170D01*
X-70920Y-35486D01*
X-67557Y-41532D01*
X-63680Y-47262D01*
X-59319Y-52632D01*
X-54506Y-57602D01*
X-49278Y-62133D01*
X-43675Y-66192D01*
X-37740Y-69747D01*
X-31518Y-72770D01*
X-25056Y-75241D01*
X-18403Y-77138D01*
X-11610Y-78448D01*
X-9090Y-78780D01*
X-8500Y-27819D02*
X-8563Y-28455D01*
X-8687Y-29081D01*
X-8873Y-29692D01*
X-9117Y-30282D01*
X-9418Y-30846D01*
X-9773Y-31377D01*
X-10178Y-31870D01*
X-10630Y-32322D01*
X-11123Y-32727D01*
X-11654Y-33082D01*
X-12218Y-33383D01*
X-12808Y-33627D01*
X-13419Y-33813D01*
X-14045Y-33937D01*
X-14681Y-34000D01*
X-15319Y-34000D01*
X-15955Y-33937D01*
X-16581Y-33813D01*
X-17192Y-33627D01*
X-17782Y-33383D01*
X-18346Y-33082D01*
X-18877Y-32727D01*
X-19370Y-32322D01*
X-19822Y-31870D01*
X-20227Y-31377D01*
X-20582Y-30846D01*
X-20883Y-30282D01*
X-21127Y-29692D01*
X-21313Y-29081D01*
X-21437Y-28455D01*
X-21500Y-27819D01*
X-21500Y-27181D01*
X-21437Y-26545D01*
X-21313Y-25919D01*
X-21127Y-25308D01*
X-20883Y-24718D01*
X-20582Y-24154D01*
X-20227Y-23623D01*
X-19822Y-23130D01*
X-19370Y-22678D01*
X-18877Y-22273D01*
X-18346Y-21918D01*
X-17782Y-21617D01*
X-17192Y-21373D01*
X-16581Y-21187D01*
X-15955Y-21063D01*
X-15319Y-21000D01*
X-14681Y-21000D01*
X-14045Y-21063D01*
X-13419Y-21187D01*
X-12808Y-21373D01*
X-12218Y-21617D01*
X-11654Y-21918D01*
X-11123Y-22273D01*
X-10630Y-22678D01*
X-10178Y-23130D01*
X-9773Y-23623D01*
X-9418Y-24154D01*
X-9117Y-24718D01*
X-8873Y-25308D01*
X-8687Y-25919D01*
X-8563Y-26545D01*
X-8500Y-27181D01*
X-8500Y-27819D01*
X21500Y-27819D02*
X21437Y-28455D01*
X21313Y-29081D01*
X21127Y-29692D01*
X20883Y-30282D01*
X20582Y-30846D01*
X20227Y-31377D01*
X19822Y-31870D01*
X19370Y-32322D01*
X18877Y-32727D01*
X18346Y-33082D01*
X17782Y-33383D01*
X17192Y-33627D01*
X16581Y-33813D01*
X15955Y-33937D01*
X15319Y-34000D01*
X14681Y-34000D01*
X14045Y-33937D01*
X13419Y-33813D01*
X12808Y-33627D01*
X12218Y-33383D01*
X11654Y-33082D01*
X11123Y-32727D01*
X10630Y-32322D01*
X10178Y-31870D01*
X9773Y-31377D01*
X9418Y-30846D01*
X9117Y-30282D01*
X8873Y-29692D01*
X8687Y-29081D01*
X8563Y-28455D01*
X8500Y-27819D01*
X8500Y-27181D01*
X8563Y-26545D01*
X8687Y-25919D01*
X8873Y-25308D01*
X9117Y-24718D01*
X9418Y-24154D01*
X9773Y-23623D01*
X10178Y-23130D01*
X10630Y-22678D01*
X11123Y-22273D01*
X11654Y-21918D01*
X12218Y-21617D01*
X12808Y-21373D01*
X13419Y-21187D01*
X14045Y-21063D01*
X14681Y-21000D01*
X15319Y-21000D01*
X15955Y-21063D01*
X16581Y-21187D01*
X17192Y-21373D01*
X17782Y-21617D01*
X18346Y-21918D01*
X18877Y-22273D01*
X19370Y-22678D01*
X19822Y-23130D01*
X20227Y-23623D01*
X20582Y-24154D01*
X20883Y-24718D01*
X21127Y-25308D01*
X21313Y-25919D01*
X21437Y-26545D01*
X21500Y-27181D01*
X21500Y-27819D01*
X6500Y49681D02*
X6437Y49045D01*
X6313Y48419D01*
X6127Y47808D01*
X5883Y47218D01*
X5582Y46654D01*
X5227Y46123D01*
X4822Y45630D01*
X4370Y45178D01*
X3877Y44773D01*
X3346Y44418D01*
X2782Y44117D01*
X2192Y43873D01*
X1581Y43687D01*
X955Y43563D01*
X319Y43500D01*
X-319Y43500D01*
X-955Y43563D01*
X-1581Y43687D01*
X-2192Y43873D01*
X-2782Y44117D01*
X-3346Y44418D01*
X-3877Y44773D01*
X-4370Y45178D01*
X-4822Y45630D01*
X-5227Y46123D01*
X-5582Y46654D01*
X-5883Y47218D01*
X-6127Y47808D01*
X-6313Y48419D01*
X-6437Y49045D01*
X-6500Y49681D01*
X-6500Y50319D01*
X-6437Y50955D01*
X-6313Y51581D01*
X-6127Y52192D01*
X-5883Y52782D01*
X-5582Y53346D01*
X-5227Y53877D01*
X-4822Y54370D01*
X-4370Y54822D01*
X-3877Y55227D01*
X-3346Y55582D01*
X-2782Y55883D01*
X-2192Y56127D01*
X-1581Y56313D01*
X-955Y56437D01*
X-319Y56500D01*
X319Y56500D01*
X955Y56437D01*
X1581Y56313D01*
X2192Y56127D01*
X2782Y55883D01*
X3346Y55582D01*
X3877Y55227D01*
X4370Y54822D01*
X4822Y54370D01*
X5227Y53877D01*
X5582Y53346D01*
X5883Y52782D01*
X6127Y52192D01*
X6313Y51581D01*
X6437Y50955D01*
X6500Y50319D01*
X6500Y49681D01*
M02*
