G04 EAGLE Gerber RS-274X export*
G75*
%MOMM*%
%FSLAX34Y34*%
%LPD*%
%INSilkscreen Bottom*%
%IPPOS*%
%AMOC8*
5,1,8,0,0,1.08239X$1,22.5*%
G01*
%ADD10C,0.177800*%
%ADD11C,0.254000*%


D10*
X43413Y26438D02*
X49005Y26438D01*
X49005Y18049D01*
X43413Y18049D01*
X46209Y22244D02*
X49005Y22244D01*
X39650Y18049D02*
X36854Y18049D01*
X38252Y18049D02*
X38252Y26438D01*
X39650Y26438D02*
X36854Y26438D01*
X33413Y26438D02*
X33413Y18049D01*
X33413Y26438D02*
X29219Y26438D01*
X27821Y25040D01*
X27821Y23642D01*
X29219Y22244D01*
X27821Y20845D01*
X27821Y19447D01*
X29219Y18049D01*
X33413Y18049D01*
X33413Y22244D02*
X29219Y22244D01*
X24058Y22244D02*
X18465Y22244D01*
X11907Y25040D02*
X9110Y26438D01*
X11907Y25040D02*
X14703Y22244D01*
X14703Y19447D01*
X13305Y18049D01*
X10508Y18049D01*
X9110Y19447D01*
X9110Y20845D01*
X10508Y22244D01*
X14703Y22244D01*
X1153Y18049D02*
X1153Y26438D01*
X5348Y22244D01*
X-245Y22244D01*
X-6804Y18049D02*
X-4007Y15253D01*
X-6804Y18049D02*
X-6804Y19447D01*
X-5406Y19447D01*
X-5406Y18049D01*
X-6804Y18049D01*
X-19599Y18049D02*
X-19599Y23642D01*
X-19599Y20845D02*
X-22396Y23642D01*
X-23794Y23642D01*
X-27395Y23642D02*
X-30192Y26438D01*
X-30192Y18049D01*
X-32988Y18049D02*
X-27395Y18049D01*
X-36750Y18049D02*
X-36750Y19447D01*
X-38149Y19447D01*
X-38149Y18049D01*
X-36750Y18049D01*
X-41428Y25040D02*
X-42826Y26438D01*
X-45623Y26438D01*
X-47021Y25040D01*
X-47021Y23642D01*
X-45623Y22244D01*
X-44224Y22244D01*
X-45623Y22244D02*
X-47021Y20845D01*
X-47021Y19447D01*
X-45623Y18049D01*
X-42826Y18049D01*
X-41428Y19447D01*
X41692Y12214D02*
X44489Y12214D01*
X45887Y10816D01*
X45887Y5223D01*
X44489Y3825D01*
X41692Y3825D01*
X40294Y5223D01*
X40294Y10816D01*
X41692Y12214D01*
X36532Y9418D02*
X36532Y1029D01*
X36532Y9418D02*
X32337Y9418D01*
X30939Y8020D01*
X30939Y5223D01*
X32337Y3825D01*
X36532Y3825D01*
X25778Y3825D02*
X22982Y3825D01*
X25778Y3825D02*
X27177Y5223D01*
X27177Y8020D01*
X25778Y9418D01*
X22982Y9418D01*
X21584Y8020D01*
X21584Y6621D01*
X27177Y6621D01*
X17821Y3825D02*
X17821Y9418D01*
X13627Y9418D01*
X12229Y8020D01*
X12229Y3825D01*
X-889Y12214D02*
X-6482Y12214D01*
X-889Y12214D02*
X-889Y3825D01*
X-6482Y3825D01*
X-3685Y8020D02*
X-889Y8020D01*
X-10244Y9418D02*
X-10244Y1029D01*
X-10244Y9418D02*
X-14439Y9418D01*
X-15837Y8020D01*
X-15837Y5223D01*
X-14439Y3825D01*
X-10244Y3825D01*
X-19599Y3825D02*
X-19599Y12214D01*
X-20998Y9418D02*
X-19599Y8020D01*
X-20998Y9418D02*
X-23794Y9418D01*
X-25192Y8020D01*
X-25192Y3825D01*
X-28955Y5223D02*
X-28955Y9418D01*
X-28955Y5223D02*
X-30353Y3825D01*
X-34547Y3825D01*
X-34547Y2427D02*
X-34547Y9418D01*
X-34547Y2427D02*
X-33149Y1029D01*
X-31751Y1029D01*
X-38310Y3825D02*
X-42504Y3825D01*
X-43902Y5223D01*
X-42504Y6621D01*
X-39708Y6621D01*
X-38310Y8020D01*
X-39708Y9418D01*
X-43902Y9418D01*
D11*
X-16841Y53723D02*
X-16783Y54132D01*
X-16715Y54539D01*
X-16637Y54945D01*
X-16550Y55349D01*
X-16453Y55751D01*
X-16346Y56150D01*
X-16230Y56546D01*
X-16104Y56940D01*
X-15969Y57330D01*
X-15824Y57717D01*
X-15671Y58101D01*
X-15508Y58480D01*
X-15336Y58856D01*
X-15155Y59227D01*
X-14965Y59594D01*
X-14766Y59957D01*
X-14559Y60314D01*
X-14343Y60666D01*
X-14119Y61013D01*
X-13886Y61355D01*
X-13645Y61690D01*
X-13397Y62020D01*
X-13140Y62344D01*
X-12876Y62662D01*
X-12604Y62973D01*
X-12325Y63277D01*
X-12038Y63575D01*
X-11745Y63866D01*
X-11444Y64149D01*
X-11137Y64426D01*
X-10824Y64694D01*
X-10503Y64956D01*
X-10177Y65209D01*
X-9845Y65455D01*
X-26450Y60677D02*
X-26707Y60353D01*
X-26957Y60024D01*
X-27198Y59689D01*
X-27432Y59348D01*
X-27657Y59002D01*
X-27874Y58650D01*
X-28082Y58293D01*
X-28282Y57932D01*
X-28473Y57565D01*
X-28655Y57194D01*
X-28828Y56819D01*
X-28992Y56440D01*
X-29146Y56057D01*
X-29292Y55670D01*
X-29428Y55280D01*
X-29555Y54887D01*
X-29672Y54491D01*
X-29780Y54092D01*
X-29878Y53691D01*
X-29967Y53287D01*
X-30045Y52882D01*
X-30114Y52474D01*
X-30173Y52065D01*
X-30223Y51655D01*
X-30262Y51244D01*
X-30292Y50832D01*
X-30311Y50419D01*
X-30321Y50006D01*
X-30321Y49593D01*
X-30310Y49180D01*
X-30290Y48767D01*
X-30260Y48355D01*
X-30220Y47944D01*
X-30170Y47534D01*
X-41252Y51763D02*
X-41417Y51384D01*
X-41573Y51002D01*
X-41720Y50615D01*
X-41857Y50226D01*
X-41985Y49833D01*
X-42103Y49437D01*
X-42212Y49039D01*
X-42312Y48638D01*
X-42401Y48234D01*
X-42481Y47829D01*
X-42551Y47422D01*
X-42611Y47013D01*
X-42662Y46603D01*
X-42702Y46192D01*
X-42733Y45780D01*
X-42754Y45367D01*
X-42764Y44954D01*
X-42765Y44541D01*
X-42756Y44128D01*
X-42737Y43715D01*
X-42708Y43303D01*
X-42669Y42892D01*
X-42621Y42482D01*
X-42562Y42073D01*
X-42494Y41665D01*
X-42416Y41259D01*
X-42328Y40856D01*
X-42230Y40454D01*
X-42123Y40055D01*
X-42006Y39659D01*
X-41880Y39266D01*
X-41744Y38875D01*
X-41599Y38489D01*
X-41445Y38105D01*
X-54227Y-15137D02*
X-54538Y-15408D01*
X-54843Y-15687D01*
X-55141Y-15973D01*
X-55432Y-16266D01*
X-55716Y-16566D01*
X-55993Y-16873D01*
X-56262Y-17187D01*
X-56524Y-17506D01*
X-56778Y-17832D01*
X-57023Y-18164D01*
X-57261Y-18502D01*
X-57491Y-18846D01*
X-57712Y-19194D01*
X-57925Y-19548D01*
X-58129Y-19908D01*
X-58325Y-20271D01*
X-58512Y-20640D01*
X-58690Y-21013D01*
X-58859Y-21390D01*
X-59018Y-21771D01*
X-59169Y-22156D01*
X-59310Y-22544D01*
X-59442Y-22935D01*
X-59564Y-23330D01*
X-59677Y-23727D01*
X-59781Y-24127D01*
X-59874Y-24530D01*
X-59958Y-24934D01*
X-60033Y-25341D01*
X-60097Y-25749D01*
X-60151Y-26158D01*
X-60196Y-26569D01*
X-60231Y-26981D01*
X-60256Y-27393D01*
X-48462Y-28655D02*
X-48692Y-28998D01*
X-48915Y-29346D01*
X-49128Y-29700D01*
X-49334Y-30059D01*
X-49530Y-30422D01*
X-49718Y-30790D01*
X-49897Y-31162D01*
X-50067Y-31539D01*
X-50228Y-31919D01*
X-50379Y-32304D01*
X-50522Y-32692D01*
X-50655Y-33083D01*
X-50778Y-33477D01*
X-50892Y-33874D01*
X-50996Y-34274D01*
X-51091Y-34676D01*
X-51176Y-35080D01*
X-51252Y-35487D01*
X-51317Y-35894D01*
X-51373Y-36304D01*
X-51419Y-36714D01*
X-51455Y-37126D01*
X-51481Y-37538D01*
X-51497Y-37951D01*
X-51503Y-38364D01*
X-51499Y-38777D01*
X-51485Y-39190D01*
X-51462Y-39603D01*
X-51428Y-40014D01*
X-51385Y-40425D01*
X-51332Y-40835D01*
X-51269Y-41243D01*
X-51196Y-41650D01*
X-51113Y-42055D01*
X-39394Y-40222D02*
X-39528Y-40613D01*
X-39652Y-41007D01*
X-39768Y-41404D01*
X-39873Y-41803D01*
X-39969Y-42205D01*
X-40055Y-42609D01*
X-40131Y-43015D01*
X-40198Y-43423D01*
X-40255Y-43832D01*
X-40302Y-44243D01*
X-40339Y-44654D01*
X-40366Y-45066D01*
X-40383Y-45479D01*
X-40391Y-45892D01*
X-40388Y-46305D01*
X-40376Y-46718D01*
X-40353Y-47131D01*
X-40321Y-47543D01*
X-40278Y-47954D01*
X-40226Y-48364D01*
X-40164Y-48772D01*
X-40092Y-49179D01*
X-40011Y-49584D01*
X-39920Y-49987D01*
X-39819Y-50387D01*
X-39708Y-50785D01*
X-39588Y-51181D01*
X-39459Y-51573D01*
X-39320Y-51962D01*
X-39171Y-52348D01*
X-39014Y-52730D01*
X-38847Y-53108D01*
X-38671Y-53482D01*
X-38487Y-53851D01*
X-27641Y-49047D02*
X-27670Y-49459D01*
X-27688Y-49872D01*
X-27696Y-50285D01*
X-27695Y-50698D01*
X-27683Y-51111D01*
X-27662Y-51524D01*
X-27631Y-51936D01*
X-27590Y-52347D01*
X-27539Y-52757D01*
X-27478Y-53166D01*
X-27407Y-53573D01*
X-27327Y-53978D01*
X-27236Y-54381D01*
X-27137Y-54782D01*
X-27027Y-55180D01*
X-26908Y-55576D01*
X-26780Y-55969D01*
X-26642Y-56358D01*
X-26495Y-56744D01*
X-26338Y-57127D01*
X-26173Y-57505D01*
X-25998Y-57879D01*
X-25814Y-58250D01*
X-25622Y-58615D01*
X-25421Y-58976D01*
X-25211Y-59332D01*
X-24993Y-59683D01*
X-24766Y-60028D01*
X-24531Y-60368D01*
X-24288Y-60702D01*
X-24037Y-61030D01*
X-23778Y-61352D01*
X-23512Y-61668D01*
X-23238Y-61977D01*
X-14006Y-54531D02*
X-13926Y-54936D01*
X-13837Y-55339D01*
X-13738Y-55741D01*
X-13630Y-56139D01*
X-13512Y-56535D01*
X-13385Y-56928D01*
X-13248Y-57318D01*
X-13102Y-57704D01*
X-12946Y-58087D01*
X-12782Y-58466D01*
X-12608Y-58841D01*
X-12426Y-59212D01*
X-12234Y-59578D01*
X-12034Y-59939D01*
X-11825Y-60296D01*
X-11608Y-60647D01*
X-11382Y-60993D01*
X-11148Y-61334D01*
X-10906Y-61668D01*
X-10656Y-61997D01*
X-10398Y-62320D01*
X-10132Y-62636D01*
X-9859Y-62946D01*
X-9579Y-63250D01*
X-9291Y-63546D01*
X-8996Y-63836D01*
X-8695Y-64118D01*
X-8386Y-64393D01*
X-8071Y-64660D01*
X-7750Y-64920D01*
X-7423Y-65172D01*
X-7089Y-65416D01*
X-6750Y-65652D01*
X-6406Y-65880D01*
X16841Y53723D02*
X16783Y54132D01*
X16715Y54539D01*
X16637Y54945D01*
X16550Y55349D01*
X16453Y55751D01*
X16346Y56150D01*
X16230Y56546D01*
X16104Y56940D01*
X15969Y57330D01*
X15824Y57717D01*
X15671Y58101D01*
X15508Y58480D01*
X15336Y58856D01*
X15155Y59227D01*
X14965Y59594D01*
X14766Y59957D01*
X14559Y60314D01*
X14343Y60666D01*
X14119Y61013D01*
X13886Y61355D01*
X13645Y61690D01*
X13397Y62020D01*
X13140Y62344D01*
X12876Y62662D01*
X12604Y62973D01*
X12325Y63277D01*
X12038Y63575D01*
X11745Y63866D01*
X11444Y64149D01*
X11137Y64426D01*
X10824Y64694D01*
X10503Y64956D01*
X10177Y65209D01*
X9845Y65455D01*
X26450Y60677D02*
X26707Y60353D01*
X26957Y60024D01*
X27198Y59689D01*
X27432Y59348D01*
X27657Y59002D01*
X27874Y58650D01*
X28082Y58293D01*
X28282Y57932D01*
X28473Y57565D01*
X28655Y57194D01*
X28828Y56819D01*
X28992Y56440D01*
X29146Y56057D01*
X29292Y55670D01*
X29428Y55280D01*
X29555Y54887D01*
X29672Y54491D01*
X29780Y54092D01*
X29878Y53691D01*
X29967Y53287D01*
X30045Y52882D01*
X30114Y52474D01*
X30173Y52065D01*
X30223Y51655D01*
X30262Y51244D01*
X30292Y50832D01*
X30311Y50419D01*
X30321Y50006D01*
X30321Y49593D01*
X30310Y49180D01*
X30290Y48767D01*
X30260Y48355D01*
X30220Y47944D01*
X30170Y47534D01*
X41252Y51763D02*
X41417Y51384D01*
X41573Y51002D01*
X41720Y50615D01*
X41857Y50226D01*
X41985Y49833D01*
X42103Y49437D01*
X42212Y49039D01*
X42312Y48638D01*
X42401Y48234D01*
X42481Y47829D01*
X42551Y47422D01*
X42611Y47013D01*
X42662Y46603D01*
X42702Y46192D01*
X42733Y45780D01*
X42754Y45367D01*
X42764Y44954D01*
X42765Y44541D01*
X42756Y44128D01*
X42737Y43715D01*
X42708Y43303D01*
X42669Y42892D01*
X42621Y42482D01*
X42562Y42073D01*
X42494Y41665D01*
X42416Y41259D01*
X42328Y40856D01*
X42230Y40454D01*
X42123Y40055D01*
X42006Y39659D01*
X41880Y39266D01*
X41744Y38875D01*
X41599Y38489D01*
X41445Y38105D01*
X54227Y-15137D02*
X54538Y-15408D01*
X54843Y-15687D01*
X55141Y-15973D01*
X55432Y-16266D01*
X55716Y-16566D01*
X55993Y-16873D01*
X56262Y-17187D01*
X56524Y-17506D01*
X56778Y-17832D01*
X57023Y-18164D01*
X57261Y-18502D01*
X57491Y-18846D01*
X57712Y-19194D01*
X57925Y-19548D01*
X58129Y-19908D01*
X58325Y-20271D01*
X58512Y-20640D01*
X58690Y-21013D01*
X58859Y-21390D01*
X59018Y-21771D01*
X59169Y-22156D01*
X59310Y-22544D01*
X59442Y-22935D01*
X59564Y-23330D01*
X59677Y-23727D01*
X59781Y-24127D01*
X59874Y-24530D01*
X59958Y-24934D01*
X60033Y-25341D01*
X60097Y-25749D01*
X60151Y-26158D01*
X60196Y-26569D01*
X60231Y-26981D01*
X60256Y-27393D01*
X48462Y-28655D02*
X48692Y-28998D01*
X48915Y-29346D01*
X49128Y-29700D01*
X49334Y-30059D01*
X49530Y-30422D01*
X49718Y-30790D01*
X49897Y-31162D01*
X50067Y-31539D01*
X50228Y-31919D01*
X50379Y-32304D01*
X50522Y-32692D01*
X50655Y-33083D01*
X50778Y-33477D01*
X50892Y-33874D01*
X50996Y-34274D01*
X51091Y-34676D01*
X51176Y-35080D01*
X51252Y-35487D01*
X51317Y-35894D01*
X51373Y-36304D01*
X51419Y-36714D01*
X51455Y-37126D01*
X51481Y-37538D01*
X51497Y-37951D01*
X51503Y-38364D01*
X51499Y-38777D01*
X51485Y-39190D01*
X51462Y-39603D01*
X51428Y-40014D01*
X51385Y-40425D01*
X51332Y-40835D01*
X51269Y-41243D01*
X51196Y-41650D01*
X51113Y-42055D01*
X39394Y-40222D02*
X39528Y-40613D01*
X39652Y-41007D01*
X39768Y-41404D01*
X39873Y-41803D01*
X39969Y-42205D01*
X40055Y-42609D01*
X40131Y-43015D01*
X40198Y-43423D01*
X40255Y-43832D01*
X40302Y-44243D01*
X40339Y-44654D01*
X40366Y-45066D01*
X40383Y-45479D01*
X40391Y-45892D01*
X40388Y-46305D01*
X40376Y-46718D01*
X40353Y-47131D01*
X40321Y-47543D01*
X40278Y-47954D01*
X40226Y-48364D01*
X40164Y-48772D01*
X40092Y-49179D01*
X40011Y-49584D01*
X39920Y-49987D01*
X39819Y-50387D01*
X39708Y-50785D01*
X39588Y-51181D01*
X39459Y-51573D01*
X39320Y-51962D01*
X39171Y-52348D01*
X39014Y-52730D01*
X38847Y-53108D01*
X38671Y-53482D01*
X38487Y-53851D01*
X27641Y-49047D02*
X27670Y-49459D01*
X27688Y-49872D01*
X27696Y-50285D01*
X27695Y-50698D01*
X27683Y-51111D01*
X27662Y-51524D01*
X27631Y-51936D01*
X27590Y-52347D01*
X27539Y-52757D01*
X27478Y-53166D01*
X27407Y-53573D01*
X27327Y-53978D01*
X27236Y-54381D01*
X27137Y-54782D01*
X27027Y-55180D01*
X26908Y-55576D01*
X26780Y-55969D01*
X26642Y-56358D01*
X26495Y-56744D01*
X26338Y-57127D01*
X26173Y-57505D01*
X25998Y-57879D01*
X25814Y-58250D01*
X25622Y-58615D01*
X25421Y-58976D01*
X25211Y-59332D01*
X24993Y-59683D01*
X24766Y-60028D01*
X24531Y-60368D01*
X24288Y-60702D01*
X24037Y-61030D01*
X23778Y-61352D01*
X23512Y-61668D01*
X23238Y-61977D01*
X14006Y-54531D02*
X13926Y-54936D01*
X13837Y-55339D01*
X13738Y-55741D01*
X13630Y-56139D01*
X13512Y-56535D01*
X13385Y-56928D01*
X13248Y-57318D01*
X13102Y-57704D01*
X12946Y-58087D01*
X12782Y-58466D01*
X12608Y-58841D01*
X12426Y-59212D01*
X12234Y-59578D01*
X12034Y-59939D01*
X11825Y-60296D01*
X11608Y-60647D01*
X11382Y-60993D01*
X11148Y-61334D01*
X10906Y-61668D01*
X10656Y-61997D01*
X10398Y-62320D01*
X10132Y-62636D01*
X9859Y-62946D01*
X9579Y-63250D01*
X9291Y-63546D01*
X8996Y-63836D01*
X8695Y-64118D01*
X8386Y-64393D01*
X8071Y-64660D01*
X7750Y-64920D01*
X7423Y-65172D01*
X7089Y-65416D01*
X6750Y-65652D01*
X6406Y-65880D01*
M02*
