G04 EAGLE Gerber RS-274X export*
G75*
%MOMM*%
%FSLAX34Y34*%
%LPD*%
%INSilkscreen Top*%
%IPPOS*%
%AMOC8*
5,1,8,0,0,1.08239X$1,22.5*%
G01*
%ADD10C,0.152400*%
%ADD11C,0.127000*%
%ADD12C,0.254000*%


D10*
X-11115Y60006D02*
X-7918Y61497D01*
X-10477Y54466D01*
X-8134Y53613D02*
X-12821Y55319D01*
X19345Y-36441D02*
X22638Y-37705D01*
X15803Y-40748D01*
X14788Y-38470D02*
X16817Y-43027D01*
X19298Y-45533D02*
X23855Y-43504D01*
X25502Y-44136D01*
X26516Y-46415D01*
X25884Y-48061D01*
X21327Y-50090D01*
X19681Y-49458D01*
X18666Y-47179D01*
X19298Y-45533D01*
X25884Y-48061D01*
X29008Y-27869D02*
X32482Y-28481D01*
X26352Y-32773D01*
X24922Y-30730D02*
X27783Y-34816D01*
X33761Y-34657D02*
X37235Y-35270D01*
X31106Y-39561D01*
X32536Y-41604D02*
X29675Y-37518D01*
X35470Y-19569D02*
X38993Y-19384D01*
X33986Y-24945D01*
X35839Y-26614D02*
X32132Y-23276D01*
X38291Y-28821D02*
X41998Y-32159D01*
X38291Y-28821D02*
X45336Y-28452D01*
X46170Y-27525D01*
X46078Y-25764D01*
X44224Y-24095D01*
X42463Y-24187D01*
X8479Y63371D02*
X4966Y63678D01*
X8479Y63371D02*
X2748Y58561D01*
X1144Y60472D02*
X4351Y56650D01*
X12851Y56221D02*
X15409Y55112D01*
X12851Y56221D02*
X9337Y56528D01*
X7427Y54925D01*
X7273Y53168D01*
X8876Y51258D01*
X10633Y51104D01*
X11588Y51905D01*
X11742Y53662D01*
X9337Y56528D01*
X40750Y-9161D02*
X38256Y-11655D01*
X40750Y-9161D02*
X40750Y-16643D01*
X38256Y-16643D02*
X43244Y-16643D01*
X46543Y-10408D02*
X47790Y-9161D01*
X50284Y-9161D01*
X51531Y-10408D01*
X51531Y-11655D01*
X50284Y-12902D01*
X49037Y-12902D01*
X50284Y-12902D02*
X51531Y-14149D01*
X51531Y-15396D01*
X50284Y-16643D01*
X47790Y-16643D01*
X46543Y-15396D01*
X-36275Y-27623D02*
X-39346Y-23692D01*
X-42294Y-25995D01*
X-39776Y-27193D01*
X-39008Y-28176D01*
X-39223Y-29926D01*
X-41189Y-31462D01*
X-42939Y-31247D01*
X-44475Y-29281D01*
X-44260Y-27531D01*
X-30880Y-35522D02*
X-28157Y-36123D01*
X-30880Y-35522D02*
X-34388Y-35891D01*
X-35958Y-37829D01*
X-35774Y-39583D01*
X-33835Y-41153D01*
X-32081Y-40969D01*
X-31297Y-39999D01*
X-31481Y-38246D01*
X-34388Y-35891D01*
X-22890Y-40440D02*
X-18333Y-42469D01*
X-18840Y-43608D01*
X-25426Y-46136D01*
X-25933Y-47276D01*
X-45253Y-16659D02*
X-51732Y-20400D01*
X-50363Y-15289D02*
X-45253Y-16659D01*
X-47869Y-19609D02*
X-50363Y-15289D01*
X-13117Y-46229D02*
X-11672Y-45218D01*
X-9216Y-45651D01*
X-8204Y-47095D01*
X-8421Y-48323D01*
X-9866Y-49335D01*
X-8854Y-50780D01*
X-9071Y-52008D01*
X-10515Y-53019D01*
X-12972Y-52586D01*
X-13983Y-51142D01*
X-13767Y-49913D01*
X-12322Y-48902D01*
X-13333Y-47457D01*
X-13117Y-46229D01*
X-12322Y-48902D02*
X-9866Y-49335D01*
X7823Y-52316D02*
X9267Y-53328D01*
X11724Y-52894D01*
X12735Y-51450D01*
X11869Y-46537D01*
X10424Y-45526D01*
X7968Y-45959D01*
X6957Y-47404D01*
X7173Y-48632D01*
X8618Y-49643D01*
X12302Y-48994D01*
X2242Y-49138D02*
X995Y-47891D01*
X-1499Y-47891D01*
X-2747Y-49138D01*
X-2747Y-54126D01*
X-1499Y-55373D01*
X995Y-55373D01*
X2242Y-54126D01*
X2242Y-51632D01*
X-252Y-51632D01*
X-24560Y42206D02*
X-24560Y46612D01*
X-22357Y48816D01*
X-20154Y46612D01*
X-20154Y42206D01*
X-20154Y45511D02*
X-24560Y45511D01*
X-13449Y41356D02*
X-12348Y40254D01*
X-13449Y41356D02*
X-15653Y41356D01*
X-16754Y40254D01*
X-16754Y35848D01*
X-15653Y34746D01*
X-13449Y34746D01*
X-12348Y35848D01*
X-9270Y39152D02*
X-7067Y41356D01*
X-7067Y34746D01*
X-9270Y34746D02*
X-4864Y34746D01*
X-28856Y38222D02*
X-29957Y39324D01*
X-32161Y39324D01*
X-33262Y38222D01*
X-33262Y33816D01*
X-32161Y32714D01*
X-29957Y32714D01*
X-28856Y33816D01*
X-25778Y33816D02*
X-25778Y38222D01*
X-24676Y39324D01*
X-22473Y39324D01*
X-21372Y38222D01*
X-21372Y33816D01*
X-22473Y32714D01*
X-24676Y32714D01*
X-25778Y33816D01*
X-21372Y38222D01*
X16809Y47292D02*
X17910Y46190D01*
X16809Y47292D02*
X14606Y47292D01*
X13504Y46190D01*
X13504Y41784D01*
X14606Y40682D01*
X16809Y40682D01*
X17910Y41784D01*
X17910Y43987D01*
X15707Y43987D01*
X7520Y38308D02*
X7520Y31698D01*
X7520Y38308D02*
X10825Y38308D01*
X11926Y37206D01*
X11926Y35003D01*
X10825Y33901D01*
X7520Y33901D01*
X9723Y33901D02*
X11926Y31698D01*
X17778Y38308D02*
X22184Y38308D01*
X17778Y38308D02*
X17778Y31698D01*
X22184Y31698D01*
X19981Y35003D02*
X17778Y35003D01*
X28567Y38308D02*
X29668Y37206D01*
X28567Y38308D02*
X26364Y38308D01*
X25262Y37206D01*
X25262Y36104D01*
X26364Y35003D01*
X28567Y35003D01*
X29668Y33901D01*
X29668Y32800D01*
X28567Y31698D01*
X26364Y31698D01*
X25262Y32800D01*
X3238Y-42550D02*
X-1750Y-42550D01*
X744Y-42550D02*
X-1750Y-40056D01*
X-1750Y-38809D01*
X-1750Y-35644D02*
X-4244Y-33150D01*
X3238Y-33150D01*
X3238Y-35644D02*
X3238Y-30656D01*
X3238Y-27357D02*
X1991Y-27357D01*
X1991Y-26110D01*
X3238Y-26110D01*
X3238Y-27357D01*
X-2997Y-23213D02*
X-4244Y-21966D01*
X-4244Y-19472D01*
X-2997Y-18225D01*
X-1750Y-18225D01*
X-503Y-19472D01*
X-503Y-20719D01*
X-503Y-19472D02*
X744Y-18225D01*
X1991Y-18225D01*
X3238Y-19472D01*
X3238Y-21966D01*
X1991Y-23213D01*
D11*
X2269Y76171D02*
X1210Y77230D01*
X-909Y77230D01*
X-1968Y76171D01*
X-1968Y71934D01*
X-909Y70875D01*
X1210Y70875D01*
X2269Y71934D01*
X2269Y74053D01*
X150Y74053D01*
D10*
X52324Y48608D02*
X52324Y42004D01*
X50292Y39972D01*
X50292Y33876D01*
X52832Y31336D01*
X66548Y31336D01*
X69088Y33876D01*
X69088Y42004D01*
X59944Y51148D01*
X54864Y51148D01*
X52324Y48608D01*
X6096Y29304D02*
X3556Y31844D01*
X6096Y29304D02*
X30480Y29304D01*
X32512Y31336D01*
X32512Y38448D01*
X20320Y50640D01*
X14224Y50640D01*
X10160Y46576D01*
X10160Y44036D01*
X3556Y37432D01*
X3556Y31844D01*
X-49784Y32352D02*
X-52832Y29304D01*
X-68072Y29304D01*
X-71120Y32352D01*
X-49784Y32352D02*
X-49784Y40480D01*
X-53848Y44544D01*
X-53848Y46576D01*
X-58928Y51656D01*
X-35560Y32352D02*
X-32512Y29304D01*
X-5080Y29304D01*
X-2032Y32352D01*
X-2032Y39464D01*
X-8128Y45560D01*
X-13208Y45560D01*
X-19304Y51656D01*
D11*
X71962Y4458D02*
X71964Y4553D01*
X71970Y4648D01*
X71980Y4743D01*
X71994Y4837D01*
X72012Y4930D01*
X72033Y5023D01*
X72059Y5115D01*
X72088Y5205D01*
X72122Y5294D01*
X72158Y5382D01*
X72199Y5468D01*
X72243Y5553D01*
X72291Y5635D01*
X72342Y5715D01*
X72396Y5793D01*
X72453Y5869D01*
X72514Y5943D01*
X72578Y6013D01*
X72644Y6081D01*
X72714Y6146D01*
X72786Y6209D01*
X72860Y6268D01*
X72937Y6324D01*
X73017Y6376D01*
X73098Y6426D01*
X73181Y6471D01*
X73267Y6514D01*
X73354Y6552D01*
X73442Y6588D01*
X73532Y6619D01*
X73623Y6646D01*
X73715Y6670D01*
X73808Y6690D01*
X73902Y6706D01*
X73997Y6718D01*
X74091Y6726D01*
X74186Y6730D01*
X74282Y6730D01*
X74377Y6726D01*
X74471Y6718D01*
X74566Y6706D01*
X74660Y6690D01*
X74753Y6670D01*
X74845Y6646D01*
X74936Y6619D01*
X75026Y6588D01*
X75114Y6552D01*
X75201Y6514D01*
X75287Y6471D01*
X75370Y6426D01*
X75451Y6376D01*
X75531Y6324D01*
X75608Y6268D01*
X75682Y6209D01*
X75754Y6146D01*
X75824Y6081D01*
X75890Y6013D01*
X75954Y5943D01*
X76015Y5869D01*
X76072Y5793D01*
X76126Y5715D01*
X76177Y5635D01*
X76225Y5553D01*
X76269Y5468D01*
X76310Y5382D01*
X76346Y5294D01*
X76380Y5205D01*
X76409Y5115D01*
X76435Y5023D01*
X76456Y4930D01*
X76474Y4837D01*
X76488Y4743D01*
X76498Y4648D01*
X76504Y4553D01*
X76506Y4458D01*
X76504Y4363D01*
X76498Y4268D01*
X76488Y4173D01*
X76474Y4079D01*
X76456Y3986D01*
X76435Y3893D01*
X76409Y3801D01*
X76380Y3711D01*
X76346Y3622D01*
X76310Y3534D01*
X76269Y3448D01*
X76225Y3363D01*
X76177Y3281D01*
X76126Y3201D01*
X76072Y3123D01*
X76015Y3047D01*
X75954Y2973D01*
X75890Y2903D01*
X75824Y2835D01*
X75754Y2770D01*
X75682Y2707D01*
X75608Y2648D01*
X75531Y2592D01*
X75451Y2540D01*
X75370Y2490D01*
X75287Y2445D01*
X75201Y2402D01*
X75114Y2364D01*
X75026Y2328D01*
X74936Y2297D01*
X74845Y2270D01*
X74753Y2246D01*
X74660Y2226D01*
X74566Y2210D01*
X74471Y2198D01*
X74377Y2190D01*
X74282Y2186D01*
X74186Y2186D01*
X74091Y2190D01*
X73997Y2198D01*
X73902Y2210D01*
X73808Y2226D01*
X73715Y2246D01*
X73623Y2270D01*
X73532Y2297D01*
X73442Y2328D01*
X73354Y2364D01*
X73267Y2402D01*
X73181Y2445D01*
X73098Y2490D01*
X73017Y2540D01*
X72937Y2592D01*
X72860Y2648D01*
X72786Y2707D01*
X72714Y2770D01*
X72644Y2835D01*
X72578Y2903D01*
X72514Y2973D01*
X72453Y3047D01*
X72396Y3123D01*
X72342Y3201D01*
X72291Y3281D01*
X72243Y3363D01*
X72199Y3448D01*
X72158Y3534D01*
X72122Y3622D01*
X72088Y3711D01*
X72059Y3801D01*
X72033Y3893D01*
X72012Y3986D01*
X71994Y4079D01*
X71980Y4173D01*
X71970Y4268D01*
X71964Y4363D01*
X71962Y4458D01*
X83000Y-4400D02*
X83000Y24400D01*
X83000Y-4400D02*
X72000Y-4400D01*
X-72000Y-4400D02*
X-83000Y-4400D01*
X-83000Y24400D01*
X-72000Y24400D01*
X72000Y24400D02*
X83000Y24400D01*
X80000Y21000D02*
X80000Y-1000D01*
X-80000Y-1000D02*
X-80000Y21000D01*
X72000Y-1000D02*
X80000Y-1000D01*
X80000Y21000D02*
X72000Y21000D01*
X-72000Y-1000D02*
X-80000Y-1000D01*
X-80000Y21000D02*
X-72000Y21000D01*
D12*
X-16841Y53723D02*
X-16783Y54132D01*
X-16715Y54539D01*
X-16637Y54945D01*
X-16550Y55349D01*
X-16453Y55751D01*
X-16346Y56150D01*
X-16230Y56546D01*
X-16104Y56940D01*
X-15969Y57330D01*
X-15824Y57717D01*
X-15671Y58101D01*
X-15508Y58480D01*
X-15336Y58856D01*
X-15155Y59227D01*
X-14965Y59594D01*
X-14766Y59957D01*
X-14559Y60314D01*
X-14343Y60666D01*
X-14119Y61013D01*
X-13886Y61355D01*
X-13645Y61690D01*
X-13397Y62020D01*
X-13140Y62344D01*
X-12876Y62662D01*
X-12604Y62973D01*
X-12325Y63277D01*
X-12038Y63575D01*
X-11745Y63866D01*
X-11444Y64149D01*
X-11137Y64426D01*
X-10824Y64694D01*
X-10503Y64956D01*
X-10177Y65209D01*
X-9845Y65455D01*
X-26450Y60677D02*
X-26707Y60353D01*
X-26957Y60024D01*
X-27198Y59689D01*
X-27432Y59348D01*
X-27657Y59002D01*
X-27874Y58650D01*
X-28082Y58293D01*
X-28282Y57932D01*
X-28473Y57565D01*
X-28655Y57194D01*
X-28828Y56819D01*
X-28992Y56440D01*
X-29146Y56057D01*
X-29292Y55670D01*
X-29428Y55280D01*
X-29555Y54887D01*
X-29672Y54491D01*
X-29780Y54092D01*
X-29878Y53691D01*
X-29967Y53287D01*
X-30045Y52882D01*
X-30114Y52474D01*
X-30173Y52065D01*
X-30223Y51655D01*
X-30262Y51244D01*
X-30292Y50832D01*
X-30311Y50419D01*
X-30321Y50006D01*
X-30321Y49593D01*
X-30310Y49180D01*
X-30290Y48767D01*
X-30260Y48355D01*
X-30220Y47944D01*
X-30170Y47534D01*
X-41252Y51763D02*
X-41417Y51384D01*
X-41573Y51002D01*
X-41720Y50615D01*
X-41857Y50226D01*
X-41985Y49833D01*
X-42103Y49437D01*
X-42212Y49039D01*
X-42312Y48638D01*
X-42401Y48234D01*
X-42481Y47829D01*
X-42551Y47422D01*
X-42611Y47013D01*
X-42662Y46603D01*
X-42702Y46192D01*
X-42733Y45780D01*
X-42754Y45367D01*
X-42764Y44954D01*
X-42765Y44541D01*
X-42756Y44128D01*
X-42737Y43715D01*
X-42708Y43303D01*
X-42669Y42892D01*
X-42621Y42482D01*
X-42562Y42073D01*
X-42494Y41665D01*
X-42416Y41259D01*
X-42328Y40856D01*
X-42230Y40454D01*
X-42123Y40055D01*
X-42006Y39659D01*
X-41880Y39266D01*
X-41744Y38875D01*
X-41599Y38489D01*
X-41445Y38105D01*
X-54227Y-15137D02*
X-54538Y-15408D01*
X-54843Y-15687D01*
X-55141Y-15973D01*
X-55432Y-16266D01*
X-55716Y-16566D01*
X-55993Y-16873D01*
X-56262Y-17187D01*
X-56524Y-17506D01*
X-56778Y-17832D01*
X-57023Y-18164D01*
X-57261Y-18502D01*
X-57491Y-18846D01*
X-57712Y-19194D01*
X-57925Y-19548D01*
X-58129Y-19908D01*
X-58325Y-20271D01*
X-58512Y-20640D01*
X-58690Y-21013D01*
X-58859Y-21390D01*
X-59018Y-21771D01*
X-59169Y-22156D01*
X-59310Y-22544D01*
X-59442Y-22935D01*
X-59564Y-23330D01*
X-59677Y-23727D01*
X-59781Y-24127D01*
X-59874Y-24530D01*
X-59958Y-24934D01*
X-60033Y-25341D01*
X-60097Y-25749D01*
X-60151Y-26158D01*
X-60196Y-26569D01*
X-60231Y-26981D01*
X-60256Y-27393D01*
X-48462Y-28655D02*
X-48692Y-28998D01*
X-48915Y-29346D01*
X-49128Y-29700D01*
X-49334Y-30059D01*
X-49530Y-30422D01*
X-49718Y-30790D01*
X-49897Y-31162D01*
X-50067Y-31539D01*
X-50228Y-31919D01*
X-50379Y-32304D01*
X-50522Y-32692D01*
X-50655Y-33083D01*
X-50778Y-33477D01*
X-50892Y-33874D01*
X-50996Y-34274D01*
X-51091Y-34676D01*
X-51176Y-35080D01*
X-51252Y-35487D01*
X-51317Y-35894D01*
X-51373Y-36304D01*
X-51419Y-36714D01*
X-51455Y-37126D01*
X-51481Y-37538D01*
X-51497Y-37951D01*
X-51503Y-38364D01*
X-51499Y-38777D01*
X-51485Y-39190D01*
X-51462Y-39603D01*
X-51428Y-40014D01*
X-51385Y-40425D01*
X-51332Y-40835D01*
X-51269Y-41243D01*
X-51196Y-41650D01*
X-51113Y-42055D01*
X-39394Y-40222D02*
X-39528Y-40613D01*
X-39652Y-41007D01*
X-39768Y-41404D01*
X-39873Y-41803D01*
X-39969Y-42205D01*
X-40055Y-42609D01*
X-40131Y-43015D01*
X-40198Y-43423D01*
X-40255Y-43832D01*
X-40302Y-44243D01*
X-40339Y-44654D01*
X-40366Y-45066D01*
X-40383Y-45479D01*
X-40391Y-45892D01*
X-40388Y-46305D01*
X-40376Y-46718D01*
X-40353Y-47131D01*
X-40321Y-47543D01*
X-40278Y-47954D01*
X-40226Y-48364D01*
X-40164Y-48772D01*
X-40092Y-49179D01*
X-40011Y-49584D01*
X-39920Y-49987D01*
X-39819Y-50387D01*
X-39708Y-50785D01*
X-39588Y-51181D01*
X-39459Y-51573D01*
X-39320Y-51962D01*
X-39171Y-52348D01*
X-39014Y-52730D01*
X-38847Y-53108D01*
X-38671Y-53482D01*
X-38487Y-53851D01*
X-27641Y-49047D02*
X-27670Y-49459D01*
X-27688Y-49872D01*
X-27696Y-50285D01*
X-27695Y-50698D01*
X-27683Y-51111D01*
X-27662Y-51524D01*
X-27631Y-51936D01*
X-27590Y-52347D01*
X-27539Y-52757D01*
X-27478Y-53166D01*
X-27407Y-53573D01*
X-27327Y-53978D01*
X-27236Y-54381D01*
X-27137Y-54782D01*
X-27027Y-55180D01*
X-26908Y-55576D01*
X-26780Y-55969D01*
X-26642Y-56358D01*
X-26495Y-56744D01*
X-26338Y-57127D01*
X-26173Y-57505D01*
X-25998Y-57879D01*
X-25814Y-58250D01*
X-25622Y-58615D01*
X-25421Y-58976D01*
X-25211Y-59332D01*
X-24993Y-59683D01*
X-24766Y-60028D01*
X-24531Y-60368D01*
X-24288Y-60702D01*
X-24037Y-61030D01*
X-23778Y-61352D01*
X-23512Y-61668D01*
X-23238Y-61977D01*
X-14006Y-54531D02*
X-13926Y-54936D01*
X-13837Y-55339D01*
X-13738Y-55741D01*
X-13630Y-56139D01*
X-13512Y-56535D01*
X-13385Y-56928D01*
X-13248Y-57318D01*
X-13102Y-57704D01*
X-12946Y-58087D01*
X-12782Y-58466D01*
X-12608Y-58841D01*
X-12426Y-59212D01*
X-12234Y-59578D01*
X-12034Y-59939D01*
X-11825Y-60296D01*
X-11608Y-60647D01*
X-11382Y-60993D01*
X-11148Y-61334D01*
X-10906Y-61668D01*
X-10656Y-61997D01*
X-10398Y-62320D01*
X-10132Y-62636D01*
X-9859Y-62946D01*
X-9579Y-63250D01*
X-9291Y-63546D01*
X-8996Y-63836D01*
X-8695Y-64118D01*
X-8386Y-64393D01*
X-8071Y-64660D01*
X-7750Y-64920D01*
X-7423Y-65172D01*
X-7089Y-65416D01*
X-6750Y-65652D01*
X-6406Y-65880D01*
X16841Y53723D02*
X16783Y54132D01*
X16715Y54539D01*
X16637Y54945D01*
X16550Y55349D01*
X16453Y55751D01*
X16346Y56150D01*
X16230Y56546D01*
X16104Y56940D01*
X15969Y57330D01*
X15824Y57717D01*
X15671Y58101D01*
X15508Y58480D01*
X15336Y58856D01*
X15155Y59227D01*
X14965Y59594D01*
X14766Y59957D01*
X14559Y60314D01*
X14343Y60666D01*
X14119Y61013D01*
X13886Y61355D01*
X13645Y61690D01*
X13397Y62020D01*
X13140Y62344D01*
X12876Y62662D01*
X12604Y62973D01*
X12325Y63277D01*
X12038Y63575D01*
X11745Y63866D01*
X11444Y64149D01*
X11137Y64426D01*
X10824Y64694D01*
X10503Y64956D01*
X10177Y65209D01*
X9845Y65455D01*
X26450Y60677D02*
X26707Y60353D01*
X26957Y60024D01*
X27198Y59689D01*
X27432Y59348D01*
X27657Y59002D01*
X27874Y58650D01*
X28082Y58293D01*
X28282Y57932D01*
X28473Y57565D01*
X28655Y57194D01*
X28828Y56819D01*
X28992Y56440D01*
X29146Y56057D01*
X29292Y55670D01*
X29428Y55280D01*
X29555Y54887D01*
X29672Y54491D01*
X29780Y54092D01*
X29878Y53691D01*
X29967Y53287D01*
X30045Y52882D01*
X30114Y52474D01*
X30173Y52065D01*
X30223Y51655D01*
X30262Y51244D01*
X30292Y50832D01*
X30311Y50419D01*
X30321Y50006D01*
X30321Y49593D01*
X30310Y49180D01*
X30290Y48767D01*
X30260Y48355D01*
X30220Y47944D01*
X30170Y47534D01*
X41252Y51763D02*
X41417Y51384D01*
X41573Y51002D01*
X41720Y50615D01*
X41857Y50226D01*
X41985Y49833D01*
X42103Y49437D01*
X42212Y49039D01*
X42312Y48638D01*
X42401Y48234D01*
X42481Y47829D01*
X42551Y47422D01*
X42611Y47013D01*
X42662Y46603D01*
X42702Y46192D01*
X42733Y45780D01*
X42754Y45367D01*
X42764Y44954D01*
X42765Y44541D01*
X42756Y44128D01*
X42737Y43715D01*
X42708Y43303D01*
X42669Y42892D01*
X42621Y42482D01*
X42562Y42073D01*
X42494Y41665D01*
X42416Y41259D01*
X42328Y40856D01*
X42230Y40454D01*
X42123Y40055D01*
X42006Y39659D01*
X41880Y39266D01*
X41744Y38875D01*
X41599Y38489D01*
X41445Y38105D01*
X54227Y-15137D02*
X54538Y-15408D01*
X54843Y-15687D01*
X55141Y-15973D01*
X55432Y-16266D01*
X55716Y-16566D01*
X55993Y-16873D01*
X56262Y-17187D01*
X56524Y-17506D01*
X56778Y-17832D01*
X57023Y-18164D01*
X57261Y-18502D01*
X57491Y-18846D01*
X57712Y-19194D01*
X57925Y-19548D01*
X58129Y-19908D01*
X58325Y-20271D01*
X58512Y-20640D01*
X58690Y-21013D01*
X58859Y-21390D01*
X59018Y-21771D01*
X59169Y-22156D01*
X59310Y-22544D01*
X59442Y-22935D01*
X59564Y-23330D01*
X59677Y-23727D01*
X59781Y-24127D01*
X59874Y-24530D01*
X59958Y-24934D01*
X60033Y-25341D01*
X60097Y-25749D01*
X60151Y-26158D01*
X60196Y-26569D01*
X60231Y-26981D01*
X60256Y-27393D01*
X48462Y-28655D02*
X48692Y-28998D01*
X48915Y-29346D01*
X49128Y-29700D01*
X49334Y-30059D01*
X49530Y-30422D01*
X49718Y-30790D01*
X49897Y-31162D01*
X50067Y-31539D01*
X50228Y-31919D01*
X50379Y-32304D01*
X50522Y-32692D01*
X50655Y-33083D01*
X50778Y-33477D01*
X50892Y-33874D01*
X50996Y-34274D01*
X51091Y-34676D01*
X51176Y-35080D01*
X51252Y-35487D01*
X51317Y-35894D01*
X51373Y-36304D01*
X51419Y-36714D01*
X51455Y-37126D01*
X51481Y-37538D01*
X51497Y-37951D01*
X51503Y-38364D01*
X51499Y-38777D01*
X51485Y-39190D01*
X51462Y-39603D01*
X51428Y-40014D01*
X51385Y-40425D01*
X51332Y-40835D01*
X51269Y-41243D01*
X51196Y-41650D01*
X51113Y-42055D01*
X39394Y-40222D02*
X39528Y-40613D01*
X39652Y-41007D01*
X39768Y-41404D01*
X39873Y-41803D01*
X39969Y-42205D01*
X40055Y-42609D01*
X40131Y-43015D01*
X40198Y-43423D01*
X40255Y-43832D01*
X40302Y-44243D01*
X40339Y-44654D01*
X40366Y-45066D01*
X40383Y-45479D01*
X40391Y-45892D01*
X40388Y-46305D01*
X40376Y-46718D01*
X40353Y-47131D01*
X40321Y-47543D01*
X40278Y-47954D01*
X40226Y-48364D01*
X40164Y-48772D01*
X40092Y-49179D01*
X40011Y-49584D01*
X39920Y-49987D01*
X39819Y-50387D01*
X39708Y-50785D01*
X39588Y-51181D01*
X39459Y-51573D01*
X39320Y-51962D01*
X39171Y-52348D01*
X39014Y-52730D01*
X38847Y-53108D01*
X38671Y-53482D01*
X38487Y-53851D01*
X27641Y-49047D02*
X27670Y-49459D01*
X27688Y-49872D01*
X27696Y-50285D01*
X27695Y-50698D01*
X27683Y-51111D01*
X27662Y-51524D01*
X27631Y-51936D01*
X27590Y-52347D01*
X27539Y-52757D01*
X27478Y-53166D01*
X27407Y-53573D01*
X27327Y-53978D01*
X27236Y-54381D01*
X27137Y-54782D01*
X27027Y-55180D01*
X26908Y-55576D01*
X26780Y-55969D01*
X26642Y-56358D01*
X26495Y-56744D01*
X26338Y-57127D01*
X26173Y-57505D01*
X25998Y-57879D01*
X25814Y-58250D01*
X25622Y-58615D01*
X25421Y-58976D01*
X25211Y-59332D01*
X24993Y-59683D01*
X24766Y-60028D01*
X24531Y-60368D01*
X24288Y-60702D01*
X24037Y-61030D01*
X23778Y-61352D01*
X23512Y-61668D01*
X23238Y-61977D01*
X14006Y-54531D02*
X13926Y-54936D01*
X13837Y-55339D01*
X13738Y-55741D01*
X13630Y-56139D01*
X13512Y-56535D01*
X13385Y-56928D01*
X13248Y-57318D01*
X13102Y-57704D01*
X12946Y-58087D01*
X12782Y-58466D01*
X12608Y-58841D01*
X12426Y-59212D01*
X12234Y-59578D01*
X12034Y-59939D01*
X11825Y-60296D01*
X11608Y-60647D01*
X11382Y-60993D01*
X11148Y-61334D01*
X10906Y-61668D01*
X10656Y-61997D01*
X10398Y-62320D01*
X10132Y-62636D01*
X9859Y-62946D01*
X9579Y-63250D01*
X9291Y-63546D01*
X8996Y-63836D01*
X8695Y-64118D01*
X8386Y-64393D01*
X8071Y-64660D01*
X7750Y-64920D01*
X7423Y-65172D01*
X7089Y-65416D01*
X6750Y-65652D01*
X6406Y-65880D01*
M02*
