G04 EAGLE Gerber RS-274X export*
G75*
%MOMM*%
%FSLAX34Y34*%
%LPD*%
%INSoldermask Bottom*%
%IPPOS*%
%AMOC8*
5,1,8,0,0,1.08239X$1,22.5*%
G01*
%ADD10C,1.401600*%
%ADD11C,0.851600*%
%ADD12C,0.635000*%


D10*
X-15000Y-27500D03*
X15000Y-27500D03*
X0Y50000D03*
D11*
X-59500Y44000D03*
X-65100Y34900D03*
X-54200Y37000D03*
X55000Y37000D03*
X0Y66000D03*
X0Y-61000D03*
X64000Y37000D03*
X57000Y46000D03*
D12*
X-19264Y63317D03*
X-14102Y68654D03*
X-21480Y56257D03*
X-7378Y71631D03*
X-34995Y56174D03*
X-31391Y62665D03*
X-35308Y48781D03*
X-25666Y67281D03*
X-48342Y45202D03*
X-46540Y52405D03*
X-46731Y37980D03*
X-42205Y58346D03*
X-63594Y-18329D03*
X-65259Y-25565D03*
X-58880Y-12625D03*
X-64093Y-32826D03*
X-56684Y-34164D03*
X-56419Y-41584D03*
X-53606Y-27434D03*
X-53413Y-48296D03*
X-45910Y-47671D03*
X-43733Y-54769D03*
X-44679Y-40374D03*
X-39093Y-60475D03*
X-32008Y-57929D03*
X-28068Y-64222D03*
X-32707Y-50562D03*
X-22109Y-68532D03*
X-15924Y-64239D03*
X-10490Y-69298D03*
X-18506Y-57304D03*
X-3619Y-71919D03*
X19264Y63317D03*
X14102Y68654D03*
X21480Y56257D03*
X7378Y71631D03*
X34995Y56174D03*
X31391Y62665D03*
X35308Y48781D03*
X25666Y67281D03*
X48342Y45202D03*
X46540Y52405D03*
X46731Y37980D03*
X42205Y58346D03*
X63594Y-18329D03*
X65259Y-25565D03*
X58880Y-12625D03*
X64093Y-32826D03*
X56684Y-34164D03*
X56419Y-41584D03*
X53606Y-27434D03*
X53413Y-48296D03*
X45910Y-47671D03*
X43733Y-54769D03*
X44679Y-40374D03*
X39093Y-60475D03*
X32008Y-57929D03*
X28068Y-64222D03*
X32707Y-50562D03*
X22109Y-68532D03*
X15924Y-64239D03*
X10490Y-69298D03*
X18506Y-57304D03*
X3619Y-71919D03*
M02*
