G04 EAGLE Gerber RS-274X export*
G75*
%MOMM*%
%FSLAX34Y34*%
%LPD*%
%INSolderpaste Top*%
%IPPOS*%
%AMOC8*
5,1,8,0,0,1.08239X$1,22.5*%
G01*
%ADD10R,0.200000X1.140000*%


D10*
X68000Y-1700D03*
X64000Y-1700D03*
X60000Y-1700D03*
X56000Y-1700D03*
X52000Y-1700D03*
X48000Y-1700D03*
X44000Y-1700D03*
X40000Y-1700D03*
X36000Y-1700D03*
X32000Y-1700D03*
X28000Y-1700D03*
X24000Y-1700D03*
X20000Y-1700D03*
X16000Y-1700D03*
X12000Y-1700D03*
X8000Y-1700D03*
X4000Y-1700D03*
X0Y-1700D03*
X-4000Y-1700D03*
X-8000Y-1700D03*
X-12000Y-1700D03*
X-16000Y-1700D03*
X-20000Y-1700D03*
X-24000Y-1700D03*
X-28000Y-1700D03*
X-32000Y-1700D03*
X-36000Y-1700D03*
X-40000Y-1700D03*
X-44000Y-1700D03*
X-48000Y-1700D03*
X-52000Y-1700D03*
X-56000Y-1700D03*
X-60000Y-1700D03*
X-64000Y-1700D03*
X-68000Y-1700D03*
X-68000Y21700D03*
X-64000Y21700D03*
X-60000Y21700D03*
X-56000Y21700D03*
X-52000Y21700D03*
X-48000Y21700D03*
X-44000Y21700D03*
X-40000Y21700D03*
X-36000Y21700D03*
X-32000Y21700D03*
X-28000Y21700D03*
X-24000Y21700D03*
X-20000Y21700D03*
X-16000Y21700D03*
X-12000Y21700D03*
X-8000Y21700D03*
X-4000Y21700D03*
X0Y21700D03*
X4000Y21700D03*
X8000Y21700D03*
X12000Y21700D03*
X16000Y21700D03*
X20000Y21700D03*
X24000Y21700D03*
X28000Y21700D03*
X32000Y21700D03*
X36000Y21700D03*
X40000Y21700D03*
X44000Y21700D03*
X48000Y21700D03*
X52000Y21700D03*
X56000Y21700D03*
X60000Y21700D03*
X64000Y21700D03*
X68000Y21700D03*
M02*
