G04 EAGLE Gerber RS-274X export*
G75*
%MOMM*%
%FSLAX34Y34*%
%LPD*%
%INSolderpaste Top*%
%IPPOS*%
%AMOC8*
5,1,8,0,0,1.08239X$1,22.5*%
G01*
%ADD10R,1.140000X0.200000*%


D10*
X211700Y288000D03*
X211700Y284000D03*
X211700Y280000D03*
X211700Y276000D03*
X211700Y272000D03*
X211700Y268000D03*
X211700Y264000D03*
X211700Y260000D03*
X211700Y256000D03*
X211700Y252000D03*
X211700Y248000D03*
X211700Y244000D03*
X211700Y240000D03*
X211700Y236000D03*
X211700Y232000D03*
X211700Y228000D03*
X211700Y224000D03*
X211700Y220000D03*
X211700Y216000D03*
X211700Y212000D03*
X211700Y208000D03*
X211700Y204000D03*
X211700Y200000D03*
X211700Y196000D03*
X211700Y192000D03*
X211700Y188000D03*
X211700Y184000D03*
X211700Y180000D03*
X211700Y176000D03*
X211700Y172000D03*
X211700Y168000D03*
X211700Y164000D03*
X211700Y160000D03*
X211700Y156000D03*
X211700Y152000D03*
X188300Y152000D03*
X188300Y156000D03*
X188300Y160000D03*
X188300Y164000D03*
X188300Y168000D03*
X188300Y172000D03*
X188300Y176000D03*
X188300Y180000D03*
X188300Y184000D03*
X188300Y188000D03*
X188300Y192000D03*
X188300Y196000D03*
X188300Y200000D03*
X188300Y204000D03*
X188300Y208000D03*
X188300Y212000D03*
X188300Y216000D03*
X188300Y220000D03*
X188300Y224000D03*
X188300Y228000D03*
X188300Y232000D03*
X188300Y236000D03*
X188300Y240000D03*
X188300Y244000D03*
X188300Y248000D03*
X188300Y252000D03*
X188300Y256000D03*
X188300Y260000D03*
X188300Y264000D03*
X188300Y268000D03*
X188300Y272000D03*
X188300Y276000D03*
X188300Y280000D03*
X188300Y284000D03*
X188300Y288000D03*
X411700Y288000D03*
X411700Y284000D03*
X411700Y280000D03*
X411700Y276000D03*
X411700Y272000D03*
X411700Y268000D03*
X411700Y264000D03*
X411700Y260000D03*
X411700Y256000D03*
X411700Y252000D03*
X411700Y248000D03*
X411700Y244000D03*
X411700Y240000D03*
X411700Y236000D03*
X411700Y232000D03*
X411700Y228000D03*
X411700Y224000D03*
X411700Y220000D03*
X411700Y216000D03*
X411700Y212000D03*
X411700Y208000D03*
X411700Y204000D03*
X411700Y200000D03*
X411700Y196000D03*
X411700Y192000D03*
X411700Y188000D03*
X411700Y184000D03*
X411700Y180000D03*
X411700Y176000D03*
X411700Y172000D03*
X411700Y168000D03*
X411700Y164000D03*
X411700Y160000D03*
X411700Y156000D03*
X411700Y152000D03*
X388300Y152000D03*
X388300Y156000D03*
X388300Y160000D03*
X388300Y164000D03*
X388300Y168000D03*
X388300Y172000D03*
X388300Y176000D03*
X388300Y180000D03*
X388300Y184000D03*
X388300Y188000D03*
X388300Y192000D03*
X388300Y196000D03*
X388300Y200000D03*
X388300Y204000D03*
X388300Y208000D03*
X388300Y212000D03*
X388300Y216000D03*
X388300Y220000D03*
X388300Y224000D03*
X388300Y228000D03*
X388300Y232000D03*
X388300Y236000D03*
X388300Y240000D03*
X388300Y244000D03*
X388300Y248000D03*
X388300Y252000D03*
X388300Y256000D03*
X388300Y260000D03*
X388300Y264000D03*
X388300Y268000D03*
X388300Y272000D03*
X388300Y276000D03*
X388300Y280000D03*
X388300Y284000D03*
X388300Y288000D03*
X611700Y288000D03*
X611700Y284000D03*
X611700Y280000D03*
X611700Y276000D03*
X611700Y272000D03*
X611700Y268000D03*
X611700Y264000D03*
X611700Y260000D03*
X611700Y256000D03*
X611700Y252000D03*
X611700Y248000D03*
X611700Y244000D03*
X611700Y240000D03*
X611700Y236000D03*
X611700Y232000D03*
X611700Y228000D03*
X611700Y224000D03*
X611700Y220000D03*
X611700Y216000D03*
X611700Y212000D03*
X611700Y208000D03*
X611700Y204000D03*
X611700Y200000D03*
X611700Y196000D03*
X611700Y192000D03*
X611700Y188000D03*
X611700Y184000D03*
X611700Y180000D03*
X611700Y176000D03*
X611700Y172000D03*
X611700Y168000D03*
X611700Y164000D03*
X611700Y160000D03*
X611700Y156000D03*
X611700Y152000D03*
X588300Y152000D03*
X588300Y156000D03*
X588300Y160000D03*
X588300Y164000D03*
X588300Y168000D03*
X588300Y172000D03*
X588300Y176000D03*
X588300Y180000D03*
X588300Y184000D03*
X588300Y188000D03*
X588300Y192000D03*
X588300Y196000D03*
X588300Y200000D03*
X588300Y204000D03*
X588300Y208000D03*
X588300Y212000D03*
X588300Y216000D03*
X588300Y220000D03*
X588300Y224000D03*
X588300Y228000D03*
X588300Y232000D03*
X588300Y236000D03*
X588300Y240000D03*
X588300Y244000D03*
X588300Y248000D03*
X588300Y252000D03*
X588300Y256000D03*
X588300Y260000D03*
X588300Y264000D03*
X588300Y268000D03*
X588300Y272000D03*
X588300Y276000D03*
X588300Y280000D03*
X588300Y284000D03*
X588300Y288000D03*
X811700Y288000D03*
X811700Y284000D03*
X811700Y280000D03*
X811700Y276000D03*
X811700Y272000D03*
X811700Y268000D03*
X811700Y264000D03*
X811700Y260000D03*
X811700Y256000D03*
X811700Y252000D03*
X811700Y248000D03*
X811700Y244000D03*
X811700Y240000D03*
X811700Y236000D03*
X811700Y232000D03*
X811700Y228000D03*
X811700Y224000D03*
X811700Y220000D03*
X811700Y216000D03*
X811700Y212000D03*
X811700Y208000D03*
X811700Y204000D03*
X811700Y200000D03*
X811700Y196000D03*
X811700Y192000D03*
X811700Y188000D03*
X811700Y184000D03*
X811700Y180000D03*
X811700Y176000D03*
X811700Y172000D03*
X811700Y168000D03*
X811700Y164000D03*
X811700Y160000D03*
X811700Y156000D03*
X811700Y152000D03*
X788300Y152000D03*
X788300Y156000D03*
X788300Y160000D03*
X788300Y164000D03*
X788300Y168000D03*
X788300Y172000D03*
X788300Y176000D03*
X788300Y180000D03*
X788300Y184000D03*
X788300Y188000D03*
X788300Y192000D03*
X788300Y196000D03*
X788300Y200000D03*
X788300Y204000D03*
X788300Y208000D03*
X788300Y212000D03*
X788300Y216000D03*
X788300Y220000D03*
X788300Y224000D03*
X788300Y228000D03*
X788300Y232000D03*
X788300Y236000D03*
X788300Y240000D03*
X788300Y244000D03*
X788300Y248000D03*
X788300Y252000D03*
X788300Y256000D03*
X788300Y260000D03*
X788300Y264000D03*
X788300Y268000D03*
X788300Y272000D03*
X788300Y276000D03*
X788300Y280000D03*
X788300Y284000D03*
X788300Y288000D03*
X411700Y518000D03*
X411700Y514000D03*
X411700Y510000D03*
X411700Y506000D03*
X411700Y502000D03*
X411700Y498000D03*
X411700Y494000D03*
X411700Y490000D03*
X411700Y486000D03*
X411700Y482000D03*
X411700Y478000D03*
X411700Y474000D03*
X411700Y470000D03*
X411700Y466000D03*
X411700Y462000D03*
X411700Y458000D03*
X411700Y454000D03*
X411700Y450000D03*
X411700Y446000D03*
X411700Y442000D03*
X411700Y438000D03*
X411700Y434000D03*
X411700Y430000D03*
X411700Y426000D03*
X411700Y422000D03*
X411700Y418000D03*
X411700Y414000D03*
X411700Y410000D03*
X411700Y406000D03*
X411700Y402000D03*
X411700Y398000D03*
X411700Y394000D03*
X411700Y390000D03*
X411700Y386000D03*
X411700Y382000D03*
X388300Y382000D03*
X388300Y386000D03*
X388300Y390000D03*
X388300Y394000D03*
X388300Y398000D03*
X388300Y402000D03*
X388300Y406000D03*
X388300Y410000D03*
X388300Y414000D03*
X388300Y418000D03*
X388300Y422000D03*
X388300Y426000D03*
X388300Y430000D03*
X388300Y434000D03*
X388300Y438000D03*
X388300Y442000D03*
X388300Y446000D03*
X388300Y450000D03*
X388300Y454000D03*
X388300Y458000D03*
X388300Y462000D03*
X388300Y466000D03*
X388300Y470000D03*
X388300Y474000D03*
X388300Y478000D03*
X388300Y482000D03*
X388300Y486000D03*
X388300Y490000D03*
X388300Y494000D03*
X388300Y498000D03*
X388300Y502000D03*
X388300Y506000D03*
X388300Y510000D03*
X388300Y514000D03*
X388300Y518000D03*
X611700Y518000D03*
X611700Y514000D03*
X611700Y510000D03*
X611700Y506000D03*
X611700Y502000D03*
X611700Y498000D03*
X611700Y494000D03*
X611700Y490000D03*
X611700Y486000D03*
X611700Y482000D03*
X611700Y478000D03*
X611700Y474000D03*
X611700Y470000D03*
X611700Y466000D03*
X611700Y462000D03*
X611700Y458000D03*
X611700Y454000D03*
X611700Y450000D03*
X611700Y446000D03*
X611700Y442000D03*
X611700Y438000D03*
X611700Y434000D03*
X611700Y430000D03*
X611700Y426000D03*
X611700Y422000D03*
X611700Y418000D03*
X611700Y414000D03*
X611700Y410000D03*
X611700Y406000D03*
X611700Y402000D03*
X611700Y398000D03*
X611700Y394000D03*
X611700Y390000D03*
X611700Y386000D03*
X611700Y382000D03*
X588300Y382000D03*
X588300Y386000D03*
X588300Y390000D03*
X588300Y394000D03*
X588300Y398000D03*
X588300Y402000D03*
X588300Y406000D03*
X588300Y410000D03*
X588300Y414000D03*
X588300Y418000D03*
X588300Y422000D03*
X588300Y426000D03*
X588300Y430000D03*
X588300Y434000D03*
X588300Y438000D03*
X588300Y442000D03*
X588300Y446000D03*
X588300Y450000D03*
X588300Y454000D03*
X588300Y458000D03*
X588300Y462000D03*
X588300Y466000D03*
X588300Y470000D03*
X588300Y474000D03*
X588300Y478000D03*
X588300Y482000D03*
X588300Y486000D03*
X588300Y490000D03*
X588300Y494000D03*
X588300Y498000D03*
X588300Y502000D03*
X588300Y506000D03*
X588300Y510000D03*
X588300Y514000D03*
X588300Y518000D03*
X811700Y518000D03*
X811700Y514000D03*
X811700Y510000D03*
X811700Y506000D03*
X811700Y502000D03*
X811700Y498000D03*
X811700Y494000D03*
X811700Y490000D03*
X811700Y486000D03*
X811700Y482000D03*
X811700Y478000D03*
X811700Y474000D03*
X811700Y470000D03*
X811700Y466000D03*
X811700Y462000D03*
X811700Y458000D03*
X811700Y454000D03*
X811700Y450000D03*
X811700Y446000D03*
X811700Y442000D03*
X811700Y438000D03*
X811700Y434000D03*
X811700Y430000D03*
X811700Y426000D03*
X811700Y422000D03*
X811700Y418000D03*
X811700Y414000D03*
X811700Y410000D03*
X811700Y406000D03*
X811700Y402000D03*
X811700Y398000D03*
X811700Y394000D03*
X811700Y390000D03*
X811700Y386000D03*
X811700Y382000D03*
X788300Y382000D03*
X788300Y386000D03*
X788300Y390000D03*
X788300Y394000D03*
X788300Y398000D03*
X788300Y402000D03*
X788300Y406000D03*
X788300Y410000D03*
X788300Y414000D03*
X788300Y418000D03*
X788300Y422000D03*
X788300Y426000D03*
X788300Y430000D03*
X788300Y434000D03*
X788300Y438000D03*
X788300Y442000D03*
X788300Y446000D03*
X788300Y450000D03*
X788300Y454000D03*
X788300Y458000D03*
X788300Y462000D03*
X788300Y466000D03*
X788300Y470000D03*
X788300Y474000D03*
X788300Y478000D03*
X788300Y482000D03*
X788300Y486000D03*
X788300Y490000D03*
X788300Y494000D03*
X788300Y498000D03*
X788300Y502000D03*
X788300Y506000D03*
X788300Y510000D03*
X788300Y514000D03*
X788300Y518000D03*
X411700Y748000D03*
X411700Y744000D03*
X411700Y740000D03*
X411700Y736000D03*
X411700Y732000D03*
X411700Y728000D03*
X411700Y724000D03*
X411700Y720000D03*
X411700Y716000D03*
X411700Y712000D03*
X411700Y708000D03*
X411700Y704000D03*
X411700Y700000D03*
X411700Y696000D03*
X411700Y692000D03*
X411700Y688000D03*
X411700Y684000D03*
X411700Y680000D03*
X411700Y676000D03*
X411700Y672000D03*
X411700Y668000D03*
X411700Y664000D03*
X411700Y660000D03*
X411700Y656000D03*
X411700Y652000D03*
X411700Y648000D03*
X411700Y644000D03*
X411700Y640000D03*
X411700Y636000D03*
X411700Y632000D03*
X411700Y628000D03*
X411700Y624000D03*
X411700Y620000D03*
X411700Y616000D03*
X411700Y612000D03*
X388300Y612000D03*
X388300Y616000D03*
X388300Y620000D03*
X388300Y624000D03*
X388300Y628000D03*
X388300Y632000D03*
X388300Y636000D03*
X388300Y640000D03*
X388300Y644000D03*
X388300Y648000D03*
X388300Y652000D03*
X388300Y656000D03*
X388300Y660000D03*
X388300Y664000D03*
X388300Y668000D03*
X388300Y672000D03*
X388300Y676000D03*
X388300Y680000D03*
X388300Y684000D03*
X388300Y688000D03*
X388300Y692000D03*
X388300Y696000D03*
X388300Y700000D03*
X388300Y704000D03*
X388300Y708000D03*
X388300Y712000D03*
X388300Y716000D03*
X388300Y720000D03*
X388300Y724000D03*
X388300Y728000D03*
X388300Y732000D03*
X388300Y736000D03*
X388300Y740000D03*
X388300Y744000D03*
X388300Y748000D03*
X611700Y748000D03*
X611700Y744000D03*
X611700Y740000D03*
X611700Y736000D03*
X611700Y732000D03*
X611700Y728000D03*
X611700Y724000D03*
X611700Y720000D03*
X611700Y716000D03*
X611700Y712000D03*
X611700Y708000D03*
X611700Y704000D03*
X611700Y700000D03*
X611700Y696000D03*
X611700Y692000D03*
X611700Y688000D03*
X611700Y684000D03*
X611700Y680000D03*
X611700Y676000D03*
X611700Y672000D03*
X611700Y668000D03*
X611700Y664000D03*
X611700Y660000D03*
X611700Y656000D03*
X611700Y652000D03*
X611700Y648000D03*
X611700Y644000D03*
X611700Y640000D03*
X611700Y636000D03*
X611700Y632000D03*
X611700Y628000D03*
X611700Y624000D03*
X611700Y620000D03*
X611700Y616000D03*
X611700Y612000D03*
X588300Y612000D03*
X588300Y616000D03*
X588300Y620000D03*
X588300Y624000D03*
X588300Y628000D03*
X588300Y632000D03*
X588300Y636000D03*
X588300Y640000D03*
X588300Y644000D03*
X588300Y648000D03*
X588300Y652000D03*
X588300Y656000D03*
X588300Y660000D03*
X588300Y664000D03*
X588300Y668000D03*
X588300Y672000D03*
X588300Y676000D03*
X588300Y680000D03*
X588300Y684000D03*
X588300Y688000D03*
X588300Y692000D03*
X588300Y696000D03*
X588300Y700000D03*
X588300Y704000D03*
X588300Y708000D03*
X588300Y712000D03*
X588300Y716000D03*
X588300Y720000D03*
X588300Y724000D03*
X588300Y728000D03*
X588300Y732000D03*
X588300Y736000D03*
X588300Y740000D03*
X588300Y744000D03*
X588300Y748000D03*
X811700Y748000D03*
X811700Y744000D03*
X811700Y740000D03*
X811700Y736000D03*
X811700Y732000D03*
X811700Y728000D03*
X811700Y724000D03*
X811700Y720000D03*
X811700Y716000D03*
X811700Y712000D03*
X811700Y708000D03*
X811700Y704000D03*
X811700Y700000D03*
X811700Y696000D03*
X811700Y692000D03*
X811700Y688000D03*
X811700Y684000D03*
X811700Y680000D03*
X811700Y676000D03*
X811700Y672000D03*
X811700Y668000D03*
X811700Y664000D03*
X811700Y660000D03*
X811700Y656000D03*
X811700Y652000D03*
X811700Y648000D03*
X811700Y644000D03*
X811700Y640000D03*
X811700Y636000D03*
X811700Y632000D03*
X811700Y628000D03*
X811700Y624000D03*
X811700Y620000D03*
X811700Y616000D03*
X811700Y612000D03*
X788300Y612000D03*
X788300Y616000D03*
X788300Y620000D03*
X788300Y624000D03*
X788300Y628000D03*
X788300Y632000D03*
X788300Y636000D03*
X788300Y640000D03*
X788300Y644000D03*
X788300Y648000D03*
X788300Y652000D03*
X788300Y656000D03*
X788300Y660000D03*
X788300Y664000D03*
X788300Y668000D03*
X788300Y672000D03*
X788300Y676000D03*
X788300Y680000D03*
X788300Y684000D03*
X788300Y688000D03*
X788300Y692000D03*
X788300Y696000D03*
X788300Y700000D03*
X788300Y704000D03*
X788300Y708000D03*
X788300Y712000D03*
X788300Y716000D03*
X788300Y720000D03*
X788300Y724000D03*
X788300Y728000D03*
X788300Y732000D03*
X788300Y736000D03*
X788300Y740000D03*
X788300Y744000D03*
X788300Y748000D03*
X411700Y978000D03*
X411700Y974000D03*
X411700Y970000D03*
X411700Y966000D03*
X411700Y962000D03*
X411700Y958000D03*
X411700Y954000D03*
X411700Y950000D03*
X411700Y946000D03*
X411700Y942000D03*
X411700Y938000D03*
X411700Y934000D03*
X411700Y930000D03*
X411700Y926000D03*
X411700Y922000D03*
X411700Y918000D03*
X411700Y914000D03*
X411700Y910000D03*
X411700Y906000D03*
X411700Y902000D03*
X411700Y898000D03*
X411700Y894000D03*
X411700Y890000D03*
X411700Y886000D03*
X411700Y882000D03*
X411700Y878000D03*
X411700Y874000D03*
X411700Y870000D03*
X411700Y866000D03*
X411700Y862000D03*
X411700Y858000D03*
X411700Y854000D03*
X411700Y850000D03*
X411700Y846000D03*
X411700Y842000D03*
X388300Y842000D03*
X388300Y846000D03*
X388300Y850000D03*
X388300Y854000D03*
X388300Y858000D03*
X388300Y862000D03*
X388300Y866000D03*
X388300Y870000D03*
X388300Y874000D03*
X388300Y878000D03*
X388300Y882000D03*
X388300Y886000D03*
X388300Y890000D03*
X388300Y894000D03*
X388300Y898000D03*
X388300Y902000D03*
X388300Y906000D03*
X388300Y910000D03*
X388300Y914000D03*
X388300Y918000D03*
X388300Y922000D03*
X388300Y926000D03*
X388300Y930000D03*
X388300Y934000D03*
X388300Y938000D03*
X388300Y942000D03*
X388300Y946000D03*
X388300Y950000D03*
X388300Y954000D03*
X388300Y958000D03*
X388300Y962000D03*
X388300Y966000D03*
X388300Y970000D03*
X388300Y974000D03*
X388300Y978000D03*
X611700Y978000D03*
X611700Y974000D03*
X611700Y970000D03*
X611700Y966000D03*
X611700Y962000D03*
X611700Y958000D03*
X611700Y954000D03*
X611700Y950000D03*
X611700Y946000D03*
X611700Y942000D03*
X611700Y938000D03*
X611700Y934000D03*
X611700Y930000D03*
X611700Y926000D03*
X611700Y922000D03*
X611700Y918000D03*
X611700Y914000D03*
X611700Y910000D03*
X611700Y906000D03*
X611700Y902000D03*
X611700Y898000D03*
X611700Y894000D03*
X611700Y890000D03*
X611700Y886000D03*
X611700Y882000D03*
X611700Y878000D03*
X611700Y874000D03*
X611700Y870000D03*
X611700Y866000D03*
X611700Y862000D03*
X611700Y858000D03*
X611700Y854000D03*
X611700Y850000D03*
X611700Y846000D03*
X611700Y842000D03*
X588300Y842000D03*
X588300Y846000D03*
X588300Y850000D03*
X588300Y854000D03*
X588300Y858000D03*
X588300Y862000D03*
X588300Y866000D03*
X588300Y870000D03*
X588300Y874000D03*
X588300Y878000D03*
X588300Y882000D03*
X588300Y886000D03*
X588300Y890000D03*
X588300Y894000D03*
X588300Y898000D03*
X588300Y902000D03*
X588300Y906000D03*
X588300Y910000D03*
X588300Y914000D03*
X588300Y918000D03*
X588300Y922000D03*
X588300Y926000D03*
X588300Y930000D03*
X588300Y934000D03*
X588300Y938000D03*
X588300Y942000D03*
X588300Y946000D03*
X588300Y950000D03*
X588300Y954000D03*
X588300Y958000D03*
X588300Y962000D03*
X588300Y966000D03*
X588300Y970000D03*
X588300Y974000D03*
X588300Y978000D03*
X811700Y978000D03*
X811700Y974000D03*
X811700Y970000D03*
X811700Y966000D03*
X811700Y962000D03*
X811700Y958000D03*
X811700Y954000D03*
X811700Y950000D03*
X811700Y946000D03*
X811700Y942000D03*
X811700Y938000D03*
X811700Y934000D03*
X811700Y930000D03*
X811700Y926000D03*
X811700Y922000D03*
X811700Y918000D03*
X811700Y914000D03*
X811700Y910000D03*
X811700Y906000D03*
X811700Y902000D03*
X811700Y898000D03*
X811700Y894000D03*
X811700Y890000D03*
X811700Y886000D03*
X811700Y882000D03*
X811700Y878000D03*
X811700Y874000D03*
X811700Y870000D03*
X811700Y866000D03*
X811700Y862000D03*
X811700Y858000D03*
X811700Y854000D03*
X811700Y850000D03*
X811700Y846000D03*
X811700Y842000D03*
X788300Y842000D03*
X788300Y846000D03*
X788300Y850000D03*
X788300Y854000D03*
X788300Y858000D03*
X788300Y862000D03*
X788300Y866000D03*
X788300Y870000D03*
X788300Y874000D03*
X788300Y878000D03*
X788300Y882000D03*
X788300Y886000D03*
X788300Y890000D03*
X788300Y894000D03*
X788300Y898000D03*
X788300Y902000D03*
X788300Y906000D03*
X788300Y910000D03*
X788300Y914000D03*
X788300Y918000D03*
X788300Y922000D03*
X788300Y926000D03*
X788300Y930000D03*
X788300Y934000D03*
X788300Y938000D03*
X788300Y942000D03*
X788300Y946000D03*
X788300Y950000D03*
X788300Y954000D03*
X788300Y958000D03*
X788300Y962000D03*
X788300Y966000D03*
X788300Y970000D03*
X788300Y974000D03*
X788300Y978000D03*
X211700Y518000D03*
X211700Y514000D03*
X211700Y510000D03*
X211700Y506000D03*
X211700Y502000D03*
X211700Y498000D03*
X211700Y494000D03*
X211700Y490000D03*
X211700Y486000D03*
X211700Y482000D03*
X211700Y478000D03*
X211700Y474000D03*
X211700Y470000D03*
X211700Y466000D03*
X211700Y462000D03*
X211700Y458000D03*
X211700Y454000D03*
X211700Y450000D03*
X211700Y446000D03*
X211700Y442000D03*
X211700Y438000D03*
X211700Y434000D03*
X211700Y430000D03*
X211700Y426000D03*
X211700Y422000D03*
X211700Y418000D03*
X211700Y414000D03*
X211700Y410000D03*
X211700Y406000D03*
X211700Y402000D03*
X211700Y398000D03*
X211700Y394000D03*
X211700Y390000D03*
X211700Y386000D03*
X211700Y382000D03*
X188300Y382000D03*
X188300Y386000D03*
X188300Y390000D03*
X188300Y394000D03*
X188300Y398000D03*
X188300Y402000D03*
X188300Y406000D03*
X188300Y410000D03*
X188300Y414000D03*
X188300Y418000D03*
X188300Y422000D03*
X188300Y426000D03*
X188300Y430000D03*
X188300Y434000D03*
X188300Y438000D03*
X188300Y442000D03*
X188300Y446000D03*
X188300Y450000D03*
X188300Y454000D03*
X188300Y458000D03*
X188300Y462000D03*
X188300Y466000D03*
X188300Y470000D03*
X188300Y474000D03*
X188300Y478000D03*
X188300Y482000D03*
X188300Y486000D03*
X188300Y490000D03*
X188300Y494000D03*
X188300Y498000D03*
X188300Y502000D03*
X188300Y506000D03*
X188300Y510000D03*
X188300Y514000D03*
X188300Y518000D03*
X211700Y748000D03*
X211700Y744000D03*
X211700Y740000D03*
X211700Y736000D03*
X211700Y732000D03*
X211700Y728000D03*
X211700Y724000D03*
X211700Y720000D03*
X211700Y716000D03*
X211700Y712000D03*
X211700Y708000D03*
X211700Y704000D03*
X211700Y700000D03*
X211700Y696000D03*
X211700Y692000D03*
X211700Y688000D03*
X211700Y684000D03*
X211700Y680000D03*
X211700Y676000D03*
X211700Y672000D03*
X211700Y668000D03*
X211700Y664000D03*
X211700Y660000D03*
X211700Y656000D03*
X211700Y652000D03*
X211700Y648000D03*
X211700Y644000D03*
X211700Y640000D03*
X211700Y636000D03*
X211700Y632000D03*
X211700Y628000D03*
X211700Y624000D03*
X211700Y620000D03*
X211700Y616000D03*
X211700Y612000D03*
X188300Y612000D03*
X188300Y616000D03*
X188300Y620000D03*
X188300Y624000D03*
X188300Y628000D03*
X188300Y632000D03*
X188300Y636000D03*
X188300Y640000D03*
X188300Y644000D03*
X188300Y648000D03*
X188300Y652000D03*
X188300Y656000D03*
X188300Y660000D03*
X188300Y664000D03*
X188300Y668000D03*
X188300Y672000D03*
X188300Y676000D03*
X188300Y680000D03*
X188300Y684000D03*
X188300Y688000D03*
X188300Y692000D03*
X188300Y696000D03*
X188300Y700000D03*
X188300Y704000D03*
X188300Y708000D03*
X188300Y712000D03*
X188300Y716000D03*
X188300Y720000D03*
X188300Y724000D03*
X188300Y728000D03*
X188300Y732000D03*
X188300Y736000D03*
X188300Y740000D03*
X188300Y744000D03*
X188300Y748000D03*
X211700Y978000D03*
X211700Y974000D03*
X211700Y970000D03*
X211700Y966000D03*
X211700Y962000D03*
X211700Y958000D03*
X211700Y954000D03*
X211700Y950000D03*
X211700Y946000D03*
X211700Y942000D03*
X211700Y938000D03*
X211700Y934000D03*
X211700Y930000D03*
X211700Y926000D03*
X211700Y922000D03*
X211700Y918000D03*
X211700Y914000D03*
X211700Y910000D03*
X211700Y906000D03*
X211700Y902000D03*
X211700Y898000D03*
X211700Y894000D03*
X211700Y890000D03*
X211700Y886000D03*
X211700Y882000D03*
X211700Y878000D03*
X211700Y874000D03*
X211700Y870000D03*
X211700Y866000D03*
X211700Y862000D03*
X211700Y858000D03*
X211700Y854000D03*
X211700Y850000D03*
X211700Y846000D03*
X211700Y842000D03*
X188300Y842000D03*
X188300Y846000D03*
X188300Y850000D03*
X188300Y854000D03*
X188300Y858000D03*
X188300Y862000D03*
X188300Y866000D03*
X188300Y870000D03*
X188300Y874000D03*
X188300Y878000D03*
X188300Y882000D03*
X188300Y886000D03*
X188300Y890000D03*
X188300Y894000D03*
X188300Y898000D03*
X188300Y902000D03*
X188300Y906000D03*
X188300Y910000D03*
X188300Y914000D03*
X188300Y918000D03*
X188300Y922000D03*
X188300Y926000D03*
X188300Y930000D03*
X188300Y934000D03*
X188300Y938000D03*
X188300Y942000D03*
X188300Y946000D03*
X188300Y950000D03*
X188300Y954000D03*
X188300Y958000D03*
X188300Y962000D03*
X188300Y966000D03*
X188300Y970000D03*
X188300Y974000D03*
X188300Y978000D03*
M02*
