M48
;GenerationSoftware,Autodesk,EAGLE,9.5.1*%
;CreationDate,2022-12-29T14:57:19Z*%
FMAT,2
ICI,OFF
METRIC,TZ,000.000
T5C0.200
T4C0.305
T3C0.450
T2C0.500
T1C1.300
%
G90
M71
T1
X63750Y69500
X56000Y68000
X76000Y91000
X16000Y45000
X23750Y89500
X63750Y43500
X63750Y46500
X56000Y45000
X23750Y20500
X23750Y23500
X16000Y22000
X63750Y89500
X63750Y92500
X56000Y91000
X83750Y66500
X83750Y69500
X76000Y68000
X43750Y20500
X43750Y23500
X36000Y22000
X83750Y43500
X83750Y46500
X76000Y45000
X23750Y66500
X23750Y69500
X16000Y91000
X63750Y20500
X63750Y23500
X56000Y22000
X23750Y92500
X23750Y43500
X23750Y46500
X43750Y66500
X43750Y69500
X36000Y68000
X83750Y20500
X83750Y23500
X76000Y22000
X43750Y89500
X43750Y92500
X36000Y91000
X83750Y89500
X16000Y68000
X83750Y92500
X43750Y43500
X43750Y46500
X36000Y45000
X63750Y66500
T2
X36400Y50700
X76600Y16050
X77510Y38490
X77300Y39580
X77300Y50500
X74400Y45000
X87100Y45000
X77300Y51400
X76400Y50700
X36600Y39050
X37510Y38490
X37300Y39580
X37300Y50500
X34400Y45000
X47100Y45000
X37300Y51400
X36600Y62050
X37510Y61490
X37300Y62580
X37300Y73500
X34400Y68000
X47100Y68000
X37300Y74400
X36400Y73700
X56600Y62050
X36600Y16050
X57510Y61490
X57300Y62580
X57300Y73500
X54400Y68000
X67100Y68000
X57300Y74400
X56400Y73700
X76600Y62050
X77510Y61490
X77300Y62580
X77300Y73500
X74400Y68000
X87100Y68000
X77300Y74400
X76400Y73700
X36600Y85050
X37510Y84490
X37300Y85580
X37300Y96500
X34400Y91000
X47100Y91000
X37300Y97400
X36400Y96700
X56600Y85050
X57510Y84490
X57300Y85580
X57300Y96500
X54400Y91000
X57300Y97400
X56400Y96700
X76600Y85050
X77510Y84490
X77300Y85580
X77300Y96500
X74400Y91000
X87100Y91000
X77300Y97400
X76400Y96700
X16600Y39050
X17510Y38490
X17300Y39580
X17300Y50500
X14400Y45000
X27100Y45000
X17300Y51400
X16400Y50700
X16600Y62050
X17510Y61490
X17300Y62580
X17300Y73500
X14400Y68000
X27100Y68000
X17300Y74400
X16400Y73700
X16600Y85050
X17510Y84490
X17300Y85580
X17300Y96500
X14400Y91000
X27100Y91000
X17300Y97400
X16400Y96700
X67100Y91000
X16600Y16050
X17510Y15490
X17300Y16580
X17300Y27500
X14400Y22000
X27100Y22000
X17300Y28400
X16400Y27700
X56600Y16050
X57510Y15490
X57300Y16580
X57300Y27500
X54400Y22000
X67100Y22000
X57300Y28400
X56400Y27700
X77510Y15490
X77300Y16580
X77300Y27500
X74400Y22000
X87100Y22000
X77300Y28400
X76400Y27700
X56600Y39050
X37510Y15490
X37300Y16580
X37300Y27500
X34400Y22000
X47100Y22000
X37300Y28400
X36400Y27700
X57510Y38490
X57300Y39580
X57300Y50500
X54400Y45000
X67100Y45000
X57300Y51400
X56400Y50700
X76600Y39050
T3
X12800Y22600
X12800Y22000
X12800Y21400
X29200Y21400
X29200Y22000
X29200Y22600
X32800Y22600
X32800Y22000
X32800Y21400
X49200Y21400
X49200Y22000
X49200Y22600
X52800Y22600
X52800Y22000
X52800Y21400
X69200Y21400
X69200Y22000
X69200Y22600
X72800Y22600
X72800Y22000
X72800Y21400
X89200Y21400
X89200Y22000
X32800Y45600
X32800Y45000
X32800Y44400
X49200Y44400
X49200Y45000
X49200Y45600
X52800Y45600
X52800Y45000
X52800Y44400
X69200Y44400
X69200Y45000
X69200Y45600
X72800Y45600
X72800Y45000
X72800Y44400
X89200Y44400
X89200Y45000
X89200Y45600
X32800Y68600
X32800Y68000
X32800Y67400
X49200Y67400
X49200Y68000
X49200Y68600
X52800Y68600
X52800Y68000
X52800Y67400
X69200Y67400
X69200Y68000
X69200Y68600
X72800Y68600
X72800Y68000
X72800Y67400
X89200Y67400
X89200Y68000
X89200Y68600
X32800Y91600
X32800Y91000
X32800Y90400
X49200Y90400
X49200Y91000
X49200Y91600
X52800Y91600
X52800Y90400
X69200Y90400
X69200Y91000
X69200Y91600
X72800Y91600
X72800Y91000
X72800Y90400
X89200Y90400
X89200Y91000
X89200Y91600
X12800Y45600
X12800Y45000
X12800Y44400
X29200Y44400
X29200Y45000
X29200Y45600
X12800Y68600
X12800Y68000
X12800Y67400
X29200Y91000
X29200Y91600
X52800Y91000
X29200Y68600
X29200Y68000
X29200Y67400
X12800Y91600
X12800Y91000
X12800Y90400
X89200Y22600
X29200Y90400
T4
X36122Y18469
X34272Y19433
X36480Y17166
X35759Y17346
X37202Y17327
X35165Y17780
X42833Y15641
X43556Y15474
X42263Y16112
X44283Y15591
X44416Y16332
X45158Y16358
X43743Y16639
X45830Y16659
X45767Y17409
X46477Y17627
X45037Y17532
X47047Y18091
X46793Y18799
X47422Y19193
X46056Y18729
X47853Y19789
X47424Y20408
X47930Y20951
X46730Y20149
X48192Y21638
X34668Y23926
X34135Y23410
X35374Y24148
X33837Y22738
X35383Y25500
X34733Y25139
X36122Y25531
X34272Y24567
X36480Y26834
X35759Y26654
X37202Y26673
X35165Y26220
X42833Y28359
X43556Y28526
X42263Y27888
X44283Y28409
X44416Y27668
X45158Y27642
X43743Y27361
X45830Y27341
X45767Y26591
X46477Y26373
X45037Y26468
X47047Y25909
X46793Y25201
X47422Y24807
X46056Y25271
X47853Y24211
X47424Y23592
X47930Y23049
X46730Y23851
X48192Y22362
X54668Y20074
X54135Y20590
X55374Y19852
X53837Y21262
X54733Y18861
X56122Y18469
X54272Y19433
X56480Y17166
X55759Y17346
X57202Y17327
X55165Y17780
X62833Y15641
X63556Y15474
X62263Y16112
X64283Y15591
X64416Y16332
X65158Y16358
X63743Y16639
X65830Y16659
X65767Y17409
X66477Y17627
X65037Y17532
X67047Y18091
X66793Y18799
X67422Y19193
X66056Y18729
X67853Y19789
X67424Y20408
X67930Y20951
X66730Y20149
X68192Y21638
X54668Y23926
X54135Y23410
X55374Y24148
X53837Y22738
X55383Y25500
X54733Y25139
X56122Y25531
X54272Y24567
X56480Y26834
X55759Y26654
X57202Y26673
X55165Y26220
X62833Y28359
X63556Y28526
X62263Y27888
X64283Y28409
X64416Y27668
X65158Y27642
X63743Y27361
X65830Y27341
X65767Y26591
X66477Y26373
X65037Y26468
X67047Y25909
X66793Y25201
X67422Y24807
X66056Y25271
X67853Y24211
X67424Y23592
X67930Y23049
X66730Y23851
X68192Y22362
X74668Y20074
X74135Y20590
X75374Y19852
X73837Y21262
X75383Y18500
X74733Y18861
X76122Y18469
X74272Y19433
X76480Y17166
X75759Y17346
X77202Y17327
X75165Y17780
X82833Y15641
X83556Y15474
X82263Y16112
X84283Y15591
X84416Y16332
X85158Y16358
X83743Y16639
X85830Y16659
X85767Y17409
X86477Y17627
X85037Y17532
X87047Y18091
X86793Y18799
X87422Y19193
X86056Y18729
X87853Y19789
X87424Y20408
X87930Y20951
X86730Y20149
X88192Y21638
X74668Y23926
X74135Y23410
X75374Y24148
X73837Y22738
X75383Y25500
X74733Y25139
X76122Y25531
X74272Y24567
X76480Y26834
X75759Y26654
X77202Y26673
X75165Y26220
X82833Y28359
X83556Y28526
X82263Y27888
X84283Y28409
X84416Y27668
X85158Y27642
X83743Y27361
X85830Y27341
X85767Y26591
X86477Y26373
X85037Y26468
X87047Y25909
X86793Y25201
X87422Y24807
X86056Y25271
X87853Y24211
X87424Y23592
X87930Y23049
X86730Y23851
X88192Y22362
X34668Y43074
X34135Y43590
X35374Y42852
X33837Y44262
X35383Y41500
X34733Y41861
X36122Y41469
X34272Y42433
X36480Y40166
X35759Y40346
X37202Y40327
X35165Y40780
X42833Y38641
X43556Y38474
X42263Y39112
X44283Y38591
X44416Y39332
X45158Y39358
X43743Y39639
X45830Y39659
X45767Y40409
X46477Y40627
X45037Y40532
X47047Y41091
X46793Y41799
X47422Y42193
X46056Y41729
X47853Y42789
X47424Y43408
X47930Y43951
X46730Y43149
X48192Y44638
X34668Y46926
X34135Y46410
X35374Y47148
X33837Y45738
X35383Y48500
X34733Y48139
X36122Y48531
X34272Y47567
X36480Y49834
X35759Y49654
X37202Y49673
X35165Y49220
X42833Y51359
X43556Y51526
X42263Y50888
X44283Y51409
X44416Y50668
X45158Y50642
X43743Y50361
X45830Y50341
X45767Y49591
X46477Y49373
X45037Y49468
X47047Y48909
X46793Y48201
X47422Y47807
X46056Y48271
X47853Y47211
X47424Y46592
X47930Y46049
X46730Y46851
X48192Y45362
X54668Y43074
X54135Y43590
X55374Y42852
X53837Y44262
X55383Y41500
X54733Y41861
X56122Y41469
X54272Y42433
X56480Y40166
X55759Y40346
X57202Y40327
X55165Y40780
X62833Y38641
X63556Y38474
X62263Y39112
X64283Y38591
X64416Y39332
X65158Y39358
X63743Y39639
X65830Y39659
X65767Y40409
X66477Y40627
X65037Y40532
X67047Y41091
X66793Y41799
X67422Y42193
X66056Y41729
X67853Y42789
X67424Y43408
X67930Y43951
X66730Y43149
X68192Y44638
X54668Y46926
X54135Y46410
X55374Y47148
X53837Y45738
X55383Y48500
X54733Y48139
X56122Y48531
X54272Y47567
X56480Y49834
X55759Y49654
X57202Y49673
X55165Y49220
X62833Y51359
X63556Y51526
X62263Y50888
X64283Y51409
X64416Y50668
X65158Y50642
X63743Y50361
X65830Y50341
X65767Y49591
X66477Y49373
X65037Y49468
X67047Y48909
X66793Y48201
X67422Y47807
X66056Y48271
X67853Y47211
X67424Y46592
X67930Y46049
X66730Y46851
X68192Y45362
X74668Y43074
X74135Y43590
X75374Y42852
X73837Y44262
X75383Y41500
X74733Y41861
X76122Y41469
X74272Y42433
X76480Y40166
X75759Y40346
X77202Y40327
X75165Y40780
X82833Y38641
X83556Y38474
X82263Y39112
X84283Y38591
X84416Y39332
X85158Y39358
X83743Y39639
X85830Y39659
X85767Y40409
X86477Y40627
X85037Y40532
X87047Y41091
X86793Y41799
X87422Y42193
X86056Y41729
X87853Y42789
X87424Y43408
X87930Y43951
X86730Y43149
X88192Y44638
X74668Y46926
X74135Y46410
X75374Y47148
X73837Y45738
X75383Y48500
X74733Y48139
X76122Y48531
X74272Y47567
X76480Y49834
X75759Y49654
X77202Y49673
X75165Y49220
X82833Y51359
X83556Y51526
X82263Y50888
X84283Y51409
X84416Y50668
X85158Y50642
X83743Y50361
X85830Y50341
X85767Y49591
X86477Y49373
X85037Y49468
X87047Y48909
X86793Y48201
X87422Y47807
X86056Y48271
X87853Y47211
X87424Y46592
X87930Y46049
X86730Y46851
X88192Y45362
X65830Y85659
X55383Y18500
X14668Y20074
X14135Y20590
X15374Y19852
X13837Y21262
X15383Y18500
X14733Y18861
X34668Y66074
X34135Y66590
X35374Y65852
X33837Y67262
X35383Y64500
X34733Y64861
X36122Y64469
X34272Y65433
X36480Y63166
X35759Y63346
X37202Y63327
X35165Y63780
X42833Y61641
X43556Y61474
X42263Y62112
X44283Y61591
X44416Y62332
X45158Y62358
X43743Y62639
X45830Y62659
X45767Y63409
X46477Y63627
X45037Y63532
X47047Y64091
X46793Y64799
X47422Y65193
X46056Y64729
X47853Y65789
X47424Y66408
X47930Y66951
X46730Y66149
X48192Y67638
X34668Y69926
X34135Y69410
X35374Y70148
X33837Y68738
X35383Y71500
X34733Y71139
X36122Y71531
X34272Y70567
X36480Y72834
X35759Y72654
X37202Y72673
X35165Y72220
X42833Y74359
X43556Y74526
X42263Y73888
X44283Y74409
X44416Y73668
X45158Y73642
X43743Y73361
X45830Y73341
X45767Y72591
X46477Y72373
X45037Y72468
X47047Y71909
X46793Y71201
X47422Y70807
X46056Y71271
X47853Y70211
X47424Y69592
X47930Y69049
X46730Y69851
X48192Y68362
X16122Y18469
X14272Y19433
X16480Y17166
X15759Y17346
X17202Y17327
X15165Y17780
X22833Y15641
X23556Y15474
X54668Y66074
X54135Y66590
X55374Y65852
X53837Y67262
X55383Y64500
X54733Y64861
X56122Y64469
X54272Y65433
X56480Y63166
X55759Y63346
X57202Y63327
X55165Y63780
X62833Y61641
X63556Y61474
X62263Y62112
X64283Y61591
X64416Y62332
X65158Y62358
X63743Y62639
X65830Y62659
X65767Y63409
X66477Y63627
X65037Y63532
X67047Y64091
X66793Y64799
X67422Y65193
X66056Y64729
X67853Y65789
X67424Y66408
X67930Y66951
X66730Y66149
X68192Y67638
X54668Y69926
X54135Y69410
X55374Y70148
X53837Y68738
X55383Y71500
X54733Y71139
X56122Y71531
X54272Y70567
X56480Y72834
X55759Y72654
X57202Y72673
X55165Y72220
X62833Y74359
X63556Y74526
X62263Y73888
X64283Y74409
X64416Y73668
X65158Y73642
X63743Y73361
X65830Y73341
X65767Y72591
X66477Y72373
X65037Y72468
X67047Y71909
X66793Y71201
X67422Y70807
X66056Y71271
X67853Y70211
X67424Y69592
X67930Y69049
X66730Y69851
X68192Y68362
X22263Y16112
X24283Y15591
X24416Y16332
X25158Y16358
X23743Y16639
X25830Y16659
X25767Y17409
X26477Y17627
X74668Y66074
X74135Y66590
X75374Y65852
X73837Y67262
X75383Y64500
X74733Y64861
X76122Y64469
X74272Y65433
X76480Y63166
X75759Y63346
X77202Y63327
X75165Y63780
X82833Y61641
X83556Y61474
X82263Y62112
X84283Y61591
X84416Y62332
X85158Y62358
X83743Y62639
X85830Y62659
X85767Y63409
X86477Y63627
X85037Y63532
X87047Y64091
X86793Y64799
X87422Y65193
X86056Y64729
X87853Y65789
X87424Y66408
X87930Y66951
X86730Y66149
X88192Y67638
X74668Y69926
X74135Y69410
X75374Y70148
X73837Y68738
X75383Y71500
X74733Y71139
X76122Y71531
X74272Y70567
X76480Y72834
X75759Y72654
X77202Y72673
X75165Y72220
X82833Y74359
X83556Y74526
X82263Y73888
X84283Y74409
X84416Y73668
X85158Y73642
X83743Y73361
X85830Y73341
X85767Y72591
X86477Y72373
X85037Y72468
X87047Y71909
X86793Y71201
X87422Y70807
X86056Y71271
X87853Y70211
X87424Y69592
X87930Y69049
X86730Y69851
X88192Y68362
X25037Y17532
X27047Y18091
X26793Y18799
X27422Y19193
X26056Y18729
X27853Y19789
X27424Y20408
X27930Y20951
X34668Y89074
X34135Y89590
X35374Y88852
X33837Y90262
X35383Y87500
X34733Y87861
X36122Y87469
X34272Y88433
X36480Y86166
X35759Y86346
X37202Y86327
X35165Y86780
X42833Y84641
X43556Y84474
X42263Y85112
X44283Y84591
X44416Y85332
X45158Y85358
X43743Y85639
X45830Y85659
X45767Y86409
X46477Y86627
X45037Y86532
X47047Y87091
X46793Y87799
X47422Y88193
X46056Y87729
X47853Y88789
X47424Y89408
X47930Y89951
X46730Y89149
X48192Y90638
X34668Y92926
X34135Y92410
X35374Y93148
X33837Y91738
X35383Y94500
X34733Y94139
X36122Y94531
X34272Y93567
X36480Y95834
X35759Y95654
X37202Y95673
X35165Y95220
X42833Y97359
X43556Y97526
X42263Y96888
X44283Y97409
X44416Y96668
X45158Y96642
X43743Y96361
X45830Y96341
X45767Y95591
X46477Y95373
X45037Y95468
X47047Y94909
X46793Y94201
X47422Y93807
X46056Y94271
X47853Y93211
X47424Y92592
X47930Y92049
X46730Y92851
X48192Y91362
X26730Y20149
X28192Y21638
X14668Y23926
X14135Y23410
X15374Y24148
X13837Y22738
X15383Y25500
X14733Y25139
X54668Y89074
X54135Y89590
X55374Y88852
X53837Y90262
X55383Y87500
X54733Y87861
X56122Y87469
X54272Y88433
X56480Y86166
X55759Y86346
X57202Y86327
X55165Y86780
X62833Y84641
X63556Y84474
X62263Y85112
X64283Y84591
X64416Y85332
X65158Y85358
X63743Y85639
X65767Y86409
X66477Y86627
X65037Y86532
X67047Y87091
X66793Y87799
X67422Y88193
X66056Y87729
X67853Y88789
X67424Y89408
X67930Y89951
X66730Y89149
X68192Y90638
X54668Y92926
X54135Y92410
X55374Y93148
X53837Y91738
X55383Y94500
X54733Y94139
X56122Y94531
X54272Y93567
X56480Y95834
X55759Y95654
X57202Y95673
X55165Y95220
X62833Y97359
X63556Y97526
X62263Y96888
X64283Y97409
X64416Y96668
X65158Y96642
X63743Y96361
X65830Y96341
X65767Y95591
X66477Y95373
X65037Y95468
X67047Y94909
X66793Y94201
X67422Y93807
X66056Y94271
X67853Y93211
X67424Y92592
X67930Y92049
X66730Y92851
X68192Y91362
X16122Y25531
X14272Y24567
X16480Y26834
X15759Y26654
X17202Y26673
X15165Y26220
X22833Y28359
X23556Y28526
X74668Y89074
X74135Y89590
X75374Y88852
X73837Y90262
X75383Y87500
X74733Y87861
X76122Y87469
X74272Y88433
X76480Y86166
X75759Y86346
X77202Y86327
X75165Y86780
X82833Y84641
X83556Y84474
X82263Y85112
X84283Y84591
X84416Y85332
X85158Y85358
X83743Y85639
X85830Y85659
X85767Y86409
X86477Y86627
X85037Y86532
X87047Y87091
X86793Y87799
X87422Y88193
X86056Y87729
X87853Y88789
X87424Y89408
X87930Y89951
X86730Y89149
X88192Y90638
X74668Y92926
X74135Y92410
X75374Y93148
X73837Y91738
X75383Y94500
X74733Y94139
X76122Y94531
X74272Y93567
X76480Y95834
X75759Y95654
X77202Y95673
X75165Y95220
X82833Y97359
X83556Y97526
X82263Y96888
X84283Y97409
X84416Y96668
X85158Y96642
X83743Y96361
X85830Y96341
X85767Y95591
X86477Y95373
X85037Y95468
X87047Y94909
X86793Y94201
X87422Y93807
X86056Y94271
X87853Y93211
X87424Y92592
X87930Y92049
X86730Y92851
X88192Y91362
X22263Y27888
X24283Y28409
X24416Y27668
X25158Y27642
X23743Y27361
X25830Y27341
X25767Y26591
X26477Y26373
X14668Y43074
X14135Y43590
X15374Y42852
X13837Y44262
X15383Y41500
X14733Y41861
X16122Y41469
X14272Y42433
X16480Y40166
X15759Y40346
X17202Y40327
X15165Y40780
X22833Y38641
X23556Y38474
X22263Y39112
X24283Y38591
X24416Y39332
X25158Y39358
X23743Y39639
X25830Y39659
X25767Y40409
X26477Y40627
X25037Y40532
X27047Y41091
X26793Y41799
X27422Y42193
X26056Y41729
X27853Y42789
X27424Y43408
X27930Y43951
X26730Y43149
X28192Y44638
X14668Y46926
X14135Y46410
X15374Y47148
X13837Y45738
X15383Y48500
X14733Y48139
X16122Y48531
X14272Y47567
X16480Y49834
X15759Y49654
X17202Y49673
X15165Y49220
X22833Y51359
X23556Y51526
X22263Y50888
X24283Y51409
X24416Y50668
X25158Y50642
X23743Y50361
X25830Y50341
X25767Y49591
X26477Y49373
X25037Y49468
X27047Y48909
X26793Y48201
X27422Y47807
X26056Y48271
X27853Y47211
X27424Y46592
X27930Y46049
X26730Y46851
X28192Y45362
X25037Y26468
X27047Y25909
X26793Y25201
X27422Y24807
X26056Y25271
X27853Y24211
X27424Y23592
X27930Y23049
X14668Y66074
X14135Y66590
X15374Y65852
X13837Y67262
X15383Y64500
X14733Y64861
X16122Y64469
X14272Y65433
X16480Y63166
X15759Y63346
X17202Y63327
X15165Y63780
X22833Y61641
X23556Y61474
X22263Y62112
X24283Y61591
X24416Y62332
X25158Y62358
X23743Y62639
X25830Y62659
X25767Y63409
X26477Y63627
X25037Y63532
X27047Y64091
X26793Y64799
X27422Y65193
X26056Y64729
X27853Y65789
X27424Y66408
X27930Y66951
X26730Y66149
X28192Y67638
X14668Y69926
X14135Y69410
X15374Y70148
X13837Y68738
X15383Y71500
X14733Y71139
X16122Y71531
X14272Y70567
X16480Y72834
X15759Y72654
X17202Y72673
X15165Y72220
X22833Y74359
X23556Y74526
X22263Y73888
X24283Y74409
X24416Y73668
X25158Y73642
X23743Y73361
X25830Y73341
X25767Y72591
X26477Y72373
X25037Y72468
X27047Y71909
X26793Y71201
X27422Y70807
X26056Y71271
X27853Y70211
X27424Y69592
X27930Y69049
X26730Y69851
X28192Y68362
X26730Y23851
X28192Y22362
X34668Y20074
X34135Y20590
X35374Y19852
X33837Y21262
X35383Y18500
X34733Y18861
X14668Y89074
X14135Y89590
X15374Y88852
X13837Y90262
X15383Y87500
X14733Y87861
X16122Y87469
X14272Y88433
X16480Y86166
X15759Y86346
X17202Y86327
X15165Y86780
X22833Y84641
X23556Y84474
X22263Y85112
X24283Y84591
X24416Y85332
X25158Y85358
X23743Y85639
X25830Y85659
X25767Y86409
X26477Y86627
X25037Y86532
X27047Y87091
X26793Y87799
X27422Y88193
X26056Y87729
X27853Y88789
X27424Y89408
X27930Y89951
X26730Y89149
X28192Y90638
X14668Y92926
X14135Y92410
X15374Y93148
X13837Y91738
X15383Y94500
X14733Y94139
X16122Y94531
X14272Y93567
X16480Y95834
X15759Y95654
X17202Y95673
X15165Y95220
X22833Y97359
X23556Y97526
X22263Y96888
X24283Y97409
X24416Y96668
X25158Y96642
X23743Y96361
X25830Y96341
X25767Y95591
X26477Y95373
X25037Y95468
X27047Y94909
X26793Y94201
X27422Y93807
X26056Y94271
X27853Y93211
X27424Y92592
X27930Y92049
X26730Y92851
X28192Y91362
T5
X22050Y93400
X20300Y93800
X22050Y94200
X20300Y94600
X22050Y95000
X20300Y95400
X22050Y95800
X25050Y84700
X26550Y85900
X27650Y87500
X28260Y89380
X28270Y92640
X27650Y94500
X26440Y96020
X24940Y97230
X15770Y85650
X14570Y87200
X13510Y90990
X13750Y93000
X14550Y94800
X19880Y97110
X13770Y89020
X21900Y83500
X21800Y98500
X20200Y98500
X15650Y96300
X22650Y92200
X21150Y83559
X17950Y96700
X17950Y96000
X17950Y95400
X19700Y95000
X80300Y27200
X19700Y94200
X17950Y93800
X19700Y93400
X17950Y93000
X19700Y92600
X17950Y92200
X19700Y91800
X17950Y91400
X19700Y91000
X17950Y90600
X19700Y90200
X17950Y89800
X19700Y89400
X17950Y89000
X19700Y88600
X17950Y88200
X19700Y87800
X17950Y87400
X19700Y87000
X17950Y86600
X19700Y86200
X17950Y85900
X17950Y85400
X20300Y96200
X20300Y96800
X20300Y97400
X22050Y97400
X19700Y95800
X19700Y96600
X19700Y85400
X19700Y84600
X20200Y15700
X20300Y16200
X20300Y16800
X22050Y17200
X20300Y17600
X22050Y18000
X20300Y18400
X22050Y18800
X20300Y19200
X22050Y19600
X20300Y20000
X22050Y20400
X20300Y20800
X22050Y21200
X20300Y21600
X22050Y22000
X20300Y22400
X22050Y22800
X20300Y23200
X22050Y23600
X20300Y24000
X22050Y24400
X20300Y24800
X22050Y25200
X20300Y25600
X22050Y26000
X20300Y26400
X22050Y26800
X25050Y15700
X26550Y16900
X27650Y18500
X28260Y20380
X28270Y23640
X27650Y25500
X26440Y27020
X24940Y28230
X15770Y16650
X14570Y18200
X13510Y21990
X13750Y24000
X14550Y25800
X19880Y28110
X13770Y20020
X21900Y14500
X21800Y29500
X20200Y29500
X15650Y27300
X22650Y23200
X21150Y14559
X17950Y27700
X17950Y27000
X17950Y26400
X19700Y26000
X17950Y25600
X19700Y25200
X17950Y24800
X19700Y24400
X17950Y24000
X19700Y23600
X17950Y23200
X19700Y22800
X17950Y22400
X19700Y22000
X17950Y21600
X19700Y21200
X17950Y20800
X19700Y20400
X17950Y20000
X19700Y19600
X17950Y19200
X19700Y18800
X17950Y18400
X19700Y18000
X17950Y17600
X19700Y17200
X17950Y16900
X17950Y16400
X20300Y27200
X20300Y27800
X20300Y28400
X22050Y28400
X19700Y26800
X19700Y27600
X19700Y16400
X19700Y15600
X40200Y15700
X40300Y16200
X40300Y16800
X42050Y17200
X40300Y17600
X42050Y18000
X40300Y18400
X42050Y18800
X40300Y19200
X42050Y19600
X40300Y20000
X42050Y20400
X40300Y20800
X42050Y21200
X40300Y21600
X42050Y22000
X40300Y22400
X42050Y22800
X40300Y23200
X42050Y23600
X40300Y24000
X42050Y24400
X40300Y24800
X42050Y25200
X40300Y25600
X42050Y26000
X40300Y26400
X42050Y26800
X45050Y15700
X46550Y16900
X47650Y18500
X48260Y20380
X48270Y23640
X47650Y25500
X46440Y27020
X44940Y28230
X35770Y16650
X34570Y18200
X33510Y21990
X33750Y24000
X34550Y25800
X39880Y28110
X33770Y20020
X41900Y14500
X41800Y29500
X40200Y29500
X35650Y27300
X42650Y23200
X41150Y14559
X37950Y27700
X37950Y27000
X37950Y26400
X39700Y26000
X37950Y25600
X39700Y25200
X37950Y24800
X39700Y24400
X37950Y24000
X39700Y23600
X37950Y23200
X39700Y22800
X37950Y22400
X39700Y22000
X37950Y21600
X39700Y21200
X37950Y20800
X39700Y20400
X37950Y20000
X39700Y19600
X37950Y19200
X39700Y18800
X37950Y18400
X39700Y18000
X37950Y17600
X39700Y17200
X37950Y16900
X37950Y16400
X40300Y27200
X40300Y27800
X40300Y28400
X42050Y28400
X39700Y26800
X39700Y27600
X39700Y16400
X39700Y15600
X60200Y15700
X60300Y16200
X60300Y16800
X62050Y17200
X60300Y17600
X62050Y18000
X60300Y18400
X62050Y18800
X60300Y19200
X62050Y19600
X60300Y20000
X62050Y20400
X60300Y20800
X62050Y21200
X60300Y21600
X62050Y22000
X60300Y22400
X62050Y22800
X60300Y23200
X62050Y23600
X60300Y24000
X62050Y24400
X60300Y24800
X62050Y25200
X60300Y25600
X62050Y26000
X60300Y26400
X62050Y26800
X65050Y15700
X66550Y16900
X67650Y18500
X68260Y20380
X68270Y23640
X67650Y25500
X66440Y27020
X64940Y28230
X55770Y16650
X54570Y18200
X53510Y21990
X53750Y24000
X54550Y25800
X59880Y28110
X53770Y20020
X61900Y14500
X61800Y29500
X60200Y29500
X55650Y27300
X62650Y23200
X61150Y14559
X57950Y27700
X57950Y27000
X57950Y26400
X59700Y26000
X57950Y25600
X59700Y25200
X57950Y24800
X59700Y24400
X57950Y24000
X59700Y23600
X57950Y23200
X59700Y22800
X57950Y22400
X59700Y22000
X57950Y21600
X59700Y21200
X57950Y20800
X59700Y20400
X57950Y20000
X59700Y19600
X57950Y19200
X59700Y18800
X57950Y18400
X59700Y18000
X57950Y17600
X59700Y17200
X57950Y16900
X57950Y16400
X60300Y27200
X60300Y27800
X60300Y28400
X62050Y28400
X59700Y26800
X59700Y27600
X59700Y16400
X59700Y15600
X80200Y15700
X80300Y16200
X80300Y16800
X82050Y17200
X80300Y17600
X82050Y18000
X80300Y18400
X82050Y18800
X80300Y19200
X82050Y19600
X80300Y20000
X82050Y20400
X80300Y20800
X82050Y21200
X80300Y21600
X82050Y22000
X80300Y22400
X82050Y22800
X80300Y23200
X82050Y23600
X80300Y24000
X82050Y24400
X80300Y24800
X82050Y25200
X80300Y25600
X82050Y26000
X80300Y26400
X82050Y26800
X85050Y15700
X86550Y16900
X87650Y18500
X88260Y20380
X88270Y23640
X87650Y25500
X86440Y27020
X84940Y28230
X75770Y16650
X74570Y18200
X73510Y21990
X73750Y24000
X74550Y25800
X79880Y28110
X73770Y20020
X81900Y14500
X81800Y29500
X17950Y94600
X80200Y29500
X75650Y27300
X82650Y23200
X81150Y14559
X77950Y27700
X77950Y27000
X77950Y26400
X79700Y26000
X77950Y25600
X79700Y25200
X77950Y24800
X79700Y24400
X77950Y24000
X79700Y23600
X77950Y23200
X79700Y22800
X77950Y22400
X79700Y22000
X77950Y21600
X79700Y21200
X77950Y20800
X79700Y20400
X77950Y20000
X79700Y19600
X77950Y19200
X79700Y18800
X77950Y18400
X79700Y18000
X77950Y17600
X79700Y17200
X77950Y16900
X77950Y16400
X80300Y27800
X80300Y28400
X82050Y28400
X79700Y26800
X79700Y27600
X79700Y16400
X79700Y15600
X40200Y38700
X40300Y39200
X40300Y39800
X42050Y40200
X40300Y40600
X42050Y41000
X40300Y41400
X42050Y41800
X40300Y42200
X42050Y42600
X40300Y43000
X42050Y43400
X40300Y43800
X42050Y44200
X40300Y44600
X42050Y45000
X40300Y45400
X42050Y45800
X40300Y46200
X42050Y46600
X40300Y47000
X42050Y47400
X40300Y47800
X42050Y48200
X40300Y48600
X42050Y49000
X40300Y49400
X42050Y49800
X45050Y38700
X46550Y39900
X47650Y41500
X48260Y43380
X48270Y46640
X47650Y48500
X46440Y50020
X44940Y51230
X35770Y39650
X34570Y41200
X33510Y44990
X33750Y47000
X34550Y48800
X39880Y51110
X33770Y43020
X41900Y37500
X41800Y52500
X40200Y52500
X35650Y50300
X42650Y46200
X41150Y37559
X37950Y50700
X37950Y50000
X37950Y49400
X39700Y49000
X37950Y48600
X39700Y48200
X37950Y47800
X39700Y47400
X37950Y47000
X39700Y46600
X37950Y46200
X39700Y45800
X37950Y45400
X39700Y45000
X37950Y44600
X39700Y44200
X37950Y43800
X39700Y43400
X37950Y43000
X39700Y42600
X37950Y42200
X39700Y41800
X37950Y41400
X39700Y41000
X37950Y40600
X39700Y40200
X37950Y39900
X37950Y39400
X40300Y50200
X40300Y50800
X40300Y51400
X42050Y51400
X39700Y49800
X39700Y50600
X39700Y39400
X39700Y38600
X60200Y38700
X60300Y39200
X60300Y39800
X62050Y40200
X60300Y40600
X62050Y41000
X60300Y41400
X62050Y41800
X60300Y42200
X62050Y42600
X60300Y43000
X62050Y43400
X60300Y43800
X62050Y44200
X60300Y44600
X62050Y45000
X60300Y45400
X62050Y45800
X60300Y46200
X62050Y46600
X60300Y47000
X62050Y47400
X60300Y47800
X62050Y48200
X60300Y48600
X62050Y49000
X60300Y49400
X62050Y49800
X65050Y38700
X66550Y39900
X67650Y41500
X68260Y43380
X68270Y46640
X67650Y48500
X66440Y50020
X64940Y51230
X55770Y39650
X54570Y41200
X53510Y44990
X53750Y47000
X54550Y48800
X59880Y51110
X53770Y43020
X61900Y37500
X61800Y52500
X60200Y52500
X55650Y50300
X62650Y46200
X61150Y37559
X57950Y50700
X57950Y50000
X57950Y49400
X59700Y49000
X57950Y48600
X59700Y48200
X57950Y47800
X59700Y47400
X57950Y47000
X59700Y46600
X57950Y46200
X59700Y45800
X57950Y45400
X59700Y45000
X57950Y44600
X59700Y44200
X57950Y43800
X59700Y43400
X57950Y43000
X59700Y42600
X57950Y42200
X59700Y41800
X57950Y41400
X59700Y41000
X57950Y40600
X59700Y40200
X57950Y39900
X57950Y39400
X60300Y50200
X60300Y50800
X60300Y51400
X62050Y51400
X59700Y49800
X59700Y50600
X59700Y39400
X59700Y38600
X80200Y38700
X80300Y39200
X80300Y39800
X82050Y40200
X80300Y40600
X82050Y41000
X80300Y41400
X82050Y41800
X80300Y42200
X82050Y42600
X80300Y43000
X82050Y43400
X80300Y43800
X82050Y44200
X80300Y44600
X82050Y45000
X80300Y45400
X82050Y45800
X80300Y46200
X82050Y46600
X80300Y47000
X82050Y47400
X80300Y47800
X82050Y48200
X80300Y48600
X82050Y49000
X80300Y49400
X82050Y49800
X85050Y38700
X86550Y39900
X87650Y41500
X88260Y43380
X88270Y46640
X87650Y48500
X86440Y50020
X84940Y51230
X75770Y39650
X74570Y41200
X73510Y44990
X73750Y47000
X74550Y48800
X79880Y51110
X73770Y43020
X81900Y37500
X81800Y52500
X80200Y52500
X75650Y50300
X82650Y46200
X81150Y37559
X77950Y50700
X77950Y50000
X77950Y49400
X79700Y49000
X77950Y48600
X79700Y48200
X77950Y47800
X79700Y47400
X77950Y47000
X79700Y46600
X77950Y46200
X79700Y45800
X77950Y45400
X79700Y45000
X77950Y44600
X79700Y44200
X77950Y43800
X79700Y43400
X77950Y43000
X79700Y42600
X77950Y42200
X79700Y41800
X77950Y41400
X79700Y41000
X77950Y40600
X79700Y40200
X77950Y39900
X77950Y39400
X80300Y50200
X80300Y50800
X80300Y51400
X82050Y51400
X79700Y49800
X79700Y50600
X79700Y39400
X79700Y38600
X40200Y61700
X40300Y62200
X40300Y62800
X42050Y63200
X40300Y63600
X42050Y64000
X40300Y64400
X42050Y64800
X40300Y65200
X42050Y65600
X40300Y66000
X42050Y66400
X40300Y66800
X42050Y67200
X40300Y67600
X42050Y68000
X40300Y68400
X42050Y68800
X40300Y69200
X42050Y69600
X40300Y70000
X42050Y70400
X40300Y70800
X42050Y71200
X40300Y71600
X42050Y72000
X40300Y72400
X42050Y72800
X45050Y61700
X46550Y62900
X47650Y64500
X48260Y66380
X48270Y69640
X47650Y71500
X46440Y73020
X44940Y74230
X35770Y62650
X34570Y64200
X33510Y67990
X33750Y70000
X34550Y71800
X39880Y74110
X33770Y66020
X41900Y60500
X41800Y75500
X40200Y75500
X35650Y73300
X42650Y69200
X41150Y60559
X37950Y73700
X37950Y73000
X37950Y72400
X39700Y72000
X37950Y71600
X39700Y71200
X37950Y70800
X39700Y70400
X37950Y70000
X39700Y69600
X37950Y69200
X39700Y68800
X37950Y68400
X39700Y68000
X37950Y67600
X39700Y67200
X37950Y66800
X39700Y66400
X37950Y66000
X39700Y65600
X37950Y65200
X39700Y64800
X37950Y64400
X39700Y64000
X37950Y63600
X39700Y63200
X37950Y62900
X37950Y62400
X40300Y73200
X40300Y73800
X40300Y74400
X42050Y74400
X39700Y72800
X39700Y73600
X39700Y62400
X39700Y61600
X60200Y61700
X60300Y62200
X60300Y62800
X62050Y63200
X60300Y63600
X62050Y64000
X60300Y64400
X62050Y64800
X60300Y65200
X62050Y65600
X60300Y66000
X62050Y66400
X60300Y66800
X62050Y67200
X60300Y67600
X62050Y68000
X60300Y68400
X62050Y68800
X60300Y69200
X62050Y69600
X60300Y70000
X62050Y70400
X60300Y70800
X62050Y71200
X60300Y71600
X62050Y72000
X60300Y72400
X62050Y72800
X65050Y61700
X66550Y62900
X67650Y64500
X68260Y66380
X68270Y69640
X67650Y71500
X66440Y73020
X64940Y74230
X55770Y62650
X54570Y64200
X53510Y67990
X53750Y70000
X54550Y71800
X59880Y74110
X53770Y66020
X61900Y60500
X61800Y75500
X60200Y75500
X55650Y73300
X62650Y69200
X61150Y60559
X57950Y73700
X57950Y73000
X57950Y72400
X59700Y72000
X57950Y71600
X59700Y71200
X57950Y70800
X59700Y70400
X57950Y70000
X59700Y69600
X57950Y69200
X59700Y68800
X57950Y68400
X59700Y68000
X57950Y67600
X59700Y67200
X57950Y66800
X59700Y66400
X57950Y66000
X59700Y65600
X57950Y65200
X59700Y64800
X57950Y64400
X59700Y64000
X57950Y63600
X59700Y63200
X57950Y62900
X57950Y62400
X60300Y73200
X60300Y73800
X60300Y74400
X62050Y74400
X59700Y72800
X59700Y73600
X59700Y62400
X59700Y61600
X80200Y61700
X80300Y62200
X80300Y62800
X82050Y63200
X80300Y63600
X82050Y64000
X80300Y64400
X82050Y64800
X80300Y65200
X82050Y65600
X80300Y66000
X82050Y66400
X80300Y66800
X82050Y67200
X80300Y67600
X82050Y68000
X80300Y68400
X82050Y68800
X80300Y69200
X82050Y69600
X80300Y70000
X82050Y70400
X80300Y70800
X82050Y71200
X80300Y71600
X82050Y72000
X80300Y72400
X82050Y72800
X85050Y61700
X86550Y62900
X87650Y64500
X88260Y66380
X88270Y69640
X87650Y71500
X86440Y73020
X84940Y74230
X75770Y62650
X74570Y64200
X73510Y67990
X73750Y70000
X74550Y71800
X79880Y74110
X73770Y66020
X81900Y60500
X81800Y75500
X80200Y75500
X75650Y73300
X82650Y69200
X81150Y60559
X77950Y73700
X77950Y73000
X77950Y72400
X79700Y72000
X77950Y71600
X79700Y71200
X77950Y70800
X79700Y70400
X77950Y70000
X79700Y69600
X77950Y69200
X79700Y68800
X77950Y68400
X79700Y68000
X77950Y67600
X79700Y67200
X77950Y66800
X79700Y66400
X77950Y66000
X79700Y65600
X77950Y65200
X79700Y64800
X77950Y64400
X79700Y64000
X77950Y63600
X79700Y63200
X77950Y62900
X77950Y62400
X80300Y73200
X80300Y73800
X80300Y74400
X82050Y74400
X79700Y72800
X79700Y73600
X79700Y62400
X79700Y61600
X40200Y84700
X40300Y85200
X40300Y85800
X42050Y86200
X40300Y86600
X42050Y87000
X40300Y87400
X42050Y87800
X40300Y88200
X42050Y88600
X40300Y89000
X42050Y89400
X40300Y89800
X42050Y90200
X40300Y90600
X42050Y91000
X40300Y91400
X42050Y91800
X40300Y92200
X42050Y92600
X40300Y93000
X42050Y93400
X40300Y93800
X42050Y94200
X40300Y94600
X42050Y95000
X40300Y95400
X42050Y95800
X45050Y84700
X46550Y85900
X47650Y87500
X48260Y89380
X48270Y92640
X47650Y94500
X46440Y96020
X44940Y97230
X35770Y85650
X34570Y87200
X33510Y90990
X33750Y93000
X34550Y94800
X39880Y97110
X33770Y89020
X41900Y83500
X41800Y98500
X40200Y98500
X35650Y96300
X42650Y92200
X41150Y83559
X37950Y96700
X37950Y96000
X37950Y95400
X39700Y95000
X37950Y94600
X39700Y94200
X37950Y93800
X39700Y93400
X37950Y93000
X39700Y92600
X37950Y92200
X39700Y91800
X37950Y91400
X39700Y91000
X37950Y90600
X39700Y90200
X37950Y89800
X39700Y89400
X37950Y89000
X39700Y88600
X37950Y88200
X39700Y87800
X37950Y87400
X39700Y87000
X37950Y86600
X39700Y86200
X37950Y85900
X37950Y85400
X40300Y96200
X40300Y96800
X40300Y97400
X42050Y97400
X39700Y95800
X39700Y96600
X39700Y85400
X39700Y84600
X60200Y84700
X60300Y85200
X60300Y85800
X62050Y86200
X60300Y86600
X62050Y87000
X60300Y87400
X62050Y87800
X60300Y88200
X62050Y88600
X60300Y89000
X62050Y89400
X60300Y89800
X62050Y90200
X60300Y90600
X62050Y91000
X60300Y91400
X62050Y91800
X60300Y92200
X62050Y92600
X60300Y93000
X62050Y93400
X60300Y93800
X62050Y94200
X60300Y94600
X62050Y95000
X60300Y95400
X62050Y95800
X57950Y91400
X65050Y84700
X66550Y85900
X67650Y87500
X68260Y89380
X68270Y92640
X67650Y94500
X66440Y96020
X64940Y97230
X55770Y85650
X54570Y87200
X53510Y90990
X53750Y93000
X54550Y94800
X59880Y97110
X53770Y89020
X61900Y83500
X61800Y98500
X60200Y98500
X55650Y96300
X62650Y92200
X61150Y83559
X57950Y96700
X57950Y96000
X57950Y95400
X59700Y95000
X57950Y94600
X59700Y94200
X57950Y93800
X59700Y93400
X57950Y93000
X59700Y92600
X57950Y92200
X59700Y91800
X59700Y91000
X57950Y90600
X59700Y90200
X57950Y89800
X59700Y89400
X57950Y89000
X59700Y88600
X57950Y88200
X59700Y87800
X57950Y87400
X59700Y87000
X57950Y86600
X59700Y86200
X57950Y85900
X57950Y85400
X60300Y96200
X60300Y96800
X60300Y97400
X62050Y97400
X59700Y95800
X59700Y96600
X59700Y85400
X59700Y84600
X80200Y84700
X80300Y85200
X80300Y85800
X82050Y86200
X80300Y86600
X82050Y87000
X80300Y87400
X82050Y87800
X80300Y88200
X82050Y88600
X80300Y89000
X82050Y89400
X80300Y89800
X82050Y90200
X80300Y90600
X82050Y91000
X80300Y91400
X82050Y91800
X80300Y92200
X82050Y92600
X80300Y93000
X82050Y93400
X80300Y93800
X82050Y94200
X80300Y94600
X82050Y95000
X80300Y95400
X82050Y95800
X85050Y84700
X86550Y85900
X87650Y87500
X88260Y89380
X88270Y92640
X87650Y94500
X86440Y96020
X84940Y97230
X75770Y85650
X74570Y87200
X73510Y90990
X73750Y93000
X74550Y94800
X79880Y97110
X73770Y89020
X81900Y83500
X81800Y98500
X80200Y98500
X75650Y96300
X82650Y92200
X81150Y83559
X77950Y96700
X77950Y96000
X77950Y95400
X79700Y95000
X77950Y94600
X79700Y94200
X77950Y93800
X79700Y93400
X77950Y93000
X79700Y92600
X77950Y92200
X79700Y91800
X77950Y91400
X79700Y91000
X77950Y90600
X79700Y90200
X77950Y89800
X79700Y89400
X77950Y89000
X79700Y88600
X77950Y88200
X79700Y87800
X77950Y87400
X79700Y87000
X77950Y86600
X79700Y86200
X77950Y85900
X77950Y85400
X80300Y96200
X80300Y96800
X80300Y97400
X82050Y97400
X79700Y95800
X79700Y96600
X79700Y85400
X79700Y84600
X20200Y38700
X20300Y39200
X20300Y39800
X22050Y40200
X20300Y40600
X22050Y41000
X20300Y41400
X22050Y41800
X20300Y42200
X22050Y42600
X20300Y43000
X22050Y43400
X20300Y43800
X22050Y44200
X20300Y44600
X22050Y45000
X20300Y45400
X22050Y45800
X20300Y46200
X22050Y46600
X20300Y47000
X22050Y47400
X20300Y47800
X22050Y48200
X20300Y48600
X22050Y49000
X20300Y49400
X22050Y49800
X25050Y38700
X26550Y39900
X27650Y41500
X28260Y43380
X28270Y46640
X27650Y48500
X26440Y50020
X24940Y51230
X15770Y39650
X14570Y41200
X13510Y44990
X13750Y47000
X14550Y48800
X19880Y51110
X13770Y43020
X21900Y37500
X21800Y52500
X20200Y52500
X15650Y50300
X22650Y46200
X21150Y37559
X17950Y50700
X17950Y50000
X17950Y49400
X19700Y49000
X17950Y48600
X19700Y48200
X17950Y47800
X19700Y47400
X17950Y47000
X19700Y46600
X17950Y46200
X19700Y45800
X17950Y45400
X19700Y45000
X17950Y44600
X19700Y44200
X17950Y43800
X19700Y43400
X17950Y43000
X19700Y42600
X17950Y42200
X19700Y41800
X17950Y41400
X19700Y41000
X17950Y40600
X19700Y40200
X17950Y39900
X17950Y39400
X20300Y50200
X20300Y50800
X20300Y51400
X22050Y51400
X19700Y49800
X19700Y50600
X19700Y39400
X19700Y38600
X20200Y61700
X20300Y62200
X20300Y62800
X22050Y63200
X20300Y63600
X22050Y64000
X20300Y64400
X22050Y64800
X20300Y65200
X22050Y65600
X20300Y66000
X22050Y66400
X20300Y66800
X22050Y67200
X20300Y67600
X22050Y68000
X20300Y68400
X22050Y68800
X20300Y69200
X22050Y69600
X20300Y70000
X22050Y70400
X20300Y70800
X22050Y71200
X20300Y71600
X22050Y72000
X20300Y72400
X22050Y72800
X25050Y61700
X26550Y62900
X27650Y64500
X28260Y66380
X28270Y69640
X27650Y71500
X26440Y73020
X24940Y74230
X15770Y62650
X14570Y64200
X13510Y67990
X13750Y70000
X14550Y71800
X19880Y74110
X13770Y66020
X21900Y60500
X21800Y75500
X20200Y75500
X15650Y73300
X22650Y69200
X21150Y60559
X17950Y73700
X17950Y73000
X17950Y72400
X19700Y72000
X17950Y71600
X19700Y71200
X17950Y70800
X19700Y70400
X17950Y70000
X19700Y69600
X17950Y69200
X19700Y68800
X17950Y68400
X19700Y68000
X17950Y67600
X19700Y67200
X17950Y66800
X19700Y66400
X17950Y66000
X19700Y65600
X17950Y65200
X19700Y64800
X17950Y64400
X19700Y64000
X17950Y63600
X19700Y63200
X17950Y62900
X17950Y62400
X20300Y73200
X20300Y73800
X20300Y74400
X22050Y74400
X19700Y72800
X19700Y73600
X19700Y62400
X19700Y61600
X20200Y84700
X20300Y85200
X20300Y85800
X22050Y86200
X20300Y86600
X22050Y87000
X20300Y87400
X22050Y87800
X20300Y88200
X22050Y88600
X20300Y89000
X22050Y89400
X20300Y89800
X22050Y90200
X20300Y90600
X22050Y91000
X20300Y91400
X22050Y91800
X20300Y92200
X22050Y92600
X20300Y93000
M30