G04 EAGLE Gerber RS-274X export*
G75*
%MOMM*%
%FSLAX34Y34*%
%LPD*%
%INSoldermask Top*%
%IPPOS*%
%AMOC8*
5,1,8,0,0,1.08239X$1,22.5*%
G01*
%ADD10C,0.551600*%
%ADD11C,1.401600*%
%ADD12C,0.500000*%
%ADD13C,0.851600*%
%ADD14R,1.241600X0.301600*%
%ADD15C,0.635000*%


D10*
X128000Y226000D03*
X128000Y220000D03*
X128000Y214000D03*
X292000Y214000D03*
X292000Y220000D03*
X292000Y226000D03*
D11*
X237500Y205000D03*
X237500Y235000D03*
X160000Y220000D03*
D10*
X328000Y226000D03*
X328000Y220000D03*
X328000Y214000D03*
X492000Y214000D03*
X492000Y220000D03*
X492000Y226000D03*
D11*
X437500Y205000D03*
X437500Y235000D03*
X360000Y220000D03*
D10*
X528000Y226000D03*
X528000Y220000D03*
X528000Y214000D03*
X692000Y214000D03*
X692000Y220000D03*
X692000Y226000D03*
D11*
X637500Y205000D03*
X637500Y235000D03*
X560000Y220000D03*
D10*
X728000Y226000D03*
X728000Y220000D03*
X728000Y214000D03*
X892000Y214000D03*
X892000Y220000D03*
X892000Y226000D03*
D11*
X837500Y205000D03*
X837500Y235000D03*
X760000Y220000D03*
D10*
X328000Y456000D03*
X328000Y450000D03*
X328000Y444000D03*
X492000Y444000D03*
X492000Y450000D03*
X492000Y456000D03*
D11*
X437500Y435000D03*
X437500Y465000D03*
X360000Y450000D03*
D10*
X528000Y456000D03*
X528000Y450000D03*
X528000Y444000D03*
X692000Y444000D03*
X692000Y450000D03*
X692000Y456000D03*
D11*
X637500Y435000D03*
X637500Y465000D03*
X560000Y450000D03*
D10*
X728000Y456000D03*
X728000Y450000D03*
X728000Y444000D03*
X892000Y444000D03*
X892000Y450000D03*
X892000Y456000D03*
D11*
X837500Y435000D03*
X837500Y465000D03*
X760000Y450000D03*
D10*
X328000Y686000D03*
X328000Y680000D03*
X328000Y674000D03*
X492000Y674000D03*
X492000Y680000D03*
X492000Y686000D03*
D11*
X437500Y665000D03*
X437500Y695000D03*
X360000Y680000D03*
D10*
X528000Y686000D03*
X528000Y680000D03*
X528000Y674000D03*
X692000Y674000D03*
X692000Y680000D03*
X692000Y686000D03*
D11*
X637500Y665000D03*
X637500Y695000D03*
X560000Y680000D03*
D10*
X728000Y686000D03*
X728000Y680000D03*
X728000Y674000D03*
X892000Y674000D03*
X892000Y680000D03*
X892000Y686000D03*
D11*
X837500Y665000D03*
X837500Y695000D03*
X760000Y680000D03*
D10*
X328000Y916000D03*
X328000Y910000D03*
X328000Y904000D03*
X492000Y904000D03*
X492000Y910000D03*
X492000Y916000D03*
D11*
X437500Y895000D03*
X437500Y925000D03*
X360000Y910000D03*
D10*
X528000Y916000D03*
X528000Y910000D03*
X528000Y904000D03*
X692000Y904000D03*
X692000Y910000D03*
X692000Y916000D03*
D11*
X637500Y895000D03*
X637500Y925000D03*
X560000Y910000D03*
D10*
X728000Y916000D03*
X728000Y910000D03*
X728000Y904000D03*
X892000Y904000D03*
X892000Y910000D03*
X892000Y916000D03*
D11*
X837500Y895000D03*
X837500Y925000D03*
X760000Y910000D03*
D10*
X128000Y456000D03*
X128000Y450000D03*
X128000Y444000D03*
X292000Y444000D03*
X292000Y450000D03*
X292000Y456000D03*
D11*
X237500Y435000D03*
X237500Y465000D03*
X160000Y450000D03*
D10*
X128000Y686000D03*
X128000Y680000D03*
X128000Y674000D03*
X292000Y674000D03*
X292000Y680000D03*
X292000Y686000D03*
D11*
X237500Y665000D03*
X237500Y695000D03*
X160000Y680000D03*
D10*
X128000Y916000D03*
X128000Y910000D03*
X128000Y904000D03*
X292000Y904000D03*
X292000Y910000D03*
X292000Y916000D03*
D11*
X237500Y895000D03*
X237500Y925000D03*
X160000Y910000D03*
D12*
X57500Y110000D02*
X57502Y110099D01*
X57508Y110199D01*
X57518Y110298D01*
X57532Y110396D01*
X57549Y110494D01*
X57571Y110591D01*
X57596Y110687D01*
X57625Y110782D01*
X57658Y110876D01*
X57695Y110968D01*
X57735Y111059D01*
X57779Y111148D01*
X57827Y111236D01*
X57878Y111321D01*
X57932Y111404D01*
X57989Y111486D01*
X58050Y111564D01*
X58114Y111641D01*
X58180Y111714D01*
X58250Y111785D01*
X58322Y111853D01*
X58397Y111919D01*
X58475Y111981D01*
X58555Y112040D01*
X58637Y112096D01*
X58721Y112148D01*
X58808Y112197D01*
X58896Y112243D01*
X58986Y112285D01*
X59078Y112324D01*
X59171Y112359D01*
X59265Y112390D01*
X59361Y112417D01*
X59458Y112440D01*
X59555Y112460D01*
X59653Y112476D01*
X59752Y112488D01*
X59851Y112496D01*
X59950Y112500D01*
X60050Y112500D01*
X60149Y112496D01*
X60248Y112488D01*
X60347Y112476D01*
X60445Y112460D01*
X60542Y112440D01*
X60639Y112417D01*
X60735Y112390D01*
X60829Y112359D01*
X60922Y112324D01*
X61014Y112285D01*
X61104Y112243D01*
X61192Y112197D01*
X61279Y112148D01*
X61363Y112096D01*
X61445Y112040D01*
X61525Y111981D01*
X61603Y111919D01*
X61678Y111853D01*
X61750Y111785D01*
X61820Y111714D01*
X61886Y111641D01*
X61950Y111564D01*
X62011Y111486D01*
X62068Y111404D01*
X62122Y111321D01*
X62173Y111236D01*
X62221Y111148D01*
X62265Y111059D01*
X62305Y110968D01*
X62342Y110876D01*
X62375Y110782D01*
X62404Y110687D01*
X62429Y110591D01*
X62451Y110494D01*
X62468Y110396D01*
X62482Y110298D01*
X62492Y110199D01*
X62498Y110099D01*
X62500Y110000D01*
X62498Y109901D01*
X62492Y109801D01*
X62482Y109702D01*
X62468Y109604D01*
X62451Y109506D01*
X62429Y109409D01*
X62404Y109313D01*
X62375Y109218D01*
X62342Y109124D01*
X62305Y109032D01*
X62265Y108941D01*
X62221Y108852D01*
X62173Y108764D01*
X62122Y108679D01*
X62068Y108596D01*
X62011Y108514D01*
X61950Y108436D01*
X61886Y108359D01*
X61820Y108286D01*
X61750Y108215D01*
X61678Y108147D01*
X61603Y108081D01*
X61525Y108019D01*
X61445Y107960D01*
X61363Y107904D01*
X61279Y107852D01*
X61192Y107803D01*
X61104Y107757D01*
X61014Y107715D01*
X60922Y107676D01*
X60829Y107641D01*
X60735Y107610D01*
X60639Y107583D01*
X60542Y107560D01*
X60445Y107540D01*
X60347Y107524D01*
X60248Y107512D01*
X60149Y107504D01*
X60050Y107500D01*
X59950Y107500D01*
X59851Y107504D01*
X59752Y107512D01*
X59653Y107524D01*
X59555Y107540D01*
X59458Y107560D01*
X59361Y107583D01*
X59265Y107610D01*
X59171Y107641D01*
X59078Y107676D01*
X58986Y107715D01*
X58896Y107757D01*
X58808Y107803D01*
X58721Y107852D01*
X58637Y107904D01*
X58555Y107960D01*
X58475Y108019D01*
X58397Y108081D01*
X58322Y108147D01*
X58250Y108215D01*
X58180Y108286D01*
X58114Y108359D01*
X58050Y108436D01*
X57989Y108514D01*
X57932Y108596D01*
X57878Y108679D01*
X57827Y108764D01*
X57779Y108852D01*
X57735Y108941D01*
X57695Y109032D01*
X57658Y109124D01*
X57625Y109218D01*
X57596Y109313D01*
X57571Y109409D01*
X57549Y109506D01*
X57532Y109604D01*
X57518Y109702D01*
X57508Y109801D01*
X57502Y109901D01*
X57500Y110000D01*
X937500Y200000D02*
X937502Y200099D01*
X937508Y200199D01*
X937518Y200298D01*
X937532Y200396D01*
X937549Y200494D01*
X937571Y200591D01*
X937596Y200687D01*
X937625Y200782D01*
X937658Y200876D01*
X937695Y200968D01*
X937735Y201059D01*
X937779Y201148D01*
X937827Y201236D01*
X937878Y201321D01*
X937932Y201404D01*
X937989Y201486D01*
X938050Y201564D01*
X938114Y201641D01*
X938180Y201714D01*
X938250Y201785D01*
X938322Y201853D01*
X938397Y201919D01*
X938475Y201981D01*
X938555Y202040D01*
X938637Y202096D01*
X938721Y202148D01*
X938808Y202197D01*
X938896Y202243D01*
X938986Y202285D01*
X939078Y202324D01*
X939171Y202359D01*
X939265Y202390D01*
X939361Y202417D01*
X939458Y202440D01*
X939555Y202460D01*
X939653Y202476D01*
X939752Y202488D01*
X939851Y202496D01*
X939950Y202500D01*
X940050Y202500D01*
X940149Y202496D01*
X940248Y202488D01*
X940347Y202476D01*
X940445Y202460D01*
X940542Y202440D01*
X940639Y202417D01*
X940735Y202390D01*
X940829Y202359D01*
X940922Y202324D01*
X941014Y202285D01*
X941104Y202243D01*
X941192Y202197D01*
X941279Y202148D01*
X941363Y202096D01*
X941445Y202040D01*
X941525Y201981D01*
X941603Y201919D01*
X941678Y201853D01*
X941750Y201785D01*
X941820Y201714D01*
X941886Y201641D01*
X941950Y201564D01*
X942011Y201486D01*
X942068Y201404D01*
X942122Y201321D01*
X942173Y201236D01*
X942221Y201148D01*
X942265Y201059D01*
X942305Y200968D01*
X942342Y200876D01*
X942375Y200782D01*
X942404Y200687D01*
X942429Y200591D01*
X942451Y200494D01*
X942468Y200396D01*
X942482Y200298D01*
X942492Y200199D01*
X942498Y200099D01*
X942500Y200000D01*
X942498Y199901D01*
X942492Y199801D01*
X942482Y199702D01*
X942468Y199604D01*
X942451Y199506D01*
X942429Y199409D01*
X942404Y199313D01*
X942375Y199218D01*
X942342Y199124D01*
X942305Y199032D01*
X942265Y198941D01*
X942221Y198852D01*
X942173Y198764D01*
X942122Y198679D01*
X942068Y198596D01*
X942011Y198514D01*
X941950Y198436D01*
X941886Y198359D01*
X941820Y198286D01*
X941750Y198215D01*
X941678Y198147D01*
X941603Y198081D01*
X941525Y198019D01*
X941445Y197960D01*
X941363Y197904D01*
X941279Y197852D01*
X941192Y197803D01*
X941104Y197757D01*
X941014Y197715D01*
X940922Y197676D01*
X940829Y197641D01*
X940735Y197610D01*
X940639Y197583D01*
X940542Y197560D01*
X940445Y197540D01*
X940347Y197524D01*
X940248Y197512D01*
X940149Y197504D01*
X940050Y197500D01*
X939950Y197500D01*
X939851Y197504D01*
X939752Y197512D01*
X939653Y197524D01*
X939555Y197540D01*
X939458Y197560D01*
X939361Y197583D01*
X939265Y197610D01*
X939171Y197641D01*
X939078Y197676D01*
X938986Y197715D01*
X938896Y197757D01*
X938808Y197803D01*
X938721Y197852D01*
X938637Y197904D01*
X938555Y197960D01*
X938475Y198019D01*
X938397Y198081D01*
X938322Y198147D01*
X938250Y198215D01*
X938180Y198286D01*
X938114Y198359D01*
X938050Y198436D01*
X937989Y198514D01*
X937932Y198596D01*
X937878Y198679D01*
X937827Y198764D01*
X937779Y198852D01*
X937735Y198941D01*
X937695Y199032D01*
X937658Y199124D01*
X937625Y199218D01*
X937596Y199313D01*
X937571Y199409D01*
X937549Y199506D01*
X937532Y199604D01*
X937518Y199702D01*
X937508Y199801D01*
X937502Y199901D01*
X937500Y200000D01*
X917500Y970000D02*
X917502Y970099D01*
X917508Y970199D01*
X917518Y970298D01*
X917532Y970396D01*
X917549Y970494D01*
X917571Y970591D01*
X917596Y970687D01*
X917625Y970782D01*
X917658Y970876D01*
X917695Y970968D01*
X917735Y971059D01*
X917779Y971148D01*
X917827Y971236D01*
X917878Y971321D01*
X917932Y971404D01*
X917989Y971486D01*
X918050Y971564D01*
X918114Y971641D01*
X918180Y971714D01*
X918250Y971785D01*
X918322Y971853D01*
X918397Y971919D01*
X918475Y971981D01*
X918555Y972040D01*
X918637Y972096D01*
X918721Y972148D01*
X918808Y972197D01*
X918896Y972243D01*
X918986Y972285D01*
X919078Y972324D01*
X919171Y972359D01*
X919265Y972390D01*
X919361Y972417D01*
X919458Y972440D01*
X919555Y972460D01*
X919653Y972476D01*
X919752Y972488D01*
X919851Y972496D01*
X919950Y972500D01*
X920050Y972500D01*
X920149Y972496D01*
X920248Y972488D01*
X920347Y972476D01*
X920445Y972460D01*
X920542Y972440D01*
X920639Y972417D01*
X920735Y972390D01*
X920829Y972359D01*
X920922Y972324D01*
X921014Y972285D01*
X921104Y972243D01*
X921192Y972197D01*
X921279Y972148D01*
X921363Y972096D01*
X921445Y972040D01*
X921525Y971981D01*
X921603Y971919D01*
X921678Y971853D01*
X921750Y971785D01*
X921820Y971714D01*
X921886Y971641D01*
X921950Y971564D01*
X922011Y971486D01*
X922068Y971404D01*
X922122Y971321D01*
X922173Y971236D01*
X922221Y971148D01*
X922265Y971059D01*
X922305Y970968D01*
X922342Y970876D01*
X922375Y970782D01*
X922404Y970687D01*
X922429Y970591D01*
X922451Y970494D01*
X922468Y970396D01*
X922482Y970298D01*
X922492Y970199D01*
X922498Y970099D01*
X922500Y970000D01*
X922498Y969901D01*
X922492Y969801D01*
X922482Y969702D01*
X922468Y969604D01*
X922451Y969506D01*
X922429Y969409D01*
X922404Y969313D01*
X922375Y969218D01*
X922342Y969124D01*
X922305Y969032D01*
X922265Y968941D01*
X922221Y968852D01*
X922173Y968764D01*
X922122Y968679D01*
X922068Y968596D01*
X922011Y968514D01*
X921950Y968436D01*
X921886Y968359D01*
X921820Y968286D01*
X921750Y968215D01*
X921678Y968147D01*
X921603Y968081D01*
X921525Y968019D01*
X921445Y967960D01*
X921363Y967904D01*
X921279Y967852D01*
X921192Y967803D01*
X921104Y967757D01*
X921014Y967715D01*
X920922Y967676D01*
X920829Y967641D01*
X920735Y967610D01*
X920639Y967583D01*
X920542Y967560D01*
X920445Y967540D01*
X920347Y967524D01*
X920248Y967512D01*
X920149Y967504D01*
X920050Y967500D01*
X919950Y967500D01*
X919851Y967504D01*
X919752Y967512D01*
X919653Y967524D01*
X919555Y967540D01*
X919458Y967560D01*
X919361Y967583D01*
X919265Y967610D01*
X919171Y967641D01*
X919078Y967676D01*
X918986Y967715D01*
X918896Y967757D01*
X918808Y967803D01*
X918721Y967852D01*
X918637Y967904D01*
X918555Y967960D01*
X918475Y968019D01*
X918397Y968081D01*
X918322Y968147D01*
X918250Y968215D01*
X918180Y968286D01*
X918114Y968359D01*
X918050Y968436D01*
X917989Y968514D01*
X917932Y968596D01*
X917878Y968679D01*
X917827Y968764D01*
X917779Y968852D01*
X917735Y968941D01*
X917695Y969032D01*
X917658Y969124D01*
X917625Y969218D01*
X917596Y969313D01*
X917571Y969409D01*
X917549Y969506D01*
X917532Y969604D01*
X917518Y969702D01*
X917508Y969801D01*
X917502Y969901D01*
X917500Y970000D01*
D13*
X166000Y160500D03*
X175100Y154900D03*
X173000Y165800D03*
X173000Y275000D03*
X144000Y220000D03*
X271000Y220000D03*
X173000Y284000D03*
X164000Y277000D03*
D14*
X211700Y288000D03*
X211700Y284000D03*
X211700Y280000D03*
X211700Y276000D03*
X211700Y272000D03*
X211700Y268000D03*
X211700Y264000D03*
X211700Y260000D03*
X211700Y256000D03*
X211700Y252000D03*
X211700Y248000D03*
X211700Y244000D03*
X211700Y240000D03*
X211700Y236000D03*
X211700Y232000D03*
X211700Y228000D03*
X211700Y224000D03*
X211700Y220000D03*
X211700Y216000D03*
X211700Y212000D03*
X211700Y208000D03*
X211700Y204000D03*
X211700Y200000D03*
X211700Y196000D03*
X211700Y192000D03*
X211700Y188000D03*
X211700Y184000D03*
X211700Y180000D03*
X211700Y176000D03*
X211700Y172000D03*
X211700Y168000D03*
X211700Y164000D03*
X211700Y160000D03*
X211700Y156000D03*
X211700Y152000D03*
X188300Y152000D03*
X188300Y156000D03*
X188300Y160000D03*
X188300Y164000D03*
X188300Y168000D03*
X188300Y172000D03*
X188300Y176000D03*
X188300Y180000D03*
X188300Y184000D03*
X188300Y188000D03*
X188300Y192000D03*
X188300Y196000D03*
X188300Y200000D03*
X188300Y204000D03*
X188300Y208000D03*
X188300Y212000D03*
X188300Y216000D03*
X188300Y220000D03*
X188300Y224000D03*
X188300Y228000D03*
X188300Y232000D03*
X188300Y236000D03*
X188300Y240000D03*
X188300Y244000D03*
X188300Y248000D03*
X188300Y252000D03*
X188300Y256000D03*
X188300Y260000D03*
X188300Y264000D03*
X188300Y268000D03*
X188300Y272000D03*
X188300Y276000D03*
X188300Y280000D03*
X188300Y284000D03*
X188300Y288000D03*
D15*
X146683Y200736D03*
X141346Y205898D03*
X153743Y198520D03*
X138369Y212622D03*
X153826Y185005D03*
X147335Y188609D03*
X161219Y184692D03*
X142719Y194334D03*
X164798Y171658D03*
X157595Y173460D03*
X172020Y173269D03*
X151654Y177795D03*
X228329Y156406D03*
X235565Y154741D03*
X222625Y161120D03*
X242826Y155907D03*
X244164Y163316D03*
X251584Y163581D03*
X237434Y166394D03*
X258296Y166587D03*
X257671Y174090D03*
X264769Y176267D03*
X250374Y175321D03*
X270475Y180907D03*
X267929Y187992D03*
X274222Y191932D03*
X260562Y187293D03*
X278532Y197891D03*
X274239Y204076D03*
X279298Y209510D03*
X267304Y201494D03*
X281919Y216381D03*
X146683Y239264D03*
X141346Y234102D03*
X153743Y241480D03*
X138369Y227378D03*
X153826Y254995D03*
X147335Y251391D03*
X161219Y255308D03*
X142719Y245666D03*
X164798Y268342D03*
X157595Y266540D03*
X172020Y266731D03*
X151654Y262205D03*
X228329Y283594D03*
X235565Y285259D03*
X222625Y278880D03*
X242826Y284093D03*
X244164Y276684D03*
X251584Y276419D03*
X237434Y273606D03*
X258296Y273413D03*
X257671Y265910D03*
X264769Y263733D03*
X250374Y264679D03*
X270475Y259093D03*
X267929Y252008D03*
X274222Y248068D03*
X260562Y252707D03*
X278532Y242109D03*
X274239Y235924D03*
X279298Y230490D03*
X267304Y238506D03*
X281919Y223619D03*
D13*
X366000Y160500D03*
X375100Y154900D03*
X373000Y165800D03*
X373000Y275000D03*
X344000Y220000D03*
X471000Y220000D03*
X373000Y284000D03*
X364000Y277000D03*
D14*
X411700Y288000D03*
X411700Y284000D03*
X411700Y280000D03*
X411700Y276000D03*
X411700Y272000D03*
X411700Y268000D03*
X411700Y264000D03*
X411700Y260000D03*
X411700Y256000D03*
X411700Y252000D03*
X411700Y248000D03*
X411700Y244000D03*
X411700Y240000D03*
X411700Y236000D03*
X411700Y232000D03*
X411700Y228000D03*
X411700Y224000D03*
X411700Y220000D03*
X411700Y216000D03*
X411700Y212000D03*
X411700Y208000D03*
X411700Y204000D03*
X411700Y200000D03*
X411700Y196000D03*
X411700Y192000D03*
X411700Y188000D03*
X411700Y184000D03*
X411700Y180000D03*
X411700Y176000D03*
X411700Y172000D03*
X411700Y168000D03*
X411700Y164000D03*
X411700Y160000D03*
X411700Y156000D03*
X411700Y152000D03*
X388300Y152000D03*
X388300Y156000D03*
X388300Y160000D03*
X388300Y164000D03*
X388300Y168000D03*
X388300Y172000D03*
X388300Y176000D03*
X388300Y180000D03*
X388300Y184000D03*
X388300Y188000D03*
X388300Y192000D03*
X388300Y196000D03*
X388300Y200000D03*
X388300Y204000D03*
X388300Y208000D03*
X388300Y212000D03*
X388300Y216000D03*
X388300Y220000D03*
X388300Y224000D03*
X388300Y228000D03*
X388300Y232000D03*
X388300Y236000D03*
X388300Y240000D03*
X388300Y244000D03*
X388300Y248000D03*
X388300Y252000D03*
X388300Y256000D03*
X388300Y260000D03*
X388300Y264000D03*
X388300Y268000D03*
X388300Y272000D03*
X388300Y276000D03*
X388300Y280000D03*
X388300Y284000D03*
X388300Y288000D03*
D15*
X346683Y200736D03*
X341346Y205898D03*
X353743Y198520D03*
X338369Y212622D03*
X353826Y185005D03*
X347335Y188609D03*
X361219Y184692D03*
X342719Y194334D03*
X364798Y171658D03*
X357595Y173460D03*
X372020Y173269D03*
X351654Y177795D03*
X428329Y156406D03*
X435565Y154741D03*
X422625Y161120D03*
X442826Y155907D03*
X444164Y163316D03*
X451584Y163581D03*
X437434Y166394D03*
X458296Y166587D03*
X457671Y174090D03*
X464769Y176267D03*
X450374Y175321D03*
X470475Y180907D03*
X467929Y187992D03*
X474222Y191932D03*
X460562Y187293D03*
X478532Y197891D03*
X474239Y204076D03*
X479298Y209510D03*
X467304Y201494D03*
X481919Y216381D03*
X346683Y239264D03*
X341346Y234102D03*
X353743Y241480D03*
X338369Y227378D03*
X353826Y254995D03*
X347335Y251391D03*
X361219Y255308D03*
X342719Y245666D03*
X364798Y268342D03*
X357595Y266540D03*
X372020Y266731D03*
X351654Y262205D03*
X428329Y283594D03*
X435565Y285259D03*
X422625Y278880D03*
X442826Y284093D03*
X444164Y276684D03*
X451584Y276419D03*
X437434Y273606D03*
X458296Y273413D03*
X457671Y265910D03*
X464769Y263733D03*
X450374Y264679D03*
X470475Y259093D03*
X467929Y252008D03*
X474222Y248068D03*
X460562Y252707D03*
X478532Y242109D03*
X474239Y235924D03*
X479298Y230490D03*
X467304Y238506D03*
X481919Y223619D03*
D13*
X566000Y160500D03*
X575100Y154900D03*
X573000Y165800D03*
X573000Y275000D03*
X544000Y220000D03*
X671000Y220000D03*
X573000Y284000D03*
X564000Y277000D03*
D14*
X611700Y288000D03*
X611700Y284000D03*
X611700Y280000D03*
X611700Y276000D03*
X611700Y272000D03*
X611700Y268000D03*
X611700Y264000D03*
X611700Y260000D03*
X611700Y256000D03*
X611700Y252000D03*
X611700Y248000D03*
X611700Y244000D03*
X611700Y240000D03*
X611700Y236000D03*
X611700Y232000D03*
X611700Y228000D03*
X611700Y224000D03*
X611700Y220000D03*
X611700Y216000D03*
X611700Y212000D03*
X611700Y208000D03*
X611700Y204000D03*
X611700Y200000D03*
X611700Y196000D03*
X611700Y192000D03*
X611700Y188000D03*
X611700Y184000D03*
X611700Y180000D03*
X611700Y176000D03*
X611700Y172000D03*
X611700Y168000D03*
X611700Y164000D03*
X611700Y160000D03*
X611700Y156000D03*
X611700Y152000D03*
X588300Y152000D03*
X588300Y156000D03*
X588300Y160000D03*
X588300Y164000D03*
X588300Y168000D03*
X588300Y172000D03*
X588300Y176000D03*
X588300Y180000D03*
X588300Y184000D03*
X588300Y188000D03*
X588300Y192000D03*
X588300Y196000D03*
X588300Y200000D03*
X588300Y204000D03*
X588300Y208000D03*
X588300Y212000D03*
X588300Y216000D03*
X588300Y220000D03*
X588300Y224000D03*
X588300Y228000D03*
X588300Y232000D03*
X588300Y236000D03*
X588300Y240000D03*
X588300Y244000D03*
X588300Y248000D03*
X588300Y252000D03*
X588300Y256000D03*
X588300Y260000D03*
X588300Y264000D03*
X588300Y268000D03*
X588300Y272000D03*
X588300Y276000D03*
X588300Y280000D03*
X588300Y284000D03*
X588300Y288000D03*
D15*
X546683Y200736D03*
X541346Y205898D03*
X553743Y198520D03*
X538369Y212622D03*
X553826Y185005D03*
X547335Y188609D03*
X561219Y184692D03*
X542719Y194334D03*
X564798Y171658D03*
X557595Y173460D03*
X572020Y173269D03*
X551654Y177795D03*
X628329Y156406D03*
X635565Y154741D03*
X622625Y161120D03*
X642826Y155907D03*
X644164Y163316D03*
X651584Y163581D03*
X637434Y166394D03*
X658296Y166587D03*
X657671Y174090D03*
X664769Y176267D03*
X650374Y175321D03*
X670475Y180907D03*
X667929Y187992D03*
X674222Y191932D03*
X660562Y187293D03*
X678532Y197891D03*
X674239Y204076D03*
X679298Y209510D03*
X667304Y201494D03*
X681919Y216381D03*
X546683Y239264D03*
X541346Y234102D03*
X553743Y241480D03*
X538369Y227378D03*
X553826Y254995D03*
X547335Y251391D03*
X561219Y255308D03*
X542719Y245666D03*
X564798Y268342D03*
X557595Y266540D03*
X572020Y266731D03*
X551654Y262205D03*
X628329Y283594D03*
X635565Y285259D03*
X622625Y278880D03*
X642826Y284093D03*
X644164Y276684D03*
X651584Y276419D03*
X637434Y273606D03*
X658296Y273413D03*
X657671Y265910D03*
X664769Y263733D03*
X650374Y264679D03*
X670475Y259093D03*
X667929Y252008D03*
X674222Y248068D03*
X660562Y252707D03*
X678532Y242109D03*
X674239Y235924D03*
X679298Y230490D03*
X667304Y238506D03*
X681919Y223619D03*
D13*
X766000Y160500D03*
X775100Y154900D03*
X773000Y165800D03*
X773000Y275000D03*
X744000Y220000D03*
X871000Y220000D03*
X773000Y284000D03*
X764000Y277000D03*
D14*
X811700Y288000D03*
X811700Y284000D03*
X811700Y280000D03*
X811700Y276000D03*
X811700Y272000D03*
X811700Y268000D03*
X811700Y264000D03*
X811700Y260000D03*
X811700Y256000D03*
X811700Y252000D03*
X811700Y248000D03*
X811700Y244000D03*
X811700Y240000D03*
X811700Y236000D03*
X811700Y232000D03*
X811700Y228000D03*
X811700Y224000D03*
X811700Y220000D03*
X811700Y216000D03*
X811700Y212000D03*
X811700Y208000D03*
X811700Y204000D03*
X811700Y200000D03*
X811700Y196000D03*
X811700Y192000D03*
X811700Y188000D03*
X811700Y184000D03*
X811700Y180000D03*
X811700Y176000D03*
X811700Y172000D03*
X811700Y168000D03*
X811700Y164000D03*
X811700Y160000D03*
X811700Y156000D03*
X811700Y152000D03*
X788300Y152000D03*
X788300Y156000D03*
X788300Y160000D03*
X788300Y164000D03*
X788300Y168000D03*
X788300Y172000D03*
X788300Y176000D03*
X788300Y180000D03*
X788300Y184000D03*
X788300Y188000D03*
X788300Y192000D03*
X788300Y196000D03*
X788300Y200000D03*
X788300Y204000D03*
X788300Y208000D03*
X788300Y212000D03*
X788300Y216000D03*
X788300Y220000D03*
X788300Y224000D03*
X788300Y228000D03*
X788300Y232000D03*
X788300Y236000D03*
X788300Y240000D03*
X788300Y244000D03*
X788300Y248000D03*
X788300Y252000D03*
X788300Y256000D03*
X788300Y260000D03*
X788300Y264000D03*
X788300Y268000D03*
X788300Y272000D03*
X788300Y276000D03*
X788300Y280000D03*
X788300Y284000D03*
X788300Y288000D03*
D15*
X746683Y200736D03*
X741346Y205898D03*
X753743Y198520D03*
X738369Y212622D03*
X753826Y185005D03*
X747335Y188609D03*
X761219Y184692D03*
X742719Y194334D03*
X764798Y171658D03*
X757595Y173460D03*
X772020Y173269D03*
X751654Y177795D03*
X828329Y156406D03*
X835565Y154741D03*
X822625Y161120D03*
X842826Y155907D03*
X844164Y163316D03*
X851584Y163581D03*
X837434Y166394D03*
X858296Y166587D03*
X857671Y174090D03*
X864769Y176267D03*
X850374Y175321D03*
X870475Y180907D03*
X867929Y187992D03*
X874222Y191932D03*
X860562Y187293D03*
X878532Y197891D03*
X874239Y204076D03*
X879298Y209510D03*
X867304Y201494D03*
X881919Y216381D03*
X746683Y239264D03*
X741346Y234102D03*
X753743Y241480D03*
X738369Y227378D03*
X753826Y254995D03*
X747335Y251391D03*
X761219Y255308D03*
X742719Y245666D03*
X764798Y268342D03*
X757595Y266540D03*
X772020Y266731D03*
X751654Y262205D03*
X828329Y283594D03*
X835565Y285259D03*
X822625Y278880D03*
X842826Y284093D03*
X844164Y276684D03*
X851584Y276419D03*
X837434Y273606D03*
X858296Y273413D03*
X857671Y265910D03*
X864769Y263733D03*
X850374Y264679D03*
X870475Y259093D03*
X867929Y252008D03*
X874222Y248068D03*
X860562Y252707D03*
X878532Y242109D03*
X874239Y235924D03*
X879298Y230490D03*
X867304Y238506D03*
X881919Y223619D03*
D13*
X366000Y390500D03*
X375100Y384900D03*
X373000Y395800D03*
X373000Y505000D03*
X344000Y450000D03*
X471000Y450000D03*
X373000Y514000D03*
X364000Y507000D03*
D14*
X411700Y518000D03*
X411700Y514000D03*
X411700Y510000D03*
X411700Y506000D03*
X411700Y502000D03*
X411700Y498000D03*
X411700Y494000D03*
X411700Y490000D03*
X411700Y486000D03*
X411700Y482000D03*
X411700Y478000D03*
X411700Y474000D03*
X411700Y470000D03*
X411700Y466000D03*
X411700Y462000D03*
X411700Y458000D03*
X411700Y454000D03*
X411700Y450000D03*
X411700Y446000D03*
X411700Y442000D03*
X411700Y438000D03*
X411700Y434000D03*
X411700Y430000D03*
X411700Y426000D03*
X411700Y422000D03*
X411700Y418000D03*
X411700Y414000D03*
X411700Y410000D03*
X411700Y406000D03*
X411700Y402000D03*
X411700Y398000D03*
X411700Y394000D03*
X411700Y390000D03*
X411700Y386000D03*
X411700Y382000D03*
X388300Y382000D03*
X388300Y386000D03*
X388300Y390000D03*
X388300Y394000D03*
X388300Y398000D03*
X388300Y402000D03*
X388300Y406000D03*
X388300Y410000D03*
X388300Y414000D03*
X388300Y418000D03*
X388300Y422000D03*
X388300Y426000D03*
X388300Y430000D03*
X388300Y434000D03*
X388300Y438000D03*
X388300Y442000D03*
X388300Y446000D03*
X388300Y450000D03*
X388300Y454000D03*
X388300Y458000D03*
X388300Y462000D03*
X388300Y466000D03*
X388300Y470000D03*
X388300Y474000D03*
X388300Y478000D03*
X388300Y482000D03*
X388300Y486000D03*
X388300Y490000D03*
X388300Y494000D03*
X388300Y498000D03*
X388300Y502000D03*
X388300Y506000D03*
X388300Y510000D03*
X388300Y514000D03*
X388300Y518000D03*
D15*
X346683Y430736D03*
X341346Y435898D03*
X353743Y428520D03*
X338369Y442622D03*
X353826Y415005D03*
X347335Y418609D03*
X361219Y414692D03*
X342719Y424334D03*
X364798Y401658D03*
X357595Y403460D03*
X372020Y403269D03*
X351654Y407795D03*
X428329Y386406D03*
X435565Y384741D03*
X422625Y391120D03*
X442826Y385907D03*
X444164Y393316D03*
X451584Y393581D03*
X437434Y396394D03*
X458296Y396587D03*
X457671Y404090D03*
X464769Y406267D03*
X450374Y405321D03*
X470475Y410907D03*
X467929Y417992D03*
X474222Y421932D03*
X460562Y417293D03*
X478532Y427891D03*
X474239Y434076D03*
X479298Y439510D03*
X467304Y431494D03*
X481919Y446381D03*
X346683Y469264D03*
X341346Y464102D03*
X353743Y471480D03*
X338369Y457378D03*
X353826Y484995D03*
X347335Y481391D03*
X361219Y485308D03*
X342719Y475666D03*
X364798Y498342D03*
X357595Y496540D03*
X372020Y496731D03*
X351654Y492205D03*
X428329Y513594D03*
X435565Y515259D03*
X422625Y508880D03*
X442826Y514093D03*
X444164Y506684D03*
X451584Y506419D03*
X437434Y503606D03*
X458296Y503413D03*
X457671Y495910D03*
X464769Y493733D03*
X450374Y494679D03*
X470475Y489093D03*
X467929Y482008D03*
X474222Y478068D03*
X460562Y482707D03*
X478532Y472109D03*
X474239Y465924D03*
X479298Y460490D03*
X467304Y468506D03*
X481919Y453619D03*
D13*
X566000Y390500D03*
X575100Y384900D03*
X573000Y395800D03*
X573000Y505000D03*
X544000Y450000D03*
X671000Y450000D03*
X573000Y514000D03*
X564000Y507000D03*
D14*
X611700Y518000D03*
X611700Y514000D03*
X611700Y510000D03*
X611700Y506000D03*
X611700Y502000D03*
X611700Y498000D03*
X611700Y494000D03*
X611700Y490000D03*
X611700Y486000D03*
X611700Y482000D03*
X611700Y478000D03*
X611700Y474000D03*
X611700Y470000D03*
X611700Y466000D03*
X611700Y462000D03*
X611700Y458000D03*
X611700Y454000D03*
X611700Y450000D03*
X611700Y446000D03*
X611700Y442000D03*
X611700Y438000D03*
X611700Y434000D03*
X611700Y430000D03*
X611700Y426000D03*
X611700Y422000D03*
X611700Y418000D03*
X611700Y414000D03*
X611700Y410000D03*
X611700Y406000D03*
X611700Y402000D03*
X611700Y398000D03*
X611700Y394000D03*
X611700Y390000D03*
X611700Y386000D03*
X611700Y382000D03*
X588300Y382000D03*
X588300Y386000D03*
X588300Y390000D03*
X588300Y394000D03*
X588300Y398000D03*
X588300Y402000D03*
X588300Y406000D03*
X588300Y410000D03*
X588300Y414000D03*
X588300Y418000D03*
X588300Y422000D03*
X588300Y426000D03*
X588300Y430000D03*
X588300Y434000D03*
X588300Y438000D03*
X588300Y442000D03*
X588300Y446000D03*
X588300Y450000D03*
X588300Y454000D03*
X588300Y458000D03*
X588300Y462000D03*
X588300Y466000D03*
X588300Y470000D03*
X588300Y474000D03*
X588300Y478000D03*
X588300Y482000D03*
X588300Y486000D03*
X588300Y490000D03*
X588300Y494000D03*
X588300Y498000D03*
X588300Y502000D03*
X588300Y506000D03*
X588300Y510000D03*
X588300Y514000D03*
X588300Y518000D03*
D15*
X546683Y430736D03*
X541346Y435898D03*
X553743Y428520D03*
X538369Y442622D03*
X553826Y415005D03*
X547335Y418609D03*
X561219Y414692D03*
X542719Y424334D03*
X564798Y401658D03*
X557595Y403460D03*
X572020Y403269D03*
X551654Y407795D03*
X628329Y386406D03*
X635565Y384741D03*
X622625Y391120D03*
X642826Y385907D03*
X644164Y393316D03*
X651584Y393581D03*
X637434Y396394D03*
X658296Y396587D03*
X657671Y404090D03*
X664769Y406267D03*
X650374Y405321D03*
X670475Y410907D03*
X667929Y417992D03*
X674222Y421932D03*
X660562Y417293D03*
X678532Y427891D03*
X674239Y434076D03*
X679298Y439510D03*
X667304Y431494D03*
X681919Y446381D03*
X546683Y469264D03*
X541346Y464102D03*
X553743Y471480D03*
X538369Y457378D03*
X553826Y484995D03*
X547335Y481391D03*
X561219Y485308D03*
X542719Y475666D03*
X564798Y498342D03*
X557595Y496540D03*
X572020Y496731D03*
X551654Y492205D03*
X628329Y513594D03*
X635565Y515259D03*
X622625Y508880D03*
X642826Y514093D03*
X644164Y506684D03*
X651584Y506419D03*
X637434Y503606D03*
X658296Y503413D03*
X657671Y495910D03*
X664769Y493733D03*
X650374Y494679D03*
X670475Y489093D03*
X667929Y482008D03*
X674222Y478068D03*
X660562Y482707D03*
X678532Y472109D03*
X674239Y465924D03*
X679298Y460490D03*
X667304Y468506D03*
X681919Y453619D03*
D13*
X766000Y390500D03*
X775100Y384900D03*
X773000Y395800D03*
X773000Y505000D03*
X744000Y450000D03*
X871000Y450000D03*
X773000Y514000D03*
X764000Y507000D03*
D14*
X811700Y518000D03*
X811700Y514000D03*
X811700Y510000D03*
X811700Y506000D03*
X811700Y502000D03*
X811700Y498000D03*
X811700Y494000D03*
X811700Y490000D03*
X811700Y486000D03*
X811700Y482000D03*
X811700Y478000D03*
X811700Y474000D03*
X811700Y470000D03*
X811700Y466000D03*
X811700Y462000D03*
X811700Y458000D03*
X811700Y454000D03*
X811700Y450000D03*
X811700Y446000D03*
X811700Y442000D03*
X811700Y438000D03*
X811700Y434000D03*
X811700Y430000D03*
X811700Y426000D03*
X811700Y422000D03*
X811700Y418000D03*
X811700Y414000D03*
X811700Y410000D03*
X811700Y406000D03*
X811700Y402000D03*
X811700Y398000D03*
X811700Y394000D03*
X811700Y390000D03*
X811700Y386000D03*
X811700Y382000D03*
X788300Y382000D03*
X788300Y386000D03*
X788300Y390000D03*
X788300Y394000D03*
X788300Y398000D03*
X788300Y402000D03*
X788300Y406000D03*
X788300Y410000D03*
X788300Y414000D03*
X788300Y418000D03*
X788300Y422000D03*
X788300Y426000D03*
X788300Y430000D03*
X788300Y434000D03*
X788300Y438000D03*
X788300Y442000D03*
X788300Y446000D03*
X788300Y450000D03*
X788300Y454000D03*
X788300Y458000D03*
X788300Y462000D03*
X788300Y466000D03*
X788300Y470000D03*
X788300Y474000D03*
X788300Y478000D03*
X788300Y482000D03*
X788300Y486000D03*
X788300Y490000D03*
X788300Y494000D03*
X788300Y498000D03*
X788300Y502000D03*
X788300Y506000D03*
X788300Y510000D03*
X788300Y514000D03*
X788300Y518000D03*
D15*
X746683Y430736D03*
X741346Y435898D03*
X753743Y428520D03*
X738369Y442622D03*
X753826Y415005D03*
X747335Y418609D03*
X761219Y414692D03*
X742719Y424334D03*
X764798Y401658D03*
X757595Y403460D03*
X772020Y403269D03*
X751654Y407795D03*
X828329Y386406D03*
X835565Y384741D03*
X822625Y391120D03*
X842826Y385907D03*
X844164Y393316D03*
X851584Y393581D03*
X837434Y396394D03*
X858296Y396587D03*
X857671Y404090D03*
X864769Y406267D03*
X850374Y405321D03*
X870475Y410907D03*
X867929Y417992D03*
X874222Y421932D03*
X860562Y417293D03*
X878532Y427891D03*
X874239Y434076D03*
X879298Y439510D03*
X867304Y431494D03*
X881919Y446381D03*
X746683Y469264D03*
X741346Y464102D03*
X753743Y471480D03*
X738369Y457378D03*
X753826Y484995D03*
X747335Y481391D03*
X761219Y485308D03*
X742719Y475666D03*
X764798Y498342D03*
X757595Y496540D03*
X772020Y496731D03*
X751654Y492205D03*
X828329Y513594D03*
X835565Y515259D03*
X822625Y508880D03*
X842826Y514093D03*
X844164Y506684D03*
X851584Y506419D03*
X837434Y503606D03*
X858296Y503413D03*
X857671Y495910D03*
X864769Y493733D03*
X850374Y494679D03*
X870475Y489093D03*
X867929Y482008D03*
X874222Y478068D03*
X860562Y482707D03*
X878532Y472109D03*
X874239Y465924D03*
X879298Y460490D03*
X867304Y468506D03*
X881919Y453619D03*
D13*
X366000Y620500D03*
X375100Y614900D03*
X373000Y625800D03*
X373000Y735000D03*
X344000Y680000D03*
X471000Y680000D03*
X373000Y744000D03*
X364000Y737000D03*
D14*
X411700Y748000D03*
X411700Y744000D03*
X411700Y740000D03*
X411700Y736000D03*
X411700Y732000D03*
X411700Y728000D03*
X411700Y724000D03*
X411700Y720000D03*
X411700Y716000D03*
X411700Y712000D03*
X411700Y708000D03*
X411700Y704000D03*
X411700Y700000D03*
X411700Y696000D03*
X411700Y692000D03*
X411700Y688000D03*
X411700Y684000D03*
X411700Y680000D03*
X411700Y676000D03*
X411700Y672000D03*
X411700Y668000D03*
X411700Y664000D03*
X411700Y660000D03*
X411700Y656000D03*
X411700Y652000D03*
X411700Y648000D03*
X411700Y644000D03*
X411700Y640000D03*
X411700Y636000D03*
X411700Y632000D03*
X411700Y628000D03*
X411700Y624000D03*
X411700Y620000D03*
X411700Y616000D03*
X411700Y612000D03*
X388300Y612000D03*
X388300Y616000D03*
X388300Y620000D03*
X388300Y624000D03*
X388300Y628000D03*
X388300Y632000D03*
X388300Y636000D03*
X388300Y640000D03*
X388300Y644000D03*
X388300Y648000D03*
X388300Y652000D03*
X388300Y656000D03*
X388300Y660000D03*
X388300Y664000D03*
X388300Y668000D03*
X388300Y672000D03*
X388300Y676000D03*
X388300Y680000D03*
X388300Y684000D03*
X388300Y688000D03*
X388300Y692000D03*
X388300Y696000D03*
X388300Y700000D03*
X388300Y704000D03*
X388300Y708000D03*
X388300Y712000D03*
X388300Y716000D03*
X388300Y720000D03*
X388300Y724000D03*
X388300Y728000D03*
X388300Y732000D03*
X388300Y736000D03*
X388300Y740000D03*
X388300Y744000D03*
X388300Y748000D03*
D15*
X346683Y660736D03*
X341346Y665898D03*
X353743Y658520D03*
X338369Y672622D03*
X353826Y645005D03*
X347335Y648609D03*
X361219Y644692D03*
X342719Y654334D03*
X364798Y631658D03*
X357595Y633460D03*
X372020Y633269D03*
X351654Y637795D03*
X428329Y616406D03*
X435565Y614741D03*
X422625Y621120D03*
X442826Y615907D03*
X444164Y623316D03*
X451584Y623581D03*
X437434Y626394D03*
X458296Y626587D03*
X457671Y634090D03*
X464769Y636267D03*
X450374Y635321D03*
X470475Y640907D03*
X467929Y647992D03*
X474222Y651932D03*
X460562Y647293D03*
X478532Y657891D03*
X474239Y664076D03*
X479298Y669510D03*
X467304Y661494D03*
X481919Y676381D03*
X346683Y699264D03*
X341346Y694102D03*
X353743Y701480D03*
X338369Y687378D03*
X353826Y714995D03*
X347335Y711391D03*
X361219Y715308D03*
X342719Y705666D03*
X364798Y728342D03*
X357595Y726540D03*
X372020Y726731D03*
X351654Y722205D03*
X428329Y743594D03*
X435565Y745259D03*
X422625Y738880D03*
X442826Y744093D03*
X444164Y736684D03*
X451584Y736419D03*
X437434Y733606D03*
X458296Y733413D03*
X457671Y725910D03*
X464769Y723733D03*
X450374Y724679D03*
X470475Y719093D03*
X467929Y712008D03*
X474222Y708068D03*
X460562Y712707D03*
X478532Y702109D03*
X474239Y695924D03*
X479298Y690490D03*
X467304Y698506D03*
X481919Y683619D03*
D13*
X566000Y620500D03*
X575100Y614900D03*
X573000Y625800D03*
X573000Y735000D03*
X544000Y680000D03*
X671000Y680000D03*
X573000Y744000D03*
X564000Y737000D03*
D14*
X611700Y748000D03*
X611700Y744000D03*
X611700Y740000D03*
X611700Y736000D03*
X611700Y732000D03*
X611700Y728000D03*
X611700Y724000D03*
X611700Y720000D03*
X611700Y716000D03*
X611700Y712000D03*
X611700Y708000D03*
X611700Y704000D03*
X611700Y700000D03*
X611700Y696000D03*
X611700Y692000D03*
X611700Y688000D03*
X611700Y684000D03*
X611700Y680000D03*
X611700Y676000D03*
X611700Y672000D03*
X611700Y668000D03*
X611700Y664000D03*
X611700Y660000D03*
X611700Y656000D03*
X611700Y652000D03*
X611700Y648000D03*
X611700Y644000D03*
X611700Y640000D03*
X611700Y636000D03*
X611700Y632000D03*
X611700Y628000D03*
X611700Y624000D03*
X611700Y620000D03*
X611700Y616000D03*
X611700Y612000D03*
X588300Y612000D03*
X588300Y616000D03*
X588300Y620000D03*
X588300Y624000D03*
X588300Y628000D03*
X588300Y632000D03*
X588300Y636000D03*
X588300Y640000D03*
X588300Y644000D03*
X588300Y648000D03*
X588300Y652000D03*
X588300Y656000D03*
X588300Y660000D03*
X588300Y664000D03*
X588300Y668000D03*
X588300Y672000D03*
X588300Y676000D03*
X588300Y680000D03*
X588300Y684000D03*
X588300Y688000D03*
X588300Y692000D03*
X588300Y696000D03*
X588300Y700000D03*
X588300Y704000D03*
X588300Y708000D03*
X588300Y712000D03*
X588300Y716000D03*
X588300Y720000D03*
X588300Y724000D03*
X588300Y728000D03*
X588300Y732000D03*
X588300Y736000D03*
X588300Y740000D03*
X588300Y744000D03*
X588300Y748000D03*
D15*
X546683Y660736D03*
X541346Y665898D03*
X553743Y658520D03*
X538369Y672622D03*
X553826Y645005D03*
X547335Y648609D03*
X561219Y644692D03*
X542719Y654334D03*
X564798Y631658D03*
X557595Y633460D03*
X572020Y633269D03*
X551654Y637795D03*
X628329Y616406D03*
X635565Y614741D03*
X622625Y621120D03*
X642826Y615907D03*
X644164Y623316D03*
X651584Y623581D03*
X637434Y626394D03*
X658296Y626587D03*
X657671Y634090D03*
X664769Y636267D03*
X650374Y635321D03*
X670475Y640907D03*
X667929Y647992D03*
X674222Y651932D03*
X660562Y647293D03*
X678532Y657891D03*
X674239Y664076D03*
X679298Y669510D03*
X667304Y661494D03*
X681919Y676381D03*
X546683Y699264D03*
X541346Y694102D03*
X553743Y701480D03*
X538369Y687378D03*
X553826Y714995D03*
X547335Y711391D03*
X561219Y715308D03*
X542719Y705666D03*
X564798Y728342D03*
X557595Y726540D03*
X572020Y726731D03*
X551654Y722205D03*
X628329Y743594D03*
X635565Y745259D03*
X622625Y738880D03*
X642826Y744093D03*
X644164Y736684D03*
X651584Y736419D03*
X637434Y733606D03*
X658296Y733413D03*
X657671Y725910D03*
X664769Y723733D03*
X650374Y724679D03*
X670475Y719093D03*
X667929Y712008D03*
X674222Y708068D03*
X660562Y712707D03*
X678532Y702109D03*
X674239Y695924D03*
X679298Y690490D03*
X667304Y698506D03*
X681919Y683619D03*
D13*
X766000Y620500D03*
X775100Y614900D03*
X773000Y625800D03*
X773000Y735000D03*
X744000Y680000D03*
X871000Y680000D03*
X773000Y744000D03*
X764000Y737000D03*
D14*
X811700Y748000D03*
X811700Y744000D03*
X811700Y740000D03*
X811700Y736000D03*
X811700Y732000D03*
X811700Y728000D03*
X811700Y724000D03*
X811700Y720000D03*
X811700Y716000D03*
X811700Y712000D03*
X811700Y708000D03*
X811700Y704000D03*
X811700Y700000D03*
X811700Y696000D03*
X811700Y692000D03*
X811700Y688000D03*
X811700Y684000D03*
X811700Y680000D03*
X811700Y676000D03*
X811700Y672000D03*
X811700Y668000D03*
X811700Y664000D03*
X811700Y660000D03*
X811700Y656000D03*
X811700Y652000D03*
X811700Y648000D03*
X811700Y644000D03*
X811700Y640000D03*
X811700Y636000D03*
X811700Y632000D03*
X811700Y628000D03*
X811700Y624000D03*
X811700Y620000D03*
X811700Y616000D03*
X811700Y612000D03*
X788300Y612000D03*
X788300Y616000D03*
X788300Y620000D03*
X788300Y624000D03*
X788300Y628000D03*
X788300Y632000D03*
X788300Y636000D03*
X788300Y640000D03*
X788300Y644000D03*
X788300Y648000D03*
X788300Y652000D03*
X788300Y656000D03*
X788300Y660000D03*
X788300Y664000D03*
X788300Y668000D03*
X788300Y672000D03*
X788300Y676000D03*
X788300Y680000D03*
X788300Y684000D03*
X788300Y688000D03*
X788300Y692000D03*
X788300Y696000D03*
X788300Y700000D03*
X788300Y704000D03*
X788300Y708000D03*
X788300Y712000D03*
X788300Y716000D03*
X788300Y720000D03*
X788300Y724000D03*
X788300Y728000D03*
X788300Y732000D03*
X788300Y736000D03*
X788300Y740000D03*
X788300Y744000D03*
X788300Y748000D03*
D15*
X746683Y660736D03*
X741346Y665898D03*
X753743Y658520D03*
X738369Y672622D03*
X753826Y645005D03*
X747335Y648609D03*
X761219Y644692D03*
X742719Y654334D03*
X764798Y631658D03*
X757595Y633460D03*
X772020Y633269D03*
X751654Y637795D03*
X828329Y616406D03*
X835565Y614741D03*
X822625Y621120D03*
X842826Y615907D03*
X844164Y623316D03*
X851584Y623581D03*
X837434Y626394D03*
X858296Y626587D03*
X857671Y634090D03*
X864769Y636267D03*
X850374Y635321D03*
X870475Y640907D03*
X867929Y647992D03*
X874222Y651932D03*
X860562Y647293D03*
X878532Y657891D03*
X874239Y664076D03*
X879298Y669510D03*
X867304Y661494D03*
X881919Y676381D03*
X746683Y699264D03*
X741346Y694102D03*
X753743Y701480D03*
X738369Y687378D03*
X753826Y714995D03*
X747335Y711391D03*
X761219Y715308D03*
X742719Y705666D03*
X764798Y728342D03*
X757595Y726540D03*
X772020Y726731D03*
X751654Y722205D03*
X828329Y743594D03*
X835565Y745259D03*
X822625Y738880D03*
X842826Y744093D03*
X844164Y736684D03*
X851584Y736419D03*
X837434Y733606D03*
X858296Y733413D03*
X857671Y725910D03*
X864769Y723733D03*
X850374Y724679D03*
X870475Y719093D03*
X867929Y712008D03*
X874222Y708068D03*
X860562Y712707D03*
X878532Y702109D03*
X874239Y695924D03*
X879298Y690490D03*
X867304Y698506D03*
X881919Y683619D03*
D13*
X366000Y850500D03*
X375100Y844900D03*
X373000Y855800D03*
X373000Y965000D03*
X344000Y910000D03*
X471000Y910000D03*
X373000Y974000D03*
X364000Y967000D03*
D14*
X411700Y978000D03*
X411700Y974000D03*
X411700Y970000D03*
X411700Y966000D03*
X411700Y962000D03*
X411700Y958000D03*
X411700Y954000D03*
X411700Y950000D03*
X411700Y946000D03*
X411700Y942000D03*
X411700Y938000D03*
X411700Y934000D03*
X411700Y930000D03*
X411700Y926000D03*
X411700Y922000D03*
X411700Y918000D03*
X411700Y914000D03*
X411700Y910000D03*
X411700Y906000D03*
X411700Y902000D03*
X411700Y898000D03*
X411700Y894000D03*
X411700Y890000D03*
X411700Y886000D03*
X411700Y882000D03*
X411700Y878000D03*
X411700Y874000D03*
X411700Y870000D03*
X411700Y866000D03*
X411700Y862000D03*
X411700Y858000D03*
X411700Y854000D03*
X411700Y850000D03*
X411700Y846000D03*
X411700Y842000D03*
X388300Y842000D03*
X388300Y846000D03*
X388300Y850000D03*
X388300Y854000D03*
X388300Y858000D03*
X388300Y862000D03*
X388300Y866000D03*
X388300Y870000D03*
X388300Y874000D03*
X388300Y878000D03*
X388300Y882000D03*
X388300Y886000D03*
X388300Y890000D03*
X388300Y894000D03*
X388300Y898000D03*
X388300Y902000D03*
X388300Y906000D03*
X388300Y910000D03*
X388300Y914000D03*
X388300Y918000D03*
X388300Y922000D03*
X388300Y926000D03*
X388300Y930000D03*
X388300Y934000D03*
X388300Y938000D03*
X388300Y942000D03*
X388300Y946000D03*
X388300Y950000D03*
X388300Y954000D03*
X388300Y958000D03*
X388300Y962000D03*
X388300Y966000D03*
X388300Y970000D03*
X388300Y974000D03*
X388300Y978000D03*
D15*
X346683Y890736D03*
X341346Y895898D03*
X353743Y888520D03*
X338369Y902622D03*
X353826Y875005D03*
X347335Y878609D03*
X361219Y874692D03*
X342719Y884334D03*
X364798Y861658D03*
X357595Y863460D03*
X372020Y863269D03*
X351654Y867795D03*
X428329Y846406D03*
X435565Y844741D03*
X422625Y851120D03*
X442826Y845907D03*
X444164Y853316D03*
X451584Y853581D03*
X437434Y856394D03*
X458296Y856587D03*
X457671Y864090D03*
X464769Y866267D03*
X450374Y865321D03*
X470475Y870907D03*
X467929Y877992D03*
X474222Y881932D03*
X460562Y877293D03*
X478532Y887891D03*
X474239Y894076D03*
X479298Y899510D03*
X467304Y891494D03*
X481919Y906381D03*
X346683Y929264D03*
X341346Y924102D03*
X353743Y931480D03*
X338369Y917378D03*
X353826Y944995D03*
X347335Y941391D03*
X361219Y945308D03*
X342719Y935666D03*
X364798Y958342D03*
X357595Y956540D03*
X372020Y956731D03*
X351654Y952205D03*
X428329Y973594D03*
X435565Y975259D03*
X422625Y968880D03*
X442826Y974093D03*
X444164Y966684D03*
X451584Y966419D03*
X437434Y963606D03*
X458296Y963413D03*
X457671Y955910D03*
X464769Y953733D03*
X450374Y954679D03*
X470475Y949093D03*
X467929Y942008D03*
X474222Y938068D03*
X460562Y942707D03*
X478532Y932109D03*
X474239Y925924D03*
X479298Y920490D03*
X467304Y928506D03*
X481919Y913619D03*
D13*
X566000Y850500D03*
X575100Y844900D03*
X573000Y855800D03*
X573000Y965000D03*
X544000Y910000D03*
X671000Y910000D03*
X573000Y974000D03*
X564000Y967000D03*
D14*
X611700Y978000D03*
X611700Y974000D03*
X611700Y970000D03*
X611700Y966000D03*
X611700Y962000D03*
X611700Y958000D03*
X611700Y954000D03*
X611700Y950000D03*
X611700Y946000D03*
X611700Y942000D03*
X611700Y938000D03*
X611700Y934000D03*
X611700Y930000D03*
X611700Y926000D03*
X611700Y922000D03*
X611700Y918000D03*
X611700Y914000D03*
X611700Y910000D03*
X611700Y906000D03*
X611700Y902000D03*
X611700Y898000D03*
X611700Y894000D03*
X611700Y890000D03*
X611700Y886000D03*
X611700Y882000D03*
X611700Y878000D03*
X611700Y874000D03*
X611700Y870000D03*
X611700Y866000D03*
X611700Y862000D03*
X611700Y858000D03*
X611700Y854000D03*
X611700Y850000D03*
X611700Y846000D03*
X611700Y842000D03*
X588300Y842000D03*
X588300Y846000D03*
X588300Y850000D03*
X588300Y854000D03*
X588300Y858000D03*
X588300Y862000D03*
X588300Y866000D03*
X588300Y870000D03*
X588300Y874000D03*
X588300Y878000D03*
X588300Y882000D03*
X588300Y886000D03*
X588300Y890000D03*
X588300Y894000D03*
X588300Y898000D03*
X588300Y902000D03*
X588300Y906000D03*
X588300Y910000D03*
X588300Y914000D03*
X588300Y918000D03*
X588300Y922000D03*
X588300Y926000D03*
X588300Y930000D03*
X588300Y934000D03*
X588300Y938000D03*
X588300Y942000D03*
X588300Y946000D03*
X588300Y950000D03*
X588300Y954000D03*
X588300Y958000D03*
X588300Y962000D03*
X588300Y966000D03*
X588300Y970000D03*
X588300Y974000D03*
X588300Y978000D03*
D15*
X546683Y890736D03*
X541346Y895898D03*
X553743Y888520D03*
X538369Y902622D03*
X553826Y875005D03*
X547335Y878609D03*
X561219Y874692D03*
X542719Y884334D03*
X564798Y861658D03*
X557595Y863460D03*
X572020Y863269D03*
X551654Y867795D03*
X628329Y846406D03*
X635565Y844741D03*
X622625Y851120D03*
X642826Y845907D03*
X644164Y853316D03*
X651584Y853581D03*
X637434Y856394D03*
X658296Y856587D03*
X657671Y864090D03*
X664769Y866267D03*
X650374Y865321D03*
X670475Y870907D03*
X667929Y877992D03*
X674222Y881932D03*
X660562Y877293D03*
X678532Y887891D03*
X674239Y894076D03*
X679298Y899510D03*
X667304Y891494D03*
X681919Y906381D03*
X546683Y929264D03*
X541346Y924102D03*
X553743Y931480D03*
X538369Y917378D03*
X553826Y944995D03*
X547335Y941391D03*
X561219Y945308D03*
X542719Y935666D03*
X564798Y958342D03*
X557595Y956540D03*
X572020Y956731D03*
X551654Y952205D03*
X628329Y973594D03*
X635565Y975259D03*
X622625Y968880D03*
X642826Y974093D03*
X644164Y966684D03*
X651584Y966419D03*
X637434Y963606D03*
X658296Y963413D03*
X657671Y955910D03*
X664769Y953733D03*
X650374Y954679D03*
X670475Y949093D03*
X667929Y942008D03*
X674222Y938068D03*
X660562Y942707D03*
X678532Y932109D03*
X674239Y925924D03*
X679298Y920490D03*
X667304Y928506D03*
X681919Y913619D03*
D13*
X766000Y850500D03*
X775100Y844900D03*
X773000Y855800D03*
X773000Y965000D03*
X744000Y910000D03*
X871000Y910000D03*
X773000Y974000D03*
X764000Y967000D03*
D14*
X811700Y978000D03*
X811700Y974000D03*
X811700Y970000D03*
X811700Y966000D03*
X811700Y962000D03*
X811700Y958000D03*
X811700Y954000D03*
X811700Y950000D03*
X811700Y946000D03*
X811700Y942000D03*
X811700Y938000D03*
X811700Y934000D03*
X811700Y930000D03*
X811700Y926000D03*
X811700Y922000D03*
X811700Y918000D03*
X811700Y914000D03*
X811700Y910000D03*
X811700Y906000D03*
X811700Y902000D03*
X811700Y898000D03*
X811700Y894000D03*
X811700Y890000D03*
X811700Y886000D03*
X811700Y882000D03*
X811700Y878000D03*
X811700Y874000D03*
X811700Y870000D03*
X811700Y866000D03*
X811700Y862000D03*
X811700Y858000D03*
X811700Y854000D03*
X811700Y850000D03*
X811700Y846000D03*
X811700Y842000D03*
X788300Y842000D03*
X788300Y846000D03*
X788300Y850000D03*
X788300Y854000D03*
X788300Y858000D03*
X788300Y862000D03*
X788300Y866000D03*
X788300Y870000D03*
X788300Y874000D03*
X788300Y878000D03*
X788300Y882000D03*
X788300Y886000D03*
X788300Y890000D03*
X788300Y894000D03*
X788300Y898000D03*
X788300Y902000D03*
X788300Y906000D03*
X788300Y910000D03*
X788300Y914000D03*
X788300Y918000D03*
X788300Y922000D03*
X788300Y926000D03*
X788300Y930000D03*
X788300Y934000D03*
X788300Y938000D03*
X788300Y942000D03*
X788300Y946000D03*
X788300Y950000D03*
X788300Y954000D03*
X788300Y958000D03*
X788300Y962000D03*
X788300Y966000D03*
X788300Y970000D03*
X788300Y974000D03*
X788300Y978000D03*
D15*
X746683Y890736D03*
X741346Y895898D03*
X753743Y888520D03*
X738369Y902622D03*
X753826Y875005D03*
X747335Y878609D03*
X761219Y874692D03*
X742719Y884334D03*
X764798Y861658D03*
X757595Y863460D03*
X772020Y863269D03*
X751654Y867795D03*
X828329Y846406D03*
X835565Y844741D03*
X822625Y851120D03*
X842826Y845907D03*
X844164Y853316D03*
X851584Y853581D03*
X837434Y856394D03*
X858296Y856587D03*
X857671Y864090D03*
X864769Y866267D03*
X850374Y865321D03*
X870475Y870907D03*
X867929Y877992D03*
X874222Y881932D03*
X860562Y877293D03*
X878532Y887891D03*
X874239Y894076D03*
X879298Y899510D03*
X867304Y891494D03*
X881919Y906381D03*
X746683Y929264D03*
X741346Y924102D03*
X753743Y931480D03*
X738369Y917378D03*
X753826Y944995D03*
X747335Y941391D03*
X761219Y945308D03*
X742719Y935666D03*
X764798Y958342D03*
X757595Y956540D03*
X772020Y956731D03*
X751654Y952205D03*
X828329Y973594D03*
X835565Y975259D03*
X822625Y968880D03*
X842826Y974093D03*
X844164Y966684D03*
X851584Y966419D03*
X837434Y963606D03*
X858296Y963413D03*
X857671Y955910D03*
X864769Y953733D03*
X850374Y954679D03*
X870475Y949093D03*
X867929Y942008D03*
X874222Y938068D03*
X860562Y942707D03*
X878532Y932109D03*
X874239Y925924D03*
X879298Y920490D03*
X867304Y928506D03*
X881919Y913619D03*
D13*
X166000Y390500D03*
X175100Y384900D03*
X173000Y395800D03*
X173000Y505000D03*
X144000Y450000D03*
X271000Y450000D03*
X173000Y514000D03*
X164000Y507000D03*
D14*
X211700Y518000D03*
X211700Y514000D03*
X211700Y510000D03*
X211700Y506000D03*
X211700Y502000D03*
X211700Y498000D03*
X211700Y494000D03*
X211700Y490000D03*
X211700Y486000D03*
X211700Y482000D03*
X211700Y478000D03*
X211700Y474000D03*
X211700Y470000D03*
X211700Y466000D03*
X211700Y462000D03*
X211700Y458000D03*
X211700Y454000D03*
X211700Y450000D03*
X211700Y446000D03*
X211700Y442000D03*
X211700Y438000D03*
X211700Y434000D03*
X211700Y430000D03*
X211700Y426000D03*
X211700Y422000D03*
X211700Y418000D03*
X211700Y414000D03*
X211700Y410000D03*
X211700Y406000D03*
X211700Y402000D03*
X211700Y398000D03*
X211700Y394000D03*
X211700Y390000D03*
X211700Y386000D03*
X211700Y382000D03*
X188300Y382000D03*
X188300Y386000D03*
X188300Y390000D03*
X188300Y394000D03*
X188300Y398000D03*
X188300Y402000D03*
X188300Y406000D03*
X188300Y410000D03*
X188300Y414000D03*
X188300Y418000D03*
X188300Y422000D03*
X188300Y426000D03*
X188300Y430000D03*
X188300Y434000D03*
X188300Y438000D03*
X188300Y442000D03*
X188300Y446000D03*
X188300Y450000D03*
X188300Y454000D03*
X188300Y458000D03*
X188300Y462000D03*
X188300Y466000D03*
X188300Y470000D03*
X188300Y474000D03*
X188300Y478000D03*
X188300Y482000D03*
X188300Y486000D03*
X188300Y490000D03*
X188300Y494000D03*
X188300Y498000D03*
X188300Y502000D03*
X188300Y506000D03*
X188300Y510000D03*
X188300Y514000D03*
X188300Y518000D03*
D15*
X146683Y430736D03*
X141346Y435898D03*
X153743Y428520D03*
X138369Y442622D03*
X153826Y415005D03*
X147335Y418609D03*
X161219Y414692D03*
X142719Y424334D03*
X164798Y401658D03*
X157595Y403460D03*
X172020Y403269D03*
X151654Y407795D03*
X228329Y386406D03*
X235565Y384741D03*
X222625Y391120D03*
X242826Y385907D03*
X244164Y393316D03*
X251584Y393581D03*
X237434Y396394D03*
X258296Y396587D03*
X257671Y404090D03*
X264769Y406267D03*
X250374Y405321D03*
X270475Y410907D03*
X267929Y417992D03*
X274222Y421932D03*
X260562Y417293D03*
X278532Y427891D03*
X274239Y434076D03*
X279298Y439510D03*
X267304Y431494D03*
X281919Y446381D03*
X146683Y469264D03*
X141346Y464102D03*
X153743Y471480D03*
X138369Y457378D03*
X153826Y484995D03*
X147335Y481391D03*
X161219Y485308D03*
X142719Y475666D03*
X164798Y498342D03*
X157595Y496540D03*
X172020Y496731D03*
X151654Y492205D03*
X228329Y513594D03*
X235565Y515259D03*
X222625Y508880D03*
X242826Y514093D03*
X244164Y506684D03*
X251584Y506419D03*
X237434Y503606D03*
X258296Y503413D03*
X257671Y495910D03*
X264769Y493733D03*
X250374Y494679D03*
X270475Y489093D03*
X267929Y482008D03*
X274222Y478068D03*
X260562Y482707D03*
X278532Y472109D03*
X274239Y465924D03*
X279298Y460490D03*
X267304Y468506D03*
X281919Y453619D03*
D13*
X166000Y620500D03*
X175100Y614900D03*
X173000Y625800D03*
X173000Y735000D03*
X144000Y680000D03*
X271000Y680000D03*
X173000Y744000D03*
X164000Y737000D03*
D14*
X211700Y748000D03*
X211700Y744000D03*
X211700Y740000D03*
X211700Y736000D03*
X211700Y732000D03*
X211700Y728000D03*
X211700Y724000D03*
X211700Y720000D03*
X211700Y716000D03*
X211700Y712000D03*
X211700Y708000D03*
X211700Y704000D03*
X211700Y700000D03*
X211700Y696000D03*
X211700Y692000D03*
X211700Y688000D03*
X211700Y684000D03*
X211700Y680000D03*
X211700Y676000D03*
X211700Y672000D03*
X211700Y668000D03*
X211700Y664000D03*
X211700Y660000D03*
X211700Y656000D03*
X211700Y652000D03*
X211700Y648000D03*
X211700Y644000D03*
X211700Y640000D03*
X211700Y636000D03*
X211700Y632000D03*
X211700Y628000D03*
X211700Y624000D03*
X211700Y620000D03*
X211700Y616000D03*
X211700Y612000D03*
X188300Y612000D03*
X188300Y616000D03*
X188300Y620000D03*
X188300Y624000D03*
X188300Y628000D03*
X188300Y632000D03*
X188300Y636000D03*
X188300Y640000D03*
X188300Y644000D03*
X188300Y648000D03*
X188300Y652000D03*
X188300Y656000D03*
X188300Y660000D03*
X188300Y664000D03*
X188300Y668000D03*
X188300Y672000D03*
X188300Y676000D03*
X188300Y680000D03*
X188300Y684000D03*
X188300Y688000D03*
X188300Y692000D03*
X188300Y696000D03*
X188300Y700000D03*
X188300Y704000D03*
X188300Y708000D03*
X188300Y712000D03*
X188300Y716000D03*
X188300Y720000D03*
X188300Y724000D03*
X188300Y728000D03*
X188300Y732000D03*
X188300Y736000D03*
X188300Y740000D03*
X188300Y744000D03*
X188300Y748000D03*
D15*
X146683Y660736D03*
X141346Y665898D03*
X153743Y658520D03*
X138369Y672622D03*
X153826Y645005D03*
X147335Y648609D03*
X161219Y644692D03*
X142719Y654334D03*
X164798Y631658D03*
X157595Y633460D03*
X172020Y633269D03*
X151654Y637795D03*
X228329Y616406D03*
X235565Y614741D03*
X222625Y621120D03*
X242826Y615907D03*
X244164Y623316D03*
X251584Y623581D03*
X237434Y626394D03*
X258296Y626587D03*
X257671Y634090D03*
X264769Y636267D03*
X250374Y635321D03*
X270475Y640907D03*
X267929Y647992D03*
X274222Y651932D03*
X260562Y647293D03*
X278532Y657891D03*
X274239Y664076D03*
X279298Y669510D03*
X267304Y661494D03*
X281919Y676381D03*
X146683Y699264D03*
X141346Y694102D03*
X153743Y701480D03*
X138369Y687378D03*
X153826Y714995D03*
X147335Y711391D03*
X161219Y715308D03*
X142719Y705666D03*
X164798Y728342D03*
X157595Y726540D03*
X172020Y726731D03*
X151654Y722205D03*
X228329Y743594D03*
X235565Y745259D03*
X222625Y738880D03*
X242826Y744093D03*
X244164Y736684D03*
X251584Y736419D03*
X237434Y733606D03*
X258296Y733413D03*
X257671Y725910D03*
X264769Y723733D03*
X250374Y724679D03*
X270475Y719093D03*
X267929Y712008D03*
X274222Y708068D03*
X260562Y712707D03*
X278532Y702109D03*
X274239Y695924D03*
X279298Y690490D03*
X267304Y698506D03*
X281919Y683619D03*
D13*
X166000Y850500D03*
X175100Y844900D03*
X173000Y855800D03*
X173000Y965000D03*
X144000Y910000D03*
X271000Y910000D03*
X173000Y974000D03*
X164000Y967000D03*
D14*
X211700Y978000D03*
X211700Y974000D03*
X211700Y970000D03*
X211700Y966000D03*
X211700Y962000D03*
X211700Y958000D03*
X211700Y954000D03*
X211700Y950000D03*
X211700Y946000D03*
X211700Y942000D03*
X211700Y938000D03*
X211700Y934000D03*
X211700Y930000D03*
X211700Y926000D03*
X211700Y922000D03*
X211700Y918000D03*
X211700Y914000D03*
X211700Y910000D03*
X211700Y906000D03*
X211700Y902000D03*
X211700Y898000D03*
X211700Y894000D03*
X211700Y890000D03*
X211700Y886000D03*
X211700Y882000D03*
X211700Y878000D03*
X211700Y874000D03*
X211700Y870000D03*
X211700Y866000D03*
X211700Y862000D03*
X211700Y858000D03*
X211700Y854000D03*
X211700Y850000D03*
X211700Y846000D03*
X211700Y842000D03*
X188300Y842000D03*
X188300Y846000D03*
X188300Y850000D03*
X188300Y854000D03*
X188300Y858000D03*
X188300Y862000D03*
X188300Y866000D03*
X188300Y870000D03*
X188300Y874000D03*
X188300Y878000D03*
X188300Y882000D03*
X188300Y886000D03*
X188300Y890000D03*
X188300Y894000D03*
X188300Y898000D03*
X188300Y902000D03*
X188300Y906000D03*
X188300Y910000D03*
X188300Y914000D03*
X188300Y918000D03*
X188300Y922000D03*
X188300Y926000D03*
X188300Y930000D03*
X188300Y934000D03*
X188300Y938000D03*
X188300Y942000D03*
X188300Y946000D03*
X188300Y950000D03*
X188300Y954000D03*
X188300Y958000D03*
X188300Y962000D03*
X188300Y966000D03*
X188300Y970000D03*
X188300Y974000D03*
X188300Y978000D03*
D15*
X146683Y890736D03*
X141346Y895898D03*
X153743Y888520D03*
X138369Y902622D03*
X153826Y875005D03*
X147335Y878609D03*
X161219Y874692D03*
X142719Y884334D03*
X164798Y861658D03*
X157595Y863460D03*
X172020Y863269D03*
X151654Y867795D03*
X228329Y846406D03*
X235565Y844741D03*
X222625Y851120D03*
X242826Y845907D03*
X244164Y853316D03*
X251584Y853581D03*
X237434Y856394D03*
X258296Y856587D03*
X257671Y864090D03*
X264769Y866267D03*
X250374Y865321D03*
X270475Y870907D03*
X267929Y877992D03*
X274222Y881932D03*
X260562Y877293D03*
X278532Y887891D03*
X274239Y894076D03*
X279298Y899510D03*
X267304Y891494D03*
X281919Y906381D03*
X146683Y929264D03*
X141346Y924102D03*
X153743Y931480D03*
X138369Y917378D03*
X153826Y944995D03*
X147335Y941391D03*
X161219Y945308D03*
X142719Y935666D03*
X164798Y958342D03*
X157595Y956540D03*
X172020Y956731D03*
X151654Y952205D03*
X228329Y973594D03*
X235565Y975259D03*
X222625Y968880D03*
X242826Y974093D03*
X244164Y966684D03*
X251584Y966419D03*
X237434Y963606D03*
X258296Y963413D03*
X257671Y955910D03*
X264769Y953733D03*
X250374Y954679D03*
X270475Y949093D03*
X267929Y942008D03*
X274222Y938068D03*
X260562Y942707D03*
X278532Y932109D03*
X274239Y925924D03*
X279298Y920490D03*
X267304Y928506D03*
X281919Y913619D03*
M02*
